<svg width="277" height="45" viewBox="0 0 277 45" fill="none" xmlns="http://www.w3.org/2000/svg">
<path d="M256.622 11.7351C256.948 11.423 257.39 11.2477 257.85 11.2477C258.31 11.2477 258.752 11.423 259.078 11.7351L268.922 21.1796C269.247 21.4921 269.43 21.9157 269.43 22.3574C269.43 22.7991 269.247 23.2227 268.922 23.5352L259.078 32.9797C258.748 33.2744 258.313 33.435 257.862 33.4275C257.412 33.4201 256.983 33.2452 256.664 32.9397C256.346 32.6342 256.163 32.2219 256.156 31.79C256.148 31.358 256.315 30.94 256.622 30.6241L263.502 24.0241H246.268C245.808 24.0241 245.366 23.8485 245.04 23.5359C244.714 23.2233 244.531 22.7994 244.531 22.3574C244.531 21.9154 244.714 21.4914 245.04 21.1789C245.366 20.8663 245.808 20.6907 246.268 20.6907H263.502L256.622 14.0907C256.297 13.7782 256.114 13.3546 256.114 12.9129C256.114 12.4712 256.297 12.0476 256.622 11.7351Z" fill="#B9AA46"/>
<path d="M20.916 24.8507C20.916 25.2999 20.8542 25.7068 20.7305 26.0714C20.6068 26.436 20.4342 26.7583 20.2129 27.0382C19.998 27.3182 19.7376 27.559 19.4316 27.7609C19.1322 27.9627 18.8001 28.1287 18.4355 28.2589C18.071 28.3891 17.6803 28.4868 17.2637 28.5519C16.8535 28.6105 16.3945 28.6398 15.8867 28.6398H12.5273C12.3125 28.6398 12.1302 28.5779 11.9805 28.4542C11.8372 28.324 11.7656 28.1157 11.7656 27.8292V16.8136C11.7656 16.5271 11.8372 16.3221 11.9805 16.1984C12.1302 16.0682 12.3125 16.0031 12.5273 16.0031H15.7012C16.4759 16.0031 17.1302 16.0682 17.6641 16.1984C18.2044 16.3286 18.6569 16.5271 19.0215 16.7941C19.3926 17.0545 19.6758 17.3865 19.8711 17.7902C20.0664 18.1938 20.1641 18.6691 20.1641 19.2159C20.1641 19.5219 20.125 19.8116 20.0469 20.0851C19.9688 20.352 19.8548 20.5962 19.7051 20.8175C19.5553 21.0389 19.3698 21.2342 19.1484 21.4034C18.9336 21.5727 18.6862 21.7094 18.4062 21.8136C18.7643 21.8787 19.0931 21.9926 19.3926 22.1554C19.6986 22.3182 19.9622 22.5297 20.1836 22.7902C20.4115 23.0441 20.5905 23.3435 20.7207 23.6886C20.8509 24.0337 20.916 24.421 20.916 24.8507ZM17.5957 19.5284C17.5957 19.2745 17.5566 19.0467 17.4785 18.8448C17.4004 18.643 17.2832 18.477 17.127 18.3468C16.9707 18.2101 16.7721 18.1059 16.5312 18.0343C16.2969 17.9627 15.9811 17.9269 15.584 17.9269H14.2852V21.2081H15.7207C16.0918 21.2081 16.388 21.1658 16.6094 21.0812C16.8307 20.99 17.013 20.8696 17.1562 20.7198C17.306 20.5636 17.4167 20.3846 17.4883 20.1827C17.5599 19.9744 17.5957 19.7563 17.5957 19.5284ZM18.25 24.9386C18.25 24.6456 18.2012 24.3852 18.1035 24.1573C18.0059 23.923 17.8626 23.7277 17.6738 23.5714C17.485 23.4152 17.2441 23.2947 16.9512 23.2101C16.6582 23.1254 16.2773 23.0831 15.8086 23.0831H14.2852V26.6769H16.1406C16.4987 26.6769 16.7982 26.6411 17.0391 26.5695C17.2865 26.4913 17.498 26.3807 17.6738 26.2374C17.8561 26.0877 17.9961 25.9054 18.0938 25.6906C18.1979 25.4692 18.25 25.2185 18.25 24.9386ZM28.4258 20.4073C28.4258 20.6417 28.4193 20.8338 28.4062 20.9835C28.3932 21.1333 28.3737 21.2504 28.3477 21.3351C28.3216 21.4197 28.2858 21.4783 28.2402 21.5109C28.2012 21.5434 28.1491 21.5597 28.084 21.5597C28.0319 21.5597 27.9733 21.5499 27.9082 21.5304C27.8431 21.5044 27.7682 21.4783 27.6836 21.4523C27.6055 21.4262 27.5176 21.4034 27.4199 21.3839C27.3223 21.3579 27.2148 21.3448 27.0977 21.3448C26.9609 21.3448 26.8242 21.3741 26.6875 21.4327C26.5508 21.4848 26.4076 21.5695 26.2578 21.6866C26.1146 21.8038 25.9616 21.9601 25.7988 22.1554C25.6426 22.3507 25.4733 22.5916 25.291 22.8781V28.3077C25.291 28.3728 25.2715 28.4314 25.2324 28.4835C25.1934 28.5291 25.125 28.5682 25.0273 28.6007C24.9362 28.6333 24.8125 28.656 24.6562 28.6691C24.5 28.6886 24.3014 28.6984 24.0605 28.6984C23.8197 28.6984 23.6211 28.6886 23.4648 28.6691C23.3086 28.656 23.1816 28.6333 23.084 28.6007C22.9928 28.5682 22.9277 28.5291 22.8887 28.4835C22.8496 28.4314 22.8301 28.3728 22.8301 28.3077V19.5968C22.8301 19.5317 22.8464 19.4764 22.8789 19.4308C22.9115 19.3787 22.9701 19.3364 23.0547 19.3038C23.1393 19.2713 23.2467 19.2485 23.377 19.2355C23.5137 19.2159 23.6829 19.2062 23.8848 19.2062C24.0931 19.2062 24.2656 19.2159 24.4023 19.2355C24.5391 19.2485 24.6432 19.2713 24.7148 19.3038C24.793 19.3364 24.8483 19.3787 24.8809 19.4308C24.9134 19.4764 24.9297 19.5317 24.9297 19.5968V20.6808C25.1576 20.3553 25.3724 20.0883 25.5742 19.88C25.776 19.6652 25.9681 19.4959 26.1504 19.3722C26.3327 19.2485 26.515 19.1639 26.6973 19.1183C26.8796 19.0662 27.0618 19.0402 27.2441 19.0402C27.3288 19.0402 27.4199 19.0467 27.5176 19.0597C27.6152 19.0662 27.7161 19.0825 27.8203 19.1085C27.9245 19.1281 28.0156 19.1541 28.0938 19.1866C28.1719 19.2127 28.2272 19.242 28.2598 19.2745C28.2988 19.3071 28.3249 19.3429 28.3379 19.382C28.3574 19.421 28.3737 19.4764 28.3867 19.548C28.3997 19.6131 28.4095 19.714 28.416 19.8507C28.4225 19.9874 28.4258 20.173 28.4258 20.4073ZM38.4941 23.8644C38.4941 24.6066 38.3965 25.2837 38.2012 25.8956C38.0059 26.5076 37.7096 27.035 37.3125 27.4777C36.9154 27.9204 36.4173 28.2622 35.8184 28.5031C35.2194 28.7439 34.5195 28.8644 33.7188 28.8644C32.944 28.8644 32.2702 28.757 31.6973 28.5421C31.1243 28.3273 30.6491 28.0148 30.2715 27.6046C29.8939 27.1945 29.6139 26.6899 29.4316 26.0909C29.2493 25.492 29.1582 24.8084 29.1582 24.0402C29.1582 23.298 29.2559 22.6209 29.4512 22.0089C29.653 21.3904 29.9525 20.8631 30.3496 20.4269C30.7467 19.9842 31.2415 19.6424 31.834 19.4015C32.4329 19.1606 33.1328 19.0402 33.9336 19.0402C34.7148 19.0402 35.3919 19.1476 35.9648 19.3624C36.5378 19.5708 37.0098 19.88 37.3809 20.2902C37.7585 20.7003 38.0384 21.2049 38.2207 21.8038C38.403 22.4028 38.4941 23.0896 38.4941 23.8644ZM35.9648 23.962C35.9648 23.5323 35.929 23.1385 35.8574 22.7804C35.7923 22.4158 35.6784 22.1001 35.5156 21.8331C35.3529 21.5662 35.1348 21.3579 34.8613 21.2081C34.5944 21.0584 34.2559 20.9835 33.8457 20.9835C33.4811 20.9835 33.1621 21.0519 32.8887 21.1886C32.6152 21.3188 32.3906 21.5141 32.2148 21.7745C32.0391 22.0284 31.9056 22.3377 31.8145 22.7023C31.7298 23.0603 31.6875 23.4705 31.6875 23.9327C31.6875 24.3624 31.7233 24.7596 31.7949 25.1241C31.8665 25.4822 31.9805 25.7947 32.1367 26.0616C32.2995 26.3286 32.5176 26.5369 32.791 26.6866C33.0645 26.8299 33.403 26.9015 33.8066 26.9015C34.1777 26.9015 34.5 26.8364 34.7734 26.7062C35.0469 26.5695 35.2715 26.3741 35.4473 26.1202C35.623 25.8663 35.7533 25.5603 35.8379 25.2023C35.9225 24.8377 35.9648 24.4243 35.9648 23.962ZM53.7383 19.5773C53.7383 19.6489 53.7285 19.7368 53.709 19.8409C53.6895 19.9451 53.6536 20.0948 53.6016 20.2902L51.2773 28.171C51.2448 28.2817 51.2025 28.3728 51.1504 28.4445C51.0983 28.5096 51.0169 28.5616 50.9062 28.6007C50.8021 28.6398 50.6491 28.6658 50.4473 28.6788C50.252 28.6919 49.9948 28.6984 49.6758 28.6984C49.3568 28.6984 49.0964 28.6886 48.8945 28.6691C48.6927 28.656 48.5332 28.63 48.416 28.5909C48.3053 28.5519 48.224 28.4998 48.1719 28.4347C48.1198 28.3631 48.0807 28.2752 48.0547 28.171L46.5898 22.8781L46.5703 22.7902L46.5508 22.8781L45.2031 28.171C45.1771 28.2817 45.138 28.3728 45.0859 28.4445C45.0404 28.5096 44.959 28.5616 44.8418 28.6007C44.7246 28.6398 44.5651 28.6658 44.3633 28.6788C44.1615 28.6919 43.901 28.6984 43.582 28.6984C43.2565 28.6984 42.9928 28.6886 42.791 28.6691C42.5957 28.656 42.4395 28.63 42.3223 28.5909C42.2116 28.5519 42.1302 28.4998 42.0781 28.4347C42.026 28.3631 41.987 28.2752 41.9609 28.171L39.6562 20.2902C39.5977 20.1014 39.5586 19.9549 39.5391 19.8507C39.526 19.74 39.5195 19.6489 39.5195 19.5773C39.5195 19.5122 39.5358 19.4568 39.5684 19.4113C39.6074 19.3592 39.6725 19.3201 39.7637 19.2941C39.8613 19.2615 39.9883 19.2387 40.1445 19.2257C40.3073 19.2127 40.5091 19.2062 40.75 19.2062C41.0104 19.2062 41.222 19.2127 41.3848 19.2257C41.5475 19.2387 41.6745 19.2615 41.7656 19.2941C41.8568 19.3266 41.9186 19.3722 41.9512 19.4308C41.9902 19.4829 42.0195 19.548 42.0391 19.6261L43.7676 26.0226L43.7871 26.1398L43.8066 26.0226L45.4277 19.6261C45.4473 19.548 45.4766 19.4829 45.5156 19.4308C45.5612 19.3722 45.6263 19.3266 45.7109 19.2941C45.7956 19.2615 45.9128 19.2387 46.0625 19.2257C46.2188 19.2127 46.4173 19.2062 46.6582 19.2062C46.8991 19.2062 47.0944 19.2159 47.2441 19.2355C47.3939 19.2485 47.5111 19.2713 47.5957 19.3038C47.6868 19.3299 47.7487 19.3689 47.7812 19.421C47.8203 19.4666 47.8496 19.5219 47.8691 19.587L49.6074 26.0323L49.6367 26.1398L49.6562 26.0226L51.3164 19.6261C51.3294 19.548 51.3555 19.4829 51.3945 19.4308C51.4336 19.3722 51.4987 19.3266 51.5898 19.2941C51.681 19.2615 51.8047 19.2387 51.9609 19.2257C52.1172 19.2127 52.3158 19.2062 52.5566 19.2062C52.7975 19.2062 52.9928 19.2127 53.1426 19.2257C53.2988 19.2387 53.4193 19.2615 53.5039 19.2941C53.5951 19.3201 53.6569 19.3592 53.6895 19.4113C53.722 19.4568 53.7383 19.5122 53.7383 19.5773ZM61.3066 25.8468C61.3066 26.3416 61.2122 26.7778 61.0234 27.1554C60.8411 27.533 60.5807 27.8488 60.2422 28.1027C59.9036 28.3566 59.5033 28.5454 59.041 28.6691C58.5788 28.7993 58.0775 28.8644 57.5371 28.8644C57.2116 28.8644 56.8991 28.8383 56.5996 28.7863C56.3066 28.7407 56.043 28.6821 55.8086 28.6105C55.5742 28.5323 55.3789 28.4542 55.2227 28.3761C55.0664 28.298 54.9525 28.2264 54.8809 28.1613C54.8092 28.0896 54.7539 27.9822 54.7148 27.839C54.6758 27.6892 54.6562 27.4712 54.6562 27.1847C54.6562 26.9959 54.6628 26.8462 54.6758 26.7355C54.6888 26.6183 54.7083 26.5271 54.7344 26.462C54.7604 26.3904 54.793 26.3448 54.832 26.3253C54.8711 26.2993 54.9199 26.2863 54.9785 26.2863C55.0501 26.2863 55.1543 26.3286 55.291 26.4132C55.4342 26.4913 55.61 26.5792 55.8184 26.6769C56.0267 26.7745 56.2676 26.8657 56.541 26.9503C56.821 27.035 57.1367 27.0773 57.4883 27.0773C57.7096 27.0773 57.9049 27.0545 58.0742 27.0089C58.25 26.9633 58.3997 26.8982 58.5234 26.8136C58.6536 26.729 58.7513 26.6215 58.8164 26.4913C58.8815 26.3611 58.9141 26.2114 58.9141 26.0421C58.9141 25.8468 58.8522 25.6808 58.7285 25.5441C58.6113 25.4008 58.4518 25.2771 58.25 25.173C58.0547 25.0688 57.8301 24.9712 57.5762 24.88C57.3288 24.7889 57.0716 24.6879 56.8047 24.5773C56.5443 24.4666 56.2871 24.3396 56.0332 24.1964C55.7858 24.0532 55.5612 23.8774 55.3594 23.6691C55.1641 23.4607 55.0046 23.2101 54.8809 22.9171C54.7637 22.6241 54.7051 22.2726 54.7051 21.8624C54.7051 21.4458 54.7865 21.0649 54.9492 20.7198C55.112 20.3683 55.3464 20.0688 55.6523 19.8214C55.9583 19.574 56.3294 19.382 56.7656 19.2452C57.2083 19.1085 57.7031 19.0402 58.25 19.0402C58.5234 19.0402 58.7871 19.0597 59.041 19.0988C59.3014 19.1378 59.5358 19.1866 59.7441 19.2452C59.9525 19.3038 60.1283 19.3689 60.2715 19.4406C60.4147 19.5057 60.5156 19.5642 60.5742 19.6163C60.6393 19.6619 60.6849 19.7107 60.7109 19.7628C60.737 19.8084 60.7565 19.867 60.7695 19.9386C60.7826 20.0037 60.7923 20.0883 60.7988 20.1925C60.8118 20.2902 60.8184 20.4139 60.8184 20.5636C60.8184 20.7394 60.8118 20.8826 60.7988 20.9933C60.7923 21.104 60.776 21.1919 60.75 21.257C60.7305 21.3221 60.7012 21.3676 60.6621 21.3937C60.623 21.4132 60.5775 21.423 60.5254 21.423C60.4668 21.423 60.3757 21.3904 60.252 21.3253C60.1283 21.2537 59.972 21.1788 59.7832 21.1007C59.6009 21.0226 59.3861 20.951 59.1387 20.8859C58.8978 20.8142 58.6211 20.7784 58.3086 20.7784C58.0872 20.7784 57.8952 20.8012 57.7324 20.8468C57.5697 20.8924 57.4362 20.9575 57.332 21.0421C57.2279 21.1267 57.1497 21.2277 57.0977 21.3448C57.0456 21.4555 57.0195 21.576 57.0195 21.7062C57.0195 21.908 57.0814 22.0773 57.2051 22.214C57.3288 22.3507 57.4915 22.4712 57.6934 22.5753C57.8952 22.6795 58.123 22.7771 58.377 22.8683C58.6374 22.9594 58.8978 23.0603 59.1582 23.171C59.4251 23.2752 59.6855 23.3989 59.9395 23.5421C60.1999 23.6853 60.431 23.8611 60.6328 24.0695C60.8346 24.2778 60.9974 24.5284 61.1211 24.8214C61.2448 25.1079 61.3066 25.4497 61.3066 25.8468ZM71.209 23.6984C71.209 23.9978 71.1406 24.2192 71.0039 24.3624C70.8737 24.5057 70.6914 24.5773 70.457 24.5773H65.1543C65.1543 24.9484 65.1966 25.2869 65.2812 25.5929C65.3724 25.8924 65.5124 26.1495 65.7012 26.3644C65.8965 26.5727 66.1439 26.7322 66.4434 26.8429C66.7493 26.9536 67.1139 27.0089 67.5371 27.0089C67.9668 27.0089 68.3444 26.9796 68.6699 26.921C68.9954 26.8559 69.2754 26.7876 69.5098 26.7159C69.7507 26.6378 69.9492 26.5695 70.1055 26.5109C70.2617 26.4458 70.3887 26.4132 70.4863 26.4132C70.5449 26.4132 70.5938 26.4262 70.6328 26.4523C70.6719 26.4718 70.7044 26.5109 70.7305 26.5695C70.7565 26.6281 70.7728 26.7127 70.7793 26.8234C70.7923 26.9275 70.7988 27.061 70.7988 27.2238C70.7988 27.367 70.7956 27.4907 70.7891 27.5948C70.7826 27.6925 70.7728 27.7771 70.7598 27.8488C70.7467 27.9204 70.7272 27.9822 70.7012 28.0343C70.6751 28.0799 70.6393 28.1254 70.5938 28.171C70.5547 28.2166 70.4408 28.2784 70.252 28.3566C70.0632 28.4347 69.8223 28.5128 69.5293 28.5909C69.2363 28.6626 68.901 28.7244 68.5234 28.7765C68.1458 28.8351 67.7422 28.8644 67.3125 28.8644C66.5378 28.8644 65.8574 28.7667 65.2715 28.5714C64.6921 28.3761 64.207 28.0799 63.8164 27.6827C63.4258 27.2856 63.1328 26.7843 62.9375 26.1788C62.7487 25.5734 62.6543 24.8637 62.6543 24.0499C62.6543 23.2752 62.7552 22.5786 62.957 21.9601C63.1589 21.3351 63.4518 20.8077 63.8359 20.3781C64.2201 19.9419 64.6855 19.6098 65.2324 19.382C65.7858 19.1541 66.4076 19.0402 67.0977 19.0402C67.8268 19.0402 68.4486 19.1476 68.9629 19.3624C69.4837 19.5773 69.9102 19.8767 70.2422 20.2609C70.5742 20.6385 70.8184 21.0877 70.9746 21.6085C71.1309 22.1294 71.209 22.6958 71.209 23.3077V23.6984ZM68.8262 22.9952C68.8457 22.3051 68.7057 21.7648 68.4062 21.3741C68.1133 20.977 67.6576 20.7784 67.0391 20.7784C66.7266 20.7784 66.4531 20.837 66.2188 20.9542C65.9909 21.0714 65.7988 21.2309 65.6426 21.4327C65.4928 21.6281 65.3757 21.8624 65.291 22.1359C65.2129 22.4028 65.1673 22.6892 65.1543 22.9952H68.8262ZM85.1934 28.337C85.1934 28.4282 85.1608 28.4998 85.0957 28.5519C85.0306 28.604 84.9264 28.6398 84.7832 28.6593C84.6465 28.6853 84.4414 28.6984 84.168 28.6984C83.875 28.6984 83.6602 28.6853 83.5234 28.6593C83.3932 28.6398 83.2988 28.604 83.2402 28.5519C83.1882 28.4998 83.1621 28.4282 83.1621 28.337V27.6437C82.804 28.0278 82.3939 28.3273 81.9316 28.5421C81.4759 28.757 80.9681 28.8644 80.4082 28.8644C79.946 28.8644 79.5195 28.8025 79.1289 28.6788C78.7448 28.5616 78.4095 28.3859 78.123 28.1515C77.8431 27.9106 77.625 27.6144 77.4688 27.2628C77.3125 26.9113 77.2344 26.5011 77.2344 26.0323C77.2344 25.5245 77.332 25.0851 77.5273 24.714C77.7292 24.3364 78.0254 24.0271 78.416 23.7863C78.8132 23.5389 79.3047 23.3566 79.8906 23.2394C80.4766 23.1222 81.1569 23.0636 81.9316 23.0636H82.7812V22.5363C82.7812 22.2628 82.752 22.0252 82.6934 21.8234C82.6413 21.615 82.5501 21.4425 82.4199 21.3058C82.2962 21.1691 82.127 21.0682 81.9121 21.0031C81.7038 20.9379 81.4434 20.9054 81.1309 20.9054C80.7207 20.9054 80.3529 20.951 80.0273 21.0421C79.7083 21.1333 79.4251 21.2342 79.1777 21.3448C78.9303 21.4555 78.722 21.5564 78.5527 21.6476C78.39 21.7387 78.2565 21.7843 78.1523 21.7843C78.0807 21.7843 78.0156 21.7615 77.957 21.7159C77.9049 21.6704 77.8594 21.6053 77.8203 21.5206C77.7878 21.436 77.7617 21.3318 77.7422 21.2081C77.7227 21.0844 77.7129 20.9477 77.7129 20.798C77.7129 20.5962 77.7292 20.4366 77.7617 20.3195C77.7943 20.2023 77.8561 20.0981 77.9473 20.007C78.0384 19.9093 78.1979 19.8051 78.4258 19.6945C78.6536 19.5773 78.9206 19.4698 79.2266 19.3722C79.5326 19.2745 79.8646 19.1964 80.2227 19.1378C80.5872 19.0727 80.9616 19.0402 81.3457 19.0402C82.0293 19.0402 82.612 19.1085 83.0938 19.2452C83.582 19.3754 83.9824 19.5805 84.2949 19.8605C84.6074 20.1339 84.8353 20.4887 84.9785 20.9249C85.1217 21.3611 85.1934 21.8787 85.1934 22.4777V28.337ZM82.7812 24.6066H81.8438C81.4466 24.6066 81.1081 24.6359 80.8281 24.6945C80.5482 24.7531 80.3203 24.8409 80.1445 24.9581C79.9688 25.0753 79.8385 25.2185 79.7539 25.3878C79.6758 25.5506 79.6367 25.7394 79.6367 25.9542C79.6367 26.3188 79.7507 26.6053 79.9785 26.8136C80.2129 27.0219 80.5352 27.1261 80.9453 27.1261C81.2904 27.1261 81.6061 27.0382 81.8926 26.8624C82.1855 26.6866 82.4818 26.4295 82.7812 26.0909V24.6066ZM100.203 19.587C100.203 19.6196 100.2 19.6587 100.193 19.7042C100.193 19.7498 100.187 19.8019 100.174 19.8605C100.167 19.9126 100.154 19.9744 100.135 20.046C100.122 20.1176 100.102 20.199 100.076 20.2902L97.459 28.171C97.4264 28.2817 97.3809 28.3728 97.3223 28.4445C97.2702 28.5096 97.179 28.5616 97.0488 28.6007C96.9251 28.6398 96.7526 28.6658 96.5312 28.6788C96.3164 28.6919 96.0332 28.6984 95.6816 28.6984C95.3366 28.6984 95.0534 28.6886 94.832 28.6691C94.6172 28.656 94.4479 28.63 94.3242 28.5909C94.2005 28.5519 94.1094 28.4998 94.0508 28.4347C93.9987 28.3631 93.9564 28.2752 93.9238 28.171L91.3066 20.2902C91.2676 20.16 91.235 20.0428 91.209 19.9386C91.1895 19.8344 91.1764 19.7596 91.1699 19.714C91.1699 19.6684 91.1699 19.6261 91.1699 19.587C91.1699 19.5219 91.1862 19.4666 91.2188 19.421C91.2578 19.3689 91.3229 19.3266 91.4141 19.2941C91.5052 19.2615 91.6289 19.2387 91.7852 19.2257C91.9479 19.2127 92.1497 19.2062 92.3906 19.2062C92.6576 19.2062 92.8724 19.2159 93.0352 19.2355C93.1979 19.2485 93.3249 19.2713 93.416 19.3038C93.5137 19.3299 93.582 19.3722 93.6211 19.4308C93.6602 19.4829 93.6927 19.548 93.7188 19.6261L95.7012 26.0226L95.7598 26.2667L95.8184 26.0226L97.7715 19.6261C97.791 19.548 97.8203 19.4829 97.8594 19.4308C97.9049 19.3722 97.9733 19.3299 98.0645 19.3038C98.1556 19.2713 98.276 19.2485 98.4258 19.2355C98.582 19.2159 98.7839 19.2062 99.0312 19.2062C99.2721 19.2062 99.4674 19.2127 99.6172 19.2257C99.7734 19.2387 99.8939 19.2615 99.9785 19.2941C100.063 19.3266 100.122 19.3689 100.154 19.421C100.187 19.4666 100.203 19.5219 100.203 19.587ZM108.787 28.337C108.787 28.4282 108.755 28.4998 108.689 28.5519C108.624 28.604 108.52 28.6398 108.377 28.6593C108.24 28.6853 108.035 28.6984 107.762 28.6984C107.469 28.6984 107.254 28.6853 107.117 28.6593C106.987 28.6398 106.893 28.604 106.834 28.5519C106.782 28.4998 106.756 28.4282 106.756 28.337V27.6437C106.398 28.0278 105.988 28.3273 105.525 28.5421C105.07 28.757 104.562 28.8644 104.002 28.8644C103.54 28.8644 103.113 28.8025 102.723 28.6788C102.339 28.5616 102.003 28.3859 101.717 28.1515C101.437 27.9106 101.219 27.6144 101.062 27.2628C100.906 26.9113 100.828 26.5011 100.828 26.0323C100.828 25.5245 100.926 25.0851 101.121 24.714C101.323 24.3364 101.619 24.0271 102.01 23.7863C102.407 23.5389 102.898 23.3566 103.484 23.2394C104.07 23.1222 104.751 23.0636 105.525 23.0636H106.375V22.5363C106.375 22.2628 106.346 22.0252 106.287 21.8234C106.235 21.615 106.144 21.4425 106.014 21.3058C105.89 21.1691 105.721 21.0682 105.506 21.0031C105.298 20.9379 105.037 20.9054 104.725 20.9054C104.314 20.9054 103.947 20.951 103.621 21.0421C103.302 21.1333 103.019 21.2342 102.771 21.3448C102.524 21.4555 102.316 21.5564 102.146 21.6476C101.984 21.7387 101.85 21.7843 101.746 21.7843C101.674 21.7843 101.609 21.7615 101.551 21.7159C101.499 21.6704 101.453 21.6053 101.414 21.5206C101.382 21.436 101.355 21.3318 101.336 21.2081C101.316 21.0844 101.307 20.9477 101.307 20.798C101.307 20.5962 101.323 20.4366 101.355 20.3195C101.388 20.2023 101.45 20.0981 101.541 20.007C101.632 19.9093 101.792 19.8051 102.02 19.6945C102.247 19.5773 102.514 19.4698 102.82 19.3722C103.126 19.2745 103.458 19.1964 103.816 19.1378C104.181 19.0727 104.555 19.0402 104.939 19.0402C105.623 19.0402 106.206 19.1085 106.688 19.2452C107.176 19.3754 107.576 19.5805 107.889 19.8605C108.201 20.1339 108.429 20.4887 108.572 20.9249C108.715 21.3611 108.787 21.8787 108.787 22.4777V28.337ZM106.375 24.6066H105.438C105.04 24.6066 104.702 24.6359 104.422 24.6945C104.142 24.7531 103.914 24.8409 103.738 24.9581C103.562 25.0753 103.432 25.2185 103.348 25.3878C103.27 25.5506 103.23 25.7394 103.23 25.9542C103.23 26.3188 103.344 26.6053 103.572 26.8136C103.807 27.0219 104.129 27.1261 104.539 27.1261C104.884 27.1261 105.2 27.0382 105.486 26.8624C105.779 26.6866 106.076 26.4295 106.375 26.0909V24.6066ZM116.844 20.4073C116.844 20.6417 116.837 20.8338 116.824 20.9835C116.811 21.1333 116.792 21.2504 116.766 21.3351C116.74 21.4197 116.704 21.4783 116.658 21.5109C116.619 21.5434 116.567 21.5597 116.502 21.5597C116.45 21.5597 116.391 21.5499 116.326 21.5304C116.261 21.5044 116.186 21.4783 116.102 21.4523C116.023 21.4262 115.936 21.4034 115.838 21.3839C115.74 21.3579 115.633 21.3448 115.516 21.3448C115.379 21.3448 115.242 21.3741 115.105 21.4327C114.969 21.4848 114.826 21.5695 114.676 21.6866C114.533 21.8038 114.38 21.9601 114.217 22.1554C114.061 22.3507 113.891 22.5916 113.709 22.8781V28.3077C113.709 28.3728 113.689 28.4314 113.65 28.4835C113.611 28.5291 113.543 28.5682 113.445 28.6007C113.354 28.6333 113.23 28.656 113.074 28.6691C112.918 28.6886 112.719 28.6984 112.479 28.6984C112.238 28.6984 112.039 28.6886 111.883 28.6691C111.727 28.656 111.6 28.6333 111.502 28.6007C111.411 28.5682 111.346 28.5291 111.307 28.4835C111.268 28.4314 111.248 28.3728 111.248 28.3077V19.5968C111.248 19.5317 111.264 19.4764 111.297 19.4308C111.329 19.3787 111.388 19.3364 111.473 19.3038C111.557 19.2713 111.665 19.2485 111.795 19.2355C111.932 19.2159 112.101 19.2062 112.303 19.2062C112.511 19.2062 112.684 19.2159 112.82 19.2355C112.957 19.2485 113.061 19.2713 113.133 19.3038C113.211 19.3364 113.266 19.3787 113.299 19.4308C113.331 19.4764 113.348 19.5317 113.348 19.5968V20.6808C113.576 20.3553 113.79 20.0883 113.992 19.88C114.194 19.6652 114.386 19.4959 114.568 19.3722C114.751 19.2485 114.933 19.1639 115.115 19.1183C115.298 19.0662 115.48 19.0402 115.662 19.0402C115.747 19.0402 115.838 19.0467 115.936 19.0597C116.033 19.0662 116.134 19.0825 116.238 19.1085C116.342 19.1281 116.434 19.1541 116.512 19.1866C116.59 19.2127 116.645 19.242 116.678 19.2745C116.717 19.3071 116.743 19.3429 116.756 19.382C116.775 19.421 116.792 19.4764 116.805 19.548C116.818 19.6131 116.827 19.714 116.834 19.8507C116.84 19.9874 116.844 20.173 116.844 20.4073ZM120.818 28.3077C120.818 28.3728 120.799 28.4314 120.76 28.4835C120.721 28.5291 120.652 28.5682 120.555 28.6007C120.464 28.6333 120.34 28.656 120.184 28.6691C120.027 28.6886 119.829 28.6984 119.588 28.6984C119.347 28.6984 119.148 28.6886 118.992 28.6691C118.836 28.656 118.709 28.6333 118.611 28.6007C118.52 28.5682 118.455 28.5291 118.416 28.4835C118.377 28.4314 118.357 28.3728 118.357 28.3077V19.6163C118.357 19.5512 118.377 19.4959 118.416 19.4503C118.455 19.3982 118.52 19.3559 118.611 19.3234C118.709 19.2843 118.836 19.255 118.992 19.2355C119.148 19.2159 119.347 19.2062 119.588 19.2062C119.829 19.2062 120.027 19.2159 120.184 19.2355C120.34 19.255 120.464 19.2843 120.555 19.3234C120.652 19.3559 120.721 19.3982 120.76 19.4503C120.799 19.4959 120.818 19.5512 120.818 19.6163V28.3077ZM121.004 16.6476C121.004 17.1424 120.903 17.4842 120.701 17.673C120.499 17.8618 120.125 17.9562 119.578 17.9562C119.025 17.9562 118.65 17.865 118.455 17.6827C118.266 17.5004 118.172 17.1717 118.172 16.6964C118.172 16.2016 118.27 15.8598 118.465 15.671C118.667 15.4757 119.044 15.3781 119.598 15.3781C120.145 15.3781 120.516 15.4725 120.711 15.6613C120.906 15.8435 121.004 16.1723 121.004 16.6476ZM131.326 23.6984C131.326 23.9978 131.258 24.2192 131.121 24.3624C130.991 24.5057 130.809 24.5773 130.574 24.5773H125.271C125.271 24.9484 125.314 25.2869 125.398 25.5929C125.49 25.8924 125.63 26.1495 125.818 26.3644C126.014 26.5727 126.261 26.7322 126.561 26.8429C126.867 26.9536 127.231 27.0089 127.654 27.0089C128.084 27.0089 128.462 26.9796 128.787 26.921C129.113 26.8559 129.393 26.7876 129.627 26.7159C129.868 26.6378 130.066 26.5695 130.223 26.5109C130.379 26.4458 130.506 26.4132 130.604 26.4132C130.662 26.4132 130.711 26.4262 130.75 26.4523C130.789 26.4718 130.822 26.5109 130.848 26.5695C130.874 26.6281 130.89 26.7127 130.896 26.8234C130.91 26.9275 130.916 27.061 130.916 27.2238C130.916 27.367 130.913 27.4907 130.906 27.5948C130.9 27.6925 130.89 27.7771 130.877 27.8488C130.864 27.9204 130.844 27.9822 130.818 28.0343C130.792 28.0799 130.757 28.1254 130.711 28.171C130.672 28.2166 130.558 28.2784 130.369 28.3566C130.18 28.4347 129.939 28.5128 129.646 28.5909C129.354 28.6626 129.018 28.7244 128.641 28.7765C128.263 28.8351 127.859 28.8644 127.43 28.8644C126.655 28.8644 125.975 28.7667 125.389 28.5714C124.809 28.3761 124.324 28.0799 123.934 27.6827C123.543 27.2856 123.25 26.7843 123.055 26.1788C122.866 25.5734 122.771 24.8637 122.771 24.0499C122.771 23.2752 122.872 22.5786 123.074 21.9601C123.276 21.3351 123.569 20.8077 123.953 20.3781C124.337 19.9419 124.803 19.6098 125.35 19.382C125.903 19.1541 126.525 19.0402 127.215 19.0402C127.944 19.0402 128.566 19.1476 129.08 19.3624C129.601 19.5773 130.027 19.8767 130.359 20.2609C130.691 20.6385 130.936 21.0877 131.092 21.6085C131.248 22.1294 131.326 22.6958 131.326 23.3077V23.6984ZM128.943 22.9952C128.963 22.3051 128.823 21.7648 128.523 21.3741C128.23 20.977 127.775 20.7784 127.156 20.7784C126.844 20.7784 126.57 20.837 126.336 20.9542C126.108 21.0714 125.916 21.2309 125.76 21.4327C125.61 21.6281 125.493 21.8624 125.408 22.1359C125.33 22.4028 125.285 22.6892 125.271 22.9952H128.943ZM138.377 27.4484C138.377 27.7348 138.357 27.9562 138.318 28.1124C138.286 28.2622 138.24 28.3696 138.182 28.4347C138.123 28.4933 138.035 28.5486 137.918 28.6007C137.807 28.6463 137.674 28.6853 137.518 28.7179C137.368 28.757 137.202 28.7863 137.02 28.8058C136.844 28.8253 136.665 28.8351 136.482 28.8351C135.994 28.8351 135.571 28.7732 135.213 28.6495C134.855 28.5258 134.559 28.337 134.324 28.0831C134.09 27.8227 133.917 27.4972 133.807 27.1066C133.696 26.7159 133.641 26.2537 133.641 25.7198V21.257H132.596C132.472 21.257 132.378 21.1821 132.312 21.0323C132.247 20.8761 132.215 20.6189 132.215 20.2609C132.215 20.0721 132.221 19.9126 132.234 19.7823C132.254 19.6521 132.28 19.5512 132.312 19.4796C132.345 19.4015 132.384 19.3462 132.43 19.3136C132.482 19.281 132.54 19.2648 132.605 19.2648H133.641V17.3214C133.641 17.2563 133.657 17.1977 133.689 17.1456C133.729 17.0935 133.794 17.0512 133.885 17.0187C133.982 16.9796 134.109 16.9536 134.266 16.9406C134.428 16.921 134.627 16.9113 134.861 16.9113C135.102 16.9113 135.301 16.921 135.457 16.9406C135.62 16.9536 135.747 16.9796 135.838 17.0187C135.929 17.0512 135.994 17.0935 136.033 17.1456C136.072 17.1977 136.092 17.2563 136.092 17.3214V19.2648H137.986C138.051 19.2648 138.107 19.281 138.152 19.3136C138.204 19.3462 138.247 19.4015 138.279 19.4796C138.312 19.5512 138.335 19.6521 138.348 19.7823C138.367 19.9126 138.377 20.0721 138.377 20.2609C138.377 20.6189 138.344 20.8761 138.279 21.0323C138.214 21.1821 138.12 21.257 137.996 21.257H136.092V25.3488C136.092 25.824 136.167 26.1821 136.316 26.423C136.466 26.6573 136.733 26.7745 137.117 26.7745C137.247 26.7745 137.365 26.7648 137.469 26.7452C137.573 26.7192 137.664 26.6932 137.742 26.6671C137.827 26.6346 137.895 26.6085 137.947 26.589C138.006 26.5629 138.058 26.5499 138.104 26.5499C138.143 26.5499 138.178 26.5629 138.211 26.589C138.25 26.6085 138.279 26.6541 138.299 26.7257C138.318 26.7908 138.335 26.882 138.348 26.9991C138.367 27.1163 138.377 27.2661 138.377 27.4484ZM145.203 28.6398L144.148 31.7257C144.09 31.8885 143.93 32.0057 143.67 32.0773C143.41 32.1489 143.029 32.1847 142.527 32.1847C142.267 32.1847 142.059 32.1717 141.902 32.1456C141.746 32.1261 141.629 32.0903 141.551 32.0382C141.473 31.9861 141.43 31.921 141.424 31.8429C141.417 31.7648 141.437 31.6704 141.482 31.5597L142.645 28.6398C142.56 28.6007 142.482 28.5421 142.41 28.464C142.345 28.3794 142.296 28.2915 142.264 28.2003L139.266 20.1925C139.181 19.9646 139.139 19.7921 139.139 19.6749C139.139 19.5512 139.178 19.4568 139.256 19.3917C139.334 19.3201 139.464 19.2713 139.646 19.2452C139.835 19.2192 140.083 19.2062 140.389 19.2062C140.669 19.2062 140.89 19.2127 141.053 19.2257C141.215 19.2322 141.342 19.255 141.434 19.2941C141.525 19.3331 141.593 19.395 141.639 19.4796C141.684 19.5577 141.73 19.6717 141.775 19.8214L143.826 25.6515H143.855L145.73 19.7042C145.77 19.535 145.818 19.4243 145.877 19.3722C145.942 19.3136 146.046 19.2713 146.189 19.2452C146.333 19.2192 146.583 19.2062 146.941 19.2062C147.221 19.2062 147.452 19.2192 147.635 19.2452C147.824 19.2713 147.96 19.3201 148.045 19.3917C148.136 19.4633 148.182 19.561 148.182 19.6847C148.182 19.8019 148.156 19.9419 148.104 20.1046L145.203 28.6398ZM162.967 23.8644C162.967 24.6066 162.869 25.2837 162.674 25.8956C162.479 26.5076 162.182 27.035 161.785 27.4777C161.388 27.9204 160.89 28.2622 160.291 28.5031C159.692 28.7439 158.992 28.8644 158.191 28.8644C157.417 28.8644 156.743 28.757 156.17 28.5421C155.597 28.3273 155.122 28.0148 154.744 27.6046C154.367 27.1945 154.087 26.6899 153.904 26.0909C153.722 25.492 153.631 24.8084 153.631 24.0402C153.631 23.298 153.729 22.6209 153.924 22.0089C154.126 21.3904 154.425 20.8631 154.822 20.4269C155.219 19.9842 155.714 19.6424 156.307 19.4015C156.906 19.1606 157.605 19.0402 158.406 19.0402C159.188 19.0402 159.865 19.1476 160.438 19.3624C161.01 19.5708 161.482 19.88 161.854 20.2902C162.231 20.7003 162.511 21.2049 162.693 21.8038C162.876 22.4028 162.967 23.0896 162.967 23.8644ZM160.438 23.962C160.438 23.5323 160.402 23.1385 160.33 22.7804C160.265 22.4158 160.151 22.1001 159.988 21.8331C159.826 21.5662 159.607 21.3579 159.334 21.2081C159.067 21.0584 158.729 20.9835 158.318 20.9835C157.954 20.9835 157.635 21.0519 157.361 21.1886C157.088 21.3188 156.863 21.5141 156.688 21.7745C156.512 22.0284 156.378 22.3377 156.287 22.7023C156.202 23.0603 156.16 23.4705 156.16 23.9327C156.16 24.3624 156.196 24.7596 156.268 25.1241C156.339 25.4822 156.453 25.7947 156.609 26.0616C156.772 26.3286 156.99 26.5369 157.264 26.6866C157.537 26.8299 157.876 26.9015 158.279 26.9015C158.65 26.9015 158.973 26.8364 159.246 26.7062C159.52 26.5695 159.744 26.3741 159.92 26.1202C160.096 25.8663 160.226 25.5603 160.311 25.2023C160.395 24.8377 160.438 24.4243 160.438 23.962ZM170.174 16.2765C170.174 16.4653 170.167 16.6183 170.154 16.7355C170.141 16.8462 170.122 16.934 170.096 16.9991C170.07 17.0577 170.04 17.1001 170.008 17.1261C169.975 17.1456 169.939 17.1554 169.9 17.1554C169.855 17.1554 169.803 17.1456 169.744 17.1261C169.692 17.1001 169.624 17.074 169.539 17.048C169.461 17.0219 169.367 16.9991 169.256 16.9796C169.145 16.9536 169.015 16.9406 168.865 16.9406C168.689 16.9406 168.536 16.9698 168.406 17.0284C168.283 17.0805 168.178 17.1684 168.094 17.2921C168.009 17.4093 167.947 17.5656 167.908 17.7609C167.869 17.9497 167.85 18.184 167.85 18.464V19.2648H169.441C169.5 19.2648 169.552 19.281 169.598 19.3136C169.65 19.3462 169.692 19.4015 169.725 19.4796C169.757 19.5512 169.78 19.6521 169.793 19.7823C169.812 19.9126 169.822 20.0721 169.822 20.2609C169.822 20.6189 169.79 20.8761 169.725 21.0323C169.66 21.1821 169.565 21.257 169.441 21.257H167.85V28.3077C167.85 28.3728 167.83 28.4314 167.791 28.4835C167.752 28.5291 167.687 28.5682 167.596 28.6007C167.505 28.6333 167.378 28.656 167.215 28.6691C167.052 28.6886 166.854 28.6984 166.619 28.6984C166.385 28.6984 166.186 28.6886 166.023 28.6691C165.867 28.656 165.74 28.6333 165.643 28.6007C165.551 28.5682 165.486 28.5291 165.447 28.4835C165.415 28.4314 165.398 28.3728 165.398 28.3077V21.257H164.305C164.181 21.257 164.087 21.1821 164.021 21.0323C163.963 20.8761 163.934 20.6189 163.934 20.2609C163.934 20.0721 163.94 19.9126 163.953 19.7823C163.973 19.6521 163.995 19.5512 164.021 19.4796C164.054 19.4015 164.093 19.3462 164.139 19.3136C164.191 19.281 164.249 19.2648 164.314 19.2648H165.398V18.5323C165.398 17.9399 165.457 17.4223 165.574 16.9796C165.691 16.5304 165.874 16.1593 166.121 15.8663C166.375 15.5669 166.694 15.3422 167.078 15.1925C167.469 15.0428 167.928 14.9679 168.455 14.9679C168.709 14.9679 168.95 14.9907 169.178 15.0363C169.406 15.0753 169.585 15.1209 169.715 15.173C169.845 15.2185 169.933 15.2641 169.979 15.3097C170.024 15.3488 170.06 15.4106 170.086 15.4952C170.118 15.5734 170.141 15.6775 170.154 15.8077C170.167 15.9314 170.174 16.0877 170.174 16.2765ZM181.375 20.4073C181.375 20.6417 181.368 20.8338 181.355 20.9835C181.342 21.1333 181.323 21.2504 181.297 21.3351C181.271 21.4197 181.235 21.4783 181.189 21.5109C181.15 21.5434 181.098 21.5597 181.033 21.5597C180.981 21.5597 180.923 21.5499 180.857 21.5304C180.792 21.5044 180.717 21.4783 180.633 21.4523C180.555 21.4262 180.467 21.4034 180.369 21.3839C180.271 21.3579 180.164 21.3448 180.047 21.3448C179.91 21.3448 179.773 21.3741 179.637 21.4327C179.5 21.4848 179.357 21.5695 179.207 21.6866C179.064 21.8038 178.911 21.9601 178.748 22.1554C178.592 22.3507 178.423 22.5916 178.24 22.8781V28.3077C178.24 28.3728 178.221 28.4314 178.182 28.4835C178.143 28.5291 178.074 28.5682 177.977 28.6007C177.885 28.6333 177.762 28.656 177.605 28.6691C177.449 28.6886 177.251 28.6984 177.01 28.6984C176.769 28.6984 176.57 28.6886 176.414 28.6691C176.258 28.656 176.131 28.6333 176.033 28.6007C175.942 28.5682 175.877 28.5291 175.838 28.4835C175.799 28.4314 175.779 28.3728 175.779 28.3077V19.5968C175.779 19.5317 175.796 19.4764 175.828 19.4308C175.861 19.3787 175.919 19.3364 176.004 19.3038C176.089 19.2713 176.196 19.2485 176.326 19.2355C176.463 19.2159 176.632 19.2062 176.834 19.2062C177.042 19.2062 177.215 19.2159 177.352 19.2355C177.488 19.2485 177.592 19.2713 177.664 19.3038C177.742 19.3364 177.798 19.3787 177.83 19.4308C177.863 19.4764 177.879 19.5317 177.879 19.5968V20.6808C178.107 20.3553 178.322 20.0883 178.523 19.88C178.725 19.6652 178.917 19.4959 179.1 19.3722C179.282 19.2485 179.464 19.1639 179.646 19.1183C179.829 19.0662 180.011 19.0402 180.193 19.0402C180.278 19.0402 180.369 19.0467 180.467 19.0597C180.564 19.0662 180.665 19.0825 180.77 19.1085C180.874 19.1281 180.965 19.1541 181.043 19.1866C181.121 19.2127 181.176 19.242 181.209 19.2745C181.248 19.3071 181.274 19.3429 181.287 19.382C181.307 19.421 181.323 19.4764 181.336 19.548C181.349 19.6131 181.359 19.714 181.365 19.8507C181.372 19.9874 181.375 20.173 181.375 20.4073ZM190.701 23.6984C190.701 23.9978 190.633 24.2192 190.496 24.3624C190.366 24.5057 190.184 24.5773 189.949 24.5773H184.646C184.646 24.9484 184.689 25.2869 184.773 25.5929C184.865 25.8924 185.005 26.1495 185.193 26.3644C185.389 26.5727 185.636 26.7322 185.936 26.8429C186.242 26.9536 186.606 27.0089 187.029 27.0089C187.459 27.0089 187.837 26.9796 188.162 26.921C188.488 26.8559 188.768 26.7876 189.002 26.7159C189.243 26.6378 189.441 26.5695 189.598 26.5109C189.754 26.4458 189.881 26.4132 189.979 26.4132C190.037 26.4132 190.086 26.4262 190.125 26.4523C190.164 26.4718 190.197 26.5109 190.223 26.5695C190.249 26.6281 190.265 26.7127 190.271 26.8234C190.285 26.9275 190.291 27.061 190.291 27.2238C190.291 27.367 190.288 27.4907 190.281 27.5948C190.275 27.6925 190.265 27.7771 190.252 27.8488C190.239 27.9204 190.219 27.9822 190.193 28.0343C190.167 28.0799 190.132 28.1254 190.086 28.171C190.047 28.2166 189.933 28.2784 189.744 28.3566C189.555 28.4347 189.314 28.5128 189.021 28.5909C188.729 28.6626 188.393 28.7244 188.016 28.7765C187.638 28.8351 187.234 28.8644 186.805 28.8644C186.03 28.8644 185.35 28.7667 184.764 28.5714C184.184 28.3761 183.699 28.0799 183.309 27.6827C182.918 27.2856 182.625 26.7843 182.43 26.1788C182.241 25.5734 182.146 24.8637 182.146 24.0499C182.146 23.2752 182.247 22.5786 182.449 21.9601C182.651 21.3351 182.944 20.8077 183.328 20.3781C183.712 19.9419 184.178 19.6098 184.725 19.382C185.278 19.1541 185.9 19.0402 186.59 19.0402C187.319 19.0402 187.941 19.1476 188.455 19.3624C188.976 19.5773 189.402 19.8767 189.734 20.2609C190.066 20.6385 190.311 21.0877 190.467 21.6085C190.623 22.1294 190.701 22.6958 190.701 23.3077V23.6984ZM188.318 22.9952C188.338 22.3051 188.198 21.7648 187.898 21.3741C187.605 20.977 187.15 20.7784 186.531 20.7784C186.219 20.7784 185.945 20.837 185.711 20.9542C185.483 21.0714 185.291 21.2309 185.135 21.4327C184.985 21.6281 184.868 21.8624 184.783 22.1359C184.705 22.4028 184.66 22.6892 184.646 22.9952H188.318ZM199.324 26.921C199.324 27.0903 199.318 27.2335 199.305 27.3507C199.298 27.4614 199.285 27.5558 199.266 27.6339C199.253 27.712 199.233 27.7771 199.207 27.8292C199.188 27.8748 199.139 27.9366 199.061 28.0148C198.982 28.0864 198.849 28.1775 198.66 28.2882C198.471 28.3924 198.257 28.4868 198.016 28.5714C197.775 28.656 197.511 28.7244 197.225 28.7765C196.945 28.8286 196.655 28.8546 196.355 28.8546C195.685 28.8546 195.089 28.7504 194.568 28.5421C194.054 28.3338 193.621 28.0278 193.27 27.6241C192.918 27.214 192.651 26.7159 192.469 26.13C192.293 25.5441 192.205 24.8735 192.205 24.1183C192.205 23.2459 192.312 22.4939 192.527 21.8624C192.749 21.2244 193.055 20.6971 193.445 20.2804C193.836 19.8637 194.298 19.5545 194.832 19.3527C195.366 19.1508 195.952 19.0499 196.59 19.0499C196.85 19.0499 197.104 19.0727 197.352 19.1183C197.605 19.1639 197.84 19.2257 198.055 19.3038C198.276 19.382 198.471 19.4698 198.641 19.5675C198.816 19.6652 198.94 19.7498 199.012 19.8214C199.083 19.893 199.132 19.9549 199.158 20.007C199.191 20.0525 199.214 20.1144 199.227 20.1925C199.246 20.2706 199.259 20.3683 199.266 20.4855C199.279 20.5962 199.285 20.7329 199.285 20.8956C199.285 21.2732 199.253 21.5402 199.188 21.6964C199.122 21.8462 199.038 21.921 198.934 21.921C198.823 21.921 198.706 21.8754 198.582 21.7843C198.458 21.6932 198.312 21.5922 198.143 21.4816C197.973 21.3709 197.771 21.27 197.537 21.1788C197.303 21.0877 197.023 21.0421 196.697 21.0421C196.059 21.0421 195.571 21.2895 195.232 21.7843C194.894 22.2726 194.725 22.992 194.725 23.9425C194.725 24.4113 194.767 24.8247 194.852 25.1827C194.936 25.5408 195.06 25.8403 195.223 26.0812C195.392 26.3221 195.6 26.5044 195.848 26.6281C196.102 26.7452 196.395 26.8038 196.727 26.8038C197.065 26.8038 197.355 26.755 197.596 26.6573C197.843 26.5532 198.058 26.4392 198.24 26.3156C198.423 26.1919 198.576 26.0812 198.699 25.9835C198.823 25.8794 198.927 25.8273 199.012 25.8273C199.07 25.8273 199.119 25.8435 199.158 25.8761C199.197 25.9087 199.227 25.9705 199.246 26.0616C199.272 26.1463 199.292 26.257 199.305 26.3937C199.318 26.5304 199.324 26.7062 199.324 26.921ZM203.572 28.3077C203.572 28.3728 203.553 28.4314 203.514 28.4835C203.475 28.5291 203.406 28.5682 203.309 28.6007C203.217 28.6333 203.094 28.656 202.938 28.6691C202.781 28.6886 202.583 28.6984 202.342 28.6984C202.101 28.6984 201.902 28.6886 201.746 28.6691C201.59 28.656 201.463 28.6333 201.365 28.6007C201.274 28.5682 201.209 28.5291 201.17 28.4835C201.131 28.4314 201.111 28.3728 201.111 28.3077V19.6163C201.111 19.5512 201.131 19.4959 201.17 19.4503C201.209 19.3982 201.274 19.3559 201.365 19.3234C201.463 19.2843 201.59 19.255 201.746 19.2355C201.902 19.2159 202.101 19.2062 202.342 19.2062C202.583 19.2062 202.781 19.2159 202.938 19.2355C203.094 19.255 203.217 19.2843 203.309 19.3234C203.406 19.3559 203.475 19.3982 203.514 19.4503C203.553 19.4959 203.572 19.5512 203.572 19.6163V28.3077ZM203.758 16.6476C203.758 17.1424 203.657 17.4842 203.455 17.673C203.253 17.8618 202.879 17.9562 202.332 17.9562C201.779 17.9562 201.404 17.865 201.209 17.6827C201.02 17.5004 200.926 17.1717 200.926 16.6964C200.926 16.2016 201.023 15.8598 201.219 15.671C201.421 15.4757 201.798 15.3781 202.352 15.3781C202.898 15.3781 203.27 15.4725 203.465 15.6613C203.66 15.8435 203.758 16.1723 203.758 16.6476ZM214.803 23.8253C214.803 24.6001 214.718 25.2999 214.549 25.9249C214.386 26.5434 214.145 27.0708 213.826 27.507C213.507 27.9432 213.11 28.2784 212.635 28.5128C212.16 28.7472 211.616 28.8644 211.004 28.8644C210.75 28.8644 210.516 28.8383 210.301 28.7863C210.092 28.7407 209.887 28.6691 209.686 28.5714C209.49 28.4672 209.295 28.3403 209.1 28.1906C208.904 28.0408 208.702 27.865 208.494 27.6632V31.7648C208.494 31.8299 208.475 31.8885 208.436 31.9406C208.396 31.9926 208.328 32.035 208.23 32.0675C208.139 32.1066 208.016 32.1359 207.859 32.1554C207.703 32.1749 207.505 32.1847 207.264 32.1847C207.023 32.1847 206.824 32.1749 206.668 32.1554C206.512 32.1359 206.385 32.1066 206.287 32.0675C206.196 32.035 206.131 31.9926 206.092 31.9406C206.053 31.8885 206.033 31.8299 206.033 31.7648V19.5968C206.033 19.5317 206.049 19.4764 206.082 19.4308C206.115 19.3787 206.17 19.3364 206.248 19.3038C206.333 19.2713 206.44 19.2485 206.57 19.2355C206.707 19.2159 206.876 19.2062 207.078 19.2062C207.273 19.2062 207.436 19.2159 207.566 19.2355C207.703 19.2485 207.811 19.2713 207.889 19.3038C207.973 19.3364 208.032 19.3787 208.064 19.4308C208.097 19.4764 208.113 19.5317 208.113 19.5968V20.6222C208.367 20.3618 208.615 20.1339 208.855 19.9386C209.103 19.7368 209.354 19.5708 209.607 19.4406C209.861 19.3038 210.122 19.2029 210.389 19.1378C210.662 19.0727 210.952 19.0402 211.258 19.0402C211.896 19.0402 212.439 19.1671 212.889 19.421C213.338 19.6684 213.702 20.0102 213.982 20.4464C214.269 20.8826 214.477 21.3904 214.607 21.9698C214.738 22.5493 214.803 23.1678 214.803 23.8253ZM212.244 24.0011C212.244 23.63 212.215 23.2752 212.156 22.9366C212.104 22.5916 212.01 22.2856 211.873 22.0187C211.743 21.7517 211.567 21.5402 211.346 21.3839C211.131 21.2212 210.861 21.1398 210.535 21.1398C210.372 21.1398 210.21 21.1658 210.047 21.2179C209.891 21.2635 209.728 21.3416 209.559 21.4523C209.396 21.5629 209.227 21.7062 209.051 21.882C208.875 22.0577 208.689 22.2758 208.494 22.5363V25.4073C208.839 25.8435 209.168 26.1821 209.48 26.423C209.793 26.6573 210.118 26.7745 210.457 26.7745C210.776 26.7745 211.046 26.6932 211.268 26.5304C211.495 26.3676 211.681 26.156 211.824 25.8956C211.967 25.6287 212.072 25.3292 212.137 24.9972C212.208 24.6652 212.244 24.3331 212.244 24.0011ZM224.822 23.6984C224.822 23.9978 224.754 24.2192 224.617 24.3624C224.487 24.5057 224.305 24.5773 224.07 24.5773H218.768C218.768 24.9484 218.81 25.2869 218.895 25.5929C218.986 25.8924 219.126 26.1495 219.314 26.3644C219.51 26.5727 219.757 26.7322 220.057 26.8429C220.363 26.9536 220.727 27.0089 221.15 27.0089C221.58 27.0089 221.958 26.9796 222.283 26.921C222.609 26.8559 222.889 26.7876 223.123 26.7159C223.364 26.6378 223.562 26.5695 223.719 26.5109C223.875 26.4458 224.002 26.4132 224.1 26.4132C224.158 26.4132 224.207 26.4262 224.246 26.4523C224.285 26.4718 224.318 26.5109 224.344 26.5695C224.37 26.6281 224.386 26.7127 224.393 26.8234C224.406 26.9275 224.412 27.061 224.412 27.2238C224.412 27.367 224.409 27.4907 224.402 27.5948C224.396 27.6925 224.386 27.7771 224.373 27.8488C224.36 27.9204 224.34 27.9822 224.314 28.0343C224.288 28.0799 224.253 28.1254 224.207 28.171C224.168 28.2166 224.054 28.2784 223.865 28.3566C223.676 28.4347 223.436 28.5128 223.143 28.5909C222.85 28.6626 222.514 28.7244 222.137 28.7765C221.759 28.8351 221.355 28.8644 220.926 28.8644C220.151 28.8644 219.471 28.7667 218.885 28.5714C218.305 28.3761 217.82 28.0799 217.43 27.6827C217.039 27.2856 216.746 26.7843 216.551 26.1788C216.362 25.5734 216.268 24.8637 216.268 24.0499C216.268 23.2752 216.368 22.5786 216.57 21.9601C216.772 21.3351 217.065 20.8077 217.449 20.3781C217.833 19.9419 218.299 19.6098 218.846 19.382C219.399 19.1541 220.021 19.0402 220.711 19.0402C221.44 19.0402 222.062 19.1476 222.576 19.3624C223.097 19.5773 223.523 19.8767 223.855 20.2609C224.188 20.6385 224.432 21.0877 224.588 21.6085C224.744 22.1294 224.822 22.6958 224.822 23.3077V23.6984ZM222.439 22.9952C222.459 22.3051 222.319 21.7648 222.02 21.3741C221.727 20.977 221.271 20.7784 220.652 20.7784C220.34 20.7784 220.066 20.837 219.832 20.9542C219.604 21.0714 219.412 21.2309 219.256 21.4327C219.106 21.6281 218.989 21.8624 218.904 22.1359C218.826 22.4028 218.781 22.6892 218.768 22.9952H222.439ZM232.986 25.8468C232.986 26.3416 232.892 26.7778 232.703 27.1554C232.521 27.533 232.26 27.8488 231.922 28.1027C231.583 28.3566 231.183 28.5454 230.721 28.6691C230.258 28.7993 229.757 28.8644 229.217 28.8644C228.891 28.8644 228.579 28.8383 228.279 28.7863C227.986 28.7407 227.723 28.6821 227.488 28.6105C227.254 28.5323 227.059 28.4542 226.902 28.3761C226.746 28.298 226.632 28.2264 226.561 28.1613C226.489 28.0896 226.434 27.9822 226.395 27.839C226.355 27.6892 226.336 27.4712 226.336 27.1847C226.336 26.9959 226.342 26.8462 226.355 26.7355C226.368 26.6183 226.388 26.5271 226.414 26.462C226.44 26.3904 226.473 26.3448 226.512 26.3253C226.551 26.2993 226.6 26.2863 226.658 26.2863C226.73 26.2863 226.834 26.3286 226.971 26.4132C227.114 26.4913 227.29 26.5792 227.498 26.6769C227.706 26.7745 227.947 26.8657 228.221 26.9503C228.501 27.035 228.816 27.0773 229.168 27.0773C229.389 27.0773 229.585 27.0545 229.754 27.0089C229.93 26.9633 230.079 26.8982 230.203 26.8136C230.333 26.729 230.431 26.6215 230.496 26.4913C230.561 26.3611 230.594 26.2114 230.594 26.0421C230.594 25.8468 230.532 25.6808 230.408 25.5441C230.291 25.4008 230.132 25.2771 229.93 25.173C229.734 25.0688 229.51 24.9712 229.256 24.88C229.008 24.7889 228.751 24.6879 228.484 24.5773C228.224 24.4666 227.967 24.3396 227.713 24.1964C227.465 24.0532 227.241 23.8774 227.039 23.6691C226.844 23.4607 226.684 23.2101 226.561 22.9171C226.443 22.6241 226.385 22.2726 226.385 21.8624C226.385 21.4458 226.466 21.0649 226.629 20.7198C226.792 20.3683 227.026 20.0688 227.332 19.8214C227.638 19.574 228.009 19.382 228.445 19.2452C228.888 19.1085 229.383 19.0402 229.93 19.0402C230.203 19.0402 230.467 19.0597 230.721 19.0988C230.981 19.1378 231.215 19.1866 231.424 19.2452C231.632 19.3038 231.808 19.3689 231.951 19.4406C232.094 19.5057 232.195 19.5642 232.254 19.6163C232.319 19.6619 232.365 19.7107 232.391 19.7628C232.417 19.8084 232.436 19.867 232.449 19.9386C232.462 20.0037 232.472 20.0883 232.479 20.1925C232.492 20.2902 232.498 20.4139 232.498 20.5636C232.498 20.7394 232.492 20.8826 232.479 20.9933C232.472 21.104 232.456 21.1919 232.43 21.257C232.41 21.3221 232.381 21.3676 232.342 21.3937C232.303 21.4132 232.257 21.423 232.205 21.423C232.146 21.423 232.055 21.3904 231.932 21.3253C231.808 21.2537 231.652 21.1788 231.463 21.1007C231.281 21.0226 231.066 20.951 230.818 20.8859C230.577 20.8142 230.301 20.7784 229.988 20.7784C229.767 20.7784 229.575 20.8012 229.412 20.8468C229.249 20.8924 229.116 20.9575 229.012 21.0421C228.908 21.1267 228.829 21.2277 228.777 21.3448C228.725 21.4555 228.699 21.576 228.699 21.7062C228.699 21.908 228.761 22.0773 228.885 22.214C229.008 22.3507 229.171 22.4712 229.373 22.5753C229.575 22.6795 229.803 22.7771 230.057 22.8683C230.317 22.9594 230.577 23.0603 230.838 23.171C231.105 23.2752 231.365 23.3989 231.619 23.5421C231.88 23.6853 232.111 23.8611 232.312 24.0695C232.514 24.2778 232.677 24.5284 232.801 24.8214C232.924 25.1079 232.986 25.4497 232.986 25.8468Z" fill="#B9AA46"/>
</svg>
