<svg width="314" height="69" viewBox="0 0 314 69" fill="none" xmlns="http://www.w3.org/2000/svg">
<rect x="1.5" y="1.5" width="311" height="66" rx="18.5" stroke="#E48732" stroke-width="3"/>
<path d="M290.901 17.2582C291.27 16.7727 291.77 16.5 292.292 16.5C292.814 16.5 293.315 16.7727 293.684 17.2582L304.843 31.9486C305.212 32.4347 305.419 33.0936 305.419 33.7806C305.419 34.4676 305.212 35.1265 304.843 35.6125L293.684 50.303C293.311 50.7614 292.817 51.0112 292.306 50.9996C291.796 50.988 291.309 50.7159 290.948 50.2407C290.587 49.7655 290.38 49.1244 290.371 48.4524C290.363 47.7805 290.552 47.1303 290.901 46.639L298.699 36.373H279.164C278.641 36.373 278.14 36.0999 277.771 35.6137C277.402 35.1275 277.194 34.4681 277.194 33.7806C277.194 33.093 277.402 32.4336 277.771 31.9474C278.14 31.4613 278.641 31.1881 279.164 31.1881H298.699L290.901 20.9221C290.532 20.436 290.325 19.7771 290.325 19.0901C290.325 18.4032 290.532 17.7442 290.901 17.2582Z" fill="#E48732"/>
<path d="M62.4102 22.7812C62.4102 23.4688 62.3438 24.0898 62.2109 24.6445C62.0859 25.1914 61.8672 25.6602 61.5547 26.0508C61.25 26.4336 60.8477 26.7266 60.3477 26.9297C59.8477 27.1328 59.2305 27.2344 58.4961 27.2344C58.2617 27.2344 58.0273 27.2148 57.793 27.1758C57.5664 27.1445 57.3555 27.1016 57.1602 27.0469C56.9727 26.9922 56.8086 26.9336 56.668 26.8711C56.5273 26.8086 56.4336 26.7539 56.3867 26.707C56.3398 26.6523 56.3008 26.5977 56.2695 26.543C56.2383 26.4883 56.2109 26.418 56.1875 26.332C56.1641 26.2383 56.1484 26.125 56.1406 25.9922C56.1328 25.8594 56.1289 25.6914 56.1289 25.4883C56.1289 25.2227 56.1328 25 56.1406 24.8203C56.1562 24.6328 56.1758 24.4883 56.1992 24.3867C56.2305 24.2773 56.2695 24.2031 56.3164 24.1641C56.3711 24.1172 56.4375 24.0938 56.5156 24.0938C56.5859 24.0938 56.668 24.1211 56.7617 24.1758C56.8555 24.2227 56.9609 24.2734 57.0781 24.3281C57.1953 24.3828 57.332 24.4375 57.4883 24.4922C57.6445 24.5391 57.8281 24.5625 58.0391 24.5625C58.25 24.5625 58.4336 24.5352 58.5898 24.4805C58.7539 24.418 58.8867 24.3164 58.9883 24.1758C59.0977 24.0273 59.1797 23.832 59.2344 23.5898C59.2891 23.3477 59.3164 23.0352 59.3164 22.6523V12.2344C59.3164 12.1562 59.3398 12.0898 59.3867 12.0352C59.4414 11.9727 59.5234 11.9219 59.6328 11.8828C59.75 11.8438 59.9102 11.8164 60.1133 11.8008C60.3164 11.7773 60.5664 11.7656 60.8633 11.7656C61.1602 11.7656 61.4062 11.7773 61.6016 11.8008C61.7969 11.8164 61.9531 11.8438 62.0703 11.8828C62.1953 11.9219 62.2812 11.9727 62.3281 12.0352C62.3828 12.0898 62.4102 12.1562 62.4102 12.2344V22.7812ZM76.0859 21.2695C76.0859 22.1602 75.9688 22.9727 75.7344 23.707C75.5 24.4414 75.1445 25.0742 74.668 25.6055C74.1914 26.1367 73.5938 26.5469 72.875 26.8359C72.1562 27.125 71.3164 27.2695 70.3555 27.2695C69.4258 27.2695 68.6172 27.1406 67.9297 26.8828C67.2422 26.625 66.6719 26.25 66.2188 25.7578C65.7656 25.2656 65.4297 24.6602 65.2109 23.9414C64.9922 23.2227 64.8828 22.4023 64.8828 21.4805C64.8828 20.5898 65 19.7773 65.2344 19.043C65.4766 18.3008 65.8359 17.668 66.3125 17.1445C66.7891 16.6133 67.3828 16.2031 68.0938 15.9141C68.8125 15.625 69.6523 15.4805 70.6133 15.4805C71.5508 15.4805 72.3633 15.6094 73.0508 15.8672C73.7383 16.1172 74.3047 16.4883 74.75 16.9805C75.2031 17.4727 75.5391 18.0781 75.7578 18.7969C75.9766 19.5156 76.0859 20.3398 76.0859 21.2695ZM73.0508 21.3867C73.0508 20.8711 73.0078 20.3984 72.9219 19.9688C72.8438 19.5312 72.707 19.1523 72.5117 18.832C72.3164 18.5117 72.0547 18.2617 71.7266 18.082C71.4062 17.9023 71 17.8125 70.5078 17.8125C70.0703 17.8125 69.6875 17.8945 69.3594 18.0586C69.0312 18.2148 68.7617 18.4492 68.5508 18.7617C68.3398 19.0664 68.1797 19.4375 68.0703 19.875C67.9688 20.3047 67.918 20.7969 67.918 21.3516C67.918 21.8672 67.9609 22.3438 68.0469 22.7812C68.1328 23.2109 68.2695 23.5859 68.457 23.9062C68.6523 24.2266 68.9141 24.4766 69.2422 24.6562C69.5703 24.8281 69.9766 24.9141 70.4609 24.9141C70.9062 24.9141 71.293 24.8359 71.6211 24.6797C71.9492 24.5156 72.2188 24.2812 72.4297 23.9766C72.6406 23.6719 72.7969 23.3047 72.8984 22.875C73 22.4375 73.0508 21.9414 73.0508 21.3867ZM81.3828 26.6016C81.3828 26.6797 81.3594 26.75 81.3125 26.8125C81.2656 26.8672 81.1836 26.9141 81.0664 26.9531C80.957 26.9922 80.8086 27.0195 80.6211 27.0352C80.4336 27.0586 80.1953 27.0703 79.9062 27.0703C79.6172 27.0703 79.3789 27.0586 79.1914 27.0352C79.0039 27.0195 78.8516 26.9922 78.7344 26.9531C78.625 26.9141 78.5469 26.8672 78.5 26.8125C78.4531 26.75 78.4297 26.6797 78.4297 26.6016V16.1719C78.4297 16.0938 78.4531 16.0273 78.5 15.9727C78.5469 15.9102 78.625 15.8594 78.7344 15.8203C78.8516 15.7734 79.0039 15.7383 79.1914 15.7148C79.3789 15.6914 79.6172 15.6797 79.9062 15.6797C80.1953 15.6797 80.4336 15.6914 80.6211 15.7148C80.8086 15.7383 80.957 15.7734 81.0664 15.8203C81.1836 15.8594 81.2656 15.9102 81.3125 15.9727C81.3594 16.0273 81.3828 16.0938 81.3828 16.1719V26.6016ZM81.6055 12.6094C81.6055 13.2031 81.4844 13.6133 81.2422 13.8398C81 14.0664 80.5508 14.1797 79.8945 14.1797C79.2305 14.1797 78.7812 14.0703 78.5469 13.8516C78.3203 13.6328 78.207 13.2383 78.207 12.668C78.207 12.0742 78.3242 11.6641 78.5586 11.4375C78.8008 11.2031 79.2539 11.0859 79.918 11.0859C80.5742 11.0859 81.0195 11.1992 81.2539 11.4258C81.4883 11.6445 81.6055 12.0391 81.6055 12.6094ZM94.3203 26.6016C94.3203 26.6797 94.2969 26.75 94.25 26.8125C94.2031 26.8672 94.125 26.9141 94.0156 26.9531C93.9062 26.9922 93.7539 27.0195 93.5586 27.0352C93.3711 27.0586 93.1367 27.0703 92.8555 27.0703C92.5664 27.0703 92.3242 27.0586 92.1289 27.0352C91.9414 27.0195 91.793 26.9922 91.6836 26.9531C91.5742 26.9141 91.4961 26.8672 91.4492 26.8125C91.4023 26.75 91.3789 26.6797 91.3789 26.6016V20.6367C91.3789 20.1289 91.3398 19.7305 91.2617 19.4414C91.1914 19.1523 91.0859 18.9062 90.9453 18.7031C90.8047 18.4922 90.6211 18.332 90.3945 18.2227C90.1758 18.1055 89.918 18.0469 89.6211 18.0469C89.2461 18.0469 88.8672 18.1836 88.4844 18.457C88.1016 18.7305 87.7031 19.1289 87.2891 19.6523V26.6016C87.2891 26.6797 87.2656 26.75 87.2188 26.8125C87.1719 26.8672 87.0898 26.9141 86.9727 26.9531C86.8633 26.9922 86.7148 27.0195 86.5273 27.0352C86.3398 27.0586 86.1016 27.0703 85.8125 27.0703C85.5234 27.0703 85.2852 27.0586 85.0977 27.0352C84.9102 27.0195 84.7578 26.9922 84.6406 26.9531C84.5312 26.9141 84.4531 26.8672 84.4062 26.8125C84.3594 26.75 84.3359 26.6797 84.3359 26.6016V16.1484C84.3359 16.0703 84.3555 16.0039 84.3945 15.9492C84.4336 15.8867 84.5039 15.8359 84.6055 15.7969C84.707 15.7578 84.8359 15.7305 84.9922 15.7148C85.1562 15.6914 85.3594 15.6797 85.6016 15.6797C85.8516 15.6797 86.0586 15.6914 86.2227 15.7148C86.3867 15.7305 86.5117 15.7578 86.5977 15.7969C86.6914 15.8359 86.7578 15.8867 86.7969 15.9492C86.8359 16.0039 86.8555 16.0703 86.8555 16.1484V17.3555C87.4336 16.7305 88.0195 16.2617 88.6133 15.9492C89.2148 15.6367 89.8398 15.4805 90.4883 15.4805C91.1992 15.4805 91.7969 15.5977 92.2812 15.832C92.7734 16.0664 93.168 16.3867 93.4648 16.793C93.7695 17.1914 93.9883 17.6602 94.1211 18.1992C94.2539 18.7383 94.3203 19.3867 94.3203 20.1445V26.6016ZM108.852 25.5703C108.852 25.9141 108.828 26.1797 108.781 26.3672C108.742 26.5469 108.688 26.6758 108.617 26.7539C108.547 26.8242 108.441 26.8906 108.301 26.9531C108.168 27.0078 108.008 27.0547 107.82 27.0938C107.641 27.1406 107.441 27.1758 107.223 27.1992C107.012 27.2227 106.797 27.2344 106.578 27.2344C105.992 27.2344 105.484 27.1602 105.055 27.0117C104.625 26.8633 104.27 26.6367 103.988 26.332C103.707 26.0195 103.5 25.6289 103.367 25.1602C103.234 24.6914 103.168 24.1367 103.168 23.4961V18.1406H101.914C101.766 18.1406 101.652 18.0508 101.574 17.8711C101.496 17.6836 101.457 17.375 101.457 16.9453C101.457 16.7188 101.465 16.5273 101.48 16.3711C101.504 16.2148 101.535 16.0938 101.574 16.0078C101.613 15.9141 101.66 15.8477 101.715 15.8086C101.777 15.7695 101.848 15.75 101.926 15.75H103.168V13.418C103.168 13.3398 103.188 13.2695 103.227 13.207C103.273 13.1445 103.352 13.0938 103.461 13.0547C103.578 13.0078 103.73 12.9766 103.918 12.9609C104.113 12.9375 104.352 12.9258 104.633 12.9258C104.922 12.9258 105.16 12.9375 105.348 12.9609C105.543 12.9766 105.695 13.0078 105.805 13.0547C105.914 13.0938 105.992 13.1445 106.039 13.207C106.086 13.2695 106.109 13.3398 106.109 13.418V15.75H108.383C108.461 15.75 108.527 15.7695 108.582 15.8086C108.645 15.8477 108.695 15.9141 108.734 16.0078C108.773 16.0938 108.801 16.2148 108.816 16.3711C108.84 16.5273 108.852 16.7188 108.852 16.9453C108.852 17.375 108.812 17.6836 108.734 17.8711C108.656 18.0508 108.543 18.1406 108.395 18.1406H106.109V23.0508C106.109 23.6211 106.199 24.0508 106.379 24.3398C106.559 24.6211 106.879 24.7617 107.34 24.7617C107.496 24.7617 107.637 24.75 107.762 24.7266C107.887 24.6953 107.996 24.6641 108.09 24.6328C108.191 24.5938 108.273 24.5625 108.336 24.5391C108.406 24.5078 108.469 24.4922 108.523 24.4922C108.57 24.4922 108.613 24.5078 108.652 24.5391C108.699 24.5625 108.734 24.6172 108.758 24.7031C108.781 24.7812 108.801 24.8906 108.816 25.0312C108.84 25.1719 108.852 25.3516 108.852 25.5703ZM120.969 26.6016C120.969 26.6797 120.945 26.75 120.898 26.8125C120.852 26.8672 120.773 26.9141 120.664 26.9531C120.555 26.9922 120.402 27.0195 120.207 27.0352C120.02 27.0586 119.785 27.0703 119.504 27.0703C119.215 27.0703 118.973 27.0586 118.777 27.0352C118.59 27.0195 118.441 26.9922 118.332 26.9531C118.223 26.9141 118.145 26.8672 118.098 26.8125C118.051 26.75 118.027 26.6797 118.027 26.6016V20.6367C118.027 20.1289 117.988 19.7305 117.91 19.4414C117.84 19.1523 117.734 18.9062 117.594 18.7031C117.453 18.4922 117.27 18.332 117.043 18.2227C116.824 18.1055 116.566 18.0469 116.27 18.0469C115.895 18.0469 115.516 18.1836 115.133 18.457C114.75 18.7305 114.352 19.1289 113.938 19.6523V26.6016C113.938 26.6797 113.914 26.75 113.867 26.8125C113.82 26.8672 113.738 26.9141 113.621 26.9531C113.512 26.9922 113.363 27.0195 113.176 27.0352C112.988 27.0586 112.75 27.0703 112.461 27.0703C112.172 27.0703 111.934 27.0586 111.746 27.0352C111.559 27.0195 111.406 26.9922 111.289 26.9531C111.18 26.9141 111.102 26.8672 111.055 26.8125C111.008 26.75 110.984 26.6797 110.984 26.6016V11.1914C110.984 11.1133 111.008 11.043 111.055 10.9805C111.102 10.918 111.18 10.8672 111.289 10.8281C111.406 10.7812 111.559 10.7461 111.746 10.7227C111.934 10.6992 112.172 10.6875 112.461 10.6875C112.75 10.6875 112.988 10.6992 113.176 10.7227C113.363 10.7461 113.512 10.7812 113.621 10.8281C113.738 10.8672 113.82 10.918 113.867 10.9805C113.914 11.043 113.938 11.1133 113.938 11.1914V16.9688C114.445 16.4688 114.961 16.0977 115.484 15.8555C116.016 15.6055 116.566 15.4805 117.137 15.4805C117.848 15.4805 118.445 15.5977 118.93 15.832C119.422 16.0664 119.816 16.3867 120.113 16.793C120.418 17.1992 120.637 17.6758 120.77 18.2227C120.902 18.7617 120.969 19.418 120.969 20.1914V26.6016ZM133.531 21.0703C133.531 21.4297 133.449 21.6953 133.285 21.8672C133.129 22.0391 132.91 22.125 132.629 22.125H126.266C126.266 22.5703 126.316 22.9766 126.418 23.3438C126.527 23.7031 126.695 24.0117 126.922 24.2695C127.156 24.5195 127.453 24.7109 127.812 24.8438C128.18 24.9766 128.617 25.043 129.125 25.043C129.641 25.043 130.094 25.0078 130.484 24.9375C130.875 24.8594 131.211 24.7773 131.492 24.6914C131.781 24.5977 132.02 24.5156 132.207 24.4453C132.395 24.3672 132.547 24.3281 132.664 24.3281C132.734 24.3281 132.793 24.3438 132.84 24.375C132.887 24.3984 132.926 24.4453 132.957 24.5156C132.988 24.5859 133.008 24.6875 133.016 24.8203C133.031 24.9453 133.039 25.1055 133.039 25.3008C133.039 25.4727 133.035 25.6211 133.027 25.7461C133.02 25.8633 133.008 25.9648 132.992 26.0508C132.977 26.1367 132.953 26.2109 132.922 26.2734C132.891 26.3281 132.848 26.3828 132.793 26.4375C132.746 26.4922 132.609 26.5664 132.383 26.6602C132.156 26.7539 131.867 26.8477 131.516 26.9414C131.164 27.0273 130.762 27.1016 130.309 27.1641C129.855 27.2344 129.371 27.2695 128.855 27.2695C127.926 27.2695 127.109 27.1523 126.406 26.918C125.711 26.6836 125.129 26.3281 124.66 25.8516C124.191 25.375 123.84 24.7734 123.605 24.0469C123.379 23.3203 123.266 22.4688 123.266 21.4922C123.266 20.5625 123.387 19.7266 123.629 18.9844C123.871 18.2344 124.223 17.6016 124.684 17.0859C125.145 16.5625 125.703 16.1641 126.359 15.8906C127.023 15.6172 127.77 15.4805 128.598 15.4805C129.473 15.4805 130.219 15.6094 130.836 15.8672C131.461 16.125 131.973 16.4844 132.371 16.9453C132.77 17.3984 133.062 17.9375 133.25 18.5625C133.438 19.1875 133.531 19.8672 133.531 20.6016V21.0703ZM130.672 20.2266C130.695 19.3984 130.527 18.75 130.168 18.2812C129.816 17.8047 129.27 17.5664 128.527 17.5664C128.152 17.5664 127.824 17.6367 127.543 17.7773C127.27 17.918 127.039 18.1094 126.852 18.3516C126.672 18.5859 126.531 18.8672 126.43 19.1953C126.336 19.5156 126.281 19.8594 126.266 20.2266H130.672ZM152.07 24.7031C152.07 24.8984 152.062 25.0664 152.047 25.207C152.039 25.3398 152.023 25.457 152 25.5586C151.977 25.6523 151.945 25.7344 151.906 25.8047C151.867 25.875 151.805 25.957 151.719 26.0508C151.633 26.1367 151.465 26.25 151.215 26.3906C150.973 26.5312 150.672 26.668 150.312 26.8008C149.961 26.9258 149.555 27.0312 149.094 27.1172C148.641 27.2031 148.148 27.2461 147.617 27.2461C146.578 27.2461 145.641 27.0859 144.805 26.7656C143.969 26.4453 143.258 25.9688 142.672 25.3359C142.086 24.6953 141.637 23.8984 141.324 22.9453C141.012 21.9922 140.855 20.8828 140.855 19.6172C140.855 18.3281 141.027 17.1836 141.371 16.1836C141.715 15.1836 142.195 14.3438 142.812 13.6641C143.43 12.9844 144.168 12.4688 145.027 12.1172C145.895 11.7656 146.848 11.5898 147.887 11.5898C148.309 11.5898 148.715 11.625 149.105 11.6953C149.496 11.7656 149.855 11.8594 150.184 11.9766C150.52 12.0859 150.82 12.2148 151.086 12.3633C151.352 12.5117 151.535 12.6406 151.637 12.75C151.746 12.8516 151.82 12.9375 151.859 13.0078C151.898 13.0781 151.93 13.168 151.953 13.2773C151.977 13.3867 151.992 13.5156 152 13.6641C152.016 13.8125 152.023 13.9961 152.023 14.2148C152.023 14.4492 152.016 14.6484 152 14.8125C151.984 14.9766 151.957 15.1094 151.918 15.2109C151.879 15.3125 151.832 15.3867 151.777 15.4336C151.723 15.4805 151.66 15.5039 151.59 15.5039C151.473 15.5039 151.324 15.4375 151.145 15.3047C150.965 15.1641 150.73 15.0117 150.441 14.8477C150.16 14.6758 149.82 14.5234 149.422 14.3906C149.031 14.25 148.562 14.1797 148.016 14.1797C147.414 14.1797 146.875 14.3047 146.398 14.5547C145.93 14.7969 145.527 15.1484 145.191 15.6094C144.863 16.0625 144.613 16.6133 144.441 17.2617C144.27 17.9102 144.184 18.6406 144.184 19.4531C144.184 20.3438 144.273 21.1172 144.453 21.7734C144.641 22.4219 144.902 22.957 145.238 23.3789C145.582 23.8008 145.992 24.1172 146.469 24.3281C146.953 24.5312 147.496 24.6328 148.098 24.6328C148.645 24.6328 149.117 24.5703 149.516 24.4453C149.914 24.3125 150.254 24.168 150.535 24.0117C150.824 23.8555 151.059 23.7148 151.238 23.5898C151.426 23.4648 151.57 23.4023 151.672 23.4023C151.75 23.4023 151.812 23.418 151.859 23.4492C151.906 23.4805 151.945 23.543 151.977 23.6367C152.008 23.7305 152.031 23.8633 152.047 24.0352C152.062 24.1992 152.07 24.4219 152.07 24.7031ZM164.023 26.6016C164.023 26.6797 164.004 26.75 163.965 26.8125C163.926 26.8672 163.855 26.9141 163.754 26.9531C163.66 26.9922 163.531 27.0195 163.367 27.0352C163.211 27.0586 163.012 27.0703 162.77 27.0703C162.512 27.0703 162.301 27.0586 162.137 27.0352C161.98 27.0195 161.855 26.9922 161.762 26.9531C161.668 26.9141 161.602 26.8672 161.562 26.8125C161.523 26.75 161.504 26.6797 161.504 26.6016V25.3945C160.926 26.0195 160.336 26.4883 159.734 26.8008C159.141 27.1133 158.523 27.2695 157.883 27.2695C157.164 27.2695 156.559 27.1523 156.066 26.918C155.582 26.6836 155.188 26.3633 154.883 25.957C154.586 25.5508 154.371 25.082 154.238 24.5508C154.113 24.0117 154.051 23.3438 154.051 22.5469V16.1484C154.051 16.0703 154.07 16.0039 154.109 15.9492C154.156 15.8867 154.234 15.8359 154.344 15.7969C154.461 15.7578 154.613 15.7305 154.801 15.7148C154.996 15.6914 155.234 15.6797 155.516 15.6797C155.805 15.6797 156.043 15.6914 156.23 15.7148C156.418 15.7305 156.566 15.7578 156.676 15.7969C156.793 15.8359 156.875 15.8867 156.922 15.9492C156.969 16.0039 156.992 16.0703 156.992 16.1484V22.0547C156.992 22.6016 157.027 23.0195 157.098 23.3086C157.168 23.5977 157.273 23.8477 157.414 24.0586C157.562 24.2617 157.746 24.4219 157.965 24.5391C158.191 24.6484 158.453 24.7031 158.75 24.7031C159.125 24.7031 159.5 24.5664 159.875 24.293C160.258 24.0195 160.664 23.6211 161.094 23.0977V16.1484C161.094 16.0703 161.113 16.0039 161.152 15.9492C161.199 15.8867 161.277 15.8359 161.387 15.7969C161.504 15.7578 161.656 15.7305 161.844 15.7148C162.031 15.6914 162.27 15.6797 162.559 15.6797C162.848 15.6797 163.086 15.6914 163.273 15.7148C163.461 15.7305 163.609 15.7578 163.719 15.7969C163.828 15.8359 163.906 15.8867 163.953 15.9492C164 16.0039 164.023 16.0703 164.023 16.1484V26.6016ZM169.953 26.6016C169.953 26.6797 169.93 26.75 169.883 26.8125C169.836 26.8672 169.754 26.9141 169.637 26.9531C169.527 26.9922 169.379 27.0195 169.191 27.0352C169.004 27.0586 168.766 27.0703 168.477 27.0703C168.188 27.0703 167.949 27.0586 167.762 27.0352C167.574 27.0195 167.422 26.9922 167.305 26.9531C167.195 26.9141 167.117 26.8672 167.07 26.8125C167.023 26.75 167 26.6797 167 26.6016V16.1719C167 16.0938 167.023 16.0273 167.07 15.9727C167.117 15.9102 167.195 15.8594 167.305 15.8203C167.422 15.7734 167.574 15.7383 167.762 15.7148C167.949 15.6914 168.188 15.6797 168.477 15.6797C168.766 15.6797 169.004 15.6914 169.191 15.7148C169.379 15.7383 169.527 15.7734 169.637 15.8203C169.754 15.8594 169.836 15.9102 169.883 15.9727C169.93 16.0273 169.953 16.0938 169.953 16.1719V26.6016ZM170.176 12.6094C170.176 13.2031 170.055 13.6133 169.812 13.8398C169.57 14.0664 169.121 14.1797 168.465 14.1797C167.801 14.1797 167.352 14.0703 167.117 13.8516C166.891 13.6328 166.777 13.2383 166.777 12.668C166.777 12.0742 166.895 11.6641 167.129 11.4375C167.371 11.2031 167.824 11.0859 168.488 11.0859C169.145 11.0859 169.59 11.1992 169.824 11.4258C170.059 11.6445 170.176 12.0391 170.176 12.6094ZM180.266 23.6484C180.266 24.2422 180.152 24.7656 179.926 25.2188C179.707 25.6719 179.395 26.0508 178.988 26.3555C178.582 26.6602 178.102 26.8867 177.547 27.0352C176.992 27.1914 176.391 27.2695 175.742 27.2695C175.352 27.2695 174.977 27.2383 174.617 27.1758C174.266 27.1211 173.949 27.0508 173.668 26.9648C173.387 26.8711 173.152 26.7773 172.965 26.6836C172.777 26.5898 172.641 26.5039 172.555 26.4258C172.469 26.3398 172.402 26.2109 172.355 26.0391C172.309 25.8594 172.285 25.5977 172.285 25.2539C172.285 25.0273 172.293 24.8477 172.309 24.7148C172.324 24.5742 172.348 24.4648 172.379 24.3867C172.41 24.3008 172.449 24.2461 172.496 24.2227C172.543 24.1914 172.602 24.1758 172.672 24.1758C172.758 24.1758 172.883 24.2266 173.047 24.3281C173.219 24.4219 173.43 24.5273 173.68 24.6445C173.93 24.7617 174.219 24.8711 174.547 24.9727C174.883 25.0742 175.262 25.125 175.684 25.125C175.949 25.125 176.184 25.0977 176.387 25.043C176.598 24.9883 176.777 24.9102 176.926 24.8086C177.082 24.707 177.199 24.5781 177.277 24.4219C177.355 24.2656 177.395 24.0859 177.395 23.8828C177.395 23.6484 177.32 23.4492 177.172 23.2852C177.031 23.1133 176.84 22.9648 176.598 22.8398C176.363 22.7148 176.094 22.5977 175.789 22.4883C175.492 22.3789 175.184 22.2578 174.863 22.125C174.551 21.9922 174.242 21.8398 173.938 21.668C173.641 21.4961 173.371 21.2852 173.129 21.0352C172.895 20.7852 172.703 20.4844 172.555 20.1328C172.414 19.7812 172.344 19.3594 172.344 18.8672C172.344 18.3672 172.441 17.9102 172.637 17.4961C172.832 17.0742 173.113 16.7148 173.48 16.418C173.848 16.1211 174.293 15.8906 174.816 15.7266C175.348 15.5625 175.941 15.4805 176.598 15.4805C176.926 15.4805 177.242 15.5039 177.547 15.5508C177.859 15.5977 178.141 15.6562 178.391 15.7266C178.641 15.7969 178.852 15.875 179.023 15.9609C179.195 16.0391 179.316 16.1094 179.387 16.1719C179.465 16.2266 179.52 16.2852 179.551 16.3477C179.582 16.4023 179.605 16.4727 179.621 16.5586C179.637 16.6367 179.648 16.7383 179.656 16.8633C179.672 16.9805 179.68 17.1289 179.68 17.3086C179.68 17.5195 179.672 17.6914 179.656 17.8242C179.648 17.957 179.629 18.0625 179.598 18.1406C179.574 18.2188 179.539 18.2734 179.492 18.3047C179.445 18.3281 179.391 18.3398 179.328 18.3398C179.258 18.3398 179.148 18.3008 179 18.2227C178.852 18.1367 178.664 18.0469 178.438 17.9531C178.219 17.8594 177.961 17.7734 177.664 17.6953C177.375 17.6094 177.043 17.5664 176.668 17.5664C176.402 17.5664 176.172 17.5938 175.977 17.6484C175.781 17.7031 175.621 17.7812 175.496 17.8828C175.371 17.9844 175.277 18.1055 175.215 18.2461C175.152 18.3789 175.121 18.5234 175.121 18.6797C175.121 18.9219 175.195 19.125 175.344 19.2891C175.492 19.4531 175.688 19.5977 175.93 19.7227C176.172 19.8477 176.445 19.9648 176.75 20.0742C177.062 20.1836 177.375 20.3047 177.688 20.4375C178.008 20.5625 178.32 20.7109 178.625 20.8828C178.938 21.0547 179.215 21.2656 179.457 21.5156C179.699 21.7656 179.895 22.0664 180.043 22.418C180.191 22.7617 180.266 23.1719 180.266 23.6484ZM185.445 26.6016C185.445 26.6797 185.422 26.75 185.375 26.8125C185.328 26.8672 185.246 26.9141 185.129 26.9531C185.02 26.9922 184.871 27.0195 184.684 27.0352C184.496 27.0586 184.258 27.0703 183.969 27.0703C183.68 27.0703 183.441 27.0586 183.254 27.0352C183.066 27.0195 182.914 26.9922 182.797 26.9531C182.688 26.9141 182.609 26.8672 182.562 26.8125C182.516 26.75 182.492 26.6797 182.492 26.6016V16.1719C182.492 16.0938 182.516 16.0273 182.562 15.9727C182.609 15.9102 182.688 15.8594 182.797 15.8203C182.914 15.7734 183.066 15.7383 183.254 15.7148C183.441 15.6914 183.68 15.6797 183.969 15.6797C184.258 15.6797 184.496 15.6914 184.684 15.7148C184.871 15.7383 185.02 15.7734 185.129 15.8203C185.246 15.8594 185.328 15.9102 185.375 15.9727C185.422 16.0273 185.445 16.0938 185.445 16.1719V26.6016ZM185.668 12.6094C185.668 13.2031 185.547 13.6133 185.305 13.8398C185.062 14.0664 184.613 14.1797 183.957 14.1797C183.293 14.1797 182.844 14.0703 182.609 13.8516C182.383 13.6328 182.27 13.2383 182.27 12.668C182.27 12.0742 182.387 11.6641 182.621 11.4375C182.863 11.2031 183.316 11.0859 183.98 11.0859C184.637 11.0859 185.082 11.1992 185.316 11.4258C185.551 11.6445 185.668 12.0391 185.668 12.6094ZM198.383 26.6016C198.383 26.6797 198.359 26.75 198.312 26.8125C198.266 26.8672 198.188 26.9141 198.078 26.9531C197.969 26.9922 197.816 27.0195 197.621 27.0352C197.434 27.0586 197.199 27.0703 196.918 27.0703C196.629 27.0703 196.387 27.0586 196.191 27.0352C196.004 27.0195 195.855 26.9922 195.746 26.9531C195.637 26.9141 195.559 26.8672 195.512 26.8125C195.465 26.75 195.441 26.6797 195.441 26.6016V20.6367C195.441 20.1289 195.402 19.7305 195.324 19.4414C195.254 19.1523 195.148 18.9062 195.008 18.7031C194.867 18.4922 194.684 18.332 194.457 18.2227C194.238 18.1055 193.98 18.0469 193.684 18.0469C193.309 18.0469 192.93 18.1836 192.547 18.457C192.164 18.7305 191.766 19.1289 191.352 19.6523V26.6016C191.352 26.6797 191.328 26.75 191.281 26.8125C191.234 26.8672 191.152 26.9141 191.035 26.9531C190.926 26.9922 190.777 27.0195 190.59 27.0352C190.402 27.0586 190.164 27.0703 189.875 27.0703C189.586 27.0703 189.348 27.0586 189.16 27.0352C188.973 27.0195 188.82 26.9922 188.703 26.9531C188.594 26.9141 188.516 26.8672 188.469 26.8125C188.422 26.75 188.398 26.6797 188.398 26.6016V16.1484C188.398 16.0703 188.418 16.0039 188.457 15.9492C188.496 15.8867 188.566 15.8359 188.668 15.7969C188.77 15.7578 188.898 15.7305 189.055 15.7148C189.219 15.6914 189.422 15.6797 189.664 15.6797C189.914 15.6797 190.121 15.6914 190.285 15.7148C190.449 15.7305 190.574 15.7578 190.66 15.7969C190.754 15.8359 190.82 15.8867 190.859 15.9492C190.898 16.0039 190.918 16.0703 190.918 16.1484V17.3555C191.496 16.7305 192.082 16.2617 192.676 15.9492C193.277 15.6367 193.902 15.4805 194.551 15.4805C195.262 15.4805 195.859 15.5977 196.344 15.832C196.836 16.0664 197.23 16.3867 197.527 16.793C197.832 17.1914 198.051 17.6602 198.184 18.1992C198.316 18.7383 198.383 19.3867 198.383 20.1445V26.6016ZM210.945 21.0703C210.945 21.4297 210.863 21.6953 210.699 21.8672C210.543 22.0391 210.324 22.125 210.043 22.125H203.68C203.68 22.5703 203.73 22.9766 203.832 23.3438C203.941 23.7031 204.109 24.0117 204.336 24.2695C204.57 24.5195 204.867 24.7109 205.227 24.8438C205.594 24.9766 206.031 25.043 206.539 25.043C207.055 25.043 207.508 25.0078 207.898 24.9375C208.289 24.8594 208.625 24.7773 208.906 24.6914C209.195 24.5977 209.434 24.5156 209.621 24.4453C209.809 24.3672 209.961 24.3281 210.078 24.3281C210.148 24.3281 210.207 24.3438 210.254 24.375C210.301 24.3984 210.34 24.4453 210.371 24.5156C210.402 24.5859 210.422 24.6875 210.43 24.8203C210.445 24.9453 210.453 25.1055 210.453 25.3008C210.453 25.4727 210.449 25.6211 210.441 25.7461C210.434 25.8633 210.422 25.9648 210.406 26.0508C210.391 26.1367 210.367 26.2109 210.336 26.2734C210.305 26.3281 210.262 26.3828 210.207 26.4375C210.16 26.4922 210.023 26.5664 209.797 26.6602C209.57 26.7539 209.281 26.8477 208.93 26.9414C208.578 27.0273 208.176 27.1016 207.723 27.1641C207.27 27.2344 206.785 27.2695 206.27 27.2695C205.34 27.2695 204.523 27.1523 203.82 26.918C203.125 26.6836 202.543 26.3281 202.074 25.8516C201.605 25.375 201.254 24.7734 201.02 24.0469C200.793 23.3203 200.68 22.4688 200.68 21.4922C200.68 20.5625 200.801 19.7266 201.043 18.9844C201.285 18.2344 201.637 17.6016 202.098 17.0859C202.559 16.5625 203.117 16.1641 203.773 15.8906C204.438 15.6172 205.184 15.4805 206.012 15.4805C206.887 15.4805 207.633 15.6094 208.25 15.8672C208.875 16.125 209.387 16.4844 209.785 16.9453C210.184 17.3984 210.477 17.9375 210.664 18.5625C210.852 19.1875 210.945 19.8672 210.945 20.6016V21.0703ZM208.086 20.2266C208.109 19.3984 207.941 18.75 207.582 18.2812C207.23 17.8047 206.684 17.5664 205.941 17.5664C205.566 17.5664 205.238 17.6367 204.957 17.7773C204.684 17.918 204.453 18.1094 204.266 18.3516C204.086 18.5859 203.945 18.8672 203.844 19.1953C203.75 19.5156 203.695 19.8594 203.68 20.2266H208.086ZM88.1211 53.7031C88.1211 53.8984 88.1133 54.0664 88.0977 54.207C88.0898 54.3398 88.0742 54.457 88.0508 54.5586C88.0273 54.6523 87.9961 54.7344 87.957 54.8047C87.918 54.875 87.8555 54.957 87.7695 55.0508C87.6836 55.1367 87.5156 55.25 87.2656 55.3906C87.0234 55.5312 86.7227 55.668 86.3633 55.8008C86.0117 55.9258 85.6055 56.0312 85.1445 56.1172C84.6914 56.2031 84.1992 56.2461 83.668 56.2461C82.6289 56.2461 81.6914 56.0859 80.8555 55.7656C80.0195 55.4453 79.3086 54.9688 78.7227 54.3359C78.1367 53.6953 77.6875 52.8984 77.375 51.9453C77.0625 50.9922 76.9062 49.8828 76.9062 48.6172C76.9062 47.3281 77.0781 46.1836 77.4219 45.1836C77.7656 44.1836 78.2461 43.3438 78.8633 42.6641C79.4805 41.9844 80.2188 41.4688 81.0781 41.1172C81.9453 40.7656 82.8984 40.5898 83.9375 40.5898C84.3594 40.5898 84.7656 40.625 85.1562 40.6953C85.5469 40.7656 85.9062 40.8594 86.2344 40.9766C86.5703 41.0859 86.8711 41.2148 87.1367 41.3633C87.4023 41.5117 87.5859 41.6406 87.6875 41.75C87.7969 41.8516 87.8711 41.9375 87.9102 42.0078C87.9492 42.0781 87.9805 42.168 88.0039 42.2773C88.0273 42.3867 88.043 42.5156 88.0508 42.6641C88.0664 42.8125 88.0742 42.9961 88.0742 43.2148C88.0742 43.4492 88.0664 43.6484 88.0508 43.8125C88.0352 43.9766 88.0078 44.1094 87.9688 44.2109C87.9297 44.3125 87.8828 44.3867 87.8281 44.4336C87.7734 44.4805 87.7109 44.5039 87.6406 44.5039C87.5234 44.5039 87.375 44.4375 87.1953 44.3047C87.0156 44.1641 86.7812 44.0117 86.4922 43.8477C86.2109 43.6758 85.8711 43.5234 85.4727 43.3906C85.082 43.25 84.6133 43.1797 84.0664 43.1797C83.4648 43.1797 82.9258 43.3047 82.4492 43.5547C81.9805 43.7969 81.5781 44.1484 81.2422 44.6094C80.9141 45.0625 80.6641 45.6133 80.4922 46.2617C80.3203 46.9102 80.2344 47.6406 80.2344 48.4531C80.2344 49.3438 80.3242 50.1172 80.5039 50.7734C80.6914 51.4219 80.9531 51.957 81.2891 52.3789C81.6328 52.8008 82.043 53.1172 82.5195 53.3281C83.0039 53.5312 83.5469 53.6328 84.1484 53.6328C84.6953 53.6328 85.168 53.5703 85.5664 53.4453C85.9648 53.3125 86.3047 53.168 86.5859 53.0117C86.875 52.8555 87.1094 52.7148 87.2891 52.5898C87.4766 52.4648 87.6211 52.4023 87.7227 52.4023C87.8008 52.4023 87.8633 52.418 87.9102 52.4492C87.957 52.4805 87.9961 52.543 88.0273 52.6367C88.0586 52.7305 88.082 52.8633 88.0977 53.0352C88.1133 53.1992 88.1211 53.4219 88.1211 53.7031ZM100.73 50.2695C100.73 51.1602 100.613 51.9727 100.379 52.707C100.145 53.4414 99.7891 54.0742 99.3125 54.6055C98.8359 55.1367 98.2383 55.5469 97.5195 55.8359C96.8008 56.125 95.9609 56.2695 95 56.2695C94.0703 56.2695 93.2617 56.1406 92.5742 55.8828C91.8867 55.625 91.3164 55.25 90.8633 54.7578C90.4102 54.2656 90.0742 53.6602 89.8555 52.9414C89.6367 52.2227 89.5273 51.4023 89.5273 50.4805C89.5273 49.5898 89.6445 48.7773 89.8789 48.043C90.1211 47.3008 90.4805 46.668 90.957 46.1445C91.4336 45.6133 92.0273 45.2031 92.7383 44.9141C93.457 44.625 94.2969 44.4805 95.2578 44.4805C96.1953 44.4805 97.0078 44.6094 97.6953 44.8672C98.3828 45.1172 98.9492 45.4883 99.3945 45.9805C99.8477 46.4727 100.184 47.0781 100.402 47.7969C100.621 48.5156 100.73 49.3398 100.73 50.2695ZM97.6953 50.3867C97.6953 49.8711 97.6523 49.3984 97.5664 48.9688C97.4883 48.5312 97.3516 48.1523 97.1562 47.832C96.9609 47.5117 96.6992 47.2617 96.3711 47.082C96.0508 46.9023 95.6445 46.8125 95.1523 46.8125C94.7148 46.8125 94.332 46.8945 94.0039 47.0586C93.6758 47.2148 93.4062 47.4492 93.1953 47.7617C92.9844 48.0664 92.8242 48.4375 92.7148 48.875C92.6133 49.3047 92.5625 49.7969 92.5625 50.3516C92.5625 50.8672 92.6055 51.3438 92.6914 51.7812C92.7773 52.2109 92.9141 52.5859 93.1016 52.9062C93.2969 53.2266 93.5586 53.4766 93.8867 53.6562C94.2148 53.8281 94.6211 53.9141 95.1055 53.9141C95.5508 53.9141 95.9375 53.8359 96.2656 53.6797C96.5938 53.5156 96.8633 53.2812 97.0742 52.9766C97.2852 52.6719 97.4414 52.3047 97.543 51.875C97.6445 51.4375 97.6953 50.9414 97.6953 50.3867ZM119.703 55.6016C119.703 55.6797 119.68 55.75 119.633 55.8125C119.586 55.8672 119.508 55.9141 119.398 55.9531C119.289 55.9922 119.141 56.0195 118.953 56.0352C118.766 56.0586 118.527 56.0703 118.238 56.0703C117.941 56.0703 117.699 56.0586 117.512 56.0352C117.324 56.0195 117.172 55.9922 117.055 55.9531C116.945 55.9141 116.867 55.8672 116.82 55.8125C116.781 55.75 116.762 55.6797 116.762 55.6016V49.4023C116.762 49.0508 116.727 48.7305 116.656 48.4414C116.594 48.1523 116.492 47.9062 116.352 47.7031C116.219 47.4922 116.047 47.332 115.836 47.2227C115.633 47.1055 115.387 47.0469 115.098 47.0469C114.746 47.0469 114.391 47.1836 114.031 47.457C113.672 47.7305 113.281 48.1289 112.859 48.6523V55.6016C112.859 55.6797 112.836 55.75 112.789 55.8125C112.742 55.8672 112.66 55.9141 112.543 55.9531C112.434 55.9922 112.285 56.0195 112.098 56.0352C111.91 56.0586 111.676 56.0703 111.395 56.0703C111.105 56.0703 110.867 56.0586 110.68 56.0352C110.492 56.0195 110.34 55.9922 110.223 55.9531C110.113 55.9141 110.035 55.8672 109.988 55.8125C109.941 55.75 109.918 55.6797 109.918 55.6016V49.4023C109.918 49.0508 109.883 48.7305 109.812 48.4414C109.75 48.1523 109.652 47.9062 109.52 47.7031C109.387 47.4922 109.215 47.332 109.004 47.2227C108.793 47.1055 108.547 47.0469 108.266 47.0469C107.906 47.0469 107.547 47.1836 107.188 47.457C106.828 47.7305 106.441 48.1289 106.027 48.6523V55.6016C106.027 55.6797 106.004 55.75 105.957 55.8125C105.91 55.8672 105.828 55.9141 105.711 55.9531C105.602 55.9922 105.453 56.0195 105.266 56.0352C105.078 56.0586 104.84 56.0703 104.551 56.0703C104.262 56.0703 104.023 56.0586 103.836 56.0352C103.648 56.0195 103.496 55.9922 103.379 55.9531C103.27 55.9141 103.191 55.8672 103.145 55.8125C103.098 55.75 103.074 55.6797 103.074 55.6016V45.1484C103.074 45.0703 103.094 45.0039 103.133 44.9492C103.172 44.8867 103.242 44.8359 103.344 44.7969C103.445 44.7578 103.574 44.7305 103.73 44.7148C103.895 44.6914 104.098 44.6797 104.34 44.6797C104.59 44.6797 104.797 44.6914 104.961 44.7148C105.125 44.7305 105.25 44.7578 105.336 44.7969C105.43 44.8359 105.496 44.8867 105.535 44.9492C105.574 45.0039 105.594 45.0703 105.594 45.1484V46.3555C106.172 45.7305 106.746 45.2617 107.316 44.9492C107.895 44.6367 108.496 44.4805 109.121 44.4805C109.551 44.4805 109.938 44.5273 110.281 44.6211C110.625 44.707 110.93 44.8359 111.195 45.0078C111.469 45.1719 111.703 45.3711 111.898 45.6055C112.094 45.8398 112.258 46.1016 112.391 46.3906C112.703 46.0547 113.008 45.7656 113.305 45.5234C113.609 45.2812 113.906 45.0859 114.195 44.9375C114.492 44.7812 114.785 44.668 115.074 44.5977C115.371 44.5195 115.672 44.4805 115.977 44.4805C116.672 44.4805 117.258 44.5977 117.734 44.832C118.211 45.0664 118.594 45.3867 118.883 45.793C119.18 46.1914 119.391 46.6602 119.516 47.1992C119.641 47.7383 119.703 48.3086 119.703 48.9102V55.6016ZM139.227 55.6016C139.227 55.6797 139.203 55.75 139.156 55.8125C139.109 55.8672 139.031 55.9141 138.922 55.9531C138.812 55.9922 138.664 56.0195 138.477 56.0352C138.289 56.0586 138.051 56.0703 137.762 56.0703C137.465 56.0703 137.223 56.0586 137.035 56.0352C136.848 56.0195 136.695 55.9922 136.578 55.9531C136.469 55.9141 136.391 55.8672 136.344 55.8125C136.305 55.75 136.285 55.6797 136.285 55.6016V49.4023C136.285 49.0508 136.25 48.7305 136.18 48.4414C136.117 48.1523 136.016 47.9062 135.875 47.7031C135.742 47.4922 135.57 47.332 135.359 47.2227C135.156 47.1055 134.91 47.0469 134.621 47.0469C134.27 47.0469 133.914 47.1836 133.555 47.457C133.195 47.7305 132.805 48.1289 132.383 48.6523V55.6016C132.383 55.6797 132.359 55.75 132.312 55.8125C132.266 55.8672 132.184 55.9141 132.066 55.9531C131.957 55.9922 131.809 56.0195 131.621 56.0352C131.434 56.0586 131.199 56.0703 130.918 56.0703C130.629 56.0703 130.391 56.0586 130.203 56.0352C130.016 56.0195 129.863 55.9922 129.746 55.9531C129.637 55.9141 129.559 55.8672 129.512 55.8125C129.465 55.75 129.441 55.6797 129.441 55.6016V49.4023C129.441 49.0508 129.406 48.7305 129.336 48.4414C129.273 48.1523 129.176 47.9062 129.043 47.7031C128.91 47.4922 128.738 47.332 128.527 47.2227C128.316 47.1055 128.07 47.0469 127.789 47.0469C127.43 47.0469 127.07 47.1836 126.711 47.457C126.352 47.7305 125.965 48.1289 125.551 48.6523V55.6016C125.551 55.6797 125.527 55.75 125.48 55.8125C125.434 55.8672 125.352 55.9141 125.234 55.9531C125.125 55.9922 124.977 56.0195 124.789 56.0352C124.602 56.0586 124.363 56.0703 124.074 56.0703C123.785 56.0703 123.547 56.0586 123.359 56.0352C123.172 56.0195 123.02 55.9922 122.902 55.9531C122.793 55.9141 122.715 55.8672 122.668 55.8125C122.621 55.75 122.598 55.6797 122.598 55.6016V45.1484C122.598 45.0703 122.617 45.0039 122.656 44.9492C122.695 44.8867 122.766 44.8359 122.867 44.7969C122.969 44.7578 123.098 44.7305 123.254 44.7148C123.418 44.6914 123.621 44.6797 123.863 44.6797C124.113 44.6797 124.32 44.6914 124.484 44.7148C124.648 44.7305 124.773 44.7578 124.859 44.7969C124.953 44.8359 125.02 44.8867 125.059 44.9492C125.098 45.0039 125.117 45.0703 125.117 45.1484V46.3555C125.695 45.7305 126.27 45.2617 126.84 44.9492C127.418 44.6367 128.02 44.4805 128.645 44.4805C129.074 44.4805 129.461 44.5273 129.805 44.6211C130.148 44.707 130.453 44.8359 130.719 45.0078C130.992 45.1719 131.227 45.3711 131.422 45.6055C131.617 45.8398 131.781 46.1016 131.914 46.3906C132.227 46.0547 132.531 45.7656 132.828 45.5234C133.133 45.2812 133.43 45.0859 133.719 44.9375C134.016 44.7812 134.309 44.668 134.598 44.5977C134.895 44.5195 135.195 44.4805 135.5 44.4805C136.195 44.4805 136.781 44.5977 137.258 44.832C137.734 45.0664 138.117 45.3867 138.406 45.793C138.703 46.1914 138.914 46.6602 139.039 47.1992C139.164 47.7383 139.227 48.3086 139.227 48.9102V55.6016ZM152.035 55.6016C152.035 55.6797 152.016 55.75 151.977 55.8125C151.938 55.8672 151.867 55.9141 151.766 55.9531C151.672 55.9922 151.543 56.0195 151.379 56.0352C151.223 56.0586 151.023 56.0703 150.781 56.0703C150.523 56.0703 150.312 56.0586 150.148 56.0352C149.992 56.0195 149.867 55.9922 149.773 55.9531C149.68 55.9141 149.613 55.8672 149.574 55.8125C149.535 55.75 149.516 55.6797 149.516 55.6016V54.3945C148.938 55.0195 148.348 55.4883 147.746 55.8008C147.152 56.1133 146.535 56.2695 145.895 56.2695C145.176 56.2695 144.57 56.1523 144.078 55.918C143.594 55.6836 143.199 55.3633 142.895 54.957C142.598 54.5508 142.383 54.082 142.25 53.5508C142.125 53.0117 142.062 52.3438 142.062 51.5469V45.1484C142.062 45.0703 142.082 45.0039 142.121 44.9492C142.168 44.8867 142.246 44.8359 142.355 44.7969C142.473 44.7578 142.625 44.7305 142.812 44.7148C143.008 44.6914 143.246 44.6797 143.527 44.6797C143.816 44.6797 144.055 44.6914 144.242 44.7148C144.43 44.7305 144.578 44.7578 144.688 44.7969C144.805 44.8359 144.887 44.8867 144.934 44.9492C144.98 45.0039 145.004 45.0703 145.004 45.1484V51.0547C145.004 51.6016 145.039 52.0195 145.109 52.3086C145.18 52.5977 145.285 52.8477 145.426 53.0586C145.574 53.2617 145.758 53.4219 145.977 53.5391C146.203 53.6484 146.465 53.7031 146.762 53.7031C147.137 53.7031 147.512 53.5664 147.887 53.293C148.27 53.0195 148.676 52.6211 149.105 52.0977V45.1484C149.105 45.0703 149.125 45.0039 149.164 44.9492C149.211 44.8867 149.289 44.8359 149.398 44.7969C149.516 44.7578 149.668 44.7305 149.855 44.7148C150.043 44.6914 150.281 44.6797 150.57 44.6797C150.859 44.6797 151.098 44.6914 151.285 44.7148C151.473 44.7305 151.621 44.7578 151.73 44.7969C151.84 44.8359 151.918 44.8867 151.965 44.9492C152.012 45.0039 152.035 45.0703 152.035 45.1484V55.6016ZM164.996 55.6016C164.996 55.6797 164.973 55.75 164.926 55.8125C164.879 55.8672 164.801 55.9141 164.691 55.9531C164.582 55.9922 164.43 56.0195 164.234 56.0352C164.047 56.0586 163.812 56.0703 163.531 56.0703C163.242 56.0703 163 56.0586 162.805 56.0352C162.617 56.0195 162.469 55.9922 162.359 55.9531C162.25 55.9141 162.172 55.8672 162.125 55.8125C162.078 55.75 162.055 55.6797 162.055 55.6016V49.6367C162.055 49.1289 162.016 48.7305 161.938 48.4414C161.867 48.1523 161.762 47.9062 161.621 47.7031C161.48 47.4922 161.297 47.332 161.07 47.2227C160.852 47.1055 160.594 47.0469 160.297 47.0469C159.922 47.0469 159.543 47.1836 159.16 47.457C158.777 47.7305 158.379 48.1289 157.965 48.6523V55.6016C157.965 55.6797 157.941 55.75 157.895 55.8125C157.848 55.8672 157.766 55.9141 157.648 55.9531C157.539 55.9922 157.391 56.0195 157.203 56.0352C157.016 56.0586 156.777 56.0703 156.488 56.0703C156.199 56.0703 155.961 56.0586 155.773 56.0352C155.586 56.0195 155.434 55.9922 155.316 55.9531C155.207 55.9141 155.129 55.8672 155.082 55.8125C155.035 55.75 155.012 55.6797 155.012 55.6016V45.1484C155.012 45.0703 155.031 45.0039 155.07 44.9492C155.109 44.8867 155.18 44.8359 155.281 44.7969C155.383 44.7578 155.512 44.7305 155.668 44.7148C155.832 44.6914 156.035 44.6797 156.277 44.6797C156.527 44.6797 156.734 44.6914 156.898 44.7148C157.062 44.7305 157.188 44.7578 157.273 44.7969C157.367 44.8359 157.434 44.8867 157.473 44.9492C157.512 45.0039 157.531 45.0703 157.531 45.1484V46.3555C158.109 45.7305 158.695 45.2617 159.289 44.9492C159.891 44.6367 160.516 44.4805 161.164 44.4805C161.875 44.4805 162.473 44.5977 162.957 44.832C163.449 45.0664 163.844 45.3867 164.141 45.793C164.445 46.1914 164.664 46.6602 164.797 47.1992C164.93 47.7383 164.996 48.3867 164.996 49.1445V55.6016ZM170.855 55.6016C170.855 55.6797 170.832 55.75 170.785 55.8125C170.738 55.8672 170.656 55.9141 170.539 55.9531C170.43 55.9922 170.281 56.0195 170.094 56.0352C169.906 56.0586 169.668 56.0703 169.379 56.0703C169.09 56.0703 168.852 56.0586 168.664 56.0352C168.477 56.0195 168.324 55.9922 168.207 55.9531C168.098 55.9141 168.02 55.8672 167.973 55.8125C167.926 55.75 167.902 55.6797 167.902 55.6016V45.1719C167.902 45.0938 167.926 45.0273 167.973 44.9727C168.02 44.9102 168.098 44.8594 168.207 44.8203C168.324 44.7734 168.477 44.7383 168.664 44.7148C168.852 44.6914 169.09 44.6797 169.379 44.6797C169.668 44.6797 169.906 44.6914 170.094 44.7148C170.281 44.7383 170.43 44.7734 170.539 44.8203C170.656 44.8594 170.738 44.9102 170.785 44.9727C170.832 45.0273 170.855 45.0938 170.855 45.1719V55.6016ZM171.078 41.6094C171.078 42.2031 170.957 42.6133 170.715 42.8398C170.473 43.0664 170.023 43.1797 169.367 43.1797C168.703 43.1797 168.254 43.0703 168.02 42.8516C167.793 42.6328 167.68 42.2383 167.68 41.668C167.68 41.0742 167.797 40.6641 168.031 40.4375C168.273 40.2031 168.727 40.0859 169.391 40.0859C170.047 40.0859 170.492 40.1992 170.727 40.4258C170.961 40.6445 171.078 41.0391 171.078 41.6094ZM179.996 54.5703C179.996 54.9141 179.973 55.1797 179.926 55.3672C179.887 55.5469 179.832 55.6758 179.762 55.7539C179.691 55.8242 179.586 55.8906 179.445 55.9531C179.312 56.0078 179.152 56.0547 178.965 56.0938C178.785 56.1406 178.586 56.1758 178.367 56.1992C178.156 56.2227 177.941 56.2344 177.723 56.2344C177.137 56.2344 176.629 56.1602 176.199 56.0117C175.77 55.8633 175.414 55.6367 175.133 55.332C174.852 55.0195 174.645 54.6289 174.512 54.1602C174.379 53.6914 174.312 53.1367 174.312 52.4961V47.1406H173.059C172.91 47.1406 172.797 47.0508 172.719 46.8711C172.641 46.6836 172.602 46.375 172.602 45.9453C172.602 45.7188 172.609 45.5273 172.625 45.3711C172.648 45.2148 172.68 45.0938 172.719 45.0078C172.758 44.9141 172.805 44.8477 172.859 44.8086C172.922 44.7695 172.992 44.75 173.07 44.75H174.312V42.418C174.312 42.3398 174.332 42.2695 174.371 42.207C174.418 42.1445 174.496 42.0938 174.605 42.0547C174.723 42.0078 174.875 41.9766 175.062 41.9609C175.258 41.9375 175.496 41.9258 175.777 41.9258C176.066 41.9258 176.305 41.9375 176.492 41.9609C176.688 41.9766 176.84 42.0078 176.949 42.0547C177.059 42.0938 177.137 42.1445 177.184 42.207C177.23 42.2695 177.254 42.3398 177.254 42.418V44.75H179.527C179.605 44.75 179.672 44.7695 179.727 44.8086C179.789 44.8477 179.84 44.9141 179.879 45.0078C179.918 45.0938 179.945 45.2148 179.961 45.3711C179.984 45.5273 179.996 45.7188 179.996 45.9453C179.996 46.375 179.957 46.6836 179.879 46.8711C179.801 47.0508 179.688 47.1406 179.539 47.1406H177.254V52.0508C177.254 52.6211 177.344 53.0508 177.523 53.3398C177.703 53.6211 178.023 53.7617 178.484 53.7617C178.641 53.7617 178.781 53.75 178.906 53.7266C179.031 53.6953 179.141 53.6641 179.234 53.6328C179.336 53.5938 179.418 53.5625 179.48 53.5391C179.551 53.5078 179.613 53.4922 179.668 53.4922C179.715 53.4922 179.758 53.5078 179.797 53.5391C179.844 53.5625 179.879 53.6172 179.902 53.7031C179.926 53.7812 179.945 53.8906 179.961 54.0312C179.984 54.1719 179.996 54.3516 179.996 54.5703ZM188.188 56L186.922 59.7031C186.852 59.8984 186.66 60.0391 186.348 60.125C186.035 60.2109 185.578 60.2539 184.977 60.2539C184.664 60.2539 184.414 60.2383 184.227 60.207C184.039 60.1836 183.898 60.1406 183.805 60.0781C183.711 60.0156 183.66 59.9375 183.652 59.8438C183.645 59.75 183.668 59.6367 183.723 59.5039L185.117 56C185.016 55.9531 184.922 55.8828 184.836 55.7891C184.758 55.6875 184.699 55.582 184.66 55.4727L181.062 45.8633C180.961 45.5898 180.91 45.3828 180.91 45.2422C180.91 45.0938 180.957 44.9805 181.051 44.9023C181.145 44.8164 181.301 44.7578 181.52 44.7266C181.746 44.6953 182.043 44.6797 182.41 44.6797C182.746 44.6797 183.012 44.6875 183.207 44.7031C183.402 44.7109 183.555 44.7383 183.664 44.7852C183.773 44.832 183.855 44.9062 183.91 45.0078C183.965 45.1016 184.02 45.2383 184.074 45.418L186.535 52.4141H186.57L188.82 45.2773C188.867 45.0742 188.926 44.9414 188.996 44.8789C189.074 44.8086 189.199 44.7578 189.371 44.7266C189.543 44.6953 189.844 44.6797 190.273 44.6797C190.609 44.6797 190.887 44.6953 191.105 44.7266C191.332 44.7578 191.496 44.8164 191.598 44.9023C191.707 44.9883 191.762 45.1055 191.762 45.2539C191.762 45.3945 191.73 45.5625 191.668 45.7578L188.188 56Z" fill="#E48732"/>
</svg>
