<svg width="50" height="46" viewBox="0 0 50 46" fill="none" xmlns="http://www.w3.org/2000/svg">
<g clip-path="url(#clip0_360_619)">
<path d="M11.3649 45.7735V22.1991L5.37431 15.5105L0.00244141 11.7988V41.6133C0.00244141 43.9152 1.53059 45.7735 3.41124 45.7735H11.3649Z" fill="#4285F4"/>
<path d="M38.6348 45.7735H46.5884C48.4747 45.7735 49.9972 43.9083 49.9972 41.6133V11.7991L43.9127 16.0504L38.6348 22.1991V45.7735Z" fill="#34A853"/>
<path d="M11.3649 22.1991L10.5498 12.9879L11.3649 4.17188L24.9998 16.6524L38.6346 4.17188L39.5464 12.5119L38.6346 22.1991L24.9998 34.6796L11.3649 22.1991Z" fill="#EA4335"/>
<path d="M38.6348 4.17186V22.1991L49.9972 11.7988V6.25187C49.9972 1.10726 45.1852 -1.82553 41.8164 1.2598L38.6348 4.17186Z" fill="#FBBC04"/>
<path d="M0.00244141 11.7989L5.22823 16.5824L11.3649 22.1992V4.17197L8.18318 1.25991C4.80855 -1.82566 0.00244141 1.10737 0.00244141 6.25175V11.7989Z" fill="#C5221F"/>
</g>
<defs>
<clipPath id="clip0_360_619">
<rect width="50" height="46" fill="white"/>
</clipPath>
</defs>
</svg>
