<svg width="46" height="46" viewBox="0 0 46 46" fill="none" xmlns="http://www.w3.org/2000/svg">
<path d="M24.9701 3.83325C27.1264 3.839 28.2208 3.8505 29.1657 3.87734L29.5376 3.89075C29.9669 3.90609 30.3905 3.92525 30.9022 3.94825C32.9416 4.04409 34.3331 4.36609 35.554 4.8395C36.819 5.32634 37.8846 5.98567 38.9503 7.04942C39.9249 8.00755 40.6791 9.16655 41.1602 10.4458C41.6336 11.6667 41.9556 13.0582 42.0515 15.0994C42.0745 15.6093 42.0936 16.0328 42.109 16.4641L42.1205 16.8359C42.1492 17.7789 42.1607 18.8733 42.1646 21.0296L42.1665 22.4594V24.9703C42.1712 26.3683 42.1565 27.7663 42.1224 29.1639L42.1109 29.5358C42.0956 29.967 42.0764 30.3906 42.0534 30.9004C41.9576 32.9417 41.6317 34.3312 41.1602 35.5541C40.6804 36.834 39.9261 37.9933 38.9503 38.9504C37.9919 39.9247 36.833 40.6788 35.554 41.1603C34.3331 41.6338 32.9416 41.9558 30.9022 42.0516C30.4474 42.073 29.9925 42.0922 29.5376 42.1091L29.1657 42.1206C28.2208 42.1474 27.1264 42.1608 24.9701 42.1647L23.5403 42.1666H21.0314C19.6327 42.1714 18.2341 42.1567 16.8358 42.1225L16.464 42.111C16.009 42.0938 15.5541 42.074 15.0993 42.0516C13.06 41.9558 11.6685 41.6338 10.4456 41.1603C9.16659 40.68 8.00805 39.9257 7.05122 38.9504C6.07572 37.9926 5.3209 36.8336 4.83939 35.5541C4.36597 34.3332 4.04397 32.9417 3.94814 30.9004C3.92678 30.4456 3.90762 29.9907 3.89064 29.5358L3.88105 29.1639C3.84573 27.7663 3.82976 26.3683 3.83314 24.9703V21.0296C3.82779 19.6316 3.84184 18.2335 3.8753 16.8359L3.88872 16.4641C3.90405 16.0328 3.92322 15.6093 3.94622 15.0994C4.04205 13.0582 4.36405 11.6686 4.83747 10.4458C5.31877 9.16524 6.0751 8.00588 7.05314 7.04942C8.00973 6.07474 9.1675 5.32056 10.4456 4.8395C11.6685 4.36609 13.0581 4.04409 15.0993 3.94825C15.6091 3.92525 16.0346 3.90609 16.464 3.89075L16.8358 3.87925C18.2334 3.8452 19.6314 3.8305 21.0295 3.83517L24.9701 3.83325ZM22.9998 13.4166C20.4581 13.4166 18.0206 14.4263 16.2234 16.2235C14.4261 18.0207 13.4165 20.4583 13.4165 22.9999C13.4165 25.5416 14.4261 27.9791 16.2234 29.7764C18.0206 31.5736 20.4581 32.5833 22.9998 32.5833C25.5415 32.5833 27.979 31.5736 29.7762 29.7764C31.5735 27.9791 32.5831 25.5416 32.5831 22.9999C32.5831 20.4583 31.5735 18.0207 29.7762 16.2235C27.979 14.4263 25.5415 13.4166 22.9998 13.4166ZM22.9998 17.2499C23.7549 17.2498 24.5026 17.3984 25.2003 17.6872C25.898 17.9761 26.5319 18.3995 27.0659 18.9334C27.6 19.4672 28.0236 20.101 28.3127 20.7986C28.6018 21.4962 28.7506 22.2439 28.7508 22.999C28.7509 23.7541 28.6023 24.5018 28.3134 25.1995C28.0246 25.8971 27.6012 26.5311 27.0673 27.0651C26.5335 27.5991 25.8997 28.0228 25.2021 28.3119C24.5045 28.6009 23.7568 28.7498 23.0017 28.7499C21.4767 28.7499 20.0142 28.1441 18.9359 27.0658C17.8575 25.9874 17.2517 24.5249 17.2517 22.9999C17.2517 21.4749 17.8575 20.0124 18.9359 18.9341C20.0142 17.8557 21.4767 17.2499 23.0017 17.2499M33.0642 10.5416C32.4288 10.5416 31.8194 10.794 31.3701 11.2433C30.9208 11.6926 30.6684 12.302 30.6684 12.9374C30.6684 13.5728 30.9208 14.1822 31.3701 14.6315C31.8194 15.0808 32.4288 15.3333 33.0642 15.3333C33.6996 15.3333 34.309 15.0808 34.7583 14.6315C35.2076 14.1822 35.4601 13.5728 35.4601 12.9374C35.4601 12.302 35.2076 11.6926 34.7583 11.2433C34.309 10.794 33.6996 10.5416 33.0642 10.5416Z" fill="white"/>
</svg>
