<svg width="236" height="88" viewBox="0 0 236 88" fill="none" xmlns="http://www.w3.org/2000/svg">
<rect x="2" y="2" width="232" height="84" rx="18" stroke="white" stroke-width="4"/>
<path d="M87.875 24.4961C87.875 25.6549 87.722 26.6478 87.416 27.4746C87.1165 28.2949 86.6836 28.9655 86.1172 29.4863C85.5508 30.0072 84.8607 30.3913 84.0469 30.6387C83.2396 30.8796 82.276 31 81.1562 31H78.1387C77.9238 31 77.7415 30.9382 77.5918 30.8145C77.4486 30.6842 77.377 30.4759 77.377 30.1895V19.1738C77.377 18.8874 77.4486 18.6823 77.5918 18.5586C77.7415 18.4284 77.9238 18.3633 78.1387 18.3633H81.3809C82.5072 18.3633 83.4609 18.4967 84.2422 18.7637C85.0299 19.0241 85.6908 19.4147 86.2246 19.9355C86.765 20.4499 87.1751 21.0879 87.4551 21.8496C87.735 22.6113 87.875 23.4935 87.875 24.4961ZM85.2188 24.584C85.2188 23.985 85.1471 23.4284 85.0039 22.9141C84.8672 22.3997 84.6426 21.9538 84.3301 21.5762C84.0241 21.1986 83.627 20.9056 83.1387 20.6973C82.6569 20.4824 82.0221 20.375 81.2344 20.375H79.9355V28.9688H81.2734C81.9766 28.9688 82.569 28.8776 83.0508 28.6953C83.5326 28.513 83.9329 28.2396 84.252 27.875C84.5775 27.5039 84.8184 27.0449 84.9746 26.498C85.1374 25.9512 85.2188 25.3132 85.2188 24.584ZM98.6562 26.2246C98.6562 26.9668 98.5586 27.6439 98.3633 28.2559C98.168 28.8678 97.8717 29.3952 97.4746 29.8379C97.0775 30.2806 96.5794 30.6224 95.9805 30.8633C95.3815 31.1042 94.6816 31.2246 93.8809 31.2246C93.1061 31.2246 92.4323 31.1172 91.8594 30.9023C91.2865 30.6875 90.8112 30.375 90.4336 29.9648C90.056 29.5547 89.776 29.0501 89.5938 28.4512C89.4115 27.8522 89.3203 27.1686 89.3203 26.4004C89.3203 25.6582 89.418 24.9811 89.6133 24.3691C89.8151 23.7507 90.1146 23.2233 90.5117 22.7871C90.9089 22.3444 91.4036 22.0026 91.9961 21.7617C92.5951 21.5208 93.2949 21.4004 94.0957 21.4004C94.877 21.4004 95.554 21.5078 96.127 21.7227C96.6999 21.931 97.1719 22.2402 97.543 22.6504C97.9206 23.0605 98.2005 23.5651 98.3828 24.1641C98.5651 24.763 98.6562 25.4499 98.6562 26.2246ZM96.127 26.3223C96.127 25.8926 96.0911 25.4987 96.0195 25.1406C95.9544 24.776 95.8405 24.4603 95.6777 24.1934C95.515 23.9264 95.2969 23.7181 95.0234 23.5684C94.7565 23.4186 94.418 23.3438 94.0078 23.3438C93.6432 23.3438 93.3242 23.4121 93.0508 23.5488C92.7773 23.679 92.5527 23.8743 92.377 24.1348C92.2012 24.3887 92.0677 24.6979 91.9766 25.0625C91.8919 25.4206 91.8496 25.8307 91.8496 26.293C91.8496 26.7227 91.8854 27.1198 91.957 27.4844C92.0286 27.8424 92.1426 28.1549 92.2988 28.4219C92.4616 28.6888 92.6797 28.8971 92.9531 29.0469C93.2266 29.1901 93.5651 29.2617 93.9688 29.2617C94.3398 29.2617 94.6621 29.1966 94.9355 29.0664C95.209 28.9297 95.4336 28.7344 95.6094 28.4805C95.7852 28.2266 95.9154 27.9206 96 27.5625C96.0846 27.1979 96.127 26.7845 96.127 26.3223ZM113.9 21.9375C113.9 22.0091 113.891 22.097 113.871 22.2012C113.852 22.3053 113.816 22.4551 113.764 22.6504L111.439 30.5312C111.407 30.6419 111.365 30.7331 111.312 30.8047C111.26 30.8698 111.179 30.9219 111.068 30.9609C110.964 31 110.811 31.026 110.609 31.0391C110.414 31.0521 110.157 31.0586 109.838 31.0586C109.519 31.0586 109.258 31.0488 109.057 31.0293C108.855 31.0163 108.695 30.9902 108.578 30.9512C108.467 30.9121 108.386 30.86 108.334 30.7949C108.282 30.7233 108.243 30.6354 108.217 30.5312L106.752 25.2383L106.732 25.1504L106.713 25.2383L105.365 30.5312C105.339 30.6419 105.3 30.7331 105.248 30.8047C105.202 30.8698 105.121 30.9219 105.004 30.9609C104.887 31 104.727 31.026 104.525 31.0391C104.324 31.0521 104.063 31.0586 103.744 31.0586C103.419 31.0586 103.155 31.0488 102.953 31.0293C102.758 31.0163 102.602 30.9902 102.484 30.9512C102.374 30.9121 102.292 30.86 102.24 30.7949C102.188 30.7233 102.149 30.6354 102.123 30.5312L99.8184 22.6504C99.7598 22.4616 99.7207 22.3151 99.7012 22.2109C99.6882 22.1003 99.6816 22.0091 99.6816 21.9375C99.6816 21.8724 99.6979 21.8171 99.7305 21.7715C99.7695 21.7194 99.8346 21.6803 99.9258 21.6543C100.023 21.6217 100.15 21.599 100.307 21.5859C100.469 21.5729 100.671 21.5664 100.912 21.5664C101.173 21.5664 101.384 21.5729 101.547 21.5859C101.71 21.599 101.837 21.6217 101.928 21.6543C102.019 21.6868 102.081 21.7324 102.113 21.791C102.152 21.8431 102.182 21.9082 102.201 21.9863L103.93 28.3828L103.949 28.5L103.969 28.3828L105.59 21.9863C105.609 21.9082 105.639 21.8431 105.678 21.791C105.723 21.7324 105.788 21.6868 105.873 21.6543C105.958 21.6217 106.075 21.599 106.225 21.5859C106.381 21.5729 106.579 21.5664 106.82 21.5664C107.061 21.5664 107.257 21.5762 107.406 21.5957C107.556 21.6087 107.673 21.6315 107.758 21.6641C107.849 21.6901 107.911 21.7292 107.943 21.7812C107.982 21.8268 108.012 21.8822 108.031 21.9473L109.77 28.3926L109.799 28.5L109.818 28.3828L111.479 21.9863C111.492 21.9082 111.518 21.8431 111.557 21.791C111.596 21.7324 111.661 21.6868 111.752 21.6543C111.843 21.6217 111.967 21.599 112.123 21.5859C112.279 21.5729 112.478 21.5664 112.719 21.5664C112.96 21.5664 113.155 21.5729 113.305 21.5859C113.461 21.599 113.581 21.6217 113.666 21.6543C113.757 21.6803 113.819 21.7194 113.852 21.7715C113.884 21.8171 113.9 21.8724 113.9 21.9375ZM123.793 30.668C123.793 30.7331 123.773 30.7917 123.734 30.8438C123.695 30.8893 123.63 30.9284 123.539 30.9609C123.448 30.9935 123.321 31.0163 123.158 31.0293C123.002 31.0488 122.807 31.0586 122.572 31.0586C122.331 31.0586 122.13 31.0488 121.967 31.0293C121.811 31.0163 121.687 30.9935 121.596 30.9609C121.505 30.9284 121.439 30.8893 121.4 30.8438C121.361 30.7917 121.342 30.7331 121.342 30.668V25.6973C121.342 25.2741 121.309 24.9421 121.244 24.7012C121.186 24.4603 121.098 24.2552 120.98 24.0859C120.863 23.9102 120.71 23.7767 120.521 23.6855C120.339 23.5879 120.124 23.5391 119.877 23.5391C119.564 23.5391 119.249 23.653 118.93 23.8809C118.611 24.1087 118.279 24.4408 117.934 24.877V30.668C117.934 30.7331 117.914 30.7917 117.875 30.8438C117.836 30.8893 117.768 30.9284 117.67 30.9609C117.579 30.9935 117.455 31.0163 117.299 31.0293C117.143 31.0488 116.944 31.0586 116.703 31.0586C116.462 31.0586 116.264 31.0488 116.107 31.0293C115.951 31.0163 115.824 30.9935 115.727 30.9609C115.635 30.9284 115.57 30.8893 115.531 30.8438C115.492 30.7917 115.473 30.7331 115.473 30.668V21.957C115.473 21.8919 115.489 21.8366 115.521 21.791C115.554 21.7389 115.613 21.6966 115.697 21.6641C115.782 21.6315 115.889 21.6087 116.02 21.5957C116.156 21.5762 116.326 21.5664 116.527 21.5664C116.736 21.5664 116.908 21.5762 117.045 21.5957C117.182 21.6087 117.286 21.6315 117.357 21.6641C117.436 21.6966 117.491 21.7389 117.523 21.791C117.556 21.8366 117.572 21.8919 117.572 21.957V22.9629C118.054 22.4421 118.542 22.0514 119.037 21.791C119.538 21.5306 120.059 21.4004 120.6 21.4004C121.192 21.4004 121.69 21.498 122.094 21.6934C122.504 21.8887 122.833 22.1556 123.08 22.4941C123.334 22.8262 123.516 23.2168 123.627 23.666C123.738 24.1152 123.793 24.6556 123.793 25.2871V30.668ZM128.676 30.668C128.676 30.7331 128.656 30.7917 128.617 30.8438C128.578 30.8893 128.51 30.9284 128.412 30.9609C128.321 30.9935 128.197 31.0163 128.041 31.0293C127.885 31.0488 127.686 31.0586 127.445 31.0586C127.204 31.0586 127.006 31.0488 126.85 31.0293C126.693 31.0163 126.566 30.9935 126.469 30.9609C126.378 30.9284 126.312 30.8893 126.273 30.8438C126.234 30.7917 126.215 30.7331 126.215 30.668V17.8262C126.215 17.7611 126.234 17.7025 126.273 17.6504C126.312 17.5983 126.378 17.556 126.469 17.5234C126.566 17.4844 126.693 17.4551 126.85 17.4355C127.006 17.416 127.204 17.4062 127.445 17.4062C127.686 17.4062 127.885 17.416 128.041 17.4355C128.197 17.4551 128.321 17.4844 128.412 17.5234C128.51 17.556 128.578 17.5983 128.617 17.6504C128.656 17.7025 128.676 17.7611 128.676 17.8262V30.668ZM139.945 26.2246C139.945 26.9668 139.848 27.6439 139.652 28.2559C139.457 28.8678 139.161 29.3952 138.764 29.8379C138.367 30.2806 137.868 30.6224 137.27 30.8633C136.671 31.1042 135.971 31.2246 135.17 31.2246C134.395 31.2246 133.721 31.1172 133.148 30.9023C132.576 30.6875 132.1 30.375 131.723 29.9648C131.345 29.5547 131.065 29.0501 130.883 28.4512C130.701 27.8522 130.609 27.1686 130.609 26.4004C130.609 25.6582 130.707 24.9811 130.902 24.3691C131.104 23.7507 131.404 23.2233 131.801 22.7871C132.198 22.3444 132.693 22.0026 133.285 21.7617C133.884 21.5208 134.584 21.4004 135.385 21.4004C136.166 21.4004 136.843 21.5078 137.416 21.7227C137.989 21.931 138.461 22.2402 138.832 22.6504C139.21 23.0605 139.49 23.5651 139.672 24.1641C139.854 24.763 139.945 25.4499 139.945 26.2246ZM137.416 26.3223C137.416 25.8926 137.38 25.4987 137.309 25.1406C137.243 24.776 137.13 24.4603 136.967 24.1934C136.804 23.9264 136.586 23.7181 136.312 23.5684C136.046 23.4186 135.707 23.3438 135.297 23.3438C134.932 23.3438 134.613 23.4121 134.34 23.5488C134.066 23.679 133.842 23.8743 133.666 24.1348C133.49 24.3887 133.357 24.6979 133.266 25.0625C133.181 25.4206 133.139 25.8307 133.139 26.293C133.139 26.7227 133.174 27.1198 133.246 27.4844C133.318 27.8424 133.432 28.1549 133.588 28.4219C133.751 28.6888 133.969 28.8971 134.242 29.0469C134.516 29.1901 134.854 29.2617 135.258 29.2617C135.629 29.2617 135.951 29.1966 136.225 29.0664C136.498 28.9297 136.723 28.7344 136.898 28.4805C137.074 28.2266 137.204 27.9206 137.289 27.5625C137.374 27.1979 137.416 26.7845 137.416 26.3223ZM149.32 30.6973C149.32 30.7884 149.288 30.86 149.223 30.9121C149.158 30.9642 149.053 31 148.91 31.0195C148.773 31.0456 148.568 31.0586 148.295 31.0586C148.002 31.0586 147.787 31.0456 147.65 31.0195C147.52 31 147.426 30.9642 147.367 30.9121C147.315 30.86 147.289 30.7884 147.289 30.6973V30.0039C146.931 30.388 146.521 30.6875 146.059 30.9023C145.603 31.1172 145.095 31.2246 144.535 31.2246C144.073 31.2246 143.646 31.1628 143.256 31.0391C142.872 30.9219 142.536 30.7461 142.25 30.5117C141.97 30.2708 141.752 29.9746 141.596 29.623C141.439 29.2715 141.361 28.8613 141.361 28.3926C141.361 27.8848 141.459 27.4453 141.654 27.0742C141.856 26.6966 142.152 26.3874 142.543 26.1465C142.94 25.8991 143.432 25.7168 144.018 25.5996C144.604 25.4824 145.284 25.4238 146.059 25.4238H146.908V24.8965C146.908 24.623 146.879 24.3854 146.82 24.1836C146.768 23.9753 146.677 23.8027 146.547 23.666C146.423 23.5293 146.254 23.4284 146.039 23.3633C145.831 23.2982 145.57 23.2656 145.258 23.2656C144.848 23.2656 144.48 23.3112 144.154 23.4023C143.835 23.4935 143.552 23.5944 143.305 23.7051C143.057 23.8158 142.849 23.9167 142.68 24.0078C142.517 24.099 142.383 24.1445 142.279 24.1445C142.208 24.1445 142.143 24.1217 142.084 24.0762C142.032 24.0306 141.986 23.9655 141.947 23.8809C141.915 23.7962 141.889 23.6921 141.869 23.5684C141.85 23.4447 141.84 23.3079 141.84 23.1582C141.84 22.9564 141.856 22.7969 141.889 22.6797C141.921 22.5625 141.983 22.4583 142.074 22.3672C142.165 22.2695 142.325 22.1654 142.553 22.0547C142.781 21.9375 143.048 21.8301 143.354 21.7324C143.66 21.6348 143.992 21.5566 144.35 21.498C144.714 21.4329 145.089 21.4004 145.473 21.4004C146.156 21.4004 146.739 21.4688 147.221 21.6055C147.709 21.7357 148.109 21.9408 148.422 22.2207C148.734 22.4941 148.962 22.849 149.105 23.2852C149.249 23.7214 149.32 24.2389 149.32 24.8379V30.6973ZM146.908 26.9668H145.971C145.574 26.9668 145.235 26.9961 144.955 27.0547C144.675 27.1133 144.447 27.2012 144.271 27.3184C144.096 27.4355 143.965 27.5788 143.881 27.748C143.803 27.9108 143.764 28.0996 143.764 28.3145C143.764 28.679 143.878 28.9655 144.105 29.1738C144.34 29.3822 144.662 29.4863 145.072 29.4863C145.417 29.4863 145.733 29.3984 146.02 29.2227C146.312 29.0469 146.609 28.7897 146.908 28.4512V26.9668ZM160.043 30.668C160.043 30.7396 160.027 30.8014 159.994 30.8535C159.962 30.8991 159.906 30.9382 159.828 30.9707C159.75 31.0033 159.643 31.026 159.506 31.0391C159.376 31.0521 159.213 31.0586 159.018 31.0586C158.809 31.0586 158.64 31.0521 158.51 31.0391C158.38 31.026 158.272 31.0033 158.188 30.9707C158.109 30.9382 158.051 30.8991 158.012 30.8535C157.979 30.8014 157.963 30.7396 157.963 30.668V29.7012C157.514 30.1829 157.042 30.5573 156.547 30.8242C156.059 31.0911 155.515 31.2246 154.916 31.2246C154.252 31.2246 153.689 31.0977 153.227 30.8438C152.771 30.5833 152.396 30.235 152.104 29.7988C151.817 29.3626 151.609 28.8548 151.479 28.2754C151.348 27.6895 151.283 27.0742 151.283 26.4297C151.283 25.6549 151.365 24.9583 151.527 24.3398C151.697 23.7214 151.941 23.194 152.26 22.7578C152.579 22.3216 152.976 21.9863 153.451 21.752C153.926 21.5176 154.473 21.4004 155.092 21.4004C155.58 21.4004 156.023 21.5013 156.42 21.7031C156.817 21.8984 157.211 22.1882 157.602 22.5723V17.8555C157.602 17.7904 157.618 17.7318 157.65 17.6797C157.689 17.6276 157.755 17.5853 157.846 17.5527C157.943 17.5137 158.07 17.4844 158.227 17.4648C158.383 17.4453 158.581 17.4355 158.822 17.4355C159.063 17.4355 159.262 17.4453 159.418 17.4648C159.574 17.4844 159.698 17.5137 159.789 17.5527C159.88 17.5853 159.945 17.6276 159.984 17.6797C160.023 17.7318 160.043 17.7904 160.043 17.8555V30.668ZM157.602 24.8477C157.25 24.4049 156.911 24.0664 156.586 23.832C156.267 23.5977 155.932 23.4805 155.58 23.4805C155.261 23.4805 154.984 23.5618 154.75 23.7246C154.522 23.8809 154.337 24.0924 154.193 24.3594C154.057 24.6263 153.952 24.9258 153.881 25.2578C153.816 25.5833 153.783 25.9186 153.783 26.2637C153.783 26.6283 153.812 26.9831 153.871 27.3281C153.93 27.6732 154.024 27.9824 154.154 28.2559C154.291 28.5228 154.47 28.7376 154.691 28.9004C154.913 29.0632 155.193 29.1445 155.531 29.1445C155.701 29.1445 155.863 29.1217 156.02 29.0762C156.182 29.0241 156.345 28.9427 156.508 28.832C156.677 28.7214 156.85 28.5781 157.025 28.4023C157.201 28.2201 157.393 27.9987 157.602 27.7383V24.8477ZM175.863 26.2246C175.863 26.9668 175.766 27.6439 175.57 28.2559C175.375 28.8678 175.079 29.3952 174.682 29.8379C174.285 30.2806 173.786 30.6224 173.188 30.8633C172.589 31.1042 171.889 31.2246 171.088 31.2246C170.313 31.2246 169.639 31.1172 169.066 30.9023C168.493 30.6875 168.018 30.375 167.641 29.9648C167.263 29.5547 166.983 29.0501 166.801 28.4512C166.618 27.8522 166.527 27.1686 166.527 26.4004C166.527 25.6582 166.625 24.9811 166.82 24.3691C167.022 23.7507 167.322 23.2233 167.719 22.7871C168.116 22.3444 168.611 22.0026 169.203 21.7617C169.802 21.5208 170.502 21.4004 171.303 21.4004C172.084 21.4004 172.761 21.5078 173.334 21.7227C173.907 21.931 174.379 22.2402 174.75 22.6504C175.128 23.0605 175.408 23.5651 175.59 24.1641C175.772 24.763 175.863 25.4499 175.863 26.2246ZM173.334 26.3223C173.334 25.8926 173.298 25.4987 173.227 25.1406C173.161 24.776 173.048 24.4603 172.885 24.1934C172.722 23.9264 172.504 23.7181 172.23 23.5684C171.964 23.4186 171.625 23.3438 171.215 23.3438C170.85 23.3438 170.531 23.4121 170.258 23.5488C169.984 23.679 169.76 23.8743 169.584 24.1348C169.408 24.3887 169.275 24.6979 169.184 25.0625C169.099 25.4206 169.057 25.8307 169.057 26.293C169.057 26.7227 169.092 27.1198 169.164 27.4844C169.236 27.8424 169.35 28.1549 169.506 28.4219C169.669 28.6888 169.887 28.8971 170.16 29.0469C170.434 29.1901 170.772 29.2617 171.176 29.2617C171.547 29.2617 171.869 29.1966 172.143 29.0664C172.416 28.9297 172.641 28.7344 172.816 28.4805C172.992 28.2266 173.122 27.9206 173.207 27.5625C173.292 27.1979 173.334 26.7845 173.334 26.3223ZM186.137 30.668C186.137 30.7331 186.117 30.7917 186.078 30.8438C186.039 30.8893 185.974 30.9284 185.883 30.9609C185.792 30.9935 185.665 31.0163 185.502 31.0293C185.346 31.0488 185.15 31.0586 184.916 31.0586C184.675 31.0586 184.473 31.0488 184.311 31.0293C184.154 31.0163 184.031 30.9935 183.939 30.9609C183.848 30.9284 183.783 30.8893 183.744 30.8438C183.705 30.7917 183.686 30.7331 183.686 30.668V25.6973C183.686 25.2741 183.653 24.9421 183.588 24.7012C183.529 24.4603 183.441 24.2552 183.324 24.0859C183.207 23.9102 183.054 23.7767 182.865 23.6855C182.683 23.5879 182.468 23.5391 182.221 23.5391C181.908 23.5391 181.592 23.653 181.273 23.8809C180.954 24.1087 180.622 24.4408 180.277 24.877V30.668C180.277 30.7331 180.258 30.7917 180.219 30.8438C180.18 30.8893 180.111 30.9284 180.014 30.9609C179.923 30.9935 179.799 31.0163 179.643 31.0293C179.486 31.0488 179.288 31.0586 179.047 31.0586C178.806 31.0586 178.607 31.0488 178.451 31.0293C178.295 31.0163 178.168 30.9935 178.07 30.9609C177.979 30.9284 177.914 30.8893 177.875 30.8438C177.836 30.7917 177.816 30.7331 177.816 30.668V21.957C177.816 21.8919 177.833 21.8366 177.865 21.791C177.898 21.7389 177.956 21.6966 178.041 21.6641C178.126 21.6315 178.233 21.6087 178.363 21.5957C178.5 21.5762 178.669 21.5664 178.871 21.5664C179.079 21.5664 179.252 21.5762 179.389 21.5957C179.525 21.6087 179.63 21.6315 179.701 21.6641C179.779 21.6966 179.835 21.7389 179.867 21.791C179.9 21.8366 179.916 21.8919 179.916 21.957V22.9629C180.398 22.4421 180.886 22.0514 181.381 21.791C181.882 21.5306 182.403 21.4004 182.943 21.4004C183.536 21.4004 184.034 21.498 184.438 21.6934C184.848 21.8887 185.176 22.1556 185.424 22.4941C185.678 22.8262 185.86 23.2168 185.971 23.666C186.081 24.1152 186.137 24.6556 186.137 25.2871V30.668ZM198.246 29.8086C198.246 30.0951 198.227 30.3164 198.188 30.4727C198.155 30.6224 198.109 30.7298 198.051 30.7949C197.992 30.8535 197.904 30.9089 197.787 30.9609C197.676 31.0065 197.543 31.0456 197.387 31.0781C197.237 31.1172 197.071 31.1465 196.889 31.166C196.713 31.1855 196.534 31.1953 196.352 31.1953C195.863 31.1953 195.44 31.1335 195.082 31.0098C194.724 30.8861 194.428 30.6973 194.193 30.4434C193.959 30.1829 193.786 29.8574 193.676 29.4668C193.565 29.0762 193.51 28.6139 193.51 28.0801V23.6172H192.465C192.341 23.6172 192.247 23.5423 192.182 23.3926C192.117 23.2363 192.084 22.9792 192.084 22.6211C192.084 22.4323 192.09 22.2728 192.104 22.1426C192.123 22.0124 192.149 21.9115 192.182 21.8398C192.214 21.7617 192.253 21.7064 192.299 21.6738C192.351 21.6413 192.41 21.625 192.475 21.625H193.51V19.6816C193.51 19.6165 193.526 19.5579 193.559 19.5059C193.598 19.4538 193.663 19.4115 193.754 19.3789C193.852 19.3398 193.979 19.3138 194.135 19.3008C194.298 19.2812 194.496 19.2715 194.73 19.2715C194.971 19.2715 195.17 19.2812 195.326 19.3008C195.489 19.3138 195.616 19.3398 195.707 19.3789C195.798 19.4115 195.863 19.4538 195.902 19.5059C195.941 19.5579 195.961 19.6165 195.961 19.6816V21.625H197.855C197.921 21.625 197.976 21.6413 198.021 21.6738C198.074 21.7064 198.116 21.7617 198.148 21.8398C198.181 21.9115 198.204 22.0124 198.217 22.1426C198.236 22.2728 198.246 22.4323 198.246 22.6211C198.246 22.9792 198.214 23.2363 198.148 23.3926C198.083 23.5423 197.989 23.6172 197.865 23.6172H195.961V27.709C195.961 28.1842 196.036 28.5423 196.186 28.7832C196.335 29.0176 196.602 29.1348 196.986 29.1348C197.117 29.1348 197.234 29.125 197.338 29.1055C197.442 29.0794 197.533 29.0534 197.611 29.0273C197.696 28.9948 197.764 28.9688 197.816 28.9492C197.875 28.9232 197.927 28.9102 197.973 28.9102C198.012 28.9102 198.048 28.9232 198.08 28.9492C198.119 28.9688 198.148 29.0143 198.168 29.0859C198.188 29.151 198.204 29.2422 198.217 29.3594C198.236 29.4766 198.246 29.6263 198.246 29.8086ZM208.344 30.668C208.344 30.7331 208.324 30.7917 208.285 30.8438C208.246 30.8893 208.181 30.9284 208.09 30.9609C207.999 30.9935 207.872 31.0163 207.709 31.0293C207.553 31.0488 207.357 31.0586 207.123 31.0586C206.882 31.0586 206.68 31.0488 206.518 31.0293C206.361 31.0163 206.238 30.9935 206.146 30.9609C206.055 30.9284 205.99 30.8893 205.951 30.8438C205.912 30.7917 205.893 30.7331 205.893 30.668V25.6973C205.893 25.2741 205.86 24.9421 205.795 24.7012C205.736 24.4603 205.648 24.2552 205.531 24.0859C205.414 23.9102 205.261 23.7767 205.072 23.6855C204.89 23.5879 204.675 23.5391 204.428 23.5391C204.115 23.5391 203.799 23.653 203.48 23.8809C203.161 24.1087 202.829 24.4408 202.484 24.877V30.668C202.484 30.7331 202.465 30.7917 202.426 30.8438C202.387 30.8893 202.318 30.9284 202.221 30.9609C202.13 30.9935 202.006 31.0163 201.85 31.0293C201.693 31.0488 201.495 31.0586 201.254 31.0586C201.013 31.0586 200.814 31.0488 200.658 31.0293C200.502 31.0163 200.375 30.9935 200.277 30.9609C200.186 30.9284 200.121 30.8893 200.082 30.8438C200.043 30.7917 200.023 30.7331 200.023 30.668V17.8262C200.023 17.7611 200.043 17.7025 200.082 17.6504C200.121 17.5983 200.186 17.556 200.277 17.5234C200.375 17.4844 200.502 17.4551 200.658 17.4355C200.814 17.416 201.013 17.4062 201.254 17.4062C201.495 17.4062 201.693 17.416 201.85 17.4355C202.006 17.4551 202.13 17.4844 202.221 17.5234C202.318 17.556 202.387 17.5983 202.426 17.6504C202.465 17.7025 202.484 17.7611 202.484 17.8262V22.6406C202.908 22.224 203.337 21.9147 203.773 21.7129C204.216 21.5046 204.675 21.4004 205.15 21.4004C205.743 21.4004 206.241 21.498 206.645 21.6934C207.055 21.8887 207.383 22.1556 207.631 22.4941C207.885 22.8327 208.067 23.2298 208.178 23.6855C208.288 24.1348 208.344 24.6816 208.344 25.3262V30.668ZM218.812 26.0586C218.812 26.3581 218.744 26.5794 218.607 26.7227C218.477 26.8659 218.295 26.9375 218.061 26.9375H212.758C212.758 27.3086 212.8 27.6471 212.885 27.9531C212.976 28.2526 213.116 28.5098 213.305 28.7246C213.5 28.9329 213.747 29.0924 214.047 29.2031C214.353 29.3138 214.717 29.3691 215.141 29.3691C215.57 29.3691 215.948 29.3398 216.273 29.2812C216.599 29.2161 216.879 29.1478 217.113 29.0762C217.354 28.998 217.553 28.9297 217.709 28.8711C217.865 28.806 217.992 28.7734 218.09 28.7734C218.148 28.7734 218.197 28.7865 218.236 28.8125C218.275 28.832 218.308 28.8711 218.334 28.9297C218.36 28.9883 218.376 29.0729 218.383 29.1836C218.396 29.2878 218.402 29.4212 218.402 29.584C218.402 29.7272 218.399 29.8509 218.393 29.9551C218.386 30.0527 218.376 30.1374 218.363 30.209C218.35 30.2806 218.331 30.3424 218.305 30.3945C218.279 30.4401 218.243 30.4857 218.197 30.5312C218.158 30.5768 218.044 30.6387 217.855 30.7168C217.667 30.7949 217.426 30.873 217.133 30.9512C216.84 31.0228 216.505 31.0846 216.127 31.1367C215.749 31.1953 215.346 31.2246 214.916 31.2246C214.141 31.2246 213.461 31.127 212.875 30.9316C212.296 30.7363 211.811 30.4401 211.42 30.043C211.029 29.6458 210.736 29.1445 210.541 28.5391C210.352 27.9336 210.258 27.224 210.258 26.4102C210.258 25.6354 210.359 24.9388 210.561 24.3203C210.762 23.6953 211.055 23.168 211.439 22.7383C211.824 22.3021 212.289 21.9701 212.836 21.7422C213.389 21.5143 214.011 21.4004 214.701 21.4004C215.43 21.4004 216.052 21.5078 216.566 21.7227C217.087 21.9375 217.514 22.237 217.846 22.6211C218.178 22.9987 218.422 23.4479 218.578 23.9688C218.734 24.4896 218.812 25.056 218.812 25.668V26.0586ZM216.43 25.3555C216.449 24.6654 216.309 24.125 216.01 23.7344C215.717 23.3372 215.261 23.1387 214.643 23.1387C214.33 23.1387 214.057 23.1973 213.822 23.3145C213.594 23.4316 213.402 23.5911 213.246 23.793C213.096 23.9883 212.979 24.2227 212.895 24.4961C212.816 24.763 212.771 25.0495 212.758 25.3555H216.43Z" fill="white"/>
<path d="M97.1113 63.2773C97.252 63.6992 97.3398 64.0332 97.375 64.2793C97.4102 64.5254 97.3633 64.7129 97.2344 64.8418C97.1055 64.959 96.877 65.0293 96.5488 65.0527C96.2207 65.0879 95.7695 65.1055 95.1953 65.1055C94.5977 65.1055 94.1289 65.0938 93.7891 65.0703C93.4609 65.0586 93.209 65.0293 93.0332 64.9824C92.8574 64.9238 92.7344 64.8477 92.6641 64.7539C92.5938 64.6602 92.5352 64.5371 92.4883 64.3848L90.959 59.8145H82.416L80.9746 64.2617C80.9277 64.4258 80.8633 64.5664 80.7812 64.6836C80.7109 64.7891 80.5879 64.877 80.4121 64.9473C80.248 65.0059 80.0078 65.0469 79.6914 65.0703C79.3867 65.0938 78.9824 65.1055 78.4785 65.1055C77.9395 65.1055 77.5176 65.0879 77.2129 65.0527C76.9082 65.0176 76.6973 64.9355 76.5801 64.8066C76.4629 64.666 76.4219 64.4727 76.457 64.2266C76.4922 63.9805 76.5801 63.6523 76.7207 63.2422L83.7344 43.0625C83.8047 42.8633 83.8867 42.7051 83.9805 42.5879C84.0742 42.459 84.2207 42.3652 84.4199 42.3066C84.6309 42.2363 84.918 42.1953 85.2812 42.1836C85.6445 42.1602 86.125 42.1484 86.7227 42.1484C87.4141 42.1484 87.9648 42.1602 88.375 42.1836C88.7852 42.1953 89.1016 42.2363 89.3242 42.3066C89.5586 42.3652 89.7227 42.459 89.8164 42.5879C89.9219 42.7168 90.0098 42.8926 90.0801 43.1152L97.1113 63.2773ZM86.6699 46.5957H86.6523L83.4355 56.2637H89.8867L86.6699 46.5957ZM115.885 49.1621C115.885 50.4395 115.686 51.5703 115.287 52.5547C114.889 53.5391 114.309 54.3711 113.547 55.0508C112.785 55.7188 111.848 56.2285 110.734 56.5801C109.633 56.9316 108.332 57.1074 106.832 57.1074H104.934V64.3672C104.934 64.4844 104.893 64.5898 104.811 64.6836C104.74 64.7773 104.617 64.8535 104.441 64.9121C104.266 64.9707 104.031 65.0176 103.738 65.0527C103.445 65.0879 103.07 65.1055 102.613 65.1055C102.168 65.1055 101.793 65.0879 101.488 65.0527C101.195 65.0176 100.961 64.9707 100.785 64.9121C100.609 64.8535 100.486 64.7773 100.416 64.6836C100.346 64.5898 100.311 64.4844 100.311 64.3672V43.9062C100.311 43.3555 100.451 42.9453 100.732 42.6758C101.025 42.3945 101.406 42.2539 101.875 42.2539H107.236C107.775 42.2539 108.285 42.2773 108.766 42.3242C109.258 42.3594 109.844 42.4473 110.523 42.5879C111.203 42.7168 111.889 42.9629 112.58 43.3262C113.283 43.6895 113.881 44.1523 114.373 44.7148C114.865 45.2656 115.24 45.916 115.498 46.666C115.756 47.4043 115.885 48.2363 115.885 49.1621ZM111.051 49.4961C111.051 48.6992 110.91 48.043 110.629 47.5273C110.348 47.0117 110.002 46.6309 109.592 46.3848C109.182 46.1387 108.748 45.9863 108.291 45.9277C107.846 45.8574 107.383 45.8223 106.902 45.8223H104.934V53.5391H107.008C107.746 53.5391 108.361 53.4395 108.854 53.2402C109.357 53.041 109.768 52.7656 110.084 52.4141C110.4 52.0508 110.641 51.623 110.805 51.1309C110.969 50.627 111.051 50.082 111.051 49.4961ZM135.045 49.1621C135.045 50.4395 134.846 51.5703 134.447 52.5547C134.049 53.5391 133.469 54.3711 132.707 55.0508C131.945 55.7188 131.008 56.2285 129.895 56.5801C128.793 56.9316 127.492 57.1074 125.992 57.1074H124.094V64.3672C124.094 64.4844 124.053 64.5898 123.971 64.6836C123.9 64.7773 123.777 64.8535 123.602 64.9121C123.426 64.9707 123.191 65.0176 122.898 65.0527C122.605 65.0879 122.23 65.1055 121.773 65.1055C121.328 65.1055 120.953 65.0879 120.648 65.0527C120.355 65.0176 120.121 64.9707 119.945 64.9121C119.77 64.8535 119.646 64.7773 119.576 64.6836C119.506 64.5898 119.471 64.4844 119.471 64.3672V43.9062C119.471 43.3555 119.611 42.9453 119.893 42.6758C120.186 42.3945 120.566 42.2539 121.035 42.2539H126.396C126.936 42.2539 127.445 42.2773 127.926 42.3242C128.418 42.3594 129.004 42.4473 129.684 42.5879C130.363 42.7168 131.049 42.9629 131.74 43.3262C132.443 43.6895 133.041 44.1523 133.533 44.7148C134.025 45.2656 134.4 45.916 134.658 46.666C134.916 47.4043 135.045 48.2363 135.045 49.1621ZM130.211 49.4961C130.211 48.6992 130.07 48.043 129.789 47.5273C129.508 47.0117 129.162 46.6309 128.752 46.3848C128.342 46.1387 127.908 45.9863 127.451 45.9277C127.006 45.8574 126.543 45.8223 126.062 45.8223H124.094V53.5391H126.168C126.906 53.5391 127.521 53.4395 128.014 53.2402C128.518 53.041 128.928 52.7656 129.244 52.4141C129.561 52.0508 129.801 51.623 129.965 51.1309C130.129 50.627 130.211 50.082 130.211 49.4961ZM160.27 58.1797C160.27 59.375 160.047 60.4238 159.602 61.3262C159.156 62.2285 158.553 62.9844 157.791 63.5938C157.029 64.1914 156.139 64.6426 155.119 64.9473C154.1 65.252 153.01 65.4043 151.85 65.4043C151.064 65.4043 150.332 65.3398 149.652 65.2109C148.984 65.082 148.393 64.9297 147.877 64.7539C147.361 64.5664 146.928 64.373 146.576 64.1738C146.236 63.9746 145.99 63.7988 145.838 63.6465C145.686 63.4941 145.574 63.2773 145.504 62.9961C145.445 62.7031 145.416 62.2871 145.416 61.748C145.416 61.3848 145.428 61.0801 145.451 60.834C145.475 60.5879 145.51 60.3887 145.557 60.2363C145.615 60.084 145.686 59.9785 145.768 59.9199C145.861 59.8496 145.967 59.8145 146.084 59.8145C146.248 59.8145 146.477 59.9141 146.77 60.1133C147.074 60.3008 147.461 60.5117 147.93 60.7461C148.398 60.9805 148.955 61.1973 149.6 61.3965C150.256 61.584 151.012 61.6777 151.867 61.6777C152.43 61.6777 152.934 61.6133 153.379 61.4844C153.824 61.3438 154.199 61.1504 154.504 60.9043C154.82 60.6582 155.061 60.3535 155.225 59.9902C155.389 59.627 155.471 59.2227 155.471 58.7773C155.471 58.2617 155.33 57.8223 155.049 57.459C154.768 57.084 154.398 56.7559 153.941 56.4746C153.496 56.1816 152.986 55.9121 152.412 55.666C151.838 55.4082 151.246 55.1387 150.637 54.8574C150.027 54.5762 149.436 54.2598 148.861 53.9082C148.287 53.5449 147.771 53.1172 147.314 52.625C146.869 52.1211 146.506 51.5293 146.225 50.8496C145.943 50.1699 145.803 49.3555 145.803 48.4062C145.803 47.3164 146.002 46.3613 146.4 45.541C146.811 44.709 147.355 44.0234 148.035 43.4844C148.727 42.9336 149.535 42.5234 150.461 42.2539C151.398 41.9844 152.389 41.8496 153.432 41.8496C153.971 41.8496 154.51 41.8906 155.049 41.9727C155.588 42.0547 156.092 42.166 156.561 42.3066C157.029 42.4473 157.445 42.6055 157.809 42.7812C158.172 42.957 158.412 43.1035 158.529 43.2207C158.646 43.3379 158.723 43.4375 158.758 43.5195C158.805 43.6016 158.84 43.7129 158.863 43.8535C158.898 43.9824 158.922 44.1523 158.934 44.3633C158.945 44.5625 158.951 44.8145 158.951 45.1191C158.951 45.459 158.939 45.7461 158.916 45.9805C158.904 46.2148 158.875 46.4082 158.828 46.5605C158.793 46.7129 158.734 46.8242 158.652 46.8945C158.582 46.9648 158.482 47 158.354 47C158.225 47 158.02 46.918 157.738 46.7539C157.457 46.5898 157.111 46.4141 156.701 46.2266C156.291 46.0273 155.816 45.8516 155.277 45.6992C154.738 45.5352 154.146 45.4531 153.502 45.4531C152.998 45.4531 152.559 45.5176 152.184 45.6465C151.809 45.7637 151.492 45.9336 151.234 46.1562C150.988 46.3672 150.801 46.625 150.672 46.9297C150.555 47.2344 150.496 47.5566 150.496 47.8965C150.496 48.4004 150.631 48.8398 150.9 49.2148C151.182 49.5781 151.551 49.9062 152.008 50.1992C152.477 50.4805 153.004 50.75 153.59 51.0078C154.176 51.2539 154.773 51.5176 155.383 51.7988C155.992 52.0801 156.59 52.4023 157.176 52.7656C157.762 53.1172 158.283 53.5449 158.74 54.0488C159.197 54.541 159.566 55.127 159.848 55.8066C160.129 56.4746 160.27 57.2656 160.27 58.1797ZM172.82 62.8555C172.82 63.3711 172.785 63.7695 172.715 64.0508C172.656 64.3203 172.574 64.5137 172.469 64.6309C172.363 64.7363 172.205 64.8359 171.994 64.9297C171.795 65.0117 171.555 65.082 171.273 65.1406C171.004 65.2109 170.705 65.2637 170.377 65.2988C170.061 65.334 169.738 65.3516 169.41 65.3516C168.531 65.3516 167.77 65.2402 167.125 65.0176C166.48 64.7949 165.947 64.4551 165.525 63.998C165.104 63.5293 164.793 62.9434 164.594 62.2402C164.395 61.5371 164.295 60.7051 164.295 59.7441V51.7109H162.414C162.191 51.7109 162.021 51.5762 161.904 51.3066C161.787 51.0254 161.729 50.5625 161.729 49.918C161.729 49.5781 161.74 49.291 161.764 49.0566C161.799 48.8223 161.846 48.6406 161.904 48.5117C161.963 48.3711 162.033 48.2715 162.115 48.2129C162.209 48.1543 162.314 48.125 162.432 48.125H164.295V44.627C164.295 44.5098 164.324 44.4043 164.383 44.3105C164.453 44.2168 164.57 44.1406 164.734 44.082C164.91 44.0117 165.139 43.9648 165.42 43.9414C165.713 43.9062 166.07 43.8887 166.492 43.8887C166.926 43.8887 167.283 43.9062 167.564 43.9414C167.857 43.9648 168.086 44.0117 168.25 44.082C168.414 44.1406 168.531 44.2168 168.602 44.3105C168.672 44.4043 168.707 44.5098 168.707 44.627V48.125H172.117C172.234 48.125 172.334 48.1543 172.416 48.2129C172.51 48.2715 172.586 48.3711 172.645 48.5117C172.703 48.6406 172.744 48.8223 172.768 49.0566C172.803 49.291 172.82 49.5781 172.82 49.918C172.82 50.5625 172.762 51.0254 172.645 51.3066C172.527 51.5762 172.357 51.7109 172.135 51.7109H168.707V59.0762C168.707 59.9316 168.842 60.5762 169.111 61.0098C169.381 61.4316 169.861 61.6426 170.553 61.6426C170.787 61.6426 170.998 61.625 171.186 61.5898C171.373 61.543 171.537 61.4961 171.678 61.4492C171.83 61.3906 171.953 61.3438 172.047 61.3086C172.152 61.2617 172.246 61.2383 172.328 61.2383C172.398 61.2383 172.463 61.2617 172.521 61.3086C172.592 61.3438 172.645 61.4258 172.68 61.5547C172.715 61.6719 172.744 61.8359 172.768 62.0469C172.803 62.2578 172.82 62.5273 172.82 62.8555ZM191.523 56.4043C191.523 57.7402 191.348 58.959 190.996 60.0605C190.645 61.1621 190.111 62.1113 189.396 62.9082C188.682 63.7051 187.785 64.3203 186.707 64.7539C185.629 65.1875 184.369 65.4043 182.928 65.4043C181.533 65.4043 180.32 65.2109 179.289 64.8242C178.258 64.4375 177.402 63.875 176.723 63.1367C176.043 62.3984 175.539 61.4902 175.211 60.4121C174.883 59.334 174.719 58.1035 174.719 56.7207C174.719 55.3848 174.895 54.166 175.246 53.0645C175.609 51.9512 176.148 51.002 176.863 50.2168C177.578 49.4199 178.469 48.8047 179.535 48.3711C180.613 47.9375 181.873 47.7207 183.314 47.7207C184.721 47.7207 185.939 47.9141 186.971 48.3008C188.002 48.6758 188.852 49.2324 189.52 49.9707C190.199 50.709 190.703 51.6172 191.031 52.6953C191.359 53.7734 191.523 55.0098 191.523 56.4043ZM186.971 56.5801C186.971 55.8066 186.906 55.0977 186.777 54.4531C186.66 53.7969 186.455 53.2285 186.162 52.748C185.869 52.2676 185.477 51.8926 184.984 51.623C184.504 51.3535 183.895 51.2188 183.156 51.2188C182.5 51.2188 181.926 51.3418 181.434 51.5879C180.941 51.8223 180.537 52.1738 180.221 52.6426C179.904 53.0996 179.664 53.6562 179.5 54.3125C179.348 54.957 179.271 55.6953 179.271 56.5273C179.271 57.3008 179.336 58.0156 179.465 58.6719C179.594 59.3164 179.799 59.8789 180.08 60.3594C180.373 60.8398 180.766 61.2148 181.258 61.4844C181.75 61.7422 182.359 61.8711 183.086 61.8711C183.754 61.8711 184.334 61.7539 184.826 61.5195C185.318 61.2734 185.723 60.9219 186.039 60.4648C186.355 60.0078 186.59 59.457 186.742 58.8125C186.895 58.1562 186.971 57.4121 186.971 56.5801ZM205.111 50.1816C205.111 50.6035 205.1 50.9492 205.076 51.2188C205.053 51.4883 205.018 51.6992 204.971 51.8516C204.924 52.0039 204.859 52.1094 204.777 52.168C204.707 52.2266 204.613 52.2559 204.496 52.2559C204.402 52.2559 204.297 52.2383 204.18 52.2031C204.062 52.1562 203.928 52.1094 203.775 52.0625C203.635 52.0156 203.477 51.9746 203.301 51.9395C203.125 51.8926 202.932 51.8691 202.721 51.8691C202.475 51.8691 202.229 51.9219 201.982 52.0273C201.736 52.1211 201.479 52.2734 201.209 52.4844C200.951 52.6953 200.676 52.9766 200.383 53.3281C200.102 53.6797 199.797 54.1133 199.469 54.6289V64.4023C199.469 64.5195 199.434 64.625 199.363 64.7188C199.293 64.8008 199.17 64.8711 198.994 64.9297C198.83 64.9883 198.607 65.0293 198.326 65.0527C198.045 65.0879 197.688 65.1055 197.254 65.1055C196.82 65.1055 196.463 65.0879 196.182 65.0527C195.9 65.0293 195.672 64.9883 195.496 64.9297C195.332 64.8711 195.215 64.8008 195.145 64.7188C195.074 64.625 195.039 64.5195 195.039 64.4023V48.7227C195.039 48.6055 195.068 48.5059 195.127 48.4238C195.186 48.3301 195.291 48.2539 195.443 48.1953C195.596 48.1367 195.789 48.0957 196.023 48.0723C196.27 48.0371 196.574 48.0195 196.938 48.0195C197.312 48.0195 197.623 48.0371 197.869 48.0723C198.115 48.0957 198.303 48.1367 198.432 48.1953C198.572 48.2539 198.672 48.3301 198.73 48.4238C198.789 48.5059 198.818 48.6055 198.818 48.7227V50.6738C199.229 50.0879 199.615 49.6074 199.979 49.2324C200.342 48.8457 200.688 48.541 201.016 48.3184C201.344 48.0957 201.672 47.9434 202 47.8613C202.328 47.7676 202.656 47.7207 202.984 47.7207C203.137 47.7207 203.301 47.7324 203.477 47.7559C203.652 47.7676 203.834 47.7969 204.021 47.8438C204.209 47.8789 204.373 47.9258 204.514 47.9844C204.654 48.0312 204.754 48.084 204.812 48.1426C204.883 48.2012 204.93 48.2656 204.953 48.3359C204.988 48.4062 205.018 48.5059 205.041 48.6348C205.064 48.752 205.082 48.9336 205.094 49.1797C205.105 49.4258 205.111 49.7598 205.111 50.1816ZM221.898 56.1055C221.898 56.6445 221.775 57.043 221.529 57.3008C221.295 57.5586 220.967 57.6875 220.545 57.6875H211C211 58.3555 211.076 58.9648 211.229 59.5156C211.393 60.0547 211.645 60.5176 211.984 60.9043C212.336 61.2793 212.781 61.5664 213.32 61.7656C213.871 61.9648 214.527 62.0645 215.289 62.0645C216.062 62.0645 216.742 62.0117 217.328 61.9062C217.914 61.7891 218.418 61.666 218.84 61.5371C219.273 61.3965 219.631 61.2734 219.912 61.168C220.193 61.0508 220.422 60.9922 220.598 60.9922C220.703 60.9922 220.791 61.0156 220.861 61.0625C220.932 61.0977 220.99 61.168 221.037 61.2734C221.084 61.3789 221.113 61.5312 221.125 61.7305C221.148 61.918 221.16 62.1582 221.16 62.4512C221.16 62.709 221.154 62.9316 221.143 63.1191C221.131 63.2949 221.113 63.4473 221.09 63.5762C221.066 63.7051 221.031 63.8164 220.984 63.9102C220.938 63.9922 220.873 64.0742 220.791 64.1562C220.721 64.2383 220.516 64.3496 220.176 64.4902C219.836 64.6309 219.402 64.7715 218.875 64.9121C218.348 65.041 217.744 65.1523 217.064 65.2461C216.385 65.3516 215.658 65.4043 214.885 65.4043C213.49 65.4043 212.266 65.2285 211.211 64.877C210.168 64.5254 209.295 63.9922 208.592 63.2773C207.889 62.5625 207.361 61.6602 207.01 60.5703C206.67 59.4805 206.5 58.2031 206.5 56.7383C206.5 55.3438 206.682 54.0898 207.045 52.9766C207.408 51.8516 207.936 50.9023 208.627 50.1289C209.318 49.3438 210.156 48.7461 211.141 48.3359C212.137 47.9258 213.256 47.7207 214.498 47.7207C215.811 47.7207 216.93 47.9141 217.855 48.3008C218.793 48.6875 219.561 49.2266 220.158 49.918C220.756 50.5977 221.195 51.4062 221.477 52.3438C221.758 53.2812 221.898 54.3008 221.898 55.4023V56.1055ZM217.609 54.8398C217.645 53.5977 217.393 52.625 216.854 51.9219C216.326 51.207 215.506 50.8496 214.393 50.8496C213.83 50.8496 213.338 50.9551 212.916 51.166C212.506 51.377 212.16 51.6641 211.879 52.0273C211.609 52.3789 211.398 52.8008 211.246 53.293C211.105 53.7734 211.023 54.2891 211 54.8398H217.609Z" fill="white"/>
<path d="M37.8972 28.6535C35.4242 28.6535 31.5961 26.363 27.5647 26.4458C22.246 26.501 17.3677 28.957 14.6237 32.8481C9.10176 40.6578 13.2009 52.1929 18.5873 58.54C21.2297 61.6307 24.3464 65.1078 28.4794 64.9974C32.443 64.8595 33.9336 62.9001 38.7441 62.9001C43.5207 62.9001 44.8758 64.9974 49.0766 64.9146C53.3451 64.8595 56.0552 61.7687 58.6637 58.6504C61.6788 55.0629 62.9322 51.5858 63 51.3926C62.8984 51.365 54.7001 48.7986 54.5985 41.0717C54.5308 34.6142 61.069 31.5235 61.3739 31.3855C57.6474 26.9425 51.9222 26.4458 49.9235 26.3354C44.7064 26.0043 40.3363 28.6535 37.8972 28.6535ZM46.7052 22.1408C48.9072 19.9883 50.3639 16.9804 49.9574 14C46.8068 14.1104 43.0126 15.711 40.7428 17.8634C38.7102 19.7676 36.9486 22.8307 37.4229 25.7559C40.9122 25.9767 44.5032 24.2933 46.7052 22.1408Z" fill="white"/>
</svg>
