<svg width="259" height="88" viewBox="0 0 259 88" fill="none" xmlns="http://www.w3.org/2000/svg">
<g clip-path="url(#clip0_360_593)">
<path d="M40.6805 40.4065L22.1714 61.0242C22.3792 61.8074 22.7528 62.5297 23.2634 63.1358C23.774 63.742 24.4083 64.216 25.1176 64.5216C25.827 64.8272 26.5926 64.9564 27.3561 64.8992C28.1196 64.8419 28.8607 64.5999 29.5227 64.1915L50.349 51.5805L40.6805 40.4065Z" fill="#EA4335"/>
<path d="M59.3963 36.902L50.3903 31.4175L40.2529 40.8756L50.4315 51.5511L59.3689 46.1253C60.1607 45.6845 60.8238 45.0218 61.2866 44.2088C61.7493 43.3959 61.9939 42.4638 61.9939 41.5136C61.9939 40.5634 61.7493 39.6313 61.2866 38.8184C60.8238 38.0054 60.1607 37.3426 59.3689 36.9019L59.3963 36.902Z" fill="#FBBC04"/>
<path d="M22.1715 21.9006C22.0596 22.3404 22.0039 22.7941 22.0059 23.2497V59.675C22.0071 60.1304 22.0627 60.5838 22.1715 61.0242L41.3151 40.9345L22.1715 21.9006Z" fill="#4285F4"/>
<path d="M40.8185 41.4625L50.3904 31.4176L29.5917 18.7479C28.8092 18.2606 27.9192 18.0026 27.0123 18C24.7619 17.9954 22.7834 19.5834 22.1714 21.8861L40.8185 41.4625Z" fill="#34A853"/>
</g>
<rect x="2" y="2" width="255" height="84" rx="18" stroke="white" stroke-width="4"/>
<path d="M87.5137 20.3262C87.5137 20.515 87.5039 20.6777 87.4844 20.8145C87.4714 20.9512 87.4486 21.0618 87.416 21.1465C87.39 21.2246 87.3542 21.2799 87.3086 21.3125C87.2695 21.3451 87.2207 21.3613 87.1621 21.3613C87.0775 21.3613 86.9408 21.3027 86.752 21.1855C86.5632 21.0684 86.3125 20.9414 86 20.8047C85.6875 20.668 85.3132 20.541 84.877 20.4238C84.4473 20.3066 83.946 20.248 83.373 20.248C82.7611 20.248 82.2077 20.3555 81.7129 20.5703C81.2181 20.7786 80.7949 21.0781 80.4434 21.4688C80.0918 21.8529 79.8216 22.3184 79.6328 22.8652C79.444 23.4056 79.3496 24.0046 79.3496 24.6621C79.3496 25.3848 79.444 26.0228 79.6328 26.5762C79.8281 27.123 80.0983 27.582 80.4434 27.9531C80.7884 28.3242 81.2018 28.6042 81.6836 28.793C82.1719 28.9818 82.709 29.0762 83.2949 29.0762C83.5814 29.0762 83.8646 29.0436 84.1445 28.9785C84.4245 28.9134 84.6849 28.8158 84.9258 28.6855V25.7559H82.5332C82.416 25.7559 82.3249 25.6842 82.2598 25.541C82.1947 25.3913 82.1621 25.1406 82.1621 24.7891C82.1621 24.6068 82.1686 24.4538 82.1816 24.3301C82.2012 24.2064 82.2272 24.1087 82.2598 24.0371C82.2923 23.959 82.3314 23.9036 82.377 23.8711C82.4225 23.832 82.4746 23.8125 82.5332 23.8125H86.8008C86.9049 23.8125 86.9961 23.832 87.0742 23.8711C87.1589 23.9036 87.2305 23.9557 87.2891 24.0273C87.3542 24.099 87.403 24.1868 87.4355 24.291C87.4681 24.3887 87.4844 24.5026 87.4844 24.6328V29.6621C87.4844 29.8574 87.4486 30.0299 87.377 30.1797C87.3118 30.3229 87.1719 30.4368 86.957 30.5215C86.7487 30.6061 86.4883 30.694 86.1758 30.7852C85.8633 30.8763 85.5378 30.9544 85.1992 31.0195C84.8672 31.0846 84.5286 31.1335 84.1836 31.166C83.8451 31.1986 83.5033 31.2148 83.1582 31.2148C82.1491 31.2148 81.2441 31.0716 80.4434 30.7852C79.6491 30.4922 78.9753 30.0723 78.4219 29.5254C77.8685 28.972 77.4453 28.3014 77.1523 27.5137C76.8594 26.7194 76.7129 25.821 76.7129 24.8184C76.7129 23.7832 76.8691 22.8555 77.1816 22.0352C77.4941 21.2083 77.9368 20.5085 78.5098 19.9355C79.0827 19.3561 79.7728 18.9134 80.5801 18.6074C81.3939 18.3014 82.2988 18.1484 83.2949 18.1484C83.8418 18.1484 84.3398 18.1875 84.7891 18.2656C85.2383 18.3372 85.6289 18.4284 85.9609 18.5391C86.2995 18.6432 86.5794 18.7572 86.8008 18.8809C87.0221 19.0046 87.1751 19.112 87.2598 19.2031C87.3509 19.2943 87.416 19.4245 87.4551 19.5938C87.4941 19.7565 87.5137 20.0007 87.5137 20.3262ZM97.6211 29.9941C97.6211 30.1829 97.6113 30.3424 97.5918 30.4727C97.5788 30.5964 97.556 30.6973 97.5234 30.7754C97.4909 30.8535 97.4486 30.9121 97.3965 30.9512C97.3509 30.9837 97.2988 31 97.2402 31H90.8926C90.6777 31 90.4954 30.9382 90.3457 30.8145C90.2025 30.6842 90.1309 30.4759 90.1309 30.1895V19.1738C90.1309 18.8874 90.2025 18.6823 90.3457 18.5586C90.4954 18.4284 90.6777 18.3633 90.8926 18.3633H97.2012C97.2598 18.3633 97.3118 18.3796 97.3574 18.4121C97.403 18.4447 97.4421 18.5033 97.4746 18.5879C97.5072 18.666 97.5299 18.7702 97.543 18.9004C97.5625 19.0241 97.5723 19.1836 97.5723 19.3789C97.5723 19.5612 97.5625 19.7174 97.543 19.8477C97.5299 19.9714 97.5072 20.0723 97.4746 20.1504C97.4421 20.2285 97.403 20.2871 97.3574 20.3262C97.3118 20.3587 97.2598 20.375 97.2012 20.375H92.6895V23.4609H96.5078C96.5664 23.4609 96.6185 23.4805 96.6641 23.5195C96.7161 23.5521 96.7585 23.6074 96.791 23.6855C96.8236 23.7572 96.8464 23.8581 96.8594 23.9883C96.8789 24.112 96.8887 24.265 96.8887 24.4473C96.8887 24.6361 96.8789 24.7923 96.8594 24.916C96.8464 25.0397 96.8236 25.1406 96.791 25.2188C96.7585 25.2904 96.7161 25.3424 96.6641 25.375C96.6185 25.4076 96.5664 25.4238 96.5078 25.4238H92.6895V28.9883H97.2402C97.2988 28.9883 97.3509 29.0078 97.3965 29.0469C97.4486 29.0794 97.4909 29.1348 97.5234 29.2129C97.556 29.291 97.5788 29.3952 97.5918 29.5254C97.6113 29.6491 97.6211 29.8053 97.6211 29.9941ZM108.305 19.418C108.305 19.6068 108.295 19.7695 108.275 19.9062C108.262 20.0365 108.24 20.1439 108.207 20.2285C108.174 20.3066 108.132 20.3652 108.08 20.4043C108.035 20.4434 107.982 20.4629 107.924 20.4629H104.76V30.6484C104.76 30.7135 104.737 30.7721 104.691 30.8242C104.652 30.8763 104.584 30.9186 104.486 30.9512C104.389 30.9837 104.255 31.0098 104.086 31.0293C103.923 31.0488 103.718 31.0586 103.471 31.0586C103.223 31.0586 103.015 31.0488 102.846 31.0293C102.683 31.0098 102.553 30.9837 102.455 30.9512C102.357 30.9186 102.286 30.8763 102.24 30.8242C102.201 30.7721 102.182 30.7135 102.182 30.6484V20.4629H99.0176C98.9525 20.4629 98.8971 20.4434 98.8516 20.4043C98.806 20.3652 98.7669 20.3066 98.7344 20.2285C98.7018 20.1439 98.6758 20.0365 98.6562 19.9062C98.6432 19.7695 98.6367 19.6068 98.6367 19.418C98.6367 19.2227 98.6432 19.0566 98.6562 18.9199C98.6758 18.7832 98.7018 18.6758 98.7344 18.5977C98.7669 18.513 98.806 18.4544 98.8516 18.4219C98.8971 18.3828 98.9525 18.3633 99.0176 18.3633H107.924C107.982 18.3633 108.035 18.3828 108.08 18.4219C108.132 18.4544 108.174 18.513 108.207 18.5977C108.24 18.6758 108.262 18.7832 108.275 18.9199C108.295 19.0566 108.305 19.2227 108.305 19.418ZM116.908 30.6484C116.908 30.7135 116.885 30.7721 116.84 30.8242C116.801 30.8763 116.732 30.9186 116.635 30.9512C116.537 30.9837 116.407 31.0098 116.244 31.0293C116.081 31.0488 115.873 31.0586 115.619 31.0586C115.372 31.0586 115.163 31.0488 114.994 31.0293C114.831 31.0098 114.701 30.9837 114.604 30.9512C114.506 30.9186 114.434 30.8763 114.389 30.8242C114.35 30.7721 114.33 30.7135 114.33 30.6484V18.7148C114.33 18.6497 114.35 18.5911 114.389 18.5391C114.434 18.487 114.506 18.4447 114.604 18.4121C114.708 18.3796 114.841 18.3535 115.004 18.334C115.167 18.3145 115.372 18.3047 115.619 18.3047C115.873 18.3047 116.081 18.3145 116.244 18.334C116.407 18.3535 116.537 18.3796 116.635 18.4121C116.732 18.4447 116.801 18.487 116.84 18.5391C116.885 18.5911 116.908 18.6497 116.908 18.7148V30.6484ZM128.07 19.418C128.07 19.6068 128.061 19.7695 128.041 19.9062C128.028 20.0365 128.005 20.1439 127.973 20.2285C127.94 20.3066 127.898 20.3652 127.846 20.4043C127.8 20.4434 127.748 20.4629 127.689 20.4629H124.525V30.6484C124.525 30.7135 124.503 30.7721 124.457 30.8242C124.418 30.8763 124.35 30.9186 124.252 30.9512C124.154 30.9837 124.021 31.0098 123.852 31.0293C123.689 31.0488 123.484 31.0586 123.236 31.0586C122.989 31.0586 122.781 31.0488 122.611 31.0293C122.449 31.0098 122.318 30.9837 122.221 30.9512C122.123 30.9186 122.051 30.8763 122.006 30.8242C121.967 30.7721 121.947 30.7135 121.947 30.6484V20.4629H118.783C118.718 20.4629 118.663 20.4434 118.617 20.4043C118.572 20.3652 118.533 20.3066 118.5 20.2285C118.467 20.1439 118.441 20.0365 118.422 19.9062C118.409 19.7695 118.402 19.6068 118.402 19.418C118.402 19.2227 118.409 19.0566 118.422 18.9199C118.441 18.7832 118.467 18.6758 118.5 18.5977C118.533 18.513 118.572 18.4544 118.617 18.4219C118.663 18.3828 118.718 18.3633 118.783 18.3633H127.689C127.748 18.3633 127.8 18.3828 127.846 18.4219C127.898 18.4544 127.94 18.513 127.973 18.5977C128.005 18.6758 128.028 18.7832 128.041 18.9199C128.061 19.0566 128.07 19.2227 128.07 19.418ZM145.463 24.5352C145.463 25.5833 145.333 26.5208 145.072 27.3477C144.812 28.1745 144.424 28.8776 143.91 29.457C143.396 30.0299 142.758 30.4694 141.996 30.7754C141.241 31.0749 140.365 31.2246 139.369 31.2246C138.386 31.2246 137.527 31.0977 136.791 30.8438C136.062 30.5833 135.453 30.1895 134.965 29.6621C134.477 29.1348 134.109 28.4642 133.861 27.6504C133.62 26.8366 133.5 25.873 133.5 24.7598C133.5 23.7376 133.63 22.8197 133.891 22.0059C134.151 21.1855 134.538 20.4889 135.053 19.916C135.567 19.3431 136.202 18.9036 136.957 18.5977C137.719 18.2917 138.601 18.1387 139.604 18.1387C140.561 18.1387 141.404 18.2656 142.133 18.5195C142.868 18.7734 143.48 19.1641 143.969 19.6914C144.464 20.2188 144.835 20.8861 145.082 21.6934C145.336 22.4941 145.463 23.4414 145.463 24.5352ZM142.768 24.6719C142.768 24.0078 142.715 23.4056 142.611 22.8652C142.507 22.3184 142.328 21.8529 142.074 21.4688C141.827 21.0781 141.495 20.7786 141.078 20.5703C140.661 20.3555 140.141 20.248 139.516 20.248C138.884 20.248 138.357 20.3685 137.934 20.6094C137.51 20.8438 137.169 21.1595 136.908 21.5566C136.648 21.9538 136.462 22.4193 136.352 22.9531C136.247 23.4805 136.195 24.0404 136.195 24.6328C136.195 25.3229 136.247 25.9447 136.352 26.498C136.456 27.0449 136.632 27.5137 136.879 27.9043C137.126 28.2949 137.458 28.5944 137.875 28.8027C138.292 29.0046 138.816 29.1055 139.447 29.1055C140.079 29.1055 140.606 28.9883 141.029 28.7539C141.452 28.5195 141.794 28.2005 142.055 27.7969C142.315 27.3932 142.497 26.9245 142.602 26.3906C142.712 25.8503 142.768 25.2773 142.768 24.6719ZM158.051 30.1016C158.051 30.2513 158.025 30.3848 157.973 30.502C157.921 30.6191 157.849 30.7168 157.758 30.7949C157.673 30.873 157.569 30.9316 157.445 30.9707C157.328 31.0033 157.208 31.0195 157.084 31.0195H155.99C155.762 31.0195 155.564 30.9967 155.395 30.9512C155.232 30.9056 155.079 30.8242 154.936 30.707C154.799 30.5833 154.665 30.4206 154.535 30.2188C154.405 30.0104 154.258 29.7435 154.096 29.418L150.951 23.5098C150.769 23.1582 150.583 22.7806 150.395 22.377C150.206 21.9668 150.036 21.5697 149.887 21.1855H149.867C149.893 21.6543 149.913 22.123 149.926 22.5918C149.939 23.054 149.945 23.5326 149.945 24.0273V30.6387C149.945 30.7038 149.926 30.7624 149.887 30.8145C149.854 30.8665 149.792 30.9121 149.701 30.9512C149.617 30.9837 149.499 31.0098 149.35 31.0293C149.2 31.0488 149.008 31.0586 148.773 31.0586C148.546 31.0586 148.357 31.0488 148.207 31.0293C148.057 31.0098 147.94 30.9837 147.855 30.9512C147.771 30.9121 147.712 30.8665 147.68 30.8145C147.647 30.7624 147.631 30.7038 147.631 30.6387V19.2812C147.631 18.9753 147.719 18.7474 147.895 18.5977C148.077 18.4414 148.298 18.3633 148.559 18.3633H149.936C150.183 18.3633 150.391 18.3861 150.561 18.4316C150.73 18.4707 150.88 18.5391 151.01 18.6367C151.146 18.7344 151.273 18.8711 151.391 19.0469C151.508 19.2161 151.628 19.4277 151.752 19.6816L154.213 24.3008C154.356 24.5807 154.496 24.8574 154.633 25.1309C154.776 25.3978 154.913 25.668 155.043 25.9414C155.173 26.2083 155.3 26.472 155.424 26.7324C155.548 26.9928 155.668 27.2533 155.785 27.5137H155.795C155.775 27.0579 155.759 26.5827 155.746 26.0879C155.74 25.5931 155.736 25.1211 155.736 24.6719V18.7441C155.736 18.679 155.756 18.6204 155.795 18.5684C155.834 18.5163 155.899 18.4707 155.99 18.4316C156.081 18.3926 156.202 18.3665 156.352 18.3535C156.501 18.334 156.693 18.3242 156.928 18.3242C157.149 18.3242 157.335 18.334 157.484 18.3535C157.634 18.3665 157.748 18.3926 157.826 18.4316C157.911 18.4707 157.969 18.5163 158.002 18.5684C158.035 18.6204 158.051 18.679 158.051 18.7441V30.1016Z" fill="white"/>
<path d="M96.7246 45.7871C96.7246 46.127 96.707 46.4199 96.6719 46.666C96.6484 46.9121 96.6074 47.1113 96.5488 47.2637C96.502 47.4043 96.4375 47.5039 96.3555 47.5625C96.2852 47.6211 96.1973 47.6504 96.0918 47.6504C95.9395 47.6504 95.6934 47.5449 95.3535 47.334C95.0137 47.123 94.5625 46.8945 94 46.6484C93.4375 46.4023 92.7637 46.1738 91.9785 45.9629C91.2051 45.752 90.3027 45.6465 89.2715 45.6465C88.1699 45.6465 87.1738 45.8398 86.2832 46.2266C85.3926 46.6016 84.6309 47.1406 83.998 47.8438C83.3652 48.5352 82.8789 49.373 82.5391 50.3574C82.1992 51.3301 82.0293 52.4082 82.0293 53.5918C82.0293 54.8926 82.1992 56.041 82.5391 57.0371C82.8906 58.0215 83.377 58.8477 83.998 59.5156C84.6191 60.1836 85.3633 60.6875 86.2305 61.0273C87.1094 61.3672 88.0762 61.5371 89.1309 61.5371C89.6465 61.5371 90.1562 61.4785 90.6602 61.3613C91.1641 61.2441 91.6328 61.0684 92.0664 60.834V55.5605H87.7598C87.5488 55.5605 87.3848 55.4316 87.2676 55.1738C87.1504 54.9043 87.0918 54.4531 87.0918 53.8203C87.0918 53.4922 87.1035 53.2168 87.127 52.9941C87.1621 52.7715 87.209 52.5957 87.2676 52.4668C87.3262 52.3262 87.3965 52.2266 87.4785 52.168C87.5605 52.0977 87.6543 52.0625 87.7598 52.0625H95.4414C95.6289 52.0625 95.793 52.0977 95.9336 52.168C96.0859 52.2266 96.2148 52.3203 96.3203 52.4492C96.4375 52.5781 96.5254 52.7363 96.584 52.9238C96.6426 53.0996 96.6719 53.3047 96.6719 53.5391V62.5918C96.6719 62.9434 96.6074 63.2539 96.4785 63.5234C96.3613 63.7812 96.1094 63.9863 95.7227 64.1387C95.3477 64.291 94.8789 64.4492 94.3164 64.6133C93.7539 64.7773 93.168 64.918 92.5586 65.0352C91.9609 65.1523 91.3516 65.2402 90.7305 65.2988C90.1211 65.3574 89.5059 65.3867 88.8848 65.3867C87.0684 65.3867 85.4395 65.1289 83.998 64.6133C82.5684 64.0859 81.3555 63.3301 80.3594 62.3457C79.3633 61.3496 78.6016 60.1426 78.0742 58.7246C77.5469 57.2949 77.2832 55.6777 77.2832 53.873C77.2832 52.0098 77.5645 50.3398 78.127 48.8633C78.6895 47.375 79.4863 46.1152 80.5176 45.084C81.5488 44.041 82.791 43.2441 84.2441 42.6934C85.709 42.1426 87.3379 41.8672 89.1309 41.8672C90.1152 41.8672 91.0117 41.9375 91.8203 42.0781C92.6289 42.207 93.332 42.3711 93.9297 42.5703C94.5391 42.7578 95.043 42.9629 95.4414 43.1855C95.8398 43.4082 96.1152 43.6016 96.2676 43.7656C96.4316 43.9297 96.5488 44.1641 96.6191 44.4688C96.6895 44.7617 96.7246 45.2012 96.7246 45.7871ZM117.027 56.4043C117.027 57.7402 116.852 58.959 116.5 60.0605C116.148 61.1621 115.615 62.1113 114.9 62.9082C114.186 63.7051 113.289 64.3203 112.211 64.7539C111.133 65.1875 109.873 65.4043 108.432 65.4043C107.037 65.4043 105.824 65.2109 104.793 64.8242C103.762 64.4375 102.906 63.875 102.227 63.1367C101.547 62.3984 101.043 61.4902 100.715 60.4121C100.387 59.334 100.223 58.1035 100.223 56.7207C100.223 55.3848 100.398 54.166 100.75 53.0645C101.113 51.9512 101.652 51.002 102.367 50.2168C103.082 49.4199 103.973 48.8047 105.039 48.3711C106.117 47.9375 107.377 47.7207 108.818 47.7207C110.225 47.7207 111.443 47.9141 112.475 48.3008C113.506 48.6758 114.355 49.2324 115.023 49.9707C115.703 50.709 116.207 51.6172 116.535 52.6953C116.863 53.7734 117.027 55.0098 117.027 56.4043ZM112.475 56.5801C112.475 55.8066 112.41 55.0977 112.281 54.4531C112.164 53.7969 111.959 53.2285 111.666 52.748C111.373 52.2676 110.98 51.8926 110.488 51.623C110.008 51.3535 109.398 51.2188 108.66 51.2188C108.004 51.2188 107.43 51.3418 106.938 51.5879C106.445 51.8223 106.041 52.1738 105.725 52.6426C105.408 53.0996 105.168 53.6562 105.004 54.3125C104.852 54.957 104.775 55.6953 104.775 56.5273C104.775 57.3008 104.84 58.0156 104.969 58.6719C105.098 59.3164 105.303 59.8789 105.584 60.3594C105.877 60.8398 106.27 61.2148 106.762 61.4844C107.254 61.7422 107.863 61.8711 108.59 61.8711C109.258 61.8711 109.838 61.7539 110.33 61.5195C110.822 61.2734 111.227 60.9219 111.543 60.4648C111.859 60.0078 112.094 59.457 112.246 58.8125C112.398 58.1562 112.475 57.4121 112.475 56.5801ZM136.398 56.4043C136.398 57.7402 136.223 58.959 135.871 60.0605C135.52 61.1621 134.986 62.1113 134.271 62.9082C133.557 63.7051 132.66 64.3203 131.582 64.7539C130.504 65.1875 129.244 65.4043 127.803 65.4043C126.408 65.4043 125.195 65.2109 124.164 64.8242C123.133 64.4375 122.277 63.875 121.598 63.1367C120.918 62.3984 120.414 61.4902 120.086 60.4121C119.758 59.334 119.594 58.1035 119.594 56.7207C119.594 55.3848 119.77 54.166 120.121 53.0645C120.484 51.9512 121.023 51.002 121.738 50.2168C122.453 49.4199 123.344 48.8047 124.41 48.3711C125.488 47.9375 126.748 47.7207 128.189 47.7207C129.596 47.7207 130.814 47.9141 131.846 48.3008C132.877 48.6758 133.727 49.2324 134.395 49.9707C135.074 50.709 135.578 51.6172 135.906 52.6953C136.234 53.7734 136.398 55.0098 136.398 56.4043ZM131.846 56.5801C131.846 55.8066 131.781 55.0977 131.652 54.4531C131.535 53.7969 131.33 53.2285 131.037 52.748C130.744 52.2676 130.352 51.8926 129.859 51.623C129.379 51.3535 128.77 51.2188 128.031 51.2188C127.375 51.2188 126.801 51.3418 126.309 51.5879C125.816 51.8223 125.412 52.1738 125.096 52.6426C124.779 53.0996 124.539 53.6562 124.375 54.3125C124.223 54.957 124.146 55.6953 124.146 56.5273C124.146 57.3008 124.211 58.0156 124.34 58.6719C124.469 59.3164 124.674 59.8789 124.955 60.3594C125.248 60.8398 125.641 61.2148 126.133 61.4844C126.625 61.7422 127.234 61.8711 127.961 61.8711C128.629 61.8711 129.209 61.7539 129.701 61.5195C130.193 61.2734 130.598 60.9219 130.914 60.4648C131.23 60.0078 131.465 59.457 131.617 58.8125C131.77 58.1562 131.846 57.4121 131.846 56.5801ZM154.047 49.8125C154.047 50.375 153.982 50.791 153.854 51.0605C153.725 51.3301 153.566 51.4648 153.379 51.4648H151.533C151.791 51.7461 151.973 52.0684 152.078 52.4316C152.195 52.7832 152.254 53.1523 152.254 53.5391C152.254 54.4531 152.102 55.2676 151.797 55.9824C151.492 56.6855 151.053 57.2832 150.479 57.7754C149.916 58.2559 149.23 58.625 148.422 58.8828C147.625 59.1289 146.734 59.252 145.75 59.252C145.246 59.252 144.766 59.1934 144.309 59.0762C143.852 58.9473 143.5 58.8008 143.254 58.6367C143.113 58.7891 142.984 58.9707 142.867 59.1816C142.762 59.3926 142.709 59.627 142.709 59.8848C142.709 60.2246 142.855 60.5059 143.148 60.7285C143.453 60.9395 143.875 61.0566 144.414 61.0801L148.229 61.2207C149.119 61.2559 149.91 61.3848 150.602 61.6074C151.305 61.8184 151.891 62.123 152.359 62.5215C152.84 62.9082 153.203 63.377 153.449 63.9277C153.707 64.4785 153.836 65.1055 153.836 65.8086C153.836 66.582 153.666 67.3086 153.326 67.9883C152.986 68.6797 152.477 69.2773 151.797 69.7812C151.117 70.2852 150.262 70.6836 149.23 70.9766C148.211 71.2695 147.016 71.416 145.645 71.416C144.309 71.416 143.166 71.3105 142.217 71.0996C141.279 70.8887 140.506 70.5957 139.896 70.2207C139.299 69.8457 138.859 69.3945 138.578 68.8672C138.309 68.3516 138.174 67.7832 138.174 67.1621C138.174 66.7754 138.221 66.4062 138.314 66.0547C138.42 65.7031 138.566 65.3633 138.754 65.0352C138.953 64.7188 139.193 64.4141 139.475 64.1211C139.756 63.8281 140.078 63.5469 140.441 63.2773C139.938 63.0078 139.545 62.6445 139.264 62.1875C138.994 61.7188 138.859 61.209 138.859 60.6582C138.859 59.9668 139.018 59.3398 139.334 58.7773C139.65 58.2031 140.061 57.6875 140.564 57.2305C140.154 56.8203 139.826 56.3281 139.58 55.7539C139.334 55.1797 139.211 54.4648 139.211 53.6094C139.211 52.6953 139.369 51.8809 139.686 51.166C140.014 50.4395 140.465 49.8301 141.039 49.3379C141.613 48.834 142.299 48.4531 143.096 48.1953C143.893 47.9258 144.771 47.791 145.732 47.791C146.225 47.791 146.693 47.8203 147.139 47.8789C147.596 47.9375 148.018 48.0195 148.404 48.125H153.379C153.578 48.125 153.736 48.2539 153.854 48.5117C153.982 48.7695 154.047 49.2031 154.047 49.8125ZM148.369 53.5215C148.369 52.6777 148.135 52.0215 147.666 51.5527C147.197 51.084 146.535 50.8496 145.68 50.8496C145.246 50.8496 144.865 50.9258 144.537 51.0781C144.209 51.2188 143.934 51.418 143.711 51.6758C143.5 51.9219 143.342 52.2148 143.236 52.5547C143.131 52.8828 143.078 53.2285 143.078 53.5918C143.078 54.3887 143.312 55.0215 143.781 55.4902C144.25 55.9473 144.9 56.1758 145.732 56.1758C146.178 56.1758 146.564 56.1055 146.893 55.9648C147.221 55.8242 147.49 55.6309 147.701 55.3848C147.924 55.1387 148.088 54.8574 148.193 54.541C148.311 54.2129 148.369 53.873 148.369 53.5215ZM149.406 66.0371C149.406 65.5098 149.195 65.1055 148.773 64.8242C148.352 64.543 147.771 64.3906 147.033 64.3672L143.887 64.2793C143.582 64.502 143.336 64.7188 143.148 64.9297C142.973 65.1289 142.826 65.3223 142.709 65.5098C142.604 65.6973 142.533 65.8789 142.498 66.0547C142.463 66.2305 142.445 66.4121 142.445 66.5996C142.445 67.1855 142.738 67.6309 143.324 67.9355C143.922 68.2402 144.76 68.3926 145.838 68.3926C146.506 68.3926 147.068 68.3223 147.525 68.1816C147.982 68.0527 148.352 67.877 148.633 67.6543C148.914 67.4316 149.113 67.1797 149.23 66.8984C149.348 66.6289 149.406 66.3418 149.406 66.0371ZM161.43 64.4023C161.43 64.5195 161.395 64.625 161.324 64.7188C161.254 64.8008 161.131 64.8711 160.955 64.9297C160.791 64.9883 160.568 65.0293 160.287 65.0527C160.006 65.0879 159.648 65.1055 159.215 65.1055C158.781 65.1055 158.424 65.0879 158.143 65.0527C157.861 65.0293 157.633 64.9883 157.457 64.9297C157.293 64.8711 157.176 64.8008 157.105 64.7188C157.035 64.625 157 64.5195 157 64.4023V41.2871C157 41.1699 157.035 41.0645 157.105 40.9707C157.176 40.877 157.293 40.8008 157.457 40.7422C157.633 40.6719 157.861 40.6191 158.143 40.584C158.424 40.5488 158.781 40.5312 159.215 40.5312C159.648 40.5312 160.006 40.5488 160.287 40.584C160.568 40.6191 160.791 40.6719 160.955 40.7422C161.131 40.8008 161.254 40.877 161.324 40.9707C161.395 41.0645 161.43 41.1699 161.43 41.2871V64.4023ZM180.344 56.1055C180.344 56.6445 180.221 57.043 179.975 57.3008C179.74 57.5586 179.412 57.6875 178.99 57.6875H169.445C169.445 58.3555 169.521 58.9648 169.674 59.5156C169.838 60.0547 170.09 60.5176 170.43 60.9043C170.781 61.2793 171.227 61.5664 171.766 61.7656C172.316 61.9648 172.973 62.0645 173.734 62.0645C174.508 62.0645 175.188 62.0117 175.773 61.9062C176.359 61.7891 176.863 61.666 177.285 61.5371C177.719 61.3965 178.076 61.2734 178.357 61.168C178.639 61.0508 178.867 60.9922 179.043 60.9922C179.148 60.9922 179.236 61.0156 179.307 61.0625C179.377 61.0977 179.436 61.168 179.482 61.2734C179.529 61.3789 179.559 61.5312 179.57 61.7305C179.594 61.918 179.605 62.1582 179.605 62.4512C179.605 62.709 179.6 62.9316 179.588 63.1191C179.576 63.2949 179.559 63.4473 179.535 63.5762C179.512 63.7051 179.477 63.8164 179.43 63.9102C179.383 63.9922 179.318 64.0742 179.236 64.1562C179.166 64.2383 178.961 64.3496 178.621 64.4902C178.281 64.6309 177.848 64.7715 177.32 64.9121C176.793 65.041 176.189 65.1523 175.51 65.2461C174.83 65.3516 174.104 65.4043 173.33 65.4043C171.936 65.4043 170.711 65.2285 169.656 64.877C168.613 64.5254 167.74 63.9922 167.037 63.2773C166.334 62.5625 165.807 61.6602 165.455 60.5703C165.115 59.4805 164.945 58.2031 164.945 56.7383C164.945 55.3438 165.127 54.0898 165.49 52.9766C165.854 51.8516 166.381 50.9023 167.072 50.1289C167.764 49.3438 168.602 48.7461 169.586 48.3359C170.582 47.9258 171.701 47.7207 172.943 47.7207C174.256 47.7207 175.375 47.9141 176.301 48.3008C177.238 48.6875 178.006 49.2266 178.604 49.918C179.201 50.5977 179.641 51.4062 179.922 52.3438C180.203 53.2812 180.344 54.3008 180.344 55.4023V56.1055ZM176.055 54.8398C176.09 53.5977 175.838 52.625 175.299 51.9219C174.771 51.207 173.951 50.8496 172.838 50.8496C172.275 50.8496 171.783 50.9551 171.361 51.166C170.951 51.377 170.605 51.6641 170.324 52.0273C170.055 52.3789 169.844 52.8008 169.691 53.293C169.551 53.7734 169.469 54.2891 169.445 54.8398H176.055ZM207.994 49.1621C207.994 50.4395 207.795 51.5703 207.396 52.5547C206.998 53.5391 206.418 54.3711 205.656 55.0508C204.895 55.7188 203.957 56.2285 202.844 56.5801C201.742 56.9316 200.441 57.1074 198.941 57.1074H197.043V64.3672C197.043 64.4844 197.002 64.5898 196.92 64.6836C196.85 64.7773 196.727 64.8535 196.551 64.9121C196.375 64.9707 196.141 65.0176 195.848 65.0527C195.555 65.0879 195.18 65.1055 194.723 65.1055C194.277 65.1055 193.902 65.0879 193.598 65.0527C193.305 65.0176 193.07 64.9707 192.895 64.9121C192.719 64.8535 192.596 64.7773 192.525 64.6836C192.455 64.5898 192.42 64.4844 192.42 64.3672V43.9062C192.42 43.3555 192.561 42.9453 192.842 42.6758C193.135 42.3945 193.516 42.2539 193.984 42.2539H199.346C199.885 42.2539 200.395 42.2773 200.875 42.3242C201.367 42.3594 201.953 42.4473 202.633 42.5879C203.312 42.7168 203.998 42.9629 204.689 43.3262C205.393 43.6895 205.99 44.1523 206.482 44.7148C206.975 45.2656 207.35 45.916 207.607 46.666C207.865 47.4043 207.994 48.2363 207.994 49.1621ZM203.16 49.4961C203.16 48.6992 203.02 48.043 202.738 47.5273C202.457 47.0117 202.111 46.6309 201.701 46.3848C201.291 46.1387 200.857 45.9863 200.4 45.9277C199.955 45.8574 199.492 45.8223 199.012 45.8223H197.043V53.5391H199.117C199.855 53.5391 200.471 53.4395 200.963 53.2402C201.467 53.041 201.877 52.7656 202.193 52.4141C202.51 52.0508 202.75 51.623 202.914 51.1309C203.078 50.627 203.16 50.082 203.16 49.4961ZM215.746 64.4023C215.746 64.5195 215.711 64.625 215.641 64.7188C215.57 64.8008 215.447 64.8711 215.271 64.9297C215.107 64.9883 214.885 65.0293 214.604 65.0527C214.322 65.0879 213.965 65.1055 213.531 65.1055C213.098 65.1055 212.74 65.0879 212.459 65.0527C212.178 65.0293 211.949 64.9883 211.773 64.9297C211.609 64.8711 211.492 64.8008 211.422 64.7188C211.352 64.625 211.316 64.5195 211.316 64.4023V41.2871C211.316 41.1699 211.352 41.0645 211.422 40.9707C211.492 40.877 211.609 40.8008 211.773 40.7422C211.949 40.6719 212.178 40.6191 212.459 40.584C212.74 40.5488 213.098 40.5312 213.531 40.5312C213.965 40.5312 214.322 40.5488 214.604 40.584C214.885 40.6191 215.107 40.6719 215.271 40.7422C215.447 40.8008 215.57 40.877 215.641 40.9707C215.711 41.0645 215.746 41.1699 215.746 41.2871V64.4023ZM233.535 64.4551C233.535 64.6191 233.477 64.748 233.359 64.8418C233.242 64.9355 233.055 65 232.797 65.0352C232.551 65.082 232.182 65.1055 231.689 65.1055C231.162 65.1055 230.775 65.082 230.529 65.0352C230.295 65 230.125 64.9355 230.02 64.8418C229.926 64.748 229.879 64.6191 229.879 64.4551V63.207C229.234 63.8984 228.496 64.4375 227.664 64.8242C226.844 65.2109 225.93 65.4043 224.922 65.4043C224.09 65.4043 223.322 65.293 222.619 65.0703C221.928 64.8594 221.324 64.543 220.809 64.1211C220.305 63.6875 219.912 63.1543 219.631 62.5215C219.35 61.8887 219.209 61.1504 219.209 60.3066C219.209 59.3926 219.385 58.6016 219.736 57.9336C220.1 57.2539 220.633 56.6973 221.336 56.2637C222.051 55.8184 222.936 55.4902 223.99 55.2793C225.045 55.0684 226.27 54.9629 227.664 54.9629H229.193V54.0137C229.193 53.5215 229.141 53.0938 229.035 52.7305C228.941 52.3555 228.777 52.0449 228.543 51.7988C228.32 51.5527 228.016 51.3711 227.629 51.2539C227.254 51.1367 226.785 51.0781 226.223 51.0781C225.484 51.0781 224.822 51.1602 224.236 51.3242C223.662 51.4883 223.152 51.6699 222.707 51.8691C222.262 52.0684 221.887 52.25 221.582 52.4141C221.289 52.5781 221.049 52.6602 220.861 52.6602C220.732 52.6602 220.615 52.6191 220.51 52.5371C220.416 52.4551 220.334 52.3379 220.264 52.1855C220.205 52.0332 220.158 51.8457 220.123 51.623C220.088 51.4004 220.07 51.1543 220.07 50.8848C220.07 50.5215 220.1 50.2344 220.158 50.0234C220.217 49.8125 220.328 49.625 220.492 49.4609C220.656 49.2852 220.943 49.0977 221.354 48.8984C221.764 48.6875 222.244 48.4941 222.795 48.3184C223.346 48.1426 223.943 48.002 224.588 47.8965C225.244 47.7793 225.918 47.7207 226.609 47.7207C227.84 47.7207 228.889 47.8438 229.756 48.0898C230.635 48.3242 231.355 48.6934 231.918 49.1973C232.48 49.6895 232.891 50.3281 233.148 51.1133C233.406 51.8984 233.535 52.8301 233.535 53.9082V64.4551ZM229.193 57.7402H227.506C226.791 57.7402 226.182 57.793 225.678 57.8984C225.174 58.0039 224.764 58.1621 224.447 58.373C224.131 58.584 223.896 58.8418 223.744 59.1465C223.604 59.4395 223.533 59.7793 223.533 60.166C223.533 60.8223 223.738 61.3379 224.148 61.7129C224.57 62.0879 225.15 62.2754 225.889 62.2754C226.51 62.2754 227.078 62.1172 227.594 61.8008C228.121 61.4844 228.654 61.0215 229.193 60.4121V57.7402ZM246.385 65L244.486 70.5547C244.381 70.8477 244.094 71.0586 243.625 71.1875C243.156 71.3164 242.471 71.3809 241.568 71.3809C241.1 71.3809 240.725 71.3574 240.443 71.3105C240.162 71.2754 239.951 71.2109 239.811 71.1172C239.67 71.0234 239.594 70.9062 239.582 70.7656C239.57 70.625 239.605 70.4551 239.688 70.2559L241.779 65C241.627 64.9297 241.486 64.8242 241.357 64.6836C241.24 64.5312 241.152 64.373 241.094 64.209L235.697 49.7949C235.545 49.3848 235.469 49.0742 235.469 48.8633C235.469 48.6406 235.539 48.4707 235.68 48.3535C235.82 48.2246 236.055 48.1367 236.383 48.0898C236.723 48.043 237.168 48.0195 237.719 48.0195C238.223 48.0195 238.621 48.0312 238.914 48.0547C239.207 48.0664 239.436 48.1074 239.6 48.1777C239.764 48.248 239.887 48.3594 239.969 48.5117C240.051 48.6523 240.133 48.8574 240.215 49.127L243.906 59.6211H243.959L247.334 48.916C247.404 48.6113 247.492 48.4121 247.598 48.3184C247.715 48.2129 247.902 48.1367 248.16 48.0898C248.418 48.043 248.869 48.0195 249.514 48.0195C250.018 48.0195 250.434 48.043 250.762 48.0898C251.102 48.1367 251.348 48.2246 251.5 48.3535C251.664 48.4824 251.746 48.6582 251.746 48.8809C251.746 49.0918 251.699 49.3438 251.605 49.6367L246.385 65Z" fill="white"/>
<defs>
<clipPath id="clip0_360_593">
<rect width="40" height="47" fill="white" transform="translate(22 18)"/>
</clipPath>
</defs>
</svg>
