<svg width="273" height="46" viewBox="0 0 273 46" fill="none" xmlns="http://www.w3.org/2000/svg">
<path d="M252.917 11.5054C253.238 11.1818 253.673 11 254.126 11C254.58 11 255.015 11.1818 255.336 11.5054L265.039 21.2991C265.359 21.6231 265.539 22.0624 265.539 22.5204C265.539 22.9784 265.359 23.4176 265.039 23.7417L255.336 33.5353C255.012 33.841 254.583 34.0075 254.139 33.9997C253.695 33.992 253.272 33.8106 252.958 33.4938C252.644 33.177 252.464 32.7496 252.456 32.3016C252.449 31.8537 252.614 31.4202 252.917 31.0927L259.697 24.2487H242.712C242.258 24.2487 241.823 24.0666 241.501 23.7425C241.18 23.4183 241 22.9787 241 22.5204C241 22.062 241.18 21.6224 241.501 21.2983C241.823 20.9742 242.258 20.7921 242.712 20.7921H259.697L252.917 13.9481C252.596 13.624 252.416 13.1848 252.416 12.7268C252.416 12.2688 252.596 11.8295 252.917 11.5054Z" fill="#B9AA46"/>
<path d="M22.2441 24.2109C22.2441 24.875 22.1204 25.4577 21.873 25.959C21.6257 26.4603 21.2904 26.8802 20.8672 27.2188C20.444 27.5508 19.9492 27.8014 19.3828 27.9707C18.8164 28.14 18.2109 28.2246 17.5664 28.2246C17.1302 28.2246 16.7233 28.1888 16.3457 28.1172C15.9746 28.0456 15.6458 27.9609 15.3594 27.8633C15.0729 27.7591 14.832 27.6517 14.6367 27.541C14.4479 27.4303 14.3112 27.3327 14.2266 27.248C14.1419 27.1634 14.0801 27.043 14.041 26.8867C14.0085 26.724 13.9922 26.4928 13.9922 26.1934C13.9922 25.9915 13.9987 25.8223 14.0117 25.6855C14.0247 25.5488 14.0443 25.4382 14.0703 25.3535C14.1029 25.2689 14.1419 25.2103 14.1875 25.1777C14.2396 25.1387 14.2982 25.1191 14.3633 25.1191C14.4544 25.1191 14.5814 25.1745 14.7441 25.2852C14.9134 25.3893 15.1283 25.5065 15.3887 25.6367C15.6491 25.7669 15.9583 25.8874 16.3164 25.998C16.681 26.1022 17.1009 26.1543 17.5762 26.1543C17.8887 26.1543 18.1686 26.1185 18.416 26.0469C18.6634 25.9688 18.8717 25.8613 19.041 25.7246C19.2168 25.5879 19.3503 25.4186 19.4414 25.2168C19.5326 25.015 19.5781 24.7904 19.5781 24.543C19.5781 24.2565 19.5 24.0124 19.3438 23.8105C19.1875 23.6022 18.9824 23.4199 18.7285 23.2637C18.4811 23.1009 18.1979 22.9512 17.8789 22.8145C17.5599 22.6712 17.2311 22.5215 16.8926 22.3652C16.554 22.209 16.2253 22.0332 15.9062 21.8379C15.5872 21.6361 15.3008 21.3984 15.0469 21.125C14.7995 20.8451 14.5977 20.5163 14.4414 20.1387C14.2852 19.7611 14.207 19.3086 14.207 18.7812C14.207 18.1758 14.3177 17.6452 14.5391 17.1895C14.7669 16.7272 15.0697 16.3464 15.4473 16.0469C15.8314 15.7409 16.2806 15.513 16.7949 15.3633C17.3158 15.2135 17.8659 15.1387 18.4453 15.1387C18.7448 15.1387 19.0443 15.1615 19.3438 15.207C19.6432 15.2526 19.9232 15.3145 20.1836 15.3926C20.444 15.4707 20.6751 15.5586 20.877 15.6562C21.0788 15.7539 21.2122 15.8353 21.2773 15.9004C21.3424 15.9655 21.3848 16.0208 21.4043 16.0664C21.4303 16.112 21.4499 16.1738 21.4629 16.252C21.4824 16.3236 21.4954 16.418 21.502 16.5352C21.5085 16.6458 21.5117 16.7858 21.5117 16.9551C21.5117 17.1439 21.5052 17.3034 21.4922 17.4336C21.4857 17.5638 21.4694 17.6712 21.4434 17.7559C21.4238 17.8405 21.3913 17.9023 21.3457 17.9414C21.3066 17.9805 21.2513 18 21.1797 18C21.1081 18 20.9941 17.9544 20.8379 17.8633C20.6816 17.7721 20.4896 17.6745 20.2617 17.5703C20.0339 17.4596 19.7702 17.362 19.4707 17.2773C19.1712 17.1862 18.8424 17.1406 18.4844 17.1406C18.2044 17.1406 17.9603 17.1764 17.752 17.248C17.5436 17.3132 17.3678 17.4076 17.2246 17.5312C17.0879 17.6484 16.9837 17.7917 16.9121 17.9609C16.847 18.1302 16.8145 18.3092 16.8145 18.498C16.8145 18.778 16.8893 19.0221 17.0391 19.2305C17.1953 19.4323 17.4004 19.6146 17.6543 19.7773C17.9147 19.9336 18.2077 20.0833 18.5332 20.2266C18.8587 20.3633 19.1908 20.5098 19.5293 20.666C19.8678 20.8223 20.1999 21.0013 20.5254 21.2031C20.8509 21.3984 21.1406 21.6361 21.3945 21.916C21.6484 22.1895 21.8535 22.515 22.0098 22.8926C22.166 23.2637 22.2441 23.7031 22.2441 24.2109ZM29.2168 26.8086C29.2168 27.0951 29.1973 27.3164 29.1582 27.4727C29.1257 27.6224 29.0801 27.7298 29.0215 27.7949C28.9629 27.8535 28.875 27.9089 28.7578 27.9609C28.6471 28.0065 28.5137 28.0456 28.3574 28.0781C28.2077 28.1172 28.0417 28.1465 27.8594 28.166C27.6836 28.1855 27.5046 28.1953 27.3223 28.1953C26.834 28.1953 26.4108 28.1335 26.0527 28.0098C25.6947 27.8861 25.3984 27.6973 25.1641 27.4434C24.9297 27.1829 24.7572 26.8574 24.6465 26.4668C24.5358 26.0762 24.4805 25.6139 24.4805 25.0801V20.6172H23.4355C23.3118 20.6172 23.2174 20.5423 23.1523 20.3926C23.0872 20.2363 23.0547 19.9792 23.0547 19.6211C23.0547 19.4323 23.0612 19.2728 23.0742 19.1426C23.0938 19.0124 23.1198 18.9115 23.1523 18.8398C23.1849 18.7617 23.224 18.7064 23.2695 18.6738C23.3216 18.6413 23.3802 18.625 23.4453 18.625H24.4805V16.6816C24.4805 16.6165 24.4967 16.5579 24.5293 16.5059C24.5684 16.4538 24.6335 16.4115 24.7246 16.3789C24.8223 16.3398 24.9492 16.3138 25.1055 16.3008C25.2682 16.2812 25.4668 16.2715 25.7012 16.2715C25.9421 16.2715 26.1406 16.2812 26.2969 16.3008C26.4596 16.3138 26.5866 16.3398 26.6777 16.3789C26.7689 16.4115 26.834 16.4538 26.873 16.5059C26.9121 16.5579 26.9316 16.6165 26.9316 16.6816V18.625H28.8262C28.8913 18.625 28.9466 18.6413 28.9922 18.6738C29.0443 18.7064 29.0866 18.7617 29.1191 18.8398C29.1517 18.9115 29.1745 19.0124 29.1875 19.1426C29.207 19.2728 29.2168 19.4323 29.2168 19.6211C29.2168 19.9792 29.1842 20.2363 29.1191 20.3926C29.054 20.5423 28.9596 20.6172 28.8359 20.6172H26.9316V24.709C26.9316 25.1842 27.0065 25.5423 27.1562 25.7832C27.306 26.0176 27.5729 26.1348 27.957 26.1348C28.0872 26.1348 28.2044 26.125 28.3086 26.1055C28.4128 26.0794 28.5039 26.0534 28.582 26.0273C28.6667 25.9948 28.735 25.9688 28.7871 25.9492C28.8457 25.9232 28.8978 25.9102 28.9434 25.9102C28.9824 25.9102 29.0182 25.9232 29.0508 25.9492C29.0898 25.9688 29.1191 26.0143 29.1387 26.0859C29.1582 26.151 29.1745 26.2422 29.1875 26.3594C29.207 26.4766 29.2168 26.6263 29.2168 26.8086ZM38.2207 27.6973C38.2207 27.7884 38.1882 27.86 38.123 27.9121C38.0579 27.9642 37.9538 28 37.8105 28.0195C37.6738 28.0456 37.4688 28.0586 37.1953 28.0586C36.9023 28.0586 36.6875 28.0456 36.5508 28.0195C36.4206 28 36.3262 27.9642 36.2676 27.9121C36.2155 27.86 36.1895 27.7884 36.1895 27.6973V27.0039C35.8314 27.388 35.4212 27.6875 34.959 27.9023C34.5033 28.1172 33.9954 28.2246 33.4355 28.2246C32.9733 28.2246 32.5469 28.1628 32.1562 28.0391C31.7721 27.9219 31.4368 27.7461 31.1504 27.5117C30.8704 27.2708 30.6523 26.9746 30.4961 26.623C30.3398 26.2715 30.2617 25.8613 30.2617 25.3926C30.2617 24.8848 30.3594 24.4453 30.5547 24.0742C30.7565 23.6966 31.0527 23.3874 31.4434 23.1465C31.8405 22.8991 32.332 22.7168 32.918 22.5996C33.5039 22.4824 34.1842 22.4238 34.959 22.4238H35.8086V21.8965C35.8086 21.623 35.7793 21.3854 35.7207 21.1836C35.6686 20.9753 35.5775 20.8027 35.4473 20.666C35.3236 20.5293 35.1543 20.4284 34.9395 20.3633C34.7311 20.2982 34.4707 20.2656 34.1582 20.2656C33.748 20.2656 33.3802 20.3112 33.0547 20.4023C32.7357 20.4935 32.4525 20.5944 32.2051 20.7051C31.9577 20.8158 31.7493 20.9167 31.5801 21.0078C31.4173 21.099 31.2839 21.1445 31.1797 21.1445C31.1081 21.1445 31.043 21.1217 30.9844 21.0762C30.9323 21.0306 30.8867 20.9655 30.8477 20.8809C30.8151 20.7962 30.7891 20.6921 30.7695 20.5684C30.75 20.4447 30.7402 20.3079 30.7402 20.1582C30.7402 19.9564 30.7565 19.7969 30.7891 19.6797C30.8216 19.5625 30.8835 19.4583 30.9746 19.3672C31.0658 19.2695 31.2253 19.1654 31.4531 19.0547C31.681 18.9375 31.9479 18.8301 32.2539 18.7324C32.5599 18.6348 32.8919 18.5566 33.25 18.498C33.6146 18.4329 33.9889 18.4004 34.373 18.4004C35.0566 18.4004 35.6393 18.4688 36.1211 18.6055C36.6094 18.7357 37.0098 18.9408 37.3223 19.2207C37.6348 19.4941 37.8626 19.849 38.0059 20.2852C38.1491 20.7214 38.2207 21.2389 38.2207 21.8379V27.6973ZM35.8086 23.9668H34.8711C34.474 23.9668 34.1354 23.9961 33.8555 24.0547C33.5755 24.1133 33.3477 24.2012 33.1719 24.3184C32.9961 24.4355 32.8659 24.5788 32.7812 24.748C32.7031 24.9108 32.6641 25.0996 32.6641 25.3145C32.6641 25.679 32.778 25.9655 33.0059 26.1738C33.2402 26.3822 33.5625 26.4863 33.9727 26.4863C34.3177 26.4863 34.6335 26.3984 34.9199 26.2227C35.2129 26.0469 35.5091 25.7897 35.8086 25.4512V23.9668ZM46.2773 19.7676C46.2773 20.002 46.2708 20.194 46.2578 20.3438C46.2448 20.4935 46.2253 20.6107 46.1992 20.6953C46.1732 20.7799 46.1374 20.8385 46.0918 20.8711C46.0527 20.9036 46.0007 20.9199 45.9355 20.9199C45.8835 20.9199 45.8249 20.9102 45.7598 20.8906C45.6947 20.8646 45.6198 20.8385 45.5352 20.8125C45.457 20.7865 45.3691 20.7637 45.2715 20.7441C45.1738 20.7181 45.0664 20.7051 44.9492 20.7051C44.8125 20.7051 44.6758 20.7344 44.5391 20.793C44.4023 20.8451 44.2591 20.9297 44.1094 21.0469C43.9661 21.1641 43.8132 21.3203 43.6504 21.5156C43.4941 21.7109 43.3249 21.9518 43.1426 22.2383V27.668C43.1426 27.7331 43.123 27.7917 43.084 27.8438C43.0449 27.8893 42.9766 27.9284 42.8789 27.9609C42.7878 27.9935 42.6641 28.0163 42.5078 28.0293C42.3516 28.0488 42.153 28.0586 41.9121 28.0586C41.6712 28.0586 41.4727 28.0488 41.3164 28.0293C41.1602 28.0163 41.0332 27.9935 40.9355 27.9609C40.8444 27.9284 40.7793 27.8893 40.7402 27.8438C40.7012 27.7917 40.6816 27.7331 40.6816 27.668V18.957C40.6816 18.8919 40.6979 18.8366 40.7305 18.791C40.763 18.7389 40.8216 18.6966 40.9062 18.6641C40.9909 18.6315 41.0983 18.6087 41.2285 18.5957C41.3652 18.5762 41.5345 18.5664 41.7363 18.5664C41.9447 18.5664 42.1172 18.5762 42.2539 18.5957C42.3906 18.6087 42.4948 18.6315 42.5664 18.6641C42.6445 18.6966 42.6999 18.7389 42.7324 18.791C42.765 18.8366 42.7812 18.8919 42.7812 18.957V20.041C43.0091 19.7155 43.224 19.4486 43.4258 19.2402C43.6276 19.0254 43.8197 18.8561 44.002 18.7324C44.1842 18.6087 44.3665 18.5241 44.5488 18.4785C44.7311 18.4264 44.9134 18.4004 45.0957 18.4004C45.1803 18.4004 45.2715 18.4069 45.3691 18.4199C45.4668 18.4264 45.5677 18.4427 45.6719 18.4688C45.776 18.4883 45.8672 18.5143 45.9453 18.5469C46.0234 18.5729 46.0788 18.6022 46.1113 18.6348C46.1504 18.6673 46.1764 18.7031 46.1895 18.7422C46.209 18.7812 46.2253 18.8366 46.2383 18.9082C46.2513 18.9733 46.2611 19.0742 46.2676 19.2109C46.2741 19.3477 46.2773 19.5332 46.2773 19.7676ZM52.9473 26.8086C52.9473 27.0951 52.9277 27.3164 52.8887 27.4727C52.8561 27.6224 52.8105 27.7298 52.752 27.7949C52.6934 27.8535 52.6055 27.9089 52.4883 27.9609C52.3776 28.0065 52.2441 28.0456 52.0879 28.0781C51.9382 28.1172 51.7721 28.1465 51.5898 28.166C51.4141 28.1855 51.235 28.1953 51.0527 28.1953C50.5645 28.1953 50.1413 28.1335 49.7832 28.0098C49.4251 27.8861 49.1289 27.6973 48.8945 27.4434C48.6602 27.1829 48.4876 26.8574 48.377 26.4668C48.2663 26.0762 48.2109 25.6139 48.2109 25.0801V20.6172H47.166C47.0423 20.6172 46.9479 20.5423 46.8828 20.3926C46.8177 20.2363 46.7852 19.9792 46.7852 19.6211C46.7852 19.4323 46.7917 19.2728 46.8047 19.1426C46.8242 19.0124 46.8503 18.9115 46.8828 18.8398C46.9154 18.7617 46.9544 18.7064 47 18.6738C47.0521 18.6413 47.1107 18.625 47.1758 18.625H48.2109V16.6816C48.2109 16.6165 48.2272 16.5579 48.2598 16.5059C48.2988 16.4538 48.3639 16.4115 48.4551 16.3789C48.5527 16.3398 48.6797 16.3138 48.8359 16.3008C48.9987 16.2812 49.1973 16.2715 49.4316 16.2715C49.6725 16.2715 49.8711 16.2812 50.0273 16.3008C50.1901 16.3138 50.3171 16.3398 50.4082 16.3789C50.4993 16.4115 50.5645 16.4538 50.6035 16.5059C50.6426 16.5579 50.6621 16.6165 50.6621 16.6816V18.625H52.5566C52.6217 18.625 52.6771 18.6413 52.7227 18.6738C52.7747 18.7064 52.8171 18.7617 52.8496 18.8398C52.8822 18.9115 52.9049 19.0124 52.918 19.1426C52.9375 19.2728 52.9473 19.4323 52.9473 19.6211C52.9473 19.9792 52.9147 20.2363 52.8496 20.3926C52.7845 20.5423 52.6901 20.6172 52.5664 20.6172H50.6621V24.709C50.6621 25.1842 50.737 25.5423 50.8867 25.7832C51.0365 26.0176 51.3034 26.1348 51.6875 26.1348C51.8177 26.1348 51.9349 26.125 52.0391 26.1055C52.1432 26.0794 52.2344 26.0534 52.3125 26.0273C52.3971 25.9948 52.4655 25.9688 52.5176 25.9492C52.5762 25.9232 52.6283 25.9102 52.6738 25.9102C52.7129 25.9102 52.7487 25.9232 52.7812 25.9492C52.8203 25.9688 52.8496 26.0143 52.8691 26.0859C52.8887 26.151 52.9049 26.2422 52.918 26.3594C52.9375 26.4766 52.9473 26.6263 52.9473 26.8086ZM68.0547 19.2012C68.0547 19.9108 67.944 20.5391 67.7227 21.0859C67.5013 21.6328 67.179 22.0951 66.7559 22.4727C66.3327 22.8438 65.8118 23.127 65.1934 23.3223C64.5814 23.5176 63.8587 23.6152 63.0254 23.6152H61.9707V27.6484C61.9707 27.7135 61.9479 27.7721 61.9023 27.8242C61.8633 27.8763 61.7949 27.9186 61.6973 27.9512C61.5996 27.9837 61.4694 28.0098 61.3066 28.0293C61.1439 28.0488 60.9355 28.0586 60.6816 28.0586C60.4342 28.0586 60.2259 28.0488 60.0566 28.0293C59.8939 28.0098 59.7637 27.9837 59.666 27.9512C59.5684 27.9186 59.5 27.8763 59.4609 27.8242C59.4219 27.7721 59.4023 27.7135 59.4023 27.6484V16.2812C59.4023 15.9753 59.4805 15.7474 59.6367 15.5977C59.7995 15.4414 60.0111 15.3633 60.2715 15.3633H63.25C63.5495 15.3633 63.8327 15.3763 64.0996 15.4023C64.373 15.4219 64.6986 15.4707 65.0762 15.5488C65.4538 15.6204 65.8346 15.7572 66.2188 15.959C66.6094 16.1608 66.9414 16.418 67.2148 16.7305C67.4883 17.0365 67.6966 17.3978 67.8398 17.8145C67.9831 18.2246 68.0547 18.6868 68.0547 19.2012ZM65.3691 19.3867C65.3691 18.944 65.291 18.5794 65.1348 18.293C64.9785 18.0065 64.7865 17.7949 64.5586 17.6582C64.3307 17.5215 64.0898 17.4368 63.8359 17.4043C63.5885 17.3652 63.3314 17.3457 63.0645 17.3457H61.9707V21.6328H63.123C63.5332 21.6328 63.875 21.5775 64.1484 21.4668C64.4284 21.3561 64.6562 21.2031 64.832 21.0078C65.0078 20.806 65.1413 20.5684 65.2324 20.2949C65.3236 20.015 65.3691 19.7122 65.3691 19.3867ZM72.3613 27.668C72.3613 27.7331 72.3418 27.7917 72.3027 27.8438C72.2637 27.8893 72.1953 27.9284 72.0977 27.9609C72.0065 27.9935 71.8828 28.0163 71.7266 28.0293C71.5703 28.0488 71.3717 28.0586 71.1309 28.0586C70.89 28.0586 70.6914 28.0488 70.5352 28.0293C70.3789 28.0163 70.252 27.9935 70.1543 27.9609C70.0632 27.9284 69.998 27.8893 69.959 27.8438C69.9199 27.7917 69.9004 27.7331 69.9004 27.668V14.8262C69.9004 14.7611 69.9199 14.7025 69.959 14.6504C69.998 14.5983 70.0632 14.556 70.1543 14.5234C70.252 14.4844 70.3789 14.4551 70.5352 14.4355C70.6914 14.416 70.89 14.4062 71.1309 14.4062C71.3717 14.4062 71.5703 14.416 71.7266 14.4355C71.8828 14.4551 72.0065 14.4844 72.0977 14.5234C72.1953 14.556 72.2637 14.5983 72.3027 14.6504C72.3418 14.7025 72.3613 14.7611 72.3613 14.8262V27.668ZM82.2441 27.6973C82.2441 27.7884 82.2116 27.86 82.1465 27.9121C82.0814 27.9642 81.9772 28 81.834 28.0195C81.6973 28.0456 81.4922 28.0586 81.2188 28.0586C80.9258 28.0586 80.7109 28.0456 80.5742 28.0195C80.444 28 80.3496 27.9642 80.291 27.9121C80.2389 27.86 80.2129 27.7884 80.2129 27.6973V27.0039C79.8548 27.388 79.4447 27.6875 78.9824 27.9023C78.5267 28.1172 78.0189 28.2246 77.459 28.2246C76.9967 28.2246 76.5703 28.1628 76.1797 28.0391C75.7956 27.9219 75.4603 27.7461 75.1738 27.5117C74.8939 27.2708 74.6758 26.9746 74.5195 26.623C74.3633 26.2715 74.2852 25.8613 74.2852 25.3926C74.2852 24.8848 74.3828 24.4453 74.5781 24.0742C74.7799 23.6966 75.0762 23.3874 75.4668 23.1465C75.8639 22.8991 76.3555 22.7168 76.9414 22.5996C77.5273 22.4824 78.2077 22.4238 78.9824 22.4238H79.832V21.8965C79.832 21.623 79.8027 21.3854 79.7441 21.1836C79.6921 20.9753 79.6009 20.8027 79.4707 20.666C79.347 20.5293 79.1777 20.4284 78.9629 20.3633C78.7546 20.2982 78.4941 20.2656 78.1816 20.2656C77.7715 20.2656 77.4036 20.3112 77.0781 20.4023C76.7591 20.4935 76.4759 20.5944 76.2285 20.7051C75.9811 20.8158 75.7728 20.9167 75.6035 21.0078C75.4408 21.099 75.3073 21.1445 75.2031 21.1445C75.1315 21.1445 75.0664 21.1217 75.0078 21.0762C74.9557 21.0306 74.9102 20.9655 74.8711 20.8809C74.8385 20.7962 74.8125 20.6921 74.793 20.5684C74.7734 20.4447 74.7637 20.3079 74.7637 20.1582C74.7637 19.9564 74.7799 19.7969 74.8125 19.6797C74.8451 19.5625 74.9069 19.4583 74.998 19.3672C75.0892 19.2695 75.2487 19.1654 75.4766 19.0547C75.7044 18.9375 75.9714 18.8301 76.2773 18.7324C76.5833 18.6348 76.9154 18.5566 77.2734 18.498C77.638 18.4329 78.0124 18.4004 78.3965 18.4004C79.0801 18.4004 79.6628 18.4688 80.1445 18.6055C80.6328 18.7357 81.0332 18.9408 81.3457 19.2207C81.6582 19.4941 81.8861 19.849 82.0293 20.2852C82.1725 20.7214 82.2441 21.2389 82.2441 21.8379V27.6973ZM79.832 23.9668H78.8945C78.4974 23.9668 78.1589 23.9961 77.8789 24.0547C77.599 24.1133 77.3711 24.2012 77.1953 24.3184C77.0195 24.4355 76.8893 24.5788 76.8047 24.748C76.7266 24.9108 76.6875 25.0996 76.6875 25.3145C76.6875 25.679 76.8014 25.9655 77.0293 26.1738C77.2637 26.3822 77.5859 26.4863 77.9961 26.4863C78.3411 26.4863 78.6569 26.3984 78.9434 26.2227C79.2363 26.0469 79.5326 25.7897 79.832 25.4512V23.9668ZM93.0254 27.668C93.0254 27.7331 93.0059 27.7917 92.9668 27.8438C92.9277 27.8893 92.8626 27.9284 92.7715 27.9609C92.6803 27.9935 92.5534 28.0163 92.3906 28.0293C92.2344 28.0488 92.0391 28.0586 91.8047 28.0586C91.5638 28.0586 91.362 28.0488 91.1992 28.0293C91.043 28.0163 90.9193 27.9935 90.8281 27.9609C90.737 27.9284 90.6719 27.8893 90.6328 27.8438C90.5938 27.7917 90.5742 27.7331 90.5742 27.668V22.6973C90.5742 22.2741 90.5417 21.9421 90.4766 21.7012C90.418 21.4603 90.3301 21.2552 90.2129 21.0859C90.0957 20.9102 89.9427 20.7767 89.7539 20.6855C89.5716 20.5879 89.3568 20.5391 89.1094 20.5391C88.7969 20.5391 88.4811 20.653 88.1621 20.8809C87.8431 21.1087 87.5111 21.4408 87.166 21.877V27.668C87.166 27.7331 87.1465 27.7917 87.1074 27.8438C87.0684 27.8893 87 27.9284 86.9023 27.9609C86.8112 27.9935 86.6875 28.0163 86.5312 28.0293C86.375 28.0488 86.1764 28.0586 85.9355 28.0586C85.6947 28.0586 85.4961 28.0488 85.3398 28.0293C85.1836 28.0163 85.0566 27.9935 84.959 27.9609C84.8678 27.9284 84.8027 27.8893 84.7637 27.8438C84.7246 27.7917 84.7051 27.7331 84.7051 27.668V18.957C84.7051 18.8919 84.7214 18.8366 84.7539 18.791C84.7865 18.7389 84.8451 18.6966 84.9297 18.6641C85.0143 18.6315 85.1217 18.6087 85.252 18.5957C85.3887 18.5762 85.5579 18.5664 85.7598 18.5664C85.9681 18.5664 86.1406 18.5762 86.2773 18.5957C86.4141 18.6087 86.5182 18.6315 86.5898 18.6641C86.668 18.6966 86.7233 18.7389 86.7559 18.791C86.7884 18.8366 86.8047 18.8919 86.8047 18.957V19.9629C87.2865 19.4421 87.7747 19.0514 88.2695 18.791C88.7708 18.5306 89.2917 18.4004 89.832 18.4004C90.4245 18.4004 90.9225 18.498 91.3262 18.6934C91.7363 18.8887 92.0651 19.1556 92.3125 19.4941C92.5664 19.8262 92.7487 20.2168 92.8594 20.666C92.9701 21.1152 93.0254 21.6556 93.0254 22.2871V27.668ZM103.768 27.668C103.768 27.7331 103.748 27.7917 103.709 27.8438C103.67 27.8893 103.605 27.9284 103.514 27.9609C103.423 27.9935 103.296 28.0163 103.133 28.0293C102.977 28.0488 102.781 28.0586 102.547 28.0586C102.306 28.0586 102.104 28.0488 101.941 28.0293C101.785 28.0163 101.661 27.9935 101.57 27.9609C101.479 27.9284 101.414 27.8893 101.375 27.8438C101.336 27.7917 101.316 27.7331 101.316 27.668V22.6973C101.316 22.2741 101.284 21.9421 101.219 21.7012C101.16 21.4603 101.072 21.2552 100.955 21.0859C100.838 20.9102 100.685 20.7767 100.496 20.6855C100.314 20.5879 100.099 20.5391 99.8516 20.5391C99.5391 20.5391 99.2233 20.653 98.9043 20.8809C98.5853 21.1087 98.2533 21.4408 97.9082 21.877V27.668C97.9082 27.7331 97.8887 27.7917 97.8496 27.8438C97.8105 27.8893 97.7422 27.9284 97.6445 27.9609C97.5534 27.9935 97.4297 28.0163 97.2734 28.0293C97.1172 28.0488 96.9186 28.0586 96.6777 28.0586C96.4368 28.0586 96.2383 28.0488 96.082 28.0293C95.9258 28.0163 95.7988 27.9935 95.7012 27.9609C95.61 27.9284 95.5449 27.8893 95.5059 27.8438C95.4668 27.7917 95.4473 27.7331 95.4473 27.668V18.957C95.4473 18.8919 95.4635 18.8366 95.4961 18.791C95.5286 18.7389 95.5872 18.6966 95.6719 18.6641C95.7565 18.6315 95.8639 18.6087 95.9941 18.5957C96.1309 18.5762 96.3001 18.5664 96.502 18.5664C96.7103 18.5664 96.8828 18.5762 97.0195 18.5957C97.1562 18.6087 97.2604 18.6315 97.332 18.6641C97.4102 18.6966 97.4655 18.7389 97.498 18.791C97.5306 18.8366 97.5469 18.8919 97.5469 18.957V19.9629C98.0286 19.4421 98.5169 19.0514 99.0117 18.791C99.513 18.5306 100.034 18.4004 100.574 18.4004C101.167 18.4004 101.665 18.498 102.068 18.6934C102.479 18.8887 102.807 19.1556 103.055 19.4941C103.309 19.8262 103.491 20.2168 103.602 20.666C103.712 21.1152 103.768 21.6556 103.768 22.2871V27.668ZM108.65 27.668C108.65 27.7331 108.631 27.7917 108.592 27.8438C108.553 27.8893 108.484 27.9284 108.387 27.9609C108.296 27.9935 108.172 28.0163 108.016 28.0293C107.859 28.0488 107.661 28.0586 107.42 28.0586C107.179 28.0586 106.98 28.0488 106.824 28.0293C106.668 28.0163 106.541 27.9935 106.443 27.9609C106.352 27.9284 106.287 27.8893 106.248 27.8438C106.209 27.7917 106.189 27.7331 106.189 27.668V18.9766C106.189 18.9115 106.209 18.8561 106.248 18.8105C106.287 18.7585 106.352 18.7161 106.443 18.6836C106.541 18.6445 106.668 18.6152 106.824 18.5957C106.98 18.5762 107.179 18.5664 107.42 18.5664C107.661 18.5664 107.859 18.5762 108.016 18.5957C108.172 18.6152 108.296 18.6445 108.387 18.6836C108.484 18.7161 108.553 18.7585 108.592 18.8105C108.631 18.8561 108.65 18.9115 108.65 18.9766V27.668ZM108.836 16.0078C108.836 16.5026 108.735 16.8444 108.533 17.0332C108.331 17.222 107.957 17.3164 107.41 17.3164C106.857 17.3164 106.482 17.2253 106.287 17.043C106.098 16.8607 106.004 16.5319 106.004 16.0566C106.004 15.5618 106.102 15.2201 106.297 15.0312C106.499 14.8359 106.876 14.7383 107.43 14.7383C107.977 14.7383 108.348 14.8327 108.543 15.0215C108.738 15.2038 108.836 15.5326 108.836 16.0078ZM119.432 27.668C119.432 27.7331 119.412 27.7917 119.373 27.8438C119.334 27.8893 119.269 27.9284 119.178 27.9609C119.087 27.9935 118.96 28.0163 118.797 28.0293C118.641 28.0488 118.445 28.0586 118.211 28.0586C117.97 28.0586 117.768 28.0488 117.605 28.0293C117.449 28.0163 117.326 27.9935 117.234 27.9609C117.143 27.9284 117.078 27.8893 117.039 27.8438C117 27.7917 116.98 27.7331 116.98 27.668V22.6973C116.98 22.2741 116.948 21.9421 116.883 21.7012C116.824 21.4603 116.736 21.2552 116.619 21.0859C116.502 20.9102 116.349 20.7767 116.16 20.6855C115.978 20.5879 115.763 20.5391 115.516 20.5391C115.203 20.5391 114.887 20.653 114.568 20.8809C114.249 21.1087 113.917 21.4408 113.572 21.877V27.668C113.572 27.7331 113.553 27.7917 113.514 27.8438C113.475 27.8893 113.406 27.9284 113.309 27.9609C113.217 27.9935 113.094 28.0163 112.938 28.0293C112.781 28.0488 112.583 28.0586 112.342 28.0586C112.101 28.0586 111.902 28.0488 111.746 28.0293C111.59 28.0163 111.463 27.9935 111.365 27.9609C111.274 27.9284 111.209 27.8893 111.17 27.8438C111.131 27.7917 111.111 27.7331 111.111 27.668V18.957C111.111 18.8919 111.128 18.8366 111.16 18.791C111.193 18.7389 111.251 18.6966 111.336 18.6641C111.421 18.6315 111.528 18.6087 111.658 18.5957C111.795 18.5762 111.964 18.5664 112.166 18.5664C112.374 18.5664 112.547 18.5762 112.684 18.5957C112.82 18.6087 112.924 18.6315 112.996 18.6641C113.074 18.6966 113.13 18.7389 113.162 18.791C113.195 18.8366 113.211 18.8919 113.211 18.957V19.9629C113.693 19.4421 114.181 19.0514 114.676 18.791C115.177 18.5306 115.698 18.4004 116.238 18.4004C116.831 18.4004 117.329 18.498 117.732 18.6934C118.143 18.8887 118.471 19.1556 118.719 19.4941C118.973 19.8262 119.155 20.2168 119.266 20.666C119.376 21.1152 119.432 21.6556 119.432 22.2871V27.668ZM129.705 19.5625C129.705 19.875 129.669 20.1061 129.598 20.2559C129.526 20.4056 129.438 20.4805 129.334 20.4805H128.309C128.452 20.6367 128.553 20.8158 128.611 21.0176C128.676 21.2129 128.709 21.418 128.709 21.6328C128.709 22.1406 128.624 22.5931 128.455 22.9902C128.286 23.3809 128.042 23.7129 127.723 23.9863C127.41 24.2533 127.029 24.4583 126.58 24.6016C126.137 24.7383 125.643 24.8066 125.096 24.8066C124.816 24.8066 124.549 24.7741 124.295 24.709C124.041 24.6374 123.846 24.556 123.709 24.4648C123.631 24.5495 123.559 24.6504 123.494 24.7676C123.436 24.8848 123.406 25.015 123.406 25.1582C123.406 25.347 123.488 25.5033 123.65 25.627C123.82 25.7441 124.054 25.8092 124.354 25.8223L126.473 25.9004C126.967 25.9199 127.407 25.9915 127.791 26.1152C128.182 26.2324 128.507 26.4017 128.768 26.623C129.035 26.8379 129.236 27.0983 129.373 27.4043C129.516 27.7103 129.588 28.0586 129.588 28.4492C129.588 28.8789 129.493 29.2826 129.305 29.6602C129.116 30.0443 128.833 30.3763 128.455 30.6562C128.077 30.9362 127.602 31.1576 127.029 31.3203C126.463 31.4831 125.799 31.5645 125.037 31.5645C124.295 31.5645 123.66 31.5059 123.133 31.3887C122.612 31.2715 122.182 31.1087 121.844 30.9004C121.512 30.6921 121.268 30.4414 121.111 30.1484C120.962 29.862 120.887 29.5462 120.887 29.2012C120.887 28.9863 120.913 28.7812 120.965 28.5859C121.023 28.3906 121.105 28.2018 121.209 28.0195C121.32 27.8438 121.453 27.6745 121.609 27.5117C121.766 27.349 121.945 27.1927 122.146 27.043C121.867 26.8932 121.648 26.6914 121.492 26.4375C121.342 26.1771 121.268 25.8939 121.268 25.5879C121.268 25.2038 121.355 24.8555 121.531 24.543C121.707 24.224 121.935 23.9375 122.215 23.6836C121.987 23.4557 121.805 23.1823 121.668 22.8633C121.531 22.5443 121.463 22.1471 121.463 21.6719C121.463 21.1641 121.551 20.7116 121.727 20.3145C121.909 19.9108 122.16 19.5723 122.479 19.2988C122.798 19.0189 123.178 18.8073 123.621 18.6641C124.064 18.5143 124.552 18.4395 125.086 18.4395C125.359 18.4395 125.62 18.4557 125.867 18.4883C126.121 18.5208 126.355 18.5664 126.57 18.625H129.334C129.445 18.625 129.533 18.6966 129.598 18.8398C129.669 18.9831 129.705 19.224 129.705 19.5625ZM126.551 21.623C126.551 21.1543 126.421 20.7897 126.16 20.5293C125.9 20.2689 125.532 20.1387 125.057 20.1387C124.816 20.1387 124.604 20.181 124.422 20.2656C124.24 20.3438 124.087 20.4544 123.963 20.5977C123.846 20.7344 123.758 20.8971 123.699 21.0859C123.641 21.2682 123.611 21.4603 123.611 21.6621C123.611 22.1048 123.742 22.4564 124.002 22.7168C124.262 22.9707 124.624 23.0977 125.086 23.0977C125.333 23.0977 125.548 23.0586 125.73 22.9805C125.913 22.9023 126.062 22.7949 126.18 22.6582C126.303 22.5215 126.395 22.3652 126.453 22.1895C126.518 22.0072 126.551 21.8184 126.551 21.623ZM127.127 28.5762C127.127 28.2832 127.01 28.0586 126.775 27.9023C126.541 27.7461 126.219 27.6615 125.809 27.6484L124.061 27.5996C123.891 27.7233 123.755 27.8438 123.65 27.9609C123.553 28.0716 123.471 28.179 123.406 28.2832C123.348 28.3874 123.309 28.4883 123.289 28.5859C123.27 28.6836 123.26 28.7845 123.26 28.8887C123.26 29.2142 123.423 29.4616 123.748 29.6309C124.08 29.8001 124.546 29.8848 125.145 29.8848C125.516 29.8848 125.828 29.8457 126.082 29.7676C126.336 29.696 126.541 29.5983 126.697 29.4746C126.854 29.3509 126.964 29.2109 127.029 29.0547C127.094 28.9049 127.127 28.7454 127.127 28.5762ZM141.131 23.2051V27.6484C141.131 27.7135 141.108 27.7721 141.062 27.8242C141.023 27.8763 140.955 27.9186 140.857 27.9512C140.76 27.9837 140.626 28.0098 140.457 28.0293C140.294 28.0488 140.089 28.0586 139.842 28.0586C139.588 28.0586 139.38 28.0488 139.217 28.0293C139.054 28.0098 138.921 27.9837 138.816 27.9512C138.719 27.9186 138.65 27.8763 138.611 27.8242C138.572 27.7721 138.553 27.7135 138.553 27.6484V23.2051L135.096 16.3203C134.972 16.0794 134.891 15.8939 134.852 15.7637C134.819 15.627 134.839 15.526 134.91 15.4609C134.988 15.3893 135.128 15.347 135.33 15.334C135.532 15.3145 135.812 15.3047 136.17 15.3047C136.469 15.3047 136.707 15.3112 136.883 15.3242C137.065 15.3372 137.208 15.3633 137.312 15.4023C137.417 15.4349 137.492 15.4805 137.537 15.5391C137.589 15.5977 137.638 15.6725 137.684 15.7637L139.09 18.8691C139.227 19.1686 139.36 19.4844 139.49 19.8164C139.627 20.1484 139.764 20.4967 139.9 20.8613H139.92C140.044 20.5098 140.171 20.168 140.301 19.8359C140.431 19.5039 140.558 19.1882 140.682 18.8887L142.068 15.8027C142.101 15.6986 142.14 15.6172 142.186 15.5586C142.238 15.4935 142.312 15.4414 142.41 15.4023C142.508 15.3633 142.641 15.3372 142.811 15.3242C142.98 15.3112 143.204 15.3047 143.484 15.3047C143.855 15.3047 144.142 15.3145 144.344 15.334C144.552 15.347 144.692 15.3893 144.764 15.4609C144.842 15.526 144.861 15.627 144.822 15.7637C144.783 15.9004 144.705 16.0859 144.588 16.3203L141.131 23.2051ZM153.455 23.2246C153.455 23.9668 153.357 24.6439 153.162 25.2559C152.967 25.8678 152.671 26.3952 152.273 26.8379C151.876 27.2806 151.378 27.6224 150.779 27.8633C150.18 28.1042 149.48 28.2246 148.68 28.2246C147.905 28.2246 147.231 28.1172 146.658 27.9023C146.085 27.6875 145.61 27.375 145.232 26.9648C144.855 26.5547 144.575 26.0501 144.393 25.4512C144.21 24.8522 144.119 24.1686 144.119 23.4004C144.119 22.6582 144.217 21.9811 144.412 21.3691C144.614 20.7507 144.913 20.2233 145.311 19.7871C145.708 19.3444 146.202 19.0026 146.795 18.7617C147.394 18.5208 148.094 18.4004 148.895 18.4004C149.676 18.4004 150.353 18.5078 150.926 18.7227C151.499 18.931 151.971 19.2402 152.342 19.6504C152.719 20.0605 152.999 20.5651 153.182 21.1641C153.364 21.763 153.455 22.4499 153.455 23.2246ZM150.926 23.3223C150.926 22.8926 150.89 22.4987 150.818 22.1406C150.753 21.776 150.639 21.4603 150.477 21.1934C150.314 20.9264 150.096 20.7181 149.822 20.5684C149.555 20.4186 149.217 20.3438 148.807 20.3438C148.442 20.3438 148.123 20.4121 147.85 20.5488C147.576 20.679 147.352 20.8743 147.176 21.1348C147 21.3887 146.867 21.6979 146.775 22.0625C146.691 22.4206 146.648 22.8307 146.648 23.293C146.648 23.7227 146.684 24.1198 146.756 24.4844C146.827 24.8424 146.941 25.1549 147.098 25.4219C147.26 25.6888 147.479 25.8971 147.752 26.0469C148.025 26.1901 148.364 26.2617 148.768 26.2617C149.139 26.2617 149.461 26.1966 149.734 26.0664C150.008 25.9297 150.232 25.7344 150.408 25.4805C150.584 25.2266 150.714 24.9206 150.799 24.5625C150.883 24.1979 150.926 23.7845 150.926 23.3223ZM163.67 27.668C163.67 27.7331 163.654 27.7917 163.621 27.8438C163.589 27.8893 163.53 27.9284 163.445 27.9609C163.367 27.9935 163.26 28.0163 163.123 28.0293C162.993 28.0488 162.827 28.0586 162.625 28.0586C162.41 28.0586 162.234 28.0488 162.098 28.0293C161.967 28.0163 161.863 27.9935 161.785 27.9609C161.707 27.9284 161.652 27.8893 161.619 27.8438C161.587 27.7917 161.57 27.7331 161.57 27.668V26.6621C161.089 27.1829 160.597 27.5736 160.096 27.834C159.601 28.0944 159.087 28.2246 158.553 28.2246C157.954 28.2246 157.449 28.127 157.039 27.9316C156.635 27.7363 156.307 27.4694 156.053 27.1309C155.805 26.7923 155.626 26.4017 155.516 25.959C155.411 25.5098 155.359 24.9531 155.359 24.2891V18.957C155.359 18.8919 155.376 18.8366 155.408 18.791C155.447 18.7389 155.512 18.6966 155.604 18.6641C155.701 18.6315 155.828 18.6087 155.984 18.5957C156.147 18.5762 156.346 18.5664 156.58 18.5664C156.821 18.5664 157.02 18.5762 157.176 18.5957C157.332 18.6087 157.456 18.6315 157.547 18.6641C157.645 18.6966 157.713 18.7389 157.752 18.791C157.791 18.8366 157.811 18.8919 157.811 18.957V23.8789C157.811 24.3346 157.84 24.6829 157.898 24.9238C157.957 25.1647 158.045 25.373 158.162 25.5488C158.286 25.7181 158.439 25.8516 158.621 25.9492C158.81 26.0404 159.028 26.0859 159.275 26.0859C159.588 26.0859 159.9 25.972 160.213 25.7441C160.532 25.5163 160.87 25.1842 161.229 24.748V18.957C161.229 18.8919 161.245 18.8366 161.277 18.791C161.316 18.7389 161.382 18.6966 161.473 18.6641C161.57 18.6315 161.697 18.6087 161.854 18.5957C162.01 18.5762 162.208 18.5664 162.449 18.5664C162.69 18.5664 162.889 18.5762 163.045 18.5957C163.201 18.6087 163.325 18.6315 163.416 18.6641C163.507 18.6966 163.572 18.7389 163.611 18.791C163.65 18.8366 163.67 18.8919 163.67 18.957V27.668ZM171.746 19.7676C171.746 20.002 171.74 20.194 171.727 20.3438C171.714 20.4935 171.694 20.6107 171.668 20.6953C171.642 20.7799 171.606 20.8385 171.561 20.8711C171.521 20.9036 171.469 20.9199 171.404 20.9199C171.352 20.9199 171.294 20.9102 171.229 20.8906C171.163 20.8646 171.089 20.8385 171.004 20.8125C170.926 20.7865 170.838 20.7637 170.74 20.7441C170.643 20.7181 170.535 20.7051 170.418 20.7051C170.281 20.7051 170.145 20.7344 170.008 20.793C169.871 20.8451 169.728 20.9297 169.578 21.0469C169.435 21.1641 169.282 21.3203 169.119 21.5156C168.963 21.7109 168.794 21.9518 168.611 22.2383V27.668C168.611 27.7331 168.592 27.7917 168.553 27.8438C168.514 27.8893 168.445 27.9284 168.348 27.9609C168.257 27.9935 168.133 28.0163 167.977 28.0293C167.82 28.0488 167.622 28.0586 167.381 28.0586C167.14 28.0586 166.941 28.0488 166.785 28.0293C166.629 28.0163 166.502 27.9935 166.404 27.9609C166.313 27.9284 166.248 27.8893 166.209 27.8438C166.17 27.7917 166.15 27.7331 166.15 27.668V18.957C166.15 18.8919 166.167 18.8366 166.199 18.791C166.232 18.7389 166.29 18.6966 166.375 18.6641C166.46 18.6315 166.567 18.6087 166.697 18.5957C166.834 18.5762 167.003 18.5664 167.205 18.5664C167.413 18.5664 167.586 18.5762 167.723 18.5957C167.859 18.6087 167.964 18.6315 168.035 18.6641C168.113 18.6966 168.169 18.7389 168.201 18.791C168.234 18.8366 168.25 18.8919 168.25 18.957V20.041C168.478 19.7155 168.693 19.4486 168.895 19.2402C169.096 19.0254 169.288 18.8561 169.471 18.7324C169.653 18.6087 169.835 18.5241 170.018 18.4785C170.2 18.4264 170.382 18.4004 170.564 18.4004C170.649 18.4004 170.74 18.4069 170.838 18.4199C170.936 18.4264 171.036 18.4427 171.141 18.4688C171.245 18.4883 171.336 18.5143 171.414 18.5469C171.492 18.5729 171.548 18.6022 171.58 18.6348C171.619 18.6673 171.645 18.7031 171.658 18.7422C171.678 18.7812 171.694 18.8366 171.707 18.9082C171.72 18.9733 171.73 19.0742 171.736 19.2109C171.743 19.3477 171.746 19.5332 171.746 19.7676ZM185.428 26.9941C185.428 27.1829 185.418 27.3424 185.398 27.4727C185.385 27.5964 185.363 27.6973 185.33 27.7754C185.298 27.8535 185.255 27.9121 185.203 27.9512C185.158 27.9837 185.105 28 185.047 28H178.699C178.484 28 178.302 27.9382 178.152 27.8145C178.009 27.6842 177.938 27.4759 177.938 27.1895V16.1738C177.938 15.8874 178.009 15.6823 178.152 15.5586C178.302 15.4284 178.484 15.3633 178.699 15.3633H185.008C185.066 15.3633 185.118 15.3796 185.164 15.4121C185.21 15.4447 185.249 15.5033 185.281 15.5879C185.314 15.666 185.337 15.7702 185.35 15.9004C185.369 16.0241 185.379 16.1836 185.379 16.3789C185.379 16.5612 185.369 16.7174 185.35 16.8477C185.337 16.9714 185.314 17.0723 185.281 17.1504C185.249 17.2285 185.21 17.2871 185.164 17.3262C185.118 17.3587 185.066 17.375 185.008 17.375H180.496V20.4609H184.314C184.373 20.4609 184.425 20.4805 184.471 20.5195C184.523 20.5521 184.565 20.6074 184.598 20.6855C184.63 20.7572 184.653 20.8581 184.666 20.9883C184.686 21.112 184.695 21.265 184.695 21.4473C184.695 21.6361 184.686 21.7923 184.666 21.916C184.653 22.0397 184.63 22.1406 184.598 22.2188C184.565 22.2904 184.523 22.3424 184.471 22.375C184.425 22.4076 184.373 22.4238 184.314 22.4238H180.496V25.9883H185.047C185.105 25.9883 185.158 26.0078 185.203 26.0469C185.255 26.0794 185.298 26.1348 185.33 26.2129C185.363 26.291 185.385 26.3952 185.398 26.5254C185.418 26.6491 185.428 26.8053 185.428 26.9941ZM195.047 18.9473C195.047 18.9798 195.044 19.0189 195.037 19.0645C195.037 19.11 195.031 19.1621 195.018 19.2207C195.011 19.2728 194.998 19.3346 194.979 19.4062C194.965 19.4779 194.946 19.5592 194.92 19.6504L192.303 27.5312C192.27 27.6419 192.225 27.7331 192.166 27.8047C192.114 27.8698 192.023 27.9219 191.893 27.9609C191.769 28 191.596 28.026 191.375 28.0391C191.16 28.0521 190.877 28.0586 190.525 28.0586C190.18 28.0586 189.897 28.0488 189.676 28.0293C189.461 28.0163 189.292 27.9902 189.168 27.9512C189.044 27.9121 188.953 27.86 188.895 27.7949C188.842 27.7233 188.8 27.6354 188.768 27.5312L186.15 19.6504C186.111 19.5202 186.079 19.403 186.053 19.2988C186.033 19.1947 186.02 19.1198 186.014 19.0742C186.014 19.0286 186.014 18.9863 186.014 18.9473C186.014 18.8822 186.03 18.8268 186.062 18.7812C186.102 18.7292 186.167 18.6868 186.258 18.6543C186.349 18.6217 186.473 18.599 186.629 18.5859C186.792 18.5729 186.993 18.5664 187.234 18.5664C187.501 18.5664 187.716 18.5762 187.879 18.5957C188.042 18.6087 188.169 18.6315 188.26 18.6641C188.357 18.6901 188.426 18.7324 188.465 18.791C188.504 18.8431 188.536 18.9082 188.562 18.9863L190.545 25.3828L190.604 25.627L190.662 25.3828L192.615 18.9863C192.635 18.9082 192.664 18.8431 192.703 18.791C192.749 18.7324 192.817 18.6901 192.908 18.6641C192.999 18.6315 193.12 18.6087 193.27 18.5957C193.426 18.5762 193.628 18.5664 193.875 18.5664C194.116 18.5664 194.311 18.5729 194.461 18.5859C194.617 18.599 194.738 18.6217 194.822 18.6543C194.907 18.6868 194.965 18.7292 194.998 18.7812C195.031 18.8268 195.047 18.8822 195.047 18.9473ZM204.354 23.0586C204.354 23.3581 204.285 23.5794 204.148 23.7227C204.018 23.8659 203.836 23.9375 203.602 23.9375H198.299C198.299 24.3086 198.341 24.6471 198.426 24.9531C198.517 25.2526 198.657 25.5098 198.846 25.7246C199.041 25.9329 199.288 26.0924 199.588 26.2031C199.894 26.3138 200.258 26.3691 200.682 26.3691C201.111 26.3691 201.489 26.3398 201.814 26.2812C202.14 26.2161 202.42 26.1478 202.654 26.0762C202.895 25.998 203.094 25.9297 203.25 25.8711C203.406 25.806 203.533 25.7734 203.631 25.7734C203.689 25.7734 203.738 25.7865 203.777 25.8125C203.816 25.832 203.849 25.8711 203.875 25.9297C203.901 25.9883 203.917 26.0729 203.924 26.1836C203.937 26.2878 203.943 26.4212 203.943 26.584C203.943 26.7272 203.94 26.8509 203.934 26.9551C203.927 27.0527 203.917 27.1374 203.904 27.209C203.891 27.2806 203.872 27.3424 203.846 27.3945C203.82 27.4401 203.784 27.4857 203.738 27.5312C203.699 27.5768 203.585 27.6387 203.396 27.7168C203.208 27.7949 202.967 27.873 202.674 27.9512C202.381 28.0228 202.046 28.0846 201.668 28.1367C201.29 28.1953 200.887 28.2246 200.457 28.2246C199.682 28.2246 199.002 28.127 198.416 27.9316C197.837 27.7363 197.352 27.4401 196.961 27.043C196.57 26.6458 196.277 26.1445 196.082 25.5391C195.893 24.9336 195.799 24.224 195.799 23.4102C195.799 22.6354 195.9 21.9388 196.102 21.3203C196.303 20.6953 196.596 20.168 196.98 19.7383C197.365 19.3021 197.83 18.9701 198.377 18.7422C198.93 18.5143 199.552 18.4004 200.242 18.4004C200.971 18.4004 201.593 18.5078 202.107 18.7227C202.628 18.9375 203.055 19.237 203.387 19.6211C203.719 19.9987 203.963 20.4479 204.119 20.9688C204.275 21.4896 204.354 22.056 204.354 22.668V23.0586ZM201.971 22.3555C201.99 21.6654 201.85 21.125 201.551 20.7344C201.258 20.3372 200.802 20.1387 200.184 20.1387C199.871 20.1387 199.598 20.1973 199.363 20.3145C199.135 20.4316 198.943 20.5911 198.787 20.793C198.637 20.9883 198.52 21.2227 198.436 21.4961C198.357 21.763 198.312 22.0495 198.299 22.3555H201.971ZM214.705 27.668C214.705 27.7331 214.686 27.7917 214.646 27.8438C214.607 27.8893 214.542 27.9284 214.451 27.9609C214.36 27.9935 214.233 28.0163 214.07 28.0293C213.914 28.0488 213.719 28.0586 213.484 28.0586C213.243 28.0586 213.042 28.0488 212.879 28.0293C212.723 28.0163 212.599 27.9935 212.508 27.9609C212.417 27.9284 212.352 27.8893 212.312 27.8438C212.273 27.7917 212.254 27.7331 212.254 27.668V22.6973C212.254 22.2741 212.221 21.9421 212.156 21.7012C212.098 21.4603 212.01 21.2552 211.893 21.0859C211.775 20.9102 211.622 20.7767 211.434 20.6855C211.251 20.5879 211.036 20.5391 210.789 20.5391C210.477 20.5391 210.161 20.653 209.842 20.8809C209.523 21.1087 209.191 21.4408 208.846 21.877V27.668C208.846 27.7331 208.826 27.7917 208.787 27.8438C208.748 27.8893 208.68 27.9284 208.582 27.9609C208.491 27.9935 208.367 28.0163 208.211 28.0293C208.055 28.0488 207.856 28.0586 207.615 28.0586C207.374 28.0586 207.176 28.0488 207.02 28.0293C206.863 28.0163 206.736 27.9935 206.639 27.9609C206.548 27.9284 206.482 27.8893 206.443 27.8438C206.404 27.7917 206.385 27.7331 206.385 27.668V18.957C206.385 18.8919 206.401 18.8366 206.434 18.791C206.466 18.7389 206.525 18.6966 206.609 18.6641C206.694 18.6315 206.801 18.6087 206.932 18.5957C207.068 18.5762 207.238 18.5664 207.439 18.5664C207.648 18.5664 207.82 18.5762 207.957 18.5957C208.094 18.6087 208.198 18.6315 208.27 18.6641C208.348 18.6966 208.403 18.7389 208.436 18.791C208.468 18.8366 208.484 18.8919 208.484 18.957V19.9629C208.966 19.4421 209.454 19.0514 209.949 18.791C210.451 18.5306 210.971 18.4004 211.512 18.4004C212.104 18.4004 212.602 18.498 213.006 18.6934C213.416 18.8887 213.745 19.1556 213.992 19.4941C214.246 19.8262 214.428 20.2168 214.539 20.666C214.65 21.1152 214.705 21.6556 214.705 22.2871V27.668ZM222.088 26.8086C222.088 27.0951 222.068 27.3164 222.029 27.4727C221.997 27.6224 221.951 27.7298 221.893 27.7949C221.834 27.8535 221.746 27.9089 221.629 27.9609C221.518 28.0065 221.385 28.0456 221.229 28.0781C221.079 28.1172 220.913 28.1465 220.73 28.166C220.555 28.1855 220.376 28.1953 220.193 28.1953C219.705 28.1953 219.282 28.1335 218.924 28.0098C218.566 27.8861 218.27 27.6973 218.035 27.4434C217.801 27.1829 217.628 26.8574 217.518 26.4668C217.407 26.0762 217.352 25.6139 217.352 25.0801V20.6172H216.307C216.183 20.6172 216.089 20.5423 216.023 20.3926C215.958 20.2363 215.926 19.9792 215.926 19.6211C215.926 19.4323 215.932 19.2728 215.945 19.1426C215.965 19.0124 215.991 18.9115 216.023 18.8398C216.056 18.7617 216.095 18.7064 216.141 18.6738C216.193 18.6413 216.251 18.625 216.316 18.625H217.352V16.6816C217.352 16.6165 217.368 16.5579 217.4 16.5059C217.439 16.4538 217.505 16.4115 217.596 16.3789C217.693 16.3398 217.82 16.3138 217.977 16.3008C218.139 16.2812 218.338 16.2715 218.572 16.2715C218.813 16.2715 219.012 16.2812 219.168 16.3008C219.331 16.3138 219.458 16.3398 219.549 16.3789C219.64 16.4115 219.705 16.4538 219.744 16.5059C219.783 16.5579 219.803 16.6165 219.803 16.6816V18.625H221.697C221.762 18.625 221.818 18.6413 221.863 18.6738C221.915 18.7064 221.958 18.7617 221.99 18.8398C222.023 18.9115 222.046 19.0124 222.059 19.1426C222.078 19.2728 222.088 19.4323 222.088 19.6211C222.088 19.9792 222.055 20.2363 221.99 20.3926C221.925 20.5423 221.831 20.6172 221.707 20.6172H219.803V24.709C219.803 25.1842 219.878 25.5423 220.027 25.7832C220.177 26.0176 220.444 26.1348 220.828 26.1348C220.958 26.1348 221.076 26.125 221.18 26.1055C221.284 26.0794 221.375 26.0534 221.453 26.0273C221.538 25.9948 221.606 25.9688 221.658 25.9492C221.717 25.9232 221.769 25.9102 221.814 25.9102C221.854 25.9102 221.889 25.9232 221.922 25.9492C221.961 25.9688 221.99 26.0143 222.01 26.0859C222.029 26.151 222.046 26.2422 222.059 26.3594C222.078 26.4766 222.088 26.6263 222.088 26.8086ZM229.998 25.207C229.998 25.7018 229.904 26.138 229.715 26.5156C229.533 26.8932 229.272 27.209 228.934 27.4629C228.595 27.7168 228.195 27.9056 227.732 28.0293C227.27 28.1595 226.769 28.2246 226.229 28.2246C225.903 28.2246 225.59 28.1986 225.291 28.1465C224.998 28.1009 224.734 28.0423 224.5 27.9707C224.266 27.8926 224.07 27.8145 223.914 27.7363C223.758 27.6582 223.644 27.5866 223.572 27.5215C223.501 27.4499 223.445 27.3424 223.406 27.1992C223.367 27.0495 223.348 26.8314 223.348 26.5449C223.348 26.3561 223.354 26.2064 223.367 26.0957C223.38 25.9785 223.4 25.8874 223.426 25.8223C223.452 25.7507 223.484 25.7051 223.523 25.6855C223.562 25.6595 223.611 25.6465 223.67 25.6465C223.742 25.6465 223.846 25.6888 223.982 25.7734C224.126 25.8516 224.301 25.9395 224.51 26.0371C224.718 26.1348 224.959 26.2259 225.232 26.3105C225.512 26.3952 225.828 26.4375 226.18 26.4375C226.401 26.4375 226.596 26.4147 226.766 26.3691C226.941 26.3236 227.091 26.2585 227.215 26.1738C227.345 26.0892 227.443 25.9818 227.508 25.8516C227.573 25.7214 227.605 25.5716 227.605 25.4023C227.605 25.207 227.544 25.041 227.42 24.9043C227.303 24.7611 227.143 24.6374 226.941 24.5332C226.746 24.429 226.521 24.3314 226.268 24.2402C226.02 24.1491 225.763 24.0482 225.496 23.9375C225.236 23.8268 224.979 23.6999 224.725 23.5566C224.477 23.4134 224.253 23.2376 224.051 23.0293C223.855 22.821 223.696 22.5703 223.572 22.2773C223.455 21.9844 223.396 21.6328 223.396 21.2227C223.396 20.806 223.478 20.4251 223.641 20.0801C223.803 19.7285 224.038 19.429 224.344 19.1816C224.65 18.9342 225.021 18.7422 225.457 18.6055C225.9 18.4688 226.395 18.4004 226.941 18.4004C227.215 18.4004 227.479 18.4199 227.732 18.459C227.993 18.498 228.227 18.5469 228.436 18.6055C228.644 18.6641 228.82 18.7292 228.963 18.8008C229.106 18.8659 229.207 18.9245 229.266 18.9766C229.331 19.0221 229.376 19.071 229.402 19.123C229.428 19.1686 229.448 19.2272 229.461 19.2988C229.474 19.3639 229.484 19.4486 229.49 19.5527C229.503 19.6504 229.51 19.7741 229.51 19.9238C229.51 20.0996 229.503 20.2428 229.49 20.3535C229.484 20.4642 229.467 20.5521 229.441 20.6172C229.422 20.6823 229.393 20.7279 229.354 20.7539C229.314 20.7734 229.269 20.7832 229.217 20.7832C229.158 20.7832 229.067 20.7507 228.943 20.6855C228.82 20.6139 228.663 20.5391 228.475 20.4609C228.292 20.3828 228.077 20.3112 227.83 20.2461C227.589 20.1745 227.312 20.1387 227 20.1387C226.779 20.1387 226.587 20.1615 226.424 20.207C226.261 20.2526 226.128 20.3177 226.023 20.4023C225.919 20.487 225.841 20.5879 225.789 20.7051C225.737 20.8158 225.711 20.9362 225.711 21.0664C225.711 21.2682 225.773 21.4375 225.896 21.5742C226.02 21.7109 226.183 21.8314 226.385 21.9355C226.587 22.0397 226.814 22.1374 227.068 22.2285C227.329 22.3197 227.589 22.4206 227.85 22.5312C228.117 22.6354 228.377 22.7591 228.631 22.9023C228.891 23.0456 229.122 23.2214 229.324 23.4297C229.526 23.638 229.689 23.8887 229.812 24.1816C229.936 24.4681 229.998 24.8099 229.998 25.207Z" fill="#B9AA46"/>
</svg>
