<svg width="445" height="430" viewBox="0 0 445 430" fill="none" xmlns="http://www.w3.org/2000/svg">
<g clip-path="url(#clip0_774_494)">
<rect width="445" height="430" fill="#250303"/>
<g clip-path="url(#clip1_774_494)">
<path d="M402.24 37.6663C397.162 46.4618 407.987 52.7118 413.065 43.9163C414.997 40.5709 415.893 36.7279 415.64 32.8732C415.387 29.0186 413.997 25.3254 411.646 22.2608C409.294 19.1961 406.087 16.8976 402.429 15.6559C398.771 14.4142 394.827 14.2851 391.096 15.2849C387.364 16.2847 384.013 18.3685 381.466 21.2728C378.919 24.1771 377.291 27.7714 376.786 31.6013C376.282 35.4312 376.925 39.3246 378.634 42.7891C380.342 46.2536 383.04 49.1338 386.385 51.0652C392.474 54.5808 396.743 53.437 396.743 53.437" stroke="#D9D9D9" stroke-opacity="0.25" stroke-width="3.28125" stroke-linecap="round" stroke-linejoin="round"/>
<path d="M392.635 40.2399C395.998 42.1815 400.298 41.0293 402.24 37.6663C404.181 34.3033 403.029 30.003 399.666 28.0614C396.303 26.1198 392.003 27.272 390.061 30.635C388.12 33.998 389.272 38.2983 392.635 40.2399Z" stroke="#D9D9D9" stroke-opacity="0.25" stroke-width="3.28125" stroke-linecap="round" stroke-linejoin="round"/>
</g>
<g clip-path="url(#clip2_774_494)">
<path d="M287.295 295.415L334.205 268.332C337.937 266.177 342.504 265.821 346.902 267.342C351.299 268.864 355.166 272.138 357.653 276.445L401.403 352.222C403.889 356.528 404.791 361.515 403.91 366.084C403.029 370.653 400.437 374.43 396.705 376.585L349.795 403.668C346.063 405.823 341.496 406.179 337.098 404.657C332.701 403.136 328.834 399.862 326.347 395.555L282.597 319.778C280.111 315.471 279.209 310.485 280.09 305.916C280.971 301.347 283.563 297.57 287.295 295.415ZM293.545 306.24C292.301 306.959 291.437 308.218 291.143 309.741C290.85 311.264 291.15 312.926 291.979 314.361L335.729 390.139C336.558 391.574 337.847 392.665 339.313 393.173C340.779 393.68 342.301 393.561 343.545 392.843L390.455 365.76C391.699 365.041 392.563 363.782 392.857 362.259C393.15 360.736 392.85 359.074 392.021 357.639L348.271 281.861C347.442 280.426 346.153 279.334 344.687 278.827C343.221 278.32 341.699 278.439 340.455 279.157L293.545 306.24ZM306.052 306.236L334.198 289.986C335.442 289.268 336.964 289.149 338.43 289.657C339.896 290.164 341.185 291.255 342.014 292.691C342.843 294.126 343.143 295.788 342.85 297.311C342.556 298.834 341.692 300.093 340.448 300.812L312.302 317.062C311.058 317.78 309.536 317.899 308.07 317.391C306.604 316.884 305.315 315.793 304.486 314.357C303.657 312.922 303.357 311.26 303.65 309.737C303.944 308.214 304.808 306.955 306.052 306.236ZM343.552 371.188L352.934 365.772C354.178 365.053 355.701 364.935 357.166 365.442C358.632 365.949 359.921 367.04 360.75 368.476C361.579 369.911 361.879 371.574 361.586 373.097C361.292 374.619 360.428 375.879 359.184 376.597L349.802 382.014C348.558 382.732 347.036 382.85 345.57 382.343C344.104 381.836 342.815 380.745 341.986 379.309C341.157 377.874 340.857 376.212 341.15 374.689C341.444 373.166 342.308 371.907 343.552 371.188ZM331.052 349.538L359.198 333.288C360.442 332.569 361.964 332.451 363.43 332.958C364.896 333.465 366.185 334.556 367.014 335.992C367.843 337.427 368.143 339.09 367.85 340.613C367.556 342.136 366.692 343.395 365.448 344.113L337.302 360.363C336.058 361.081 334.536 361.2 333.07 360.693C331.604 360.186 330.315 359.094 329.486 357.659C328.657 356.223 328.357 354.561 328.65 353.038C328.944 351.515 329.808 350.256 331.052 349.538ZM318.552 327.887L346.698 311.637C347.942 310.919 349.464 310.8 350.93 311.307C352.396 311.814 353.685 312.906 354.514 314.341C355.343 315.777 355.643 317.439 355.35 318.962C355.056 320.485 354.192 321.744 352.948 322.462L324.802 338.712C323.558 339.431 322.036 339.549 320.57 339.042C319.104 338.535 317.815 337.444 316.986 336.008C316.157 334.572 315.857 332.91 316.15 331.387C316.444 329.864 317.308 328.605 318.552 327.887Z" fill="#D9D9D9" fill-opacity="0.09"/>
</g>
<g clip-path="url(#clip3_774_494)">
<path d="M56.9782 383.701C57.8357 385.187 57.2968 387.102 55.7752 387.981L30.9748 402.299C29.4532 403.178 27.5248 402.687 26.6673 401.201L15.5688 381.978C14.7113 380.493 15.2502 378.577 16.7718 377.699L19.3262 376.222L18.3619 374.552C18.2095 374.28 18.1712 373.958 18.2553 373.658C18.3394 373.357 18.5391 373.103 18.8106 372.949C19.382 372.619 20.105 372.804 20.4261 373.36L21.3903 375.03L25.0564 372.914L24.0922 371.244C23.9395 370.971 23.9013 370.649 23.986 370.348C24.0707 370.047 24.2714 369.792 24.5439 369.639C25.1153 369.309 25.8383 369.494 26.1594 370.05L27.1251 371.719L30.8094 369.592L29.8452 367.922C29.6928 367.65 29.6545 367.328 29.7386 367.028C29.8227 366.728 30.0223 366.473 30.2939 366.319C30.8652 365.989 31.5882 366.174 31.9094 366.73L32.8751 368.4L36.564 366.27L35.5997 364.6C35.4472 364.327 35.4089 364.005 35.4933 363.705C35.5777 363.404 35.7779 363.149 36.0499 362.996C36.6213 362.666 37.3443 362.851 37.6654 363.407L38.6312 365.076L41.5722 363.38C43.0938 362.502 45.0222 362.993 45.8797 364.478L56.9782 383.701ZM52.069 379.972L43.746 365.556C43.7022 365.487 43.6446 365.427 43.5768 365.381C43.5091 365.335 43.4325 365.303 43.3519 365.287C43.1807 365.244 42.9996 365.262 42.8408 365.339L39.7975 367.096L40.536 368.376C40.6131 368.51 40.6626 368.659 40.6815 368.813C40.7004 368.968 40.6884 369.124 40.6462 369.273C40.604 369.423 40.5325 369.562 40.4357 369.684C40.339 369.805 40.219 369.906 40.0828 369.981C39.814 370.14 39.4932 370.186 39.1907 370.109C38.8881 370.031 38.6285 369.837 38.4688 369.569L37.7303 368.29L34.046 370.417L34.8099 371.74L34.8387 371.815L34.78 371.699C34.8759 371.865 34.9284 372.052 34.9326 372.243L34.9335 372.283C34.9327 372.377 34.9176 372.47 34.8889 372.559L34.9211 372.43C34.8966 372.601 34.8354 372.765 34.7417 372.91C34.648 373.055 34.5239 373.178 34.3781 373.271L34.4932 373.19C34.3688 373.295 34.224 373.373 34.068 373.42C33.912 373.467 33.748 373.48 33.5864 373.461C33.4248 373.441 33.2689 373.388 33.1287 373.305C32.9885 373.223 32.8668 373.112 32.7714 372.98L32.7421 372.936L32.7266 372.913L31.9758 371.612L28.2915 373.739L29.03 375.019C29.1239 375.182 29.1759 375.366 29.1813 375.554C29.1901 375.674 29.1784 375.78 29.1443 375.878L29.162 375.807C29.1201 376.029 29.0166 376.234 28.8635 376.4C28.7104 376.565 28.5138 376.684 28.2962 376.744L28.2429 376.756C27.965 376.822 27.673 376.785 27.4198 376.654L27.4034 376.643C27.2194 376.543 27.0668 376.394 26.9628 376.212L26.2243 374.933L22.5582 377.05L23.3221 378.373C23.3291 378.385 23.3331 378.399 23.3362 378.411L23.2967 378.329C23.6178 378.885 23.4164 379.603 22.845 379.933C22.5085 380.128 22.1175 380.143 21.7887 380.008L21.7621 379.997C21.7225 379.98 21.6841 379.96 21.6473 379.938L21.6342 379.929C21.4876 379.844 21.3627 379.726 21.2693 379.584L21.2579 379.564L21.2418 379.543L21.2295 379.522L20.4925 378.242L17.8191 379.786C17.7228 379.853 17.6483 379.945 17.5942 380.061L17.5483 380.185C17.4954 380.363 17.509 380.537 17.5875 380.708L25.8895 395.087L52.069 379.972ZM54.928 384.917L53.2323 381.98L27.0528 397.095L28.78 400.087C28.8596 400.225 28.9977 400.317 29.201 400.361C29.3737 400.407 29.5568 400.397 29.7229 400.33L54.6461 385.941C54.8077 385.83 54.9259 385.666 54.9804 385.477C55.0094 385.385 55.0196 385.288 55.0106 385.192C55.0016 385.096 54.9735 385.002 54.928 384.917Z" fill="#D9D9D9" fill-opacity="0.25"/>
</g>
<path opacity="0.1" d="M215 33.5C215 128.769 137.769 206 42.5 206C-52.7691 206 -130 128.769 -130 33.5C-130 -61.7691 -52.7691 -139 42.5 -139C137.769 -139 215 -61.7691 215 33.5ZM-71.488 33.5C-71.488 96.4538 -20.4538 147.488 42.5 147.488C105.454 147.488 156.488 96.4538 156.488 33.5C156.488 -29.4538 105.454 -80.488 42.5 -80.488C-20.4538 -80.488 -71.488 -29.4538 -71.488 33.5Z" fill="#D9D9D9"/>
<circle opacity="0.1" cx="371.5" cy="363.5" r="172.5" fill="#D9D9D9"/>
</g>
<defs>
<clipPath id="clip0_774_494">
<rect width="445" height="430" fill="white"/>
</clipPath>
<clipPath id="clip1_774_494">
<rect width="50" height="50" fill="white" transform="translate(387) rotate(30)"/>
</clipPath>
<clipPath id="clip2_774_494">
<rect width="130" height="150" fill="white" transform="translate(248.208 303.548) rotate(-30)"/>
</clipPath>
<clipPath id="clip3_774_494">
<rect width="35" height="35" fill="white" transform="translate(41.9055 357.594) rotate(60)"/>
</clipPath>
</defs>
</svg>
