<svg width="25" height="27" viewBox="0 0 25 27" fill="none" xmlns="http://www.w3.org/2000/svg">
<path fill-rule="evenodd" clip-rule="evenodd" d="M0.104156 9.95333V17.0467C0.104156 20.3921 0.104157 22.0633 1.15707 23.1031C2.11228 24.0467 3.59832 24.1327 6.40124 24.1415C6.39359 24.0905 6.3863 24.0394 6.37936 23.9883C6.21166 22.7575 6.21166 21.1942 6.21166 19.2531V19.1758C6.21166 18.5881 6.69437 18.1113 7.29082 18.1113C7.88582 18.1113 8.36853 18.5881 8.36853 19.1758C8.36853 21.2117 8.36999 22.6321 8.51582 23.704C8.65874 24.7452 8.91687 25.2979 9.31499 25.6902C9.71312 26.084 10.2717 26.3392 11.326 26.4777C12.411 26.6235 13.8504 26.625 15.9139 26.625H17.3504C19.4139 26.625 20.8519 26.6221 21.9383 26.4792C22.9927 26.3392 23.5512 26.0825 23.9479 25.6902C24.346 25.2965 24.6056 24.7452 24.7471 23.704C24.8929 22.6335 24.8958 21.2117 24.8958 19.1758V7.82417C24.8958 5.78687 24.8929 4.36792 24.7471 3.29604C24.6056 2.25479 24.346 1.70208 23.9494 1.30979C23.5512 0.916042 22.9927 0.660833 21.9369 0.522292C20.8533 0.375 19.4154 0.375 17.3519 0.375H15.9154C13.8519 0.375 12.4125 0.377917 11.3275 0.520833C10.2731 0.660833 9.71457 0.9175 9.31645 1.30979C8.91832 1.70354 8.6602 2.25479 8.51728 3.29604C8.37145 4.36646 8.36999 5.78687 8.36999 7.82417C8.36999 8.41187 7.88728 8.88875 7.29082 8.88875C7.15013 8.88971 7.01063 8.86293 6.8803 8.80993C6.74997 8.75693 6.63136 8.67876 6.53127 8.57988C6.43117 8.48101 6.35155 8.36337 6.29696 8.23369C6.24237 8.10402 6.21388 7.96486 6.21312 7.82417V7.74688C6.21312 5.80729 6.21311 4.2425 6.38082 3.01167L6.4027 2.85854C3.59978 2.86729 2.1152 2.95333 1.15853 3.89688C0.105615 4.93667 0.104156 6.60937 0.104156 9.95333ZM14.5212 17.7992L18.1146 14.2525C18.2146 14.1543 18.294 14.0373 18.3482 13.908C18.4025 13.7788 18.4304 13.6401 18.4304 13.5C18.4304 13.3599 18.4025 13.2212 18.3482 13.092C18.294 12.9628 18.2146 12.8457 18.1146 12.7475L14.5212 9.20083C14.3178 9.00123 14.0442 8.88942 13.7593 8.88942C13.4743 8.88942 13.2007 9.00123 12.9973 9.20083C12.8973 9.29898 12.8178 9.41608 12.7636 9.54529C12.7094 9.67449 12.6815 9.81321 12.6815 9.95333C12.6815 10.0935 12.7094 10.2322 12.7636 10.3614C12.8178 10.4906 12.8973 10.6077 12.9973 10.7058L14.7502 12.4354H4.41645C4.27563 12.4343 4.13598 12.4609 4.00548 12.5138C3.87498 12.5667 3.7562 12.6449 3.65595 12.7438C3.5557 12.8427 3.47595 12.9604 3.42127 13.0901C3.36658 13.2199 3.33804 13.3592 3.33728 13.5C3.33728 14.0877 3.81999 14.5646 4.41645 14.5646H14.7487L12.9958 16.2942C12.8958 16.3923 12.8164 16.5094 12.7622 16.6386C12.7079 16.7678 12.68 16.9065 12.68 17.0467C12.68 17.1868 12.7079 17.3255 12.7622 17.4547C12.8164 17.5839 12.8958 17.701 12.9958 17.7992C13.1992 17.9988 13.4728 18.1106 13.7578 18.1106C14.0428 18.1106 14.3178 17.9988 14.5212 17.7992Z" fill="white"/>
</svg>
