<svg width="35" height="35" viewBox="0 0 35 35" fill="none" xmlns="http://www.w3.org/2000/svg">
<path d="M27.6908 2.93414L32.0658 7.30914L28.7306 10.6458L24.3556 6.27081L27.6908 2.93414ZM11.6667 23.3333H16.0417L26.6685 12.7064L22.2935 8.33143L11.6667 18.9583V23.3333Z" fill="white"/>
<path d="M27.7083 27.7083H11.8971C11.8592 27.7083 11.8198 27.7229 11.7819 27.7229C11.7338 27.7229 11.6856 27.7098 11.636 27.7083H7.29167V7.29167H17.2769L20.1935 4.375H7.29167C5.68312 4.375 4.375 5.68167 4.375 7.29167V27.7083C4.375 29.3183 5.68312 30.625 7.29167 30.625H27.7083C28.4819 30.625 29.2237 30.3177 29.7707 29.7707C30.3177 29.2237 30.625 28.4819 30.625 27.7083V15.0675L27.7083 17.9842V27.7083Z" fill="white"/>
</svg>
