<svg width="43" height="36" viewBox="0 0 43 36" fill="none" xmlns="http://www.w3.org/2000/svg">
<path d="M21.0756 11.036C25.9283 11.036 29.8588 8.56672 29.8588 5.51802C29.8588 2.46931 25.9283 0 21.0756 0C16.223 0 12.2925 2.46931 12.2925 5.51802C12.2925 8.56672 16.223 11.036 21.0756 11.036ZM15.2129 28.1971L18.0235 25.9899L11.2715 22.4583L6.23213 26.4175C4.98053 27.397 4.94759 28.7903 6.14429 29.7973L11.4142 34.2117C12.2815 34.936 13.599 35.3153 14.9274 35.3153C15.8387 35.3153 16.7719 35.136 17.5624 34.7635C19.5057 33.853 19.8899 32.1218 18.4407 30.9009L15.2129 28.1971ZM30.8798 22.4583L24.1278 25.9899L26.9384 28.1971L23.7106 30.9009C22.2614 32.1218 22.6456 33.853 24.5889 34.7635C25.3794 35.136 26.3016 35.3153 27.2238 35.3153C28.5633 35.3153 29.8807 34.936 30.7371 34.2117L36.007 29.7973C37.2037 28.7903 37.1708 27.397 35.9192 26.4175L30.8798 22.4583ZM41.3537 10.0014C39.9594 8.75296 37.2256 8.45636 35.2385 9.32545L30.781 11.2912C24.9951 13.8433 17.1452 13.8433 11.3703 11.2912L6.91282 9.33235C4.92563 8.45636 2.19188 8.75985 0.797555 10.0014C-0.596769 11.2499 -0.113696 12.9673 1.86251 13.8433L6.31996 15.8091C8.18638 16.6299 10.2065 17.2507 12.2925 17.7335V19.8649H29.8588V17.7404C31.9448 17.2576 33.9649 16.6368 35.8313 15.816L40.2888 13.8502C42.276 12.9673 42.7481 11.2499 41.3537 10.0014Z" fill="#E8AE79"/>
</svg>
