<svg width="40" height="32" viewBox="0 0 40 32" fill="none" xmlns="http://www.w3.org/2000/svg">
<path d="M9.22949 10.1334V5.58343C9.22949 5.25682 9.39989 4.94148 9.68387 4.71624L10.6494 3.96167L11.615 4.71624C11.899 4.94148 12.0694 5.25682 12.0694 5.58343V10.1334H9.22949ZM18.4592 10.1334V5.58343C18.4592 5.25682 18.6295 4.94148 18.9135 4.71624L19.8791 3.96167L20.8447 4.71624C21.1287 4.94148 21.299 5.25682 21.299 5.58343V10.1334H18.4592ZM27.6888 5.58343V10.1334H30.5287V5.58343C30.5287 5.25682 30.3725 4.94148 30.0743 4.71624L29.1088 3.96167L28.1432 4.71624C27.8592 4.94148 27.6888 5.25682 27.6888 5.58343Z" fill="#26EAFC"/>
<path d="M12.4672 1.94554L11.1892 0.244953C11.1323 0.170353 11.0521 0.108662 10.9563 0.0658439C10.8606 0.0230258 10.7525 0.000529262 10.6426 0.000529262C10.5326 0.000529262 10.4245 0.0230258 10.3288 0.0658439C10.233 0.108662 10.1528 0.170353 10.0959 0.244953L8.83212 1.94554C8.59073 2.26089 8.47714 2.63254 8.53393 3.02672C8.64753 3.80381 9.4285 4.42323 10.4083 4.50206C11.6862 4.61469 12.7796 3.82633 12.7796 2.824C12.7652 2.51562 12.658 2.21445 12.4672 1.94554ZM21.6968 1.94554L20.4331 0.244953C20.3762 0.170353 20.296 0.108662 20.2002 0.0658439C20.1044 0.0230258 19.9963 0.000529262 19.8864 0.000529262C19.7765 0.000529262 19.6684 0.0230258 19.5726 0.0658439C19.4769 0.108662 19.3966 0.170353 19.3397 0.244953L18.076 1.94554C17.8346 2.24962 17.721 2.63254 17.7778 3.02672C17.8914 3.79255 18.6724 4.41197 19.6521 4.50206C20.9301 4.61469 22.0234 3.82633 22.0234 2.824C22.0092 2.50865 21.8956 2.20458 21.6968 1.94554ZM29.6628 0.244953L30.9265 1.94554C31.1253 2.20458 31.2389 2.50865 31.2389 2.824C31.2389 3.82633 30.1597 4.61469 28.8676 4.50206C27.902 4.42323 27.121 3.80381 27.0075 3.02672C26.9507 2.63254 27.0642 2.24962 27.3056 1.94554L28.5694 0.244953C28.8108 -0.0816509 29.4214 -0.0816509 29.6628 0.244953Z" fill="#FCD53F"/>
<path d="M10.6493 1.2803L11.5155 2.15876C11.6525 2.27138 11.7525 2.40895 11.8069 2.55939C11.8612 2.70983 11.8681 2.86855 11.8271 3.02162C11.786 3.17468 11.6982 3.31742 11.5714 3.43729C11.4445 3.55716 11.2825 3.65051 11.0996 3.70914C10.9167 3.76778 10.7184 3.7899 10.5222 3.77358C10.3259 3.75725 10.1377 3.70297 9.97414 3.61551C9.81053 3.52805 9.67648 3.41007 9.58377 3.27193C9.49105 3.13379 9.44251 2.97972 9.44238 2.82322C9.44238 2.56419 9.57018 2.33895 9.78317 2.15876L10.6493 1.2803ZM20.7452 2.15876L19.879 1.2803L19.0128 2.17002C18.8751 2.28262 18.7743 2.42037 18.7194 2.57112C18.6645 2.72187 18.6572 2.88101 18.6981 3.03454C18.739 3.18806 18.8268 3.33126 18.9539 3.45152C19.081 3.57179 19.2434 3.66544 19.4268 3.72423C19.6102 3.78302 19.809 3.80515 20.0058 3.78867C20.2025 3.77218 20.3911 3.7176 20.555 3.62971C20.7189 3.54182 20.8531 3.42333 20.9456 3.28466C21.0382 3.14599 21.0864 2.9914 21.086 2.83449C21.086 2.56419 20.9582 2.33895 20.7452 2.15876ZM29.9748 2.15876L29.1087 1.2803L28.2425 2.17002C28.1047 2.28262 28.004 2.42037 27.9491 2.57112C27.8942 2.72187 27.8869 2.88101 27.9278 3.03454C27.9687 3.18806 28.0565 3.33126 28.1836 3.45152C28.3106 3.57179 28.473 3.66544 28.6564 3.72423C28.8399 3.78302 29.0387 3.80515 29.2354 3.78867C29.4322 3.77218 29.6208 3.7176 29.7847 3.62971C29.9486 3.54182 30.0827 3.42333 30.1753 3.28466C30.2679 3.14599 30.3161 2.9914 30.3156 2.83449C30.3156 2.56419 30.1878 2.33895 29.9748 2.15876Z" fill="#FFB02E"/>
<path d="M36.5636 31.5315H3.19486C2.21509 31.5315 1.41992 30.9009 1.41992 30.1238V14.6382H38.3386V30.1238C38.3386 30.9009 37.5434 31.5315 36.5636 31.5315Z" fill="#D3883E"/>
<path d="M0 11.2618C0 10.3657 0.448804 9.50633 1.24768 8.8727C2.04655 8.23908 3.13006 7.88312 4.25984 7.88312H35.5129C36.6427 7.88312 37.7262 8.23908 38.525 8.8727C39.3239 9.50633 39.7727 10.3657 39.7727 11.2618V17.5202C39.7727 18.4437 38.296 18.8716 37.5576 18.1509C36.8334 17.4413 35.5271 17.3287 34.6325 17.8918L34.2917 18.1058C33.2916 18.7243 32.0597 19.0601 30.7916 19.0601C29.5234 19.0601 28.2915 18.7243 27.2914 18.1058L26.6382 17.7004C25.8714 17.2274 24.8065 17.2274 24.0397 17.7004L23.3865 18.1058C22.3864 18.7243 21.1545 19.0601 19.8864 19.0601C18.6182 19.0601 17.3863 18.7243 16.3862 18.1058L15.733 17.7004C14.9662 17.2274 13.9013 17.2274 13.1345 17.7004L12.4813 18.1058C11.4812 18.7243 10.2493 19.0601 8.98117 19.0601C7.71299 19.0601 6.48112 18.7243 5.481 18.1058L5.14021 17.8918C4.24564 17.34 2.93929 17.4526 2.21512 18.1509C1.46255 18.8604 0 18.4437 0 17.5202V11.2618ZM1.41995 22.5206H38.3386V24.773H1.41995V22.5206Z" fill="#FFDEA7"/>
<path d="M18.672 10.3045C18.388 10.5297 18.388 10.8788 18.672 11.1041L19.7227 11.9375C20.0067 12.1627 20.4469 12.1627 20.7309 11.9375C21.0149 11.7122 21.0149 11.3631 20.7309 11.1379L19.6801 10.3045C19.3961 10.0792 18.9418 10.0792 18.672 10.3045Z" fill="#00A6ED"/>
<path d="M6.89224 10.3001C6.75893 10.1944 6.57812 10.135 6.38958 10.135C6.20105 10.135 6.02023 10.1944 5.88692 10.3001C5.75361 10.4059 5.67871 10.5493 5.67871 10.6988C5.67871 10.8484 5.75361 10.9918 5.88692 11.0975L7.30687 12.2237C7.44018 12.3295 7.62099 12.3889 7.80953 12.3889C7.99806 12.3889 8.17888 12.3295 8.31219 12.2237C8.4455 12.118 8.5204 11.9746 8.5204 11.8251C8.5204 11.6755 8.4455 11.5321 8.31219 11.4264L6.89224 10.3001ZM25.3516 13.6788C25.2182 13.5731 25.0374 13.5137 24.8489 13.5137C24.6604 13.5137 24.4795 13.5731 24.3462 13.6788C24.2129 13.7845 24.138 13.928 24.138 14.0775C24.138 14.227 24.2129 14.3704 24.3462 14.4762L25.7662 15.6024C25.8995 15.7081 26.0803 15.7675 26.2688 15.7675C26.4574 15.7675 26.6382 15.7081 26.7715 15.6024C26.9048 15.4967 26.9797 15.3532 26.9797 15.2037C26.9797 15.0542 26.9048 14.9108 26.7715 14.805L25.3516 13.6788Z" fill="#FF6DC6"/>
<path d="M33.8711 11.0975C34.0045 10.9918 34.0793 10.8484 34.0793 10.6988C34.0793 10.5493 34.0045 10.4059 33.8711 10.3001C33.7378 10.1944 33.557 10.135 33.3685 10.135C33.1799 10.135 32.9991 10.1944 32.8658 10.3001L31.4459 11.4264C31.3126 11.5321 31.2377 11.6755 31.2377 11.8251C31.2377 11.9746 31.3126 12.118 31.4459 12.2237C31.5792 12.3295 31.76 12.3889 31.9485 12.3889C32.1371 12.3889 32.3179 12.3295 32.4512 12.2237L33.8711 11.0975ZM13.9919 14.4762C14.1252 14.3704 14.2001 14.227 14.2001 14.0775C14.2001 13.928 14.1252 13.7845 13.9919 13.6788C13.8586 13.5731 13.6778 13.5137 13.4892 13.5137C13.3007 13.5137 13.1199 13.5731 12.9866 13.6788L11.5666 14.805C11.4333 14.9108 11.3584 15.0542 11.3584 15.2037C11.3584 15.3532 11.4333 15.4967 11.5666 15.6024C11.6999 15.7081 11.8807 15.7675 12.0693 15.7675C12.2578 15.7675 12.4386 15.7081 12.5719 15.6024L13.9919 14.4762Z" fill="#FF822D"/>
<path d="M18.6666 10.2999C18.7325 10.2475 18.8109 10.2058 18.8971 10.1775C18.9834 10.1491 19.0759 10.1345 19.1693 10.1345C19.2626 10.1345 19.3551 10.1491 19.4414 10.1775C19.5276 10.2058 19.606 10.2475 19.6719 10.2999L21.0919 11.4261C21.2252 11.5319 21.3001 11.6753 21.3001 11.8248C21.3001 11.9743 21.2252 12.1177 21.0919 12.2235C20.9585 12.3292 20.7777 12.3886 20.5892 12.3886C20.4007 12.3886 20.2199 12.3292 20.0865 12.2235L18.6666 11.0973C18.6005 11.045 18.548 10.9828 18.5122 10.9144C18.4764 10.846 18.458 10.7726 18.458 10.6986C18.458 10.6245 18.4764 10.5512 18.5122 10.4828C18.548 10.4143 18.6005 10.3522 18.6666 10.2999Z" fill="#00A6ED"/>
</svg>
