<svg width="40" height="32" viewBox="0 0 40 32" fill="none" xmlns="http://www.w3.org/2000/svg">
<path d="M15.9091 22.7728V21.021H2.00852L1.98864 28.028C1.98864 29.9725 3.75852 31.5315 5.96591 31.5315H33.8068C36.0142 31.5315 37.7841 29.9725 37.7841 28.028V21.021H23.8636V22.7728H15.9091ZM35.7955 7.00701H27.821V3.5035L23.8438 0H15.8892L11.9119 3.5035V7.00701H3.97727C1.78977 7.00701 0 8.58358 0 10.5105V15.7658C0 17.7102 1.76989 19.2693 3.97727 19.2693H15.9091V15.7658H23.8636V19.2693H35.7955C37.983 19.2693 39.7727 17.6927 39.7727 15.7658V10.5105C39.7727 8.58358 37.983 7.00701 35.7955 7.00701ZM23.8636 7.00701H15.9091V3.5035H23.8636V7.00701Z" fill="#E8AE79"/>
</svg>
