<svg width="40" height="32" viewBox="0 0 40 32" fill="none" xmlns="http://www.w3.org/2000/svg">
<path d="M18.2397 0C17.3664 0 16.6751 0.67381 16.6751 1.5246C16.6751 2.37563 17.3664 3.04676 18.2397 3.04676C19.113 3.04676 19.8043 2.37563 19.8043 1.5246C19.8044 0.67381 19.113 0 18.2397 0ZM20.804 3.24971C20.4956 3.68153 20.0788 4.02921 19.5935 4.25961L25.3315 14.6635L26.2845 13.1869L20.804 3.24971ZM15.6936 3.2726L8.47428 16.3632L9.84623 17.0837L16.9092 4.26968C16.4235 4.04372 16.005 3.70056 15.6936 3.27277V3.2726ZM2.08025 9.95745L0 10.2264L0.296833 13.8947L2.78322 13.6308L2.08025 9.95736V9.95745ZM28.5701 12.5654L25.6518 16.853L35.2011 26.5465L39.7727 23.936L28.57 12.5654H28.5701ZM2.76239 15.1607L1.32779 15.3129C1.57081 16.8868 2.0088 18.4262 2.63218 19.8973L5.26419 17.4845C4.34303 16.7906 3.50168 16.0127 2.76239 15.1607ZM7.4614 17.5556L2.41082 22.1829L3.56675 24.1086L9.63287 18.6946L7.4614 17.5556ZM25.4434 18.7429C20.6756 21.6181 15.0825 21.8091 10.3044 20.1534L5.40215 24.5246C8.8231 28.7707 13.9897 31.5315 19.8096 31.5315C25.2567 31.5317 30.0665 29.9149 33.2954 26.7088L32.4231 25.8235C31.1408 26.8299 29.4515 27.6168 27.8619 27.8835C28.8138 27.17 29.8913 26.2312 30.7831 25.2957C28.0437 27.1036 24.6317 28.1957 22.3452 27.9215C24.9746 27.2639 28.2127 25.2855 29.877 23.2407L27.8463 21.1808C26.2895 21.918 24.3093 22.3081 22.5951 22.155C23.9083 21.6233 25.4781 20.8352 26.6981 20.0164L25.4433 18.7429H25.4434Z" fill="#E8AE79"/>
</svg>
