<svg width="42" height="34" viewBox="0 0 42 34" fill="none" xmlns="http://www.w3.org/2000/svg">
<path d="M28.1178 22.021C28.1178 20.3619 22.452 19.018 15.4628 19.018M28.1178 22.021C28.1178 23.6802 22.452 25.024 15.4628 25.024C8.47366 25.024 2.80785 23.6802 2.80785 22.021M28.1178 22.021V29.4339C28.1178 31.1441 22.452 32.5315 15.4628 32.5315C8.47366 32.5315 2.80785 31.1456 2.80785 29.4339V22.021M28.1178 22.021C35.031 22.021 40.7727 20.539 40.7727 19.018V4.003M15.4628 19.018C8.47366 19.018 2.80785 20.3619 2.80785 22.021M15.4628 19.018C7.47572 19.018 1 17.536 1 16.015V8.50751M15.4628 5.5045C7.47572 5.5045 1 6.84835 1 8.50751M1 8.50751C1 10.1667 7.47572 11.5105 15.4628 11.5105C15.4628 13.0315 21.3438 14.5135 28.257 14.5135C35.1684 14.5135 40.7727 13.0315 40.7727 11.5105M40.7727 4.003C40.7727 2.34384 35.1684 1 28.257 1C21.3438 1 15.7412 2.34384 15.7412 4.003M40.7727 4.003C40.7727 5.66216 35.1684 7.00601 28.257 7.00601C21.3456 7.00601 15.7412 5.66216 15.7412 4.003M15.7412 4.003V19.2673" stroke="#E8AE79" stroke-width="2"/>
</svg>
