<svg width="20" height="20" viewBox="0 0 20 20" fill="none" xmlns="http://www.w3.org/2000/svg">
<path d="M10 0C6.7298 0 4.0498 2.672 4.0498 5.9332C4.0498 7.1968 4.4534 8.3712 5.1364 9.3364L9.2738 16.489C9.8532 17.246 10.2384 17.1022 10.7202 16.449L15.2838 8.683C15.3758 8.5162 15.4482 8.3386 15.5112 8.1572C15.8008 7.4515 15.9497 6.69601 15.9496 5.9332C15.9498 2.672 13.2706 0 10 0ZM10 2.78C11.7612 2.78 13.1616 4.1772 13.1616 5.9332C13.1616 7.6892 11.7612 9.0858 10 9.0858C8.239 9.0858 6.83801 7.6894 6.83801 5.9332C6.83801 4.1772 8.239 2.7802 10 2.7802" fill="white"/>
<path d="M13.7826 9.7816L13.773 9.8068C13.776 9.7992 13.7784 9.7914 13.7814 9.7838L13.7826 9.7816ZM6.8012 13.8114C3.976 14.2106 2 15.1656 2 16.5714C2 18.465 5.3016 20 10 20C14.6984 20 18 18.465 18 16.5714C18 15.1656 16.0242 14.2106 13.1992 13.8114L12.8078 14.4778C14.937 14.7732 16.4 15.394 16.4 16.1144C16.4 17.1244 13.5346 17.943 10 17.943C6.4654 17.943 3.6 17.1244 3.6 16.1144C3.5998 15.3964 5.0532 14.7762 7.189 14.4796C7.06 14.2568 6.9304 14.0344 6.8012 13.8114Z" fill="white"/>
</svg>
