<svg width="21" height="14" viewBox="0 0 21 14" fill="none" xmlns="http://www.w3.org/2000/svg">
<path d="M20.5229 1.1875V13.0625H2.14785V10.6875H0.922852V0H18.0729V1.1875H20.5229ZM15.6229 1.1875C15.6229 1.35449 15.6548 1.50911 15.7186 1.65137C15.7824 1.79362 15.8685 1.91732 15.977 2.02246C16.0854 2.1276 16.2162 2.21419 16.3693 2.28223C16.5225 2.35026 16.682 2.38118 16.8479 2.375V1.1875H15.6229ZM2.14785 2.375C2.32012 2.375 2.47962 2.34408 2.62637 2.28223C2.77311 2.22038 2.90072 2.13688 3.00918 2.03174C3.11764 1.9266 3.20697 1.7998 3.27715 1.65137C3.34733 1.50293 3.37923 1.34831 3.37285 1.1875H2.14785V2.375ZM2.14785 7.125C2.486 7.125 2.80182 7.18685 3.09531 7.31055C3.3888 7.43424 3.65039 7.60433 3.88008 7.8208C4.10977 8.03727 4.28522 8.28776 4.40645 8.57227C4.52767 8.85677 4.59147 9.16602 4.59785 9.5H14.3979C14.3979 9.1722 14.4617 8.86605 14.5893 8.58154C14.7169 8.29704 14.8923 8.04346 15.1156 7.8208C15.3389 7.59814 15.5973 7.42806 15.8908 7.31055C16.1843 7.19303 16.5033 7.13119 16.8479 7.125V3.5625C16.5097 3.5625 16.1939 3.50065 15.9004 3.37695C15.6069 3.25326 15.3453 3.08317 15.1156 2.8667C14.8859 2.65023 14.7105 2.39974 14.5893 2.11523C14.468 1.83073 14.4042 1.52148 14.3979 1.1875H4.59785C4.59785 1.5153 4.53405 1.82145 4.40645 2.10596C4.27884 2.39046 4.10339 2.64404 3.88008 2.8667C3.65677 3.08936 3.39837 3.25944 3.10488 3.37695C2.81139 3.49447 2.49238 3.55632 2.14785 3.5625V7.125ZM16.8479 8.3125C16.6756 8.3125 16.5161 8.34342 16.3693 8.40527C16.2226 8.46712 16.095 8.55062 15.9865 8.65576C15.8781 8.76091 15.7887 8.8877 15.7186 9.03613C15.6484 9.18457 15.6165 9.33919 15.6229 9.5H16.8479V8.3125ZM2.14785 9.5H3.37285C3.37285 9.33301 3.34095 9.17839 3.27715 9.03613C3.21335 8.89388 3.12721 8.77018 3.01875 8.66504C2.91029 8.5599 2.77949 8.47331 2.62637 8.40527C2.47324 8.33724 2.31374 8.30632 2.14785 8.3125V9.5ZM19.2979 2.375H18.0729V10.6875H3.37285V11.875H19.2979V2.375ZM5.21035 5.9375C5.04447 5.9375 4.90091 5.87874 4.77969 5.76123C4.65846 5.64372 4.59785 5.50456 4.59785 5.34375C4.59785 5.18294 4.65846 5.04378 4.77969 4.92627C4.90091 4.80876 5.04447 4.75 5.21035 4.75C5.37624 4.75 5.51979 4.80876 5.64102 4.92627C5.76224 5.04378 5.82285 5.18294 5.82285 5.34375C5.82285 5.50456 5.76224 5.64372 5.64102 5.76123C5.51979 5.87874 5.37624 5.9375 5.21035 5.9375ZM13.7854 5.9375C13.6195 5.9375 13.4759 5.87874 13.3547 5.76123C13.2335 5.64372 13.1729 5.50456 13.1729 5.34375C13.1729 5.18294 13.2335 5.04378 13.3547 4.92627C13.4759 4.80876 13.6195 4.75 13.7854 4.75C13.9512 4.75 14.0948 4.80876 14.216 4.92627C14.3372 5.04378 14.3979 5.18294 14.3979 5.34375C14.3979 5.50456 14.3372 5.64372 14.216 5.76123C14.0948 5.87874 13.9512 5.9375 13.7854 5.9375ZM9.49785 8.3125C9.1597 8.3125 8.84388 8.25065 8.55039 8.12695C8.2569 8.00325 7.99531 7.83317 7.76562 7.6167C7.53594 7.40023 7.36048 7.14974 7.23926 6.86523C7.11803 6.58073 7.05423 6.27148 7.04785 5.9375V4.75C7.04785 4.4222 7.11165 4.11605 7.23926 3.83154C7.36686 3.54704 7.54232 3.29346 7.76562 3.0708C7.98893 2.84814 8.24733 2.67806 8.54082 2.56055C8.83431 2.44303 9.15332 2.38118 9.49785 2.375C9.836 2.375 10.1518 2.43685 10.4453 2.56055C10.7388 2.68424 11.0004 2.85433 11.2301 3.0708C11.4598 3.28727 11.6352 3.53776 11.7564 3.82227C11.8777 4.10677 11.9415 4.41602 11.9479 4.75V5.9375C11.9479 6.2653 11.884 6.57145 11.7564 6.85596C11.6288 7.14046 11.4534 7.39404 11.2301 7.6167C11.0068 7.83936 10.7484 8.00944 10.4549 8.12695C10.1614 8.24447 9.84238 8.30632 9.49785 8.3125ZM8.27285 5.9375C8.27285 6.10449 8.30475 6.25911 8.36856 6.40137C8.43236 6.54362 8.51849 6.66732 8.62695 6.77246C8.73542 6.8776 8.86621 6.96419 9.01934 7.03223C9.17246 7.10026 9.33197 7.13119 9.49785 7.125C9.67012 7.125 9.82962 7.09408 9.97637 7.03223C10.1231 6.97038 10.2507 6.88688 10.3592 6.78174C10.4676 6.6766 10.557 6.5498 10.6271 6.40137C10.6973 6.25293 10.7292 6.09831 10.7229 5.9375V4.75C10.7229 4.58301 10.691 4.42839 10.6271 4.28613C10.5633 4.14388 10.4772 4.02018 10.3688 3.91504C10.2603 3.8099 10.1295 3.72331 9.97637 3.65527C9.82324 3.58724 9.66374 3.55632 9.49785 3.5625C9.32559 3.5625 9.16608 3.59342 9.01934 3.65527C8.87259 3.71712 8.74499 3.80062 8.63652 3.90576C8.52806 4.0109 8.43874 4.1377 8.36856 4.28613C8.29837 4.43457 8.26647 4.58919 8.27285 4.75V5.9375Z" fill="white"/>
</svg>
