<svg width="50" height="50" viewBox="0 0 50 50" fill="none" xmlns="http://www.w3.org/2000/svg">
<path d="M14.8631 4.13672C13.7498 4.15235 13.1638 5.83594 12.0818 7.96875C11.1209 9.86719 8.89821 14.0234 8.40602 14.7031C7.90993 15.3828 6.55446 15.8789 6.39821 16.2461C6.24196 16.6172 16.7498 16.2891 16.7498 16.2891L22.7107 15.6289C22.7107 15.6289 21.9177 14.9453 21.1677 13.9922C20.5271 13.1797 18.0154 8.71094 17.0271 6.85547C16.4138 5.70703 15.824 4.125 14.8631 4.13672Z" fill="#F687A9"/>
<path d="M7.76202 18.3359C7.76202 18.3359 5.99249 17.3008 6.09405 16.5664C6.17218 15.9922 7.23859 15.6172 7.23859 15.6172L22.6097 15.5391C22.6097 15.5391 23.9105 16.1836 23.9105 16.8438C23.9105 17.5508 22.2347 18.4531 22.2347 18.4531L21.6253 16.9375L8.71124 16.9609L7.76202 18.3359Z" fill="#EF5593"/>
<path d="M15.0082 22.9766C14.5863 22.957 14.2153 23.1172 14.1645 23.6445C14.1215 24.0859 14.5004 24.4375 14.8871 24.4531C15.2738 24.4727 15.6449 24.2227 15.6606 23.7852C15.6762 23.3789 15.4496 22.9922 15.0082 22.9766Z" fill="#FEA62D"/>
<path d="M15.5862 17.1211C14.9377 17 14.9182 17.6953 14.9182 17.6953C14.9182 17.6953 14.0354 17.5977 13.4104 18.4609C12.762 19.3633 12.8635 20.9063 12.6174 21.3633C12.3713 21.8203 11.5979 22.3477 11.6135 22.4883C11.633 22.6289 12.219 23.1719 14.7854 23.3516C17.344 23.5313 18.1057 23.2617 18.1409 23.0859C18.176 22.9102 17.4729 22.3477 17.383 21.8359C17.2932 21.3242 17.6018 19.7422 17.2698 18.9023C16.8987 17.957 16.0276 17.8047 16.0276 17.8047C16.0276 17.8047 16.1604 17.2266 15.5862 17.1211Z" fill="#FEB804"/>
<path d="M12.7578 20.8789C12.7578 20.8789 13.6211 21.1133 14.9297 21.2148C16.5469 21.3398 17.3789 21.3008 17.3789 21.3008C17.3789 21.3008 17.3672 21.6484 17.4063 21.8242C17.4492 22 17.6445 22.3789 17.6445 22.3789C17.6445 22.3789 16.4219 22.4297 14.8984 22.293C13.3789 22.1562 12.1836 21.8828 12.1836 21.8828C12.1836 21.8828 12.5664 21.5039 12.6133 21.3672C12.6641 21.2266 12.7578 20.8789 12.7578 20.8789Z" fill="#FEA62D"/>
<path d="M22.2814 16.6523C22.2814 16.6523 7.70714 16.668 7.6798 16.7187C7.64073 16.8008 7.64464 18 7.64464 18L10.2853 26.8203L20.6642 26.8438L22.254 17.9297L22.2814 16.6523ZM18.5626 25.7695L11.4728 25.7539C11.4728 25.7539 11.4259 21.6758 11.6837 20.0937C11.8751 18.9219 12.8595 17.4414 15.1954 17.4102C17.5314 17.3789 18.3556 19.1758 18.5196 20.1211C18.6798 21.0703 18.5626 25.7695 18.5626 25.7695Z" fill="#BFB5B3"/>
<path d="M7.63281 27.6133V17.9805H8.64453L9.41406 27.8789L7.63281 27.6133ZM22.2578 27.3594L22.2617 17.9297L21.3359 17.9258L20.4922 27.793L22.2578 27.3594Z" fill="#5F4D4E"/>
<path d="M8.64062 27.6562L8.64453 17.9805H11.5195C11.5195 17.9805 10.8125 19.0117 10.7852 20.207C10.7578 21.3789 10.7031 26.5117 10.7031 26.5117L19.5117 26.457C19.5117 26.457 19.4609 20.4609 19.4023 19.7695C19.3203 18.7891 18.5312 17.9492 18.5312 17.9492L21.332 17.9219V27.9805L8.64062 27.6562Z" fill="#EBE7E6"/>
<path d="M3.22266 33.5L1.48438 33.1055L5.90234 27.3281H44.1016C44.1016 27.3281 48.5117 32.8633 48.4922 32.9258C48.4766 32.9883 48.332 33.1484 48.332 33.1484L11.9453 34.1992L3.22266 33.5Z" fill="#F687A9"/>
<path d="M3.32812 34.2813V36.418L8.75781 47.9258H46.2734C46.7344 47.9258 46.9258 47.4219 46.9258 47.1797C46.9258 46.9375 46.8945 34.4492 46.8945 34.4492L43.4297 33.7266L21.3477 33.832L15.2383 28.4023L8.30078 33.8828L3.32812 34.2813Z" fill="#C0B5B1"/>
<path d="M3.32813 36.418C3.32813 36.418 3.26562 47.7695 3.26562 47.9648C3.26562 48.1602 7.03516 47.6445 7.03516 47.6445L7.86719 45.6016L17.25 42.7695L25.2617 47.7422L23.9102 39.2344L22.8555 38.3086L7.16797 38.6328L5.69531 40.043L4.33984 36.4336L3.32813 36.418ZM46.9062 36.1289H45.5039L43.957 44.1719L45.6875 46.3203H46.9258L46.9062 36.1289Z" fill="#5F4D4E"/>
<path d="M4.34364 36.4258H6.27723L6.1913 46.8789L4.39442 46.5313C4.39051 46.5273 4.3202 36.4062 4.34364 36.4258ZM7.17567 46.1719V38.6289L14.9257 31.4727L22.8632 38.3086V46.4922H7.72255L7.17567 46.1719ZM23.8007 46.332V36.0781H45.7733V46.3164C45.7694 46.3203 23.8007 46.3945 23.8007 46.332Z" fill="#EBE7E6"/>
<path d="M36.4137 45.4063C36.4605 45.4922 40.9527 45.4336 41.0504 45.3945C41.1871 45.3438 41.1051 39.4961 41.1168 38.957C41.1363 38.1328 40.4527 36.6953 38.7652 36.7109C37.0777 36.7266 36.4293 38.0234 36.4137 38.8828C36.398 39.6445 36.3473 45.2852 36.4137 45.4063ZM33.7223 45.3711C33.6715 45.4219 29.2066 45.4336 29.0973 45.3594C28.9879 45.2852 29.0543 40.3047 29.0895 39.0664C29.1129 38.2578 29.6988 36.7305 31.3863 36.75C33.0738 36.7695 33.6832 38.1523 33.7027 38.9766C33.7223 39.8008 33.8277 45.2617 33.7223 45.3711Z" fill="#A5D0D6"/>
<path d="M10.8984 47.9297C10.8984 47.793 10.9961 43.375 10.9961 42.2656C10.9961 40.6875 12.1758 38.8164 14.9492 38.832C17.793 38.8477 18.6914 41.0859 18.6914 42.3672C18.6914 43.2695 18.668 47.9219 18.668 47.9219L10.8984 47.9297Z" fill="#D27856"/>
<path d="M18.1797 42.6406C18.1641 41.3594 17.2422 39.3242 14.8438 39.3086H14.8086C12.3945 39.3086 11.4883 41.2656 11.4688 42.5898C11.4531 43.543 11.4336 47.2187 11.4336 47.2187V47.4531H18.125L18.1289 47.2227C18.1289 47.1914 18.1992 43.9141 18.1797 42.6406ZM11.9414 42.5977C11.9531 41.832 12.4727 39.8828 14.6523 39.7852V46.9844H11.9102C11.9141 46.1602 11.9297 43.4023 11.9414 42.5977ZM17.6641 46.9883H15.1406V39.7969C16.9805 39.9727 17.6992 41.6016 17.7109 42.6484C17.7266 43.7148 17.6797 46.2188 17.6641 46.9883Z" fill="#AE5734"/>
<path d="M15.5394 42.7461C15.4651 42.8398 15.4847 44.6797 15.555 44.7266C15.6409 44.7891 16.1487 44.7891 16.2269 44.7187C16.305 44.6484 16.305 42.8008 16.2542 42.7422C16.1956 42.6836 15.6214 42.6406 15.5394 42.7461ZM13.5589 42.7148C13.4847 42.8086 13.5042 44.6484 13.5745 44.6953C13.6605 44.7578 14.1683 44.7578 14.2464 44.6875C14.3245 44.6172 14.3245 42.7695 14.2737 42.7109C14.2151 42.6523 13.6409 42.6094 13.5589 42.7148Z" fill="#FAC010"/>
<path d="M4.13703 48.4727C5.09015 48.5195 8.4339 48.4531 9.04718 48.4336C9.66437 48.4141 9.8714 47.8359 9.47687 47.0703C9.18 46.4922 8.46906 45.9883 7.72297 45.875C6.97687 45.7617 6.32062 46.1172 6.17218 46.082C6.02375 46.0469 5.3675 45.6914 4.52765 45.8398C3.68781 45.9883 3.10968 46.6445 3.12531 47.4453C3.14875 48.25 3.7464 48.4531 4.13703 48.4727ZM20.0316 47.7266C20.0433 48.25 20.93 48.2617 23.3206 48.2969C25.7112 48.3359 26.4769 48.3828 26.4573 47.0898C26.4378 45.8398 25.6722 45.2422 24.9066 45.2422C24.1409 45.2422 23.5823 45.5586 23.3362 45.5977C23.0941 45.6367 22.6878 45.0313 21.7112 45.3477C20.9534 45.5938 20.012 46.9961 20.0316 47.7266ZM9.94172 38.707C9.72297 38.6016 9.1839 38.6016 8.53156 39.5352C8.04328 40.2305 8.12531 41.1719 8.19171 41.207C8.25812 41.2422 9.16437 41.0938 9.6839 40.543C10.2034 39.9883 10.2503 38.8555 9.94172 38.707Z" fill="#709923"/>
<path d="M9.7542 43.6719C9.99639 43.6445 10.5472 42.8594 10.469 41.9375C10.387 41.0117 9.80499 40.4609 9.6253 40.4961C9.44561 40.5273 9.03936 40.9961 9.02374 41.8437C9.00811 42.957 9.60967 43.6875 9.7542 43.6719ZM20.0315 39.0703C19.9651 39.2265 19.5433 40.2695 20.2894 41.1133C20.9456 41.8555 21.1644 42.1992 21.3753 42.1992C21.5862 42.1992 21.7659 40.789 21.4417 40.0898C21.1175 39.3945 20.0784 38.957 20.0315 39.0703Z" fill="#709923"/>
<path d="M19.9961 44.2148C20.1523 44.1758 20.543 43.1914 20.5977 42.4492C20.668 41.4453 20.1914 40.7461 20.1914 40.7461C20.1914 40.7461 19.1523 40.9883 19.1523 42.3984C19.1523 43.8398 19.8672 44.2461 19.9961 44.2148Z" fill="#709923"/>
<path d="M11.6835 34.9844C11.3319 35.2851 11.0897 36.2539 11.5546 36.8594C12.0077 37.4531 12.7772 37.418 13.1913 37.1328C13.6054 36.8476 13.6171 35.7578 13.2499 35.2578C12.8827 34.7578 12.0858 34.6406 11.6835 34.9844ZM17.5311 34.8516C16.996 34.8867 16.2733 35.7773 16.5819 36.5586C16.8905 37.3398 18.0194 37.3789 18.3632 37.1758C18.7069 36.9726 19.1093 36.3008 18.9452 35.7148C18.8124 35.2578 18.0429 34.8203 17.5311 34.8516Z" fill="#FFB1D1"/>
<path d="M17.4373 35.6484C17.2224 35.8008 17.1639 36.207 17.3787 36.3945C17.5935 36.5859 17.9021 36.5742 18.0662 36.4062C18.2576 36.207 18.2342 35.8828 18.0779 35.707C17.9217 35.5273 17.6131 35.5195 17.4373 35.6484ZM12.1131 35.6836C11.9412 35.8555 11.9451 36.1953 12.1365 36.3828C12.3279 36.5742 12.5935 36.5391 12.781 36.4062C12.9842 36.2578 12.9607 35.8437 12.7732 35.6914C12.6131 35.5664 12.3357 35.4609 12.1131 35.6836ZM14.7889 34.2266C14.7889 34.2266 15.3045 34.168 15.7146 34.3125C16.3123 34.5234 16.5506 35.2227 16.4998 35.5312C16.4607 35.7773 16.3318 36.4531 16.3318 36.4531L15.4685 36.9062L14.4021 36.6953L13.6795 36.1641C13.6795 36.1641 13.6951 35.0039 13.7185 34.9883C13.742 34.9687 14.7889 34.2266 14.7889 34.2266ZM19.3396 36.9297L18.3592 37.1758L17.8631 38.2617C17.8631 38.2617 17.7615 39.3945 18.7615 39.7656C19.6599 40.0977 20.1053 39.5937 20.1053 39.5937L20.6209 38.707L20.6404 38.0391L20.2381 37.1602L19.3396 36.9297ZM11.5974 38.5273C11.5974 38.5273 11.2654 39.4883 10.1014 39.2227C8.94119 38.9609 9.23416 37.293 9.23416 37.293L9.87088 36.6172L10.5662 36.4961L11.242 36.6484L11.7381 37.3164L11.7068 37.9336L11.5974 38.5273Z" fill="#F687A9"/>
<path d="M20.8832 38.1758C20.8403 37.6641 20.602 37.2383 20.2153 36.9766C19.895 36.7617 19.5043 36.6914 19.1098 36.7578C19.2394 36.4606 19.2699 36.1296 19.1967 35.8137C19.1235 35.4978 18.9506 35.2139 18.7036 35.0039C18.1528 34.543 17.1372 34.5898 16.6879 35.0937C16.4457 35.3672 16.3012 35.7539 16.3481 36.1797C16.3481 36.1797 15.8012 36.7891 14.8793 36.668C14.4809 36.6133 14.184 36.4336 14.0161 36.1484C13.8481 35.8633 13.8286 35.4844 13.9653 35.1406C14.0903 34.8242 14.4106 34.5938 14.5786 34.543C14.9262 34.4414 15.3286 34.4805 15.5551 34.6445C15.8637 34.8672 15.8676 35.4258 15.7426 35.6484C15.5786 35.9375 15.2739 36.0117 15.0551 35.9531C14.9809 35.9336 14.8129 35.8711 14.8129 35.6953C14.8129 35.6172 14.8442 35.543 14.9028 35.5039C14.9809 35.4492 15.0825 35.4375 15.1489 35.4648C15.2075 35.4883 15.3559 35.4805 15.3872 35.3359C15.4223 35.1719 15.2817 35.1055 15.2309 35.0859C15.1801 35.0664 14.895 34.9922 14.6606 35.1563C14.5551 35.2305 14.4106 35.3633 14.4106 35.6719C14.4106 35.9727 14.6293 36.2461 14.9536 36.3281C15.309 36.4219 15.8129 36.3086 16.0786 35.8359C16.3051 35.4336 16.2465 34.6563 15.7778 34.3203C15.4536 34.0898 14.9262 34.0273 14.4614 34.1641C14.0473 34.2852 13.7309 34.6406 13.5942 34.9922C13.559 35.0781 13.5395 35.168 13.52 35.2578C13.4106 34.9336 12.8364 34.5391 12.0004 34.8125C10.9965 35.1406 10.9887 36.0195 11.0942 36.3711C10.7036 36.2109 10.2543 36.2109 9.94575 36.3516C9.58246 36.5156 9.28559 36.9023 9.18793 37.3359C9.09418 37.7617 9.19184 38.1758 9.46918 38.5039C9.66059 38.7305 9.9184 38.8164 10.1723 38.8164C10.4184 38.8164 10.6567 38.7344 10.8168 38.6172C11.0434 38.4492 11.1879 38.1563 11.1762 37.8555C11.1684 37.6055 11.0473 37.3984 10.8911 37.2969C10.7504 37.2109 10.5786 37.1719 10.434 37.2109C10.1528 37.2852 10.0551 37.5 10.0356 37.5313C10.02 37.5664 9.90278 37.8125 10.0747 37.8984C10.2465 37.9844 10.3207 37.8242 10.3442 37.8047C10.3676 37.7852 10.4301 37.6563 10.5239 37.6172C10.5668 37.6016 10.6254 37.5938 10.684 37.6289C10.7192 37.6523 10.7856 37.7383 10.7934 37.875C10.7973 37.957 10.7661 38.1719 10.5903 38.3047C10.4184 38.4297 9.9809 38.4961 9.75825 38.2305C9.56293 37.9961 9.51215 37.7266 9.57856 37.4258C9.64887 37.1094 9.85981 36.8555 10.1098 36.7305C10.4536 36.5586 11.0356 36.625 11.3403 37.0117C11.7817 37.5742 11.4497 38.4414 11.4457 38.4492C11.4457 38.4492 11.395 38.5938 11.4809 38.6328C11.5668 38.6719 11.6567 38.5625 11.6567 38.5625C11.6723 38.5273 12.0356 37.957 11.9028 37.3281C12.0903 37.4258 12.3012 37.4844 12.5278 37.4844C12.7114 37.4844 12.9067 37.4453 13.1098 37.3633C13.4028 37.2422 13.6137 37.0234 13.7231 36.7344C13.7543 36.6563 13.77 36.5742 13.7856 36.4922C14.0239 36.7969 14.3793 37 14.8247 37.0586C14.9379 37.0742 15.0434 37.082 15.1489 37.082C15.7934 37.082 16.2231 36.8125 16.4418 36.6328C16.5395 36.8867 16.7075 37.0977 16.9457 37.2461C17.2582 37.4453 17.5707 37.5273 17.8598 37.5273C17.9301 37.5273 18.0004 37.5156 18.0668 37.5078C17.9809 37.6602 17.9184 37.8281 17.8872 38.0039C17.809 38.4727 17.9614 38.8906 18.3051 39.1484C18.6879 39.4336 19.1528 39.457 19.4965 39.2617C19.8364 39.0703 20.0122 38.6836 19.9536 38.2969C19.895 37.8906 19.6723 37.7383 19.5434 37.6797C19.3637 37.6016 19.145 37.6172 18.9926 37.7227C18.7231 37.9102 18.7114 38.2227 18.7465 38.3789C18.7465 38.3789 18.7739 38.5859 18.9692 38.5508C19.1879 38.5117 19.1254 38.2891 19.1254 38.2891C19.1215 38.2734 19.0864 38.1211 19.2036 38.0391C19.2309 38.0195 19.309 38.0039 19.3832 38.0352C19.4731 38.0742 19.5395 38.1875 19.559 38.3477C19.5903 38.5781 19.4848 38.8008 19.2895 38.918C19.0629 39.0508 18.7895 39.0195 18.5317 38.8281C18.309 38.6602 18.2114 38.3828 18.2661 38.0586C18.3364 37.6484 18.6332 37.2852 18.9848 37.1758C19.3403 37.0625 19.7075 37.1094 19.9926 37.3008C20.2778 37.4922 20.4536 37.8125 20.4887 38.207C20.559 39.043 19.9536 39.5469 19.9223 39.5664C19.9223 39.5664 19.809 39.6602 19.8403 39.7422C19.8715 39.8242 20.0004 39.7578 20.0004 39.7578C20.0473 39.7344 20.977 39.2617 20.8832 38.1758ZM13.3325 36.5352C13.2622 36.7266 13.1293 36.8594 12.934 36.9414C12.2661 37.2148 11.7778 36.8789 11.5434 36.4492C11.4106 36.2109 11.3325 35.4961 12.1489 35.168C12.6567 34.9648 13.0707 35.1953 13.2739 35.5977C13.4067 35.8594 13.4497 36.2227 13.3325 36.5352ZM18.6176 36.8242C18.3911 37.0547 17.8247 37.3359 17.1528 36.9141C16.9262 36.7695 16.7895 36.5547 16.7504 36.2773C16.6997 35.9102 16.8325 35.5312 16.9809 35.3594C17.2934 35.0078 18.0629 34.9805 18.4536 35.3086C18.6918 35.5078 18.8286 35.7969 18.8442 36.1211C18.8559 36.3984 18.7739 36.6641 18.6176 36.8242Z" fill="#BF077C"/>
<path d="M3.12488 34.5742C3.12488 34.5742 1.35535 33.1875 1.48425 33.1055C1.61316 33.0234 8.30066 33.1094 8.30066 33.1094C8.30066 33.1094 14.1913 27.8203 14.3944 27.6211C14.5975 27.4219 14.7772 27.3008 15.078 27.3008C15.3788 27.3008 15.7421 27.6211 15.9843 27.8047C16.2264 27.9844 21.9374 33.0938 21.9374 33.0938C21.9374 33.0938 48.5507 32.8047 48.4999 32.9297C48.4491 33.0547 46.9843 34.7031 46.9843 34.7031H23.8827C23.8827 34.7031 25.3788 35.8555 25.328 35.9297C25.2772 36.0039 24.2968 37.5234 24.1522 37.5234C24.0038 37.5234 15.0038 29.6992 15.0038 29.6992L5.953 37.8633L4.65222 36.3672L6.66394 34.6016L3.12488 34.5742Z" fill="#EF5593"/>
<path d="M26.8086 16.7891C26.8086 16.7891 28.5391 16.1797 29.5117 17.0195C30.5859 17.9492 30.3906 19.0351 30.3906 19.0351L31.6055 17.4414C31.6055 17.4414 33.6953 16.6523 34.5508 18.4805C35.3359 20.1602 34.1328 21.9258 32.7188 23.082C31.1211 24.3906 29.2617 25.0625 29.2617 25.0625L29.1836 24.3984L26.8086 16.7891Z" fill="#D82E75"/>
<path d="M30.0271 19.0117C30.0271 19.0117 29.41 15.9648 26.9842 16.7266C25.285 17.2578 25.4451 19.5352 26.0701 20.8516C26.9686 22.7422 29.2615 25.0625 29.2615 25.0625C29.2615 25.0625 31.0311 23.9648 32.4256 22.625C33.3826 21.707 35.1482 19.1602 33.4412 17.793C31.4881 16.2266 30.0271 19.0117 30.0271 19.0117Z" fill="#EF5593"/>
<path d="M26.6675 19.5273C26.8394 19.5039 26.9409 18.6289 27.4487 18.3711C27.8745 18.1602 28.3198 17.9102 28.0972 17.4805C27.8862 17.0703 27.1441 17.2305 26.7573 17.7344C26.2027 18.4648 26.2808 19.5781 26.6675 19.5273ZM31.1245 19.0898C31.2027 19.2305 31.773 19.1172 32.1714 18.8516C32.5034 18.6328 32.7534 18.2539 32.4917 18.0273C32.2261 17.8008 31.7769 17.9609 31.562 18.1328C31.2066 18.4258 31.0073 18.875 31.1245 19.0898Z" fill="#F687A9"/>
<path d="M34.8867 4.65625C34.8867 4.65625 36.7578 4.03516 38.1953 5.24219C39.5313 6.36328 39.6914 7.88672 39.6914 7.88672L41.8359 5.73047C41.8359 5.73047 45.082 4.77344 46.293 7.4375C47.4531 9.9961 45.4922 12.9922 43.2578 14.8242C40.7344 16.8945 37.6523 17.8984 37.6523 17.8984L34.8867 4.65625Z" fill="#D82E75"/>
<path d="M39.0077 8.39064C39.0077 8.39064 38.2265 3.37501 34.2773 4.80079C31.4882 5.80861 31.7694 9.21876 32.7577 11.3008C34.1757 14.2891 37.6484 17.8945 37.6484 17.8945C37.6484 17.8945 40.7343 16.1484 42.8007 14.1055C43.7343 13.1836 45.2069 11.3047 45.4882 9.46095C45.6601 8.35548 45.453 7.01173 44.3827 6.27736C41.1132 4.03517 39.0077 8.39064 39.0077 8.39064Z" fill="#EF5593"/>
<path d="M33.7113 9.23438C33.9847 9.19922 34.1449 7.81251 34.9496 7.41016C35.6214 7.07422 36.3675 6.77344 35.973 6C35.6449 5.35157 34.3324 5.57032 33.723 6.36719C32.8441 7.52344 33.1019 9.31251 33.7113 9.23438ZM40.9027 8.40235C41.0277 8.6211 41.93 8.44532 42.5589 8.02344C43.0824 7.67579 43.4808 7.07813 43.0628 6.72266C42.6449 6.36719 41.93 6.61719 41.5941 6.89063C41.0277 7.35157 40.7113 8.06641 40.9027 8.40235Z" fill="#F687A9"/>
</svg>
