<svg width="47" height="33" viewBox="0 0 47 33" fill="none" xmlns="http://www.w3.org/2000/svg">
<path d="M17.7829 15.1154C18.0198 14.8676 18.289 14.5922 18.5904 14.2893C18.1167 13.8075 17.5245 13.2223 16.814 12.534C16.7494 12.4789 16.674 12.4307 16.5879 12.3894C16.5663 12.3756 16.5609 12.3619 16.5717 12.3481C16.5825 12.3343 16.5986 12.3206 16.6202 12.3068C17.3092 12.1003 17.8583 11.7836 18.2674 11.3568C17.9444 10.9163 17.7829 10.4482 17.7829 9.95256C17.7829 9.5533 17.8906 9.16781 18.1059 8.79609C17.6322 8.38306 17.0131 8.09738 16.2487 7.93906C15.4843 7.78073 14.7199 7.78073 13.9554 7.93906C13.191 8.09738 12.5773 8.38306 12.1143 8.79609C11.6514 9.20911 11.4199 9.67032 11.4199 10.1797C11.4199 10.634 11.6245 11.054 12.0336 11.4394C12.4427 11.8249 12.9703 12.1141 13.6163 12.3068C13.6378 12.3206 13.6486 12.3343 13.6486 12.3481C13.6486 12.3619 13.6378 12.3756 13.6163 12.3894C13.5301 12.4307 13.4655 12.4789 13.4225 12.534C12.475 13.4289 11.7644 14.131 11.2907 14.6404C11.0969 14.8469 11 15.019 11 15.1567C11 15.4458 11.4037 15.6936 12.2112 15.9001C13.0187 16.1066 13.9823 16.2099 15.1021 16.2099C15.8342 16.2099 16.5663 16.1548 17.2984 16.0447C17.32 15.7693 17.4815 15.4596 17.7829 15.1154ZM28.2158 15.4871C27.6128 14.8263 26.7407 13.9589 25.5995 12.885C25.5349 12.8162 25.4488 12.7542 25.3411 12.6992C25.3196 12.6854 25.3088 12.6682 25.3088 12.6475C25.3088 12.6269 25.3303 12.6097 25.3734 12.5959C26.1701 12.3481 26.8215 11.9867 27.3275 11.5117C27.8335 11.0367 28.0866 10.517 28.0866 9.95256C28.0866 9.42939 27.8766 8.94409 27.4567 8.49664C27.0368 8.0492 26.477 7.69468 25.7771 7.4331C25.0773 7.17152 24.3129 7.04073 23.4839 7.04073C22.6548 7.04073 21.8904 7.17152 21.1906 7.4331C20.4907 7.69468 19.9363 8.0492 19.5271 8.49664C19.118 8.94409 18.9134 9.42939 18.9134 9.95256C18.9134 10.517 19.1665 11.0367 19.6725 11.5117C20.1785 11.9867 20.8299 12.3481 21.6266 12.5959C21.6697 12.5959 21.6912 12.6062 21.6912 12.6269C21.6912 12.6475 21.6804 12.6648 21.6589 12.6785C21.5512 12.7474 21.4543 12.8162 21.3682 12.885C20.227 13.9727 19.3656 14.84 18.7842 15.4871C18.5474 15.7487 18.4289 15.9621 18.4289 16.1273C18.4289 16.3613 18.655 16.5782 19.1072 16.7778C19.5594 16.9774 20.1731 17.1358 20.9483 17.2528C21.7235 17.3698 22.5741 17.4283 23.5 17.4283C24.4259 17.4283 25.2765 17.3698 26.0517 17.2528C26.8269 17.1358 27.4406 16.9774 27.8928 16.7778C28.345 16.5782 28.5711 16.3613 28.5711 16.1273C28.5711 15.9621 28.4526 15.7487 28.2158 15.4871ZM34.8695 1.60944H33.7067V3.05503C33.7067 3.45429 33.486 3.79503 33.0446 4.07727C32.6031 4.3595 32.0702 4.50062 31.4457 4.50062H18.5904V4.66583C18.612 4.83104 18.7196 4.96872 18.9134 5.07886C19.1072 5.189 19.3333 5.24407 19.5917 5.24407H30.186L32.4147 6.64835C32.5009 6.71719 32.6031 6.7344 32.7216 6.69998C32.84 6.66556 32.8992 6.60705 32.8992 6.52444L32.77 5.24407H34.8695C35.1494 5.24407 35.3917 5.18211 35.5963 5.0582C35.8008 4.9343 35.9031 4.77597 35.9031 4.58322V2.27028C35.9031 2.0913 35.8008 1.93642 35.5963 1.80563C35.3917 1.67484 35.1494 1.60944 34.8695 1.60944ZM31.4457 0.308411H12.0982C11.8183 0.308411 11.5814 0.370364 11.3876 0.494272C11.1938 0.61818 11.0969 0.769622 11.0969 0.9486V3.05503C11.0969 3.22024 11.1938 3.36824 11.3876 3.49903C11.5814 3.62982 11.8183 3.69522 12.0982 3.69522H14.23L13.8101 5.40928C13.7885 5.49188 13.837 5.55039 13.9554 5.58481C14.0739 5.61923 14.1761 5.6089 14.2623 5.55383L17.2339 3.69522H31.4457C31.7257 3.69522 31.9625 3.63327 32.1563 3.50936C32.3501 3.38545 32.447 3.23401 32.447 3.05503V0.9486C32.447 0.769622 32.3501 0.61818 32.1563 0.494272C31.9625 0.370364 31.7257 0.308411 31.4457 0.308411ZM35.7093 14.6404C35.214 14.1035 34.5142 13.4013 33.6098 12.534C33.5452 12.4789 33.4699 12.4307 33.3837 12.3894C33.3622 12.3756 33.3514 12.3619 33.3514 12.3481C33.3514 12.3343 33.3622 12.3206 33.3837 12.3068C34.0297 12.1141 34.5573 11.8249 34.9664 11.4394C35.3755 11.054 35.5801 10.634 35.5801 10.1797C35.5801 9.67032 35.3432 9.20911 34.8695 8.79609C34.3958 8.38306 33.7821 8.09738 33.0284 7.93906C32.2748 7.78073 31.5157 7.78073 30.7513 7.93906C29.9869 8.09738 29.3786 8.38306 28.9264 8.79609C29.1202 9.16781 29.2171 9.5533 29.2171 9.95256C29.2171 10.4482 29.0556 10.9163 28.7326 11.3568C29.1417 11.7699 29.6908 12.0865 30.3798 12.3068C30.4014 12.3206 30.4175 12.3343 30.4283 12.3481C30.4391 12.3619 30.4337 12.3756 30.4121 12.3894C30.326 12.4307 30.2506 12.4789 30.186 12.534C29.4539 13.2361 28.8618 13.8212 28.4096 14.2893C28.711 14.5922 28.9802 14.8676 29.2171 15.1154C29.5185 15.4596 29.68 15.7693 29.7015 16.0447C30.4337 16.1548 31.1658 16.2099 31.8979 16.2099C33.0177 16.2099 33.9813 16.1066 34.7888 15.9001C35.5963 15.6936 36 15.4458 36 15.1567C36 15.019 35.9031 14.8469 35.7093 14.6404Z" fill="#522700"/>
<path d="M5.21387 27.8694C5.21387 27.9052 5.21224 27.9377 5.20898 27.967C5.20573 27.9963 5.20085 28.0224 5.19434 28.0452C5.18783 28.068 5.17806 28.0891 5.16504 28.1086C5.15527 28.1282 5.13411 28.1542 5.10156 28.1868C5.07227 28.2161 5.00553 28.2665 4.90137 28.3381C4.7972 28.4065 4.66536 28.4749 4.50586 28.5432C4.34961 28.6116 4.16895 28.6702 3.96387 28.719C3.75879 28.7678 3.53255 28.7922 3.28516 28.7922C2.88802 28.7922 2.52832 28.7239 2.20605 28.5872C1.88379 28.4472 1.60872 28.2437 1.38086 27.9768C1.15625 27.7099 0.982096 27.3811 0.858398 26.9905C0.737956 26.5999 0.677734 26.1539 0.677734 25.6526C0.677734 25.1383 0.742839 24.6777 0.873047 24.2708C1.00326 23.8606 1.18555 23.5139 1.41992 23.2307C1.65755 22.9443 1.94076 22.7262 2.26953 22.5764C2.60156 22.4234 2.96777 22.3469 3.36816 22.3469C3.55697 22.3469 3.73926 22.3648 3.91504 22.4006C4.09408 22.4364 4.25846 22.482 4.4082 22.5374C4.55794 22.5927 4.69141 22.6562 4.80859 22.7278C4.92904 22.7994 5.01042 22.858 5.05273 22.9036C5.09831 22.9459 5.12598 22.9768 5.13574 22.9963C5.14876 23.0159 5.15853 23.0387 5.16504 23.0647C5.17155 23.0875 5.17643 23.1152 5.17969 23.1477C5.18294 23.177 5.18457 23.2112 5.18457 23.2502C5.18457 23.2958 5.18132 23.3365 5.1748 23.3723C5.17155 23.4049 5.16341 23.4342 5.15039 23.4602C5.14062 23.483 5.1276 23.5009 5.11133 23.5139C5.09505 23.5269 5.07552 23.5334 5.05273 23.5334C5.00716 23.5334 4.94206 23.5009 4.85742 23.4358C4.77604 23.3674 4.66699 23.2926 4.53027 23.2112C4.39681 23.1298 4.23242 23.0566 4.03711 22.9915C3.8418 22.9231 3.60905 22.8889 3.33887 22.8889C3.04264 22.8889 2.77083 22.9491 2.52344 23.0696C2.27604 23.1868 2.06283 23.3609 1.88379 23.592C1.70801 23.8232 1.56966 24.108 1.46875 24.4465C1.37109 24.7851 1.32227 25.1741 1.32227 25.6135C1.32227 26.0334 1.36784 26.4062 1.45898 26.7317C1.55013 27.0572 1.68197 27.3323 1.85449 27.5569C2.02702 27.7782 2.24023 27.9475 2.49414 28.0647C2.74805 28.1819 3.03613 28.2405 3.3584 28.2405C3.62207 28.2405 3.85156 28.2079 4.04688 28.1428C4.24544 28.0745 4.41471 27.9996 4.55469 27.9182C4.69466 27.8368 4.80859 27.7636 4.89648 27.6985C4.98763 27.6301 5.05762 27.5959 5.10645 27.5959C5.12598 27.5959 5.14225 27.6008 5.15527 27.6106C5.16829 27.6171 5.17806 27.6318 5.18457 27.6545C5.19434 27.6741 5.20085 27.7017 5.2041 27.7375C5.21061 27.7734 5.21387 27.8173 5.21387 27.8694ZM10.2334 26.3752C10.2334 26.7268 10.1878 27.0507 10.0967 27.3469C10.0055 27.6431 9.86882 27.9003 9.68652 28.1184C9.50749 28.3365 9.28288 28.5074 9.0127 28.6311C8.74251 28.7515 8.42839 28.8118 8.07031 28.8118C7.72526 28.8118 7.42253 28.7581 7.16211 28.6506C6.90495 28.54 6.68848 28.3837 6.5127 28.1819C6.34017 27.9768 6.20996 27.7294 6.12207 27.4397C6.03743 27.15 5.99512 26.8228 5.99512 26.4583C5.99512 26.1067 6.03906 25.7828 6.12695 25.4866C6.2181 25.1903 6.35319 24.9348 6.53223 24.72C6.71452 24.5019 6.94076 24.3326 7.21094 24.2122C7.48112 24.0917 7.79688 24.0315 8.1582 24.0315C8.50326 24.0315 8.80436 24.0852 9.06152 24.1926C9.32194 24.3 9.53841 24.4563 9.71094 24.6614C9.88346 24.8632 10.0137 25.109 10.1016 25.3987C10.1895 25.6884 10.2334 26.0139 10.2334 26.3752ZM9.61816 26.429C9.61816 26.1783 9.59375 25.939 9.54492 25.7112C9.49609 25.4833 9.41471 25.2831 9.30078 25.1106C9.18685 24.9348 9.03385 24.7965 8.8418 24.6956C8.64974 24.5914 8.41048 24.5393 8.12402 24.5393C7.86035 24.5393 7.63249 24.5865 7.44043 24.6809C7.24837 24.7753 7.09049 24.9071 6.9668 25.0764C6.84635 25.2424 6.75684 25.4394 6.69824 25.6672C6.63965 25.8951 6.61035 26.1409 6.61035 26.4045C6.61035 26.6584 6.63477 26.901 6.68359 27.1321C6.73242 27.3599 6.8138 27.5601 6.92773 27.7327C7.04167 27.9052 7.19466 28.0419 7.38672 28.1428C7.57878 28.2437 7.81803 28.2942 8.10449 28.2942C8.36816 28.2942 8.59603 28.247 8.78809 28.1526C8.98014 28.0582 9.13639 27.928 9.25684 27.762C9.38053 27.5959 9.47168 27.399 9.53027 27.1711C9.58887 26.9433 9.61816 26.6959 9.61816 26.429ZM17.8359 28.6311C17.8359 28.6506 17.8311 28.6685 17.8213 28.6848C17.8115 28.7011 17.7952 28.7141 17.7725 28.7239C17.7529 28.7336 17.7236 28.7418 17.6846 28.7483C17.6488 28.7548 17.6032 28.7581 17.5479 28.7581C17.4893 28.7581 17.4404 28.7548 17.4014 28.7483C17.3656 28.7418 17.3363 28.7336 17.3135 28.7239C17.2907 28.7141 17.2744 28.7011 17.2646 28.6848C17.2581 28.6685 17.2549 28.6506 17.2549 28.6311V25.9114C17.2549 25.703 17.2354 25.5142 17.1963 25.345C17.1605 25.1724 17.1019 25.026 17.0205 24.9055C16.9424 24.7818 16.8415 24.6874 16.7178 24.6223C16.5973 24.554 16.4541 24.5198 16.2881 24.5198C16.083 24.5198 15.8747 24.5995 15.6631 24.759C15.4548 24.9185 15.2253 25.1529 14.9746 25.4622V28.6311C14.9746 28.6506 14.9697 28.6685 14.96 28.6848C14.9502 28.7011 14.9339 28.7141 14.9111 28.7239C14.8916 28.7336 14.8623 28.7418 14.8232 28.7483C14.7874 28.7548 14.7419 28.7581 14.6865 28.7581C14.6312 28.7581 14.584 28.7548 14.5449 28.7483C14.5091 28.7418 14.4798 28.7336 14.457 28.7239C14.4342 28.7141 14.418 28.7011 14.4082 28.6848C14.4017 28.6685 14.3984 28.6506 14.3984 28.6311V25.9114C14.3984 25.703 14.3789 25.5142 14.3398 25.345C14.3008 25.1724 14.2406 25.026 14.1592 24.9055C14.0811 24.7818 13.9801 24.6874 13.8564 24.6223C13.736 24.554 13.5928 24.5198 13.4268 24.5198C13.2217 24.5198 13.0133 24.5995 12.8018 24.759C12.5934 24.9185 12.3656 25.1529 12.1182 25.4622V28.6311C12.1182 28.6506 12.1133 28.6685 12.1035 28.6848C12.0938 28.7011 12.0775 28.7141 12.0547 28.7239C12.0352 28.7336 12.0059 28.7418 11.9668 28.7483C11.931 28.7548 11.8838 28.7581 11.8252 28.7581C11.7699 28.7581 11.7227 28.7548 11.6836 28.7483C11.6478 28.7418 11.6185 28.7336 11.5957 28.7239C11.5729 28.7141 11.5566 28.7011 11.5469 28.6848C11.5404 28.6685 11.5371 28.6506 11.5371 28.6311V24.2122C11.5371 24.1926 11.5404 24.1747 11.5469 24.1584C11.5566 24.1422 11.5729 24.1292 11.5957 24.1194C11.6185 24.1064 11.6462 24.0982 11.6787 24.095C11.7145 24.0885 11.7601 24.0852 11.8154 24.0852C11.8708 24.0852 11.9163 24.0885 11.9521 24.095C11.988 24.0982 12.0156 24.1064 12.0352 24.1194C12.0547 24.1292 12.0677 24.1422 12.0742 24.1584C12.084 24.1747 12.0889 24.1926 12.0889 24.2122V24.8372C12.3428 24.554 12.5837 24.3489 12.8115 24.2219C13.0394 24.095 13.2656 24.0315 13.4902 24.0315C13.6758 24.0315 13.8402 24.0543 13.9834 24.0999C14.1299 24.1422 14.2585 24.204 14.3691 24.2854C14.4798 24.3635 14.5742 24.4579 14.6523 24.5686C14.7305 24.6793 14.7939 24.8014 14.8428 24.9348C14.9958 24.7655 15.139 24.6239 15.2725 24.51C15.4092 24.3928 15.5378 24.3 15.6582 24.2317C15.7819 24.1601 15.9007 24.1096 16.0146 24.0803C16.1286 24.0478 16.2409 24.0315 16.3516 24.0315C16.6283 24.0315 16.861 24.0803 17.0498 24.178C17.2419 24.2756 17.3949 24.4075 17.5088 24.5735C17.626 24.7395 17.709 24.9332 17.7578 25.1545C17.8099 25.3759 17.8359 25.6103 17.8359 25.8577V28.6311ZM25.7461 28.6311C25.7461 28.6506 25.7412 28.6685 25.7314 28.6848C25.7217 28.7011 25.7054 28.7141 25.6826 28.7239C25.6631 28.7336 25.6338 28.7418 25.5947 28.7483C25.5589 28.7548 25.5133 28.7581 25.458 28.7581C25.3994 28.7581 25.3506 28.7548 25.3115 28.7483C25.2757 28.7418 25.2464 28.7336 25.2236 28.7239C25.2008 28.7141 25.1846 28.7011 25.1748 28.6848C25.1683 28.6685 25.165 28.6506 25.165 28.6311V25.9114C25.165 25.703 25.1455 25.5142 25.1064 25.345C25.0706 25.1724 25.012 25.026 24.9307 24.9055C24.8525 24.7818 24.7516 24.6874 24.6279 24.6223C24.5075 24.554 24.3643 24.5198 24.1982 24.5198C23.9932 24.5198 23.7848 24.5995 23.5732 24.759C23.3649 24.9185 23.1354 25.1529 22.8848 25.4622V28.6311C22.8848 28.6506 22.8799 28.6685 22.8701 28.6848C22.8604 28.7011 22.8441 28.7141 22.8213 28.7239C22.8018 28.7336 22.7725 28.7418 22.7334 28.7483C22.6976 28.7548 22.652 28.7581 22.5967 28.7581C22.5413 28.7581 22.4941 28.7548 22.4551 28.7483C22.4193 28.7418 22.39 28.7336 22.3672 28.7239C22.3444 28.7141 22.3281 28.7011 22.3184 28.6848C22.3118 28.6685 22.3086 28.6506 22.3086 28.6311V25.9114C22.3086 25.703 22.2891 25.5142 22.25 25.345C22.2109 25.1724 22.1507 25.026 22.0693 24.9055C21.9912 24.7818 21.8903 24.6874 21.7666 24.6223C21.6462 24.554 21.5029 24.5198 21.3369 24.5198C21.1318 24.5198 20.9235 24.5995 20.7119 24.759C20.5036 24.9185 20.2757 25.1529 20.0283 25.4622V28.6311C20.0283 28.6506 20.0234 28.6685 20.0137 28.6848C20.0039 28.7011 19.9876 28.7141 19.9648 28.7239C19.9453 28.7336 19.916 28.7418 19.877 28.7483C19.8411 28.7548 19.7939 28.7581 19.7354 28.7581C19.68 28.7581 19.6328 28.7548 19.5938 28.7483C19.5579 28.7418 19.5286 28.7336 19.5059 28.7239C19.4831 28.7141 19.4668 28.7011 19.457 28.6848C19.4505 28.6685 19.4473 28.6506 19.4473 28.6311V24.2122C19.4473 24.1926 19.4505 24.1747 19.457 24.1584C19.4668 24.1422 19.4831 24.1292 19.5059 24.1194C19.5286 24.1064 19.5563 24.0982 19.5889 24.095C19.6247 24.0885 19.6702 24.0852 19.7256 24.0852C19.7809 24.0852 19.8265 24.0885 19.8623 24.095C19.8981 24.0982 19.9258 24.1064 19.9453 24.1194C19.9648 24.1292 19.9779 24.1422 19.9844 24.1584C19.9941 24.1747 19.999 24.1926 19.999 24.2122V24.8372C20.2529 24.554 20.4938 24.3489 20.7217 24.2219C20.9495 24.095 21.1758 24.0315 21.4004 24.0315C21.5859 24.0315 21.7503 24.0543 21.8936 24.0999C22.04 24.1422 22.1686 24.204 22.2793 24.2854C22.39 24.3635 22.4844 24.4579 22.5625 24.5686C22.6406 24.6793 22.7041 24.8014 22.7529 24.9348C22.9059 24.7655 23.0492 24.6239 23.1826 24.51C23.3193 24.3928 23.4479 24.3 23.5684 24.2317C23.6921 24.1601 23.8109 24.1096 23.9248 24.0803C24.0387 24.0478 24.151 24.0315 24.2617 24.0315C24.5384 24.0315 24.7712 24.0803 24.96 24.178C25.152 24.2756 25.305 24.4075 25.4189 24.5735C25.5361 24.7395 25.6191 24.9332 25.668 25.1545C25.7201 25.3759 25.7461 25.6103 25.7461 25.8577V28.6311ZM30.9219 28.6311C30.9219 28.6506 30.917 28.6685 30.9072 28.6848C30.9007 28.7011 30.8861 28.7141 30.8633 28.7239C30.8405 28.7336 30.8112 28.7418 30.7754 28.7483C30.7396 28.7548 30.6956 28.7581 30.6436 28.7581C30.585 28.7581 30.5378 28.7548 30.502 28.7483C30.4661 28.7418 30.4385 28.7336 30.4189 28.7239C30.3994 28.7141 30.3848 28.7011 30.375 28.6848C30.3685 28.6685 30.3652 28.6506 30.3652 28.6311V28.0061C30.1113 28.2893 29.8623 28.4944 29.6182 28.6213C29.3773 28.7483 29.1364 28.8118 28.8955 28.8118C28.6058 28.8118 28.3617 28.7629 28.1631 28.6653C27.9645 28.5676 27.8034 28.4358 27.6797 28.2698C27.5592 28.1005 27.4714 27.9052 27.416 27.6838C27.3639 27.4625 27.3379 27.1956 27.3379 26.8831V24.2122C27.3379 24.1926 27.3411 24.1747 27.3477 24.1584C27.3574 24.1422 27.3737 24.1292 27.3965 24.1194C27.4193 24.1064 27.4486 24.0982 27.4844 24.095C27.5234 24.0885 27.5706 24.0852 27.626 24.0852C27.6846 24.0852 27.7318 24.0885 27.7676 24.095C27.8066 24.0982 27.8359 24.1064 27.8555 24.1194C27.8783 24.1292 27.8945 24.1422 27.9043 24.1584C27.9141 24.1747 27.9189 24.1926 27.9189 24.2122V26.8293C27.9189 27.1028 27.9401 27.3258 27.9824 27.4983C28.0247 27.6708 28.0882 27.8189 28.1729 27.9426C28.2575 28.0631 28.3649 28.1575 28.4951 28.2258C28.6286 28.2909 28.7832 28.3235 28.959 28.3235C29.1836 28.3235 29.4066 28.2437 29.6279 28.0842C29.8525 27.9247 30.0902 27.6903 30.3408 27.3811V24.2122C30.3408 24.1926 30.3441 24.1747 30.3506 24.1584C30.3604 24.1422 30.3766 24.1292 30.3994 24.1194C30.4222 24.1064 30.4515 24.0982 30.4873 24.095C30.5264 24.0885 30.5752 24.0852 30.6338 24.0852C30.6891 24.0852 30.7347 24.0885 30.7705 24.095C30.8096 24.0982 30.8389 24.1064 30.8584 24.1194C30.8812 24.1292 30.8975 24.1422 30.9072 24.1584C30.917 24.1747 30.9219 24.1926 30.9219 24.2122V28.6311ZM36.1367 28.6311C36.1367 28.6506 36.1318 28.6685 36.1221 28.6848C36.1123 28.7011 36.096 28.7141 36.0732 28.7239C36.0537 28.7336 36.0244 28.7418 35.9854 28.7483C35.9495 28.7548 35.904 28.7581 35.8486 28.7581C35.79 28.7581 35.7412 28.7548 35.7021 28.7483C35.6663 28.7418 35.637 28.7336 35.6143 28.7239C35.5947 28.7141 35.5801 28.7011 35.5703 28.6848C35.5605 28.6685 35.5557 28.6506 35.5557 28.6311V26.009C35.5557 25.7356 35.5345 25.5142 35.4922 25.345C35.4499 25.1724 35.3864 25.026 35.3018 24.9055C35.2171 24.7818 35.1081 24.6874 34.9746 24.6223C34.8444 24.554 34.6914 24.5198 34.5156 24.5198C34.291 24.5198 34.0664 24.5995 33.8418 24.759C33.6172 24.9185 33.3812 25.1529 33.1338 25.4622V28.6311C33.1338 28.6506 33.1289 28.6685 33.1191 28.6848C33.1094 28.7011 33.0931 28.7141 33.0703 28.7239C33.0508 28.7336 33.0215 28.7418 32.9824 28.7483C32.9466 28.7548 32.8994 28.7581 32.8408 28.7581C32.7855 28.7581 32.7383 28.7548 32.6992 28.7483C32.6634 28.7418 32.6341 28.7336 32.6113 28.7239C32.5885 28.7141 32.5723 28.7011 32.5625 28.6848C32.556 28.6685 32.5527 28.6506 32.5527 28.6311V24.2122C32.5527 24.1926 32.556 24.1747 32.5625 24.1584C32.5723 24.1422 32.5885 24.1292 32.6113 24.1194C32.6341 24.1064 32.6618 24.0982 32.6943 24.095C32.7301 24.0885 32.7757 24.0852 32.8311 24.0852C32.8864 24.0852 32.932 24.0885 32.9678 24.095C33.0036 24.0982 33.0312 24.1064 33.0508 24.1194C33.0703 24.1292 33.0833 24.1422 33.0898 24.1584C33.0996 24.1747 33.1045 24.1926 33.1045 24.2122V24.8372C33.3584 24.554 33.6074 24.3489 33.8516 24.2219C34.0957 24.095 34.3382 24.0315 34.5791 24.0315C34.8688 24.0315 35.113 24.0803 35.3115 24.178C35.5101 24.2756 35.6696 24.4075 35.79 24.5735C35.9137 24.7395 36.0016 24.9332 36.0537 25.1545C36.109 25.3759 36.1367 25.6428 36.1367 25.9553V28.6311ZM38.3291 28.6311C38.3291 28.6506 38.3242 28.6685 38.3145 28.6848C38.3047 28.7011 38.2884 28.7141 38.2656 28.7239C38.2461 28.7336 38.2168 28.7418 38.1777 28.7483C38.1419 28.7548 38.0947 28.7581 38.0361 28.7581C37.9808 28.7581 37.9336 28.7548 37.8945 28.7483C37.8587 28.7418 37.8294 28.7336 37.8066 28.7239C37.7839 28.7141 37.7676 28.7011 37.7578 28.6848C37.7513 28.6685 37.748 28.6506 37.748 28.6311V24.2122C37.748 24.1926 37.7513 24.1747 37.7578 24.1584C37.7676 24.1422 37.7839 24.1292 37.8066 24.1194C37.8294 24.1064 37.8587 24.0982 37.8945 24.095C37.9336 24.0885 37.9808 24.0852 38.0361 24.0852C38.0947 24.0852 38.1419 24.0885 38.1777 24.095C38.2168 24.0982 38.2461 24.1064 38.2656 24.1194C38.2884 24.1292 38.3047 24.1422 38.3145 24.1584C38.3242 24.1747 38.3291 24.1926 38.3291 24.2122V28.6311ZM38.417 22.7229C38.417 22.8792 38.3893 22.9849 38.334 23.0403C38.2786 23.0956 38.1777 23.1233 38.0312 23.1233C37.888 23.1233 37.7887 23.0972 37.7334 23.0452C37.6813 22.9898 37.6553 22.884 37.6553 22.7278C37.6553 22.5715 37.6829 22.4657 37.7383 22.4104C37.7936 22.3551 37.8945 22.3274 38.041 22.3274C38.1842 22.3274 38.2819 22.3551 38.334 22.4104C38.3893 22.4625 38.417 22.5667 38.417 22.7229ZM42.084 28.3674C42.084 28.4358 42.0775 28.4911 42.0645 28.5334C42.0547 28.5758 42.0368 28.6099 42.0107 28.636C41.988 28.6588 41.9521 28.6816 41.9033 28.7043C41.8577 28.7239 41.804 28.7402 41.7422 28.7532C41.6803 28.7694 41.6152 28.7808 41.5469 28.7874C41.4785 28.7971 41.4118 28.802 41.3467 28.802C41.1286 28.802 40.943 28.7727 40.79 28.7141C40.637 28.6555 40.5117 28.5676 40.4141 28.4504C40.3164 28.33 40.2448 28.1786 40.1992 27.9963C40.1569 27.814 40.1357 27.5992 40.1357 27.3518V24.6028H39.4766C39.431 24.6028 39.3952 24.5833 39.3691 24.5442C39.3431 24.5019 39.3301 24.44 39.3301 24.3586C39.3301 24.3163 39.3333 24.2805 39.3398 24.2512C39.3464 24.2187 39.3561 24.1926 39.3691 24.1731C39.3822 24.1503 39.3968 24.134 39.4131 24.1243C39.4326 24.1145 39.4538 24.1096 39.4766 24.1096H40.1357V23.0256C40.1357 23.0061 40.139 22.9882 40.1455 22.9719C40.1553 22.9556 40.1715 22.9426 40.1943 22.9329C40.2171 22.9198 40.2464 22.9117 40.2822 22.9084C40.3213 22.9019 40.3685 22.8987 40.4238 22.8987C40.4824 22.8987 40.5296 22.9019 40.5654 22.9084C40.6045 22.9117 40.6338 22.9198 40.6533 22.9329C40.6761 22.9426 40.6924 22.9556 40.7021 22.9719C40.7119 22.9882 40.7168 23.0061 40.7168 23.0256V24.1096H41.9375C41.9603 24.1096 41.9798 24.1145 41.9961 24.1243C42.0156 24.134 42.0319 24.1503 42.0449 24.1731C42.0579 24.1926 42.0677 24.2187 42.0742 24.2512C42.0807 24.2805 42.084 24.3163 42.084 24.3586C42.084 24.44 42.0693 24.5019 42.04 24.5442C42.014 24.5833 41.9798 24.6028 41.9375 24.6028H40.7168V27.2737C40.7168 27.609 40.764 27.8645 40.8584 28.0403C40.9561 28.2161 41.1318 28.304 41.3857 28.304C41.4639 28.304 41.5339 28.2958 41.5957 28.2795C41.6608 28.2633 41.7178 28.2454 41.7666 28.2258C41.8154 28.2063 41.8561 28.1884 41.8887 28.1721C41.9245 28.1558 41.9554 28.1477 41.9814 28.1477C41.9977 28.1477 42.0124 28.151 42.0254 28.1575C42.0384 28.164 42.0482 28.177 42.0547 28.1965C42.0645 28.2128 42.071 28.2356 42.0742 28.2649C42.0807 28.2909 42.084 28.3251 42.084 28.3674ZM44.9648 28.7288L44.3496 30.384C44.3333 30.4198 44.2992 30.4491 44.2471 30.4719C44.195 30.498 44.112 30.511 43.998 30.511C43.9395 30.511 43.8906 30.5077 43.8516 30.5012C43.8125 30.4947 43.7816 30.4817 43.7588 30.4622C43.7393 30.4459 43.7279 30.4231 43.7246 30.3938C43.7214 30.3678 43.7279 30.3352 43.7441 30.2961L44.3691 28.7288C44.3431 28.719 44.3203 28.7027 44.3008 28.6799C44.2812 28.6571 44.2682 28.6344 44.2617 28.6116L42.6553 24.3C42.639 24.2545 42.6309 24.2187 42.6309 24.1926C42.6309 24.1633 42.639 24.1405 42.6553 24.1243C42.6748 24.108 42.7041 24.0982 42.7432 24.095C42.7855 24.0885 42.8408 24.0852 42.9092 24.0852C42.9808 24.0852 43.0378 24.0885 43.0801 24.095C43.1224 24.0982 43.1549 24.1047 43.1777 24.1145C43.2038 24.1243 43.2217 24.1373 43.2314 24.1536C43.2445 24.1698 43.2559 24.1894 43.2656 24.2122L44.6475 28.0696H44.667L46.0244 24.2122C46.0407 24.1666 46.0618 24.1373 46.0879 24.1243C46.1172 24.108 46.1546 24.0982 46.2002 24.095C46.2458 24.0885 46.3011 24.0852 46.3662 24.0852C46.4281 24.0852 46.4785 24.0885 46.5176 24.095C46.5599 24.1015 46.5908 24.1129 46.6104 24.1292C46.6299 24.1454 46.6396 24.1682 46.6396 24.1975C46.6396 24.2236 46.6315 24.2577 46.6152 24.3L44.9648 28.7288Z" fill="#522700"/>
</svg>
