<svg width="31" height="32" viewBox="0 0 31 32" fill="none" xmlns="http://www.w3.org/2000/svg">
<path d="M26.9455 14.0208C26.9458 14.0516 26.9367 14.0821 26.9187 14.1107C26.9007 14.1392 26.8742 14.1651 26.8406 14.187C26.807 14.2088 26.7671 14.2262 26.7231 14.238C26.6791 14.2499 26.632 14.256 26.5843 14.256H19.7278L14.5676 17.9311C14.5347 17.9529 14.4954 17.9702 14.4519 17.982C14.4085 17.9938 14.3619 18 14.3148 18C14.2668 18.0004 14.2192 17.9947 14.1747 17.9832C14.1302 17.9716 14.0897 17.9545 14.0556 17.9327C14.0215 17.9109 13.9944 17.8849 13.9759 17.8563C13.9574 17.8277 13.948 17.797 13.9481 17.766V6.09169C13.948 6.06085 13.9574 6.0303 13.9756 6.0018C13.9939 5.97331 14.0207 5.94744 14.0545 5.92569C14.0883 5.90393 14.1285 5.88672 14.1726 5.87505C14.2167 5.86338 14.264 5.85748 14.3117 5.85769C14.3588 5.85775 14.4054 5.86388 14.4488 5.87571C14.4922 5.88753 14.5316 5.90483 14.5645 5.92658L26.839 13.8573C26.8727 13.8786 26.8995 13.904 26.9178 13.9321C26.936 13.9601 26.9455 13.9903 26.9455 14.0208ZM9.9376 15.0419L12.1837 12.5079C12.2058 12.4812 12.2195 12.4519 12.2241 12.4218C12.2286 12.3916 12.2239 12.3612 12.2103 12.3322C12.1967 12.3032 12.1743 12.2763 12.1445 12.2529C12.1148 12.2295 12.0782 12.2101 12.0368 12.1959L11.1136 11.8534C11.0331 11.8217 10.9364 11.8118 10.8447 11.826C10.7529 11.8402 10.6736 11.8772 10.6239 11.929L8.37835 14.463C8.33391 14.517 8.32435 14.5801 8.35178 14.6386C8.37921 14.6971 8.44138 14.7462 8.52467 14.775L9.44846 15.1175C9.52892 15.1492 9.6255 15.1591 9.71713 15.1449C9.80876 15.1307 9.88801 15.0937 9.9376 15.0419ZM20.4716 3.99519L22.7171 1.46118C22.7392 1.43448 22.7529 1.40523 22.7575 1.3751C22.7621 1.34496 22.7575 1.31454 22.7439 1.28557C22.7303 1.25659 22.708 1.22963 22.6783 1.20623C22.6486 1.18283 22.6121 1.16344 22.5708 1.14918L21.647 0.806689C21.5665 0.774792 21.4696 0.764883 21.3778 0.779137C21.286 0.793392 21.2066 0.830645 21.1572 0.882709L18.9111 3.41672C18.889 3.44344 18.8753 3.47271 18.8708 3.50286C18.8662 3.53301 18.8709 3.56345 18.8845 3.59243C18.8982 3.6214 18.9205 3.64836 18.9503 3.67175C18.9801 3.69513 19.0167 3.71449 19.058 3.72872L19.9812 4.07121C20.0621 4.10292 20.1592 4.11259 20.2511 4.09812C20.343 4.08365 20.4223 4.04621 20.4716 3.994V3.99519ZM4.45175 11.8011L8.57181 10.605C8.65686 10.5782 8.72197 10.5307 8.75285 10.4728C8.78373 10.415 8.77785 10.3516 8.73649 10.2966L8.3006 9.66821C8.26443 9.61169 8.19505 9.56676 8.1077 9.5433C8.02034 9.51984 7.92216 9.51977 7.83473 9.5431L3.71468 10.74C3.62978 10.7668 3.56478 10.8143 3.53391 10.872C3.50304 10.9298 3.50883 10.9931 3.55 11.0481L3.98588 11.6764C4.02216 11.7329 4.0916 11.7777 4.17894 11.8011C4.26628 11.8245 4.36439 11.8245 4.45175 11.8011ZM23.0177 6.6369L27.1371 5.44077C27.2221 5.41404 27.2873 5.3666 27.3183 5.30885C27.3492 5.2511 27.3435 5.18776 27.3024 5.13273L26.8653 4.50437C26.829 4.44791 26.7596 4.40306 26.6723 4.37961C26.585 4.35616 26.4869 4.35603 26.3994 4.37925L22.2794 5.57539C22.1943 5.60218 22.1292 5.64972 22.0983 5.70756C22.0675 5.76539 22.0733 5.82879 22.1147 5.88382L22.5506 6.51178C22.5684 6.5399 22.5947 6.56546 22.6279 6.58698C22.661 6.60851 22.7005 6.62558 22.7439 6.63721C22.7873 6.64884 22.8338 6.6548 22.8808 6.65474C22.9278 6.65469 22.9743 6.64863 23.0177 6.6369ZM3.27329 6.92594L7.69331 7.52499C7.78642 7.53571 7.88229 7.52209 7.95989 7.48713C8.03748 7.45216 8.09045 7.39871 8.10715 7.3385L8.32509 6.66541C8.34666 6.60609 8.33109 6.54367 8.28177 6.49175C8.23246 6.43983 8.1534 6.40262 8.06185 6.38825L3.64182 5.78682C3.54872 5.77622 3.45292 5.78995 3.37545 5.82499C3.29798 5.86002 3.24516 5.91351 3.2286 5.9737L3.01004 6.6468C2.98773 6.70639 3.00293 6.76928 3.0523 6.82162C3.10166 6.87397 3.18115 6.91149 3.27329 6.92594ZM22.9387 9.79531L27.3587 10.394C27.4519 10.4047 27.5479 10.391 27.6255 10.356C27.7031 10.3209 27.756 10.2674 27.7726 10.2071L27.9905 9.53399C28.0121 9.47467 27.9965 9.41225 27.9472 9.36033C27.8979 9.30841 27.8188 9.27121 27.7273 9.25683L23.3073 8.65857C23.2612 8.65326 23.214 8.65388 23.1683 8.66038C23.1226 8.66688 23.0793 8.67914 23.0409 8.69646C23.0026 8.71378 22.9698 8.73581 22.9446 8.76131C22.9194 8.7868 22.9022 8.81526 22.894 8.84505L22.6755 9.51815C22.6539 9.57747 22.6695 9.63989 22.7188 9.69181C22.7681 9.74373 22.8472 9.78094 22.9387 9.79531ZM6.76033 2.3461L9.7919 4.5107C9.8576 4.55473 9.94764 4.58009 10.0422 4.5812C10.1368 4.58232 10.2282 4.5591 10.2963 4.51664L11.0855 4.05458C11.1573 4.01485 11.2018 3.95831 11.2093 3.89737C11.2168 3.83643 11.1865 3.77606 11.1253 3.72951L8.09368 1.56491C8.02799 1.52093 7.93802 1.49556 7.84348 1.49438C7.74894 1.49319 7.65752 1.51627 7.58924 1.55858L6.80012 2.02143C6.72847 2.06115 6.68406 2.11761 6.6766 2.17845C6.66914 2.2393 6.69925 2.29958 6.76033 2.3461ZM13.5067 0.32681L13.9928 3.23063C13.9989 3.26077 14.0141 3.28983 14.0377 3.31613C14.0613 3.34243 14.0926 3.36545 14.13 3.38386C14.1674 3.40227 14.2101 3.4157 14.2556 3.42338C14.3011 3.43106 14.3484 3.43283 14.395 3.4286L15.4535 3.35456C15.5001 3.35221 15.5456 3.34393 15.5874 3.3302C15.6291 3.31647 15.6662 3.29755 15.6966 3.27453C15.7271 3.25151 15.7502 3.22484 15.7646 3.19604C15.7791 3.16725 15.7847 3.13689 15.781 3.1067L15.2949 0.200109C15.2886 0.170012 15.2733 0.141009 15.2497 0.11476C15.2261 0.088512 15.1947 0.0655345 15.1573 0.0471441C15.1199 0.0287538 15.0773 0.0153122 15.0319 0.00758947C14.9865 -0.00013327 14.9392 -0.00198541 14.8927 0.00213922L13.8342 0.07618C13.7873 0.0785256 13.7416 0.0868546 13.6997 0.100687C13.6578 0.114519 13.6205 0.13358 13.5901 0.15677C13.5596 0.17996 13.5366 0.20682 13.5223 0.235801C13.508 0.264782 13.5027 0.295309 13.5067 0.325622V0.32681Z" fill="#737171"/>
<path d="M6.72559 28.7363C6.72559 28.7786 6.72233 28.8161 6.71582 28.8486C6.70931 28.8812 6.69792 28.9089 6.68164 28.9316C6.66862 28.9544 6.65234 28.9723 6.63281 28.9854C6.61328 28.9951 6.59212 29 6.56934 29H3.61035C3.55176 29 3.49154 28.9788 3.42969 28.9365C3.36784 28.891 3.33691 28.8096 3.33691 28.6924V22.9893C3.33691 22.8721 3.36784 22.7923 3.42969 22.75C3.49154 22.7044 3.55176 22.6816 3.61035 22.6816H6.52539C6.54818 22.6816 6.56934 22.6882 6.58887 22.7012C6.6084 22.7109 6.62467 22.7272 6.6377 22.75C6.65072 22.7728 6.66048 22.8021 6.66699 22.8379C6.6735 22.8704 6.67676 22.9095 6.67676 22.9551C6.67676 22.9974 6.6735 23.0348 6.66699 23.0674C6.66048 23.0999 6.65072 23.1276 6.6377 23.1504C6.62467 23.1699 6.6084 23.1862 6.58887 23.1992C6.56934 23.209 6.54818 23.2139 6.52539 23.2139H3.93262V25.4355H6.16895C6.19499 25.4355 6.21777 25.4421 6.2373 25.4551C6.25684 25.4648 6.27311 25.4811 6.28613 25.5039C6.29915 25.5234 6.30892 25.5511 6.31543 25.5869C6.32194 25.6195 6.3252 25.6585 6.3252 25.7041C6.3252 25.7464 6.32194 25.7839 6.31543 25.8164C6.30892 25.8457 6.29915 25.8701 6.28613 25.8896C6.27311 25.9092 6.25684 25.9238 6.2373 25.9336C6.21777 25.9434 6.19499 25.9482 6.16895 25.9482H3.93262V28.4678H6.56934C6.59212 28.4678 6.61328 28.4743 6.63281 28.4873C6.65234 28.4971 6.66862 28.5133 6.68164 28.5361C6.69792 28.5557 6.70931 28.5833 6.71582 28.6191C6.72233 28.6517 6.72559 28.6908 6.72559 28.7363ZM11.2812 24.4736C11.2812 24.4834 11.2796 24.4948 11.2764 24.5078C11.2764 24.5176 11.2747 24.5273 11.2715 24.5371C11.2715 24.5469 11.2699 24.5583 11.2666 24.5713C11.2633 24.5811 11.2601 24.5908 11.2568 24.6006L9.65527 28.9023C9.64551 28.9284 9.63086 28.9495 9.61133 28.9658C9.5918 28.9821 9.56738 28.9951 9.53809 29.0049C9.50879 29.0146 9.47298 29.0212 9.43066 29.0244C9.3916 29.0277 9.3444 29.0293 9.28906 29.0293C9.23372 29.0293 9.1849 29.026 9.14258 29.0195C9.10026 29.0163 9.06445 29.0098 9.03516 29C9.00586 28.9902 8.98145 28.9772 8.96191 28.9609C8.94238 28.9447 8.92773 28.9251 8.91797 28.9023L7.31641 24.6006C7.30664 24.5745 7.2985 24.5534 7.29199 24.5371C7.28874 24.5208 7.28548 24.5078 7.28223 24.498C7.28223 24.4883 7.28223 24.4801 7.28223 24.4736C7.28223 24.4508 7.28711 24.4313 7.29688 24.415C7.30664 24.3988 7.32129 24.3874 7.34082 24.3809C7.36361 24.3711 7.3929 24.3646 7.42871 24.3613C7.46452 24.3581 7.50846 24.3564 7.56055 24.3564C7.63216 24.3564 7.68913 24.3597 7.73145 24.3662C7.77376 24.3695 7.80632 24.376 7.8291 24.3857C7.85514 24.3955 7.87305 24.4085 7.88281 24.4248C7.89583 24.4411 7.90723 24.4606 7.91699 24.4834L9.29883 28.3408L9.30859 28.3652L9.31836 28.3408L10.6758 24.4834C10.6823 24.4606 10.6921 24.4411 10.7051 24.4248C10.7181 24.4085 10.736 24.3955 10.7588 24.3857C10.7848 24.376 10.8174 24.3695 10.8564 24.3662C10.8988 24.3597 10.9525 24.3564 11.0176 24.3564C11.0697 24.3564 11.112 24.3581 11.1445 24.3613C11.1803 24.3646 11.208 24.3711 11.2275 24.3809C11.2471 24.3906 11.2601 24.4036 11.2666 24.4199C11.2764 24.4329 11.2812 24.4508 11.2812 24.4736ZM15.8076 26.4658C15.8076 26.583 15.7767 26.6644 15.7148 26.71C15.653 26.7523 15.5928 26.7734 15.5342 26.7734H12.5215C12.5215 27.0469 12.5475 27.2943 12.5996 27.5156C12.6549 27.737 12.7445 27.9274 12.8682 28.0869C12.9919 28.2432 13.153 28.3636 13.3516 28.4482C13.5501 28.5329 13.7943 28.5752 14.084 28.5752C14.2891 28.5752 14.473 28.5573 14.6357 28.5215C14.7985 28.4857 14.9385 28.4466 15.0557 28.4043C15.1761 28.3587 15.2738 28.318 15.3486 28.2822C15.4268 28.2464 15.4821 28.2285 15.5146 28.2285C15.5342 28.2285 15.5521 28.2334 15.5684 28.2432C15.5846 28.2529 15.5977 28.2692 15.6074 28.292C15.6172 28.3115 15.6237 28.3376 15.627 28.3701C15.6335 28.4027 15.6367 28.4434 15.6367 28.4922C15.6367 28.515 15.6351 28.5378 15.6318 28.5605C15.6286 28.5801 15.6237 28.5996 15.6172 28.6191C15.6139 28.6354 15.6074 28.6517 15.5977 28.668C15.5879 28.6842 15.5749 28.7005 15.5586 28.7168C15.5423 28.7331 15.4919 28.7624 15.4072 28.8047C15.3226 28.8438 15.2119 28.8844 15.0752 28.9268C14.9385 28.9658 14.779 29.0016 14.5967 29.0342C14.4176 29.0667 14.224 29.083 14.0156 29.083C13.6738 29.083 13.3711 29.0326 13.1074 28.9316C12.8438 28.8275 12.6224 28.6761 12.4434 28.4775C12.2643 28.2757 12.1276 28.0267 12.0332 27.7305C11.9421 27.4342 11.8965 27.0908 11.8965 26.7002C11.8965 26.3258 11.9437 25.9906 12.0381 25.6943C12.1357 25.3981 12.2741 25.1475 12.4531 24.9424C12.6322 24.734 12.847 24.5762 13.0977 24.4688C13.3516 24.3581 13.6331 24.3027 13.9424 24.3027C14.2744 24.3027 14.5576 24.3581 14.792 24.4688C15.0264 24.5794 15.2184 24.7292 15.3682 24.918C15.5212 25.1035 15.6318 25.32 15.7002 25.5674C15.7718 25.8148 15.8076 26.0752 15.8076 26.3486V26.4658ZM15.207 26.2949C15.2168 25.8262 15.1094 25.46 14.8848 25.1963C14.6602 24.9326 14.333 24.8008 13.9033 24.8008C13.682 24.8008 13.4867 24.8431 13.3174 24.9277C13.1514 25.0091 13.0098 25.1182 12.8926 25.2549C12.7786 25.3916 12.6908 25.5511 12.6289 25.7334C12.5671 25.9124 12.5312 26.0996 12.5215 26.2949H15.207ZM20.7295 28.9023C20.7295 28.9219 20.7246 28.9398 20.7148 28.9561C20.7051 28.9723 20.6888 28.9854 20.666 28.9951C20.6465 29.0049 20.6172 29.013 20.5781 29.0195C20.5423 29.026 20.4967 29.0293 20.4414 29.0293C20.3828 29.0293 20.334 29.026 20.2949 29.0195C20.2591 29.013 20.2298 29.0049 20.207 28.9951C20.1875 28.9854 20.1729 28.9723 20.1631 28.9561C20.1533 28.9398 20.1484 28.9219 20.1484 28.9023V26.2803C20.1484 26.0068 20.1273 25.7855 20.085 25.6162C20.0426 25.4437 19.9792 25.2972 19.8945 25.1768C19.8099 25.0531 19.7008 24.9587 19.5674 24.8936C19.4372 24.8252 19.2842 24.791 19.1084 24.791C18.8838 24.791 18.6592 24.8708 18.4346 25.0303C18.21 25.1898 17.974 25.4242 17.7266 25.7334V28.9023C17.7266 28.9219 17.7217 28.9398 17.7119 28.9561C17.7021 28.9723 17.6859 28.9854 17.6631 28.9951C17.6436 29.0049 17.6143 29.013 17.5752 29.0195C17.5394 29.026 17.4922 29.0293 17.4336 29.0293C17.3783 29.0293 17.3311 29.026 17.292 29.0195C17.2562 29.013 17.2269 29.0049 17.2041 28.9951C17.1813 28.9854 17.165 28.9723 17.1553 28.9561C17.1488 28.9398 17.1455 28.9219 17.1455 28.9023V24.4834C17.1455 24.4639 17.1488 24.446 17.1553 24.4297C17.165 24.4134 17.1813 24.4004 17.2041 24.3906C17.2269 24.3776 17.2546 24.3695 17.2871 24.3662C17.3229 24.3597 17.3685 24.3564 17.4238 24.3564C17.4792 24.3564 17.5247 24.3597 17.5605 24.3662C17.5964 24.3695 17.624 24.3776 17.6436 24.3906C17.6631 24.4004 17.6761 24.4134 17.6826 24.4297C17.6924 24.446 17.6973 24.4639 17.6973 24.4834V25.1084C17.9512 24.8252 18.2002 24.6201 18.4443 24.4932C18.6885 24.3662 18.931 24.3027 19.1719 24.3027C19.4616 24.3027 19.7057 24.3516 19.9043 24.4492C20.1029 24.5469 20.2624 24.6787 20.3828 24.8447C20.5065 25.0107 20.5944 25.2044 20.6465 25.4258C20.7018 25.6471 20.7295 25.9141 20.7295 26.2266V28.9023ZM24.3721 28.6387C24.3721 28.707 24.3656 28.7624 24.3525 28.8047C24.3428 28.847 24.3249 28.8812 24.2988 28.9072C24.276 28.93 24.2402 28.9528 24.1914 28.9756C24.1458 28.9951 24.0921 29.0114 24.0303 29.0244C23.9684 29.0407 23.9033 29.0521 23.835 29.0586C23.7666 29.0684 23.6999 29.0732 23.6348 29.0732C23.4167 29.0732 23.2311 29.0439 23.0781 28.9854C22.9251 28.9268 22.7998 28.8389 22.7021 28.7217C22.6045 28.6012 22.5329 28.4499 22.4873 28.2676C22.445 28.0853 22.4238 27.8704 22.4238 27.623V24.874H21.7646C21.7191 24.874 21.6833 24.8545 21.6572 24.8154C21.6312 24.7731 21.6182 24.7113 21.6182 24.6299C21.6182 24.5876 21.6214 24.5518 21.6279 24.5225C21.6344 24.4899 21.6442 24.4639 21.6572 24.4443C21.6702 24.4215 21.6849 24.4053 21.7012 24.3955C21.7207 24.3857 21.7419 24.3809 21.7646 24.3809H22.4238V23.2969C22.4238 23.2773 22.4271 23.2594 22.4336 23.2432C22.4434 23.2269 22.4596 23.2139 22.4824 23.2041C22.5052 23.1911 22.5345 23.1829 22.5703 23.1797C22.6094 23.1732 22.6566 23.1699 22.7119 23.1699C22.7705 23.1699 22.8177 23.1732 22.8535 23.1797C22.8926 23.1829 22.9219 23.1911 22.9414 23.2041C22.9642 23.2139 22.9805 23.2269 22.9902 23.2432C23 23.2594 23.0049 23.2773 23.0049 23.2969V24.3809H24.2256C24.2484 24.3809 24.2679 24.3857 24.2842 24.3955C24.3037 24.4053 24.32 24.4215 24.333 24.4443C24.346 24.4639 24.3558 24.4899 24.3623 24.5225C24.3688 24.5518 24.3721 24.5876 24.3721 24.6299C24.3721 24.7113 24.3574 24.7731 24.3281 24.8154C24.3021 24.8545 24.2679 24.874 24.2256 24.874H23.0049V27.5449C23.0049 27.8802 23.0521 28.1357 23.1465 28.3115C23.2441 28.4873 23.4199 28.5752 23.6738 28.5752C23.752 28.5752 23.8219 28.5671 23.8838 28.5508C23.9489 28.5345 24.0059 28.5166 24.0547 28.4971C24.1035 28.4775 24.1442 28.4596 24.1768 28.4434C24.2126 28.4271 24.2435 28.4189 24.2695 28.4189C24.2858 28.4189 24.3005 28.4222 24.3135 28.4287C24.3265 28.4352 24.3363 28.4482 24.3428 28.4678C24.3525 28.484 24.359 28.5068 24.3623 28.5361C24.3688 28.5622 24.3721 28.5964 24.3721 28.6387ZM28.1318 27.7256C28.1318 27.9372 28.0928 28.1276 28.0146 28.2969C27.9365 28.4629 27.8242 28.6045 27.6777 28.7217C27.5345 28.8389 27.362 28.9284 27.1602 28.9902C26.9583 29.0521 26.7354 29.083 26.4912 29.083C26.3382 29.083 26.1934 29.07 26.0566 29.0439C25.9199 29.0212 25.7962 28.9919 25.6855 28.9561C25.5749 28.917 25.4805 28.8763 25.4023 28.834C25.3275 28.7917 25.2721 28.7542 25.2363 28.7217C25.2005 28.6891 25.1745 28.6484 25.1582 28.5996C25.1419 28.5508 25.1338 28.4857 25.1338 28.4043C25.1338 28.362 25.137 28.3245 25.1436 28.292C25.1501 28.2594 25.1582 28.2318 25.168 28.209C25.1777 28.1862 25.1908 28.1699 25.207 28.1602C25.2233 28.1471 25.2412 28.1406 25.2607 28.1406C25.2965 28.1406 25.3486 28.1634 25.417 28.209C25.4854 28.2546 25.57 28.305 25.6709 28.3604C25.7751 28.4124 25.8971 28.4613 26.0371 28.5068C26.1803 28.5524 26.3447 28.5752 26.5303 28.5752C26.68 28.5752 26.8167 28.5589 26.9404 28.5264C27.0641 28.4938 27.1715 28.445 27.2627 28.3799C27.3538 28.3148 27.4238 28.2318 27.4727 28.1309C27.5247 28.0267 27.5508 27.9062 27.5508 27.7695C27.5508 27.6328 27.5182 27.5173 27.4531 27.4229C27.388 27.3285 27.3018 27.2471 27.1943 27.1787C27.0902 27.1071 26.9697 27.0452 26.833 26.9932C26.6995 26.9378 26.5612 26.8825 26.418 26.8271C26.278 26.7686 26.1396 26.7051 26.0029 26.6367C25.8695 26.5684 25.749 26.4854 25.6416 26.3877C25.5374 26.29 25.4528 26.1729 25.3877 26.0361C25.3226 25.8994 25.29 25.735 25.29 25.543C25.29 25.39 25.3193 25.2402 25.3779 25.0938C25.4365 24.944 25.526 24.8105 25.6465 24.6934C25.7702 24.5762 25.9264 24.4818 26.1152 24.4102C26.3073 24.3385 26.5335 24.3027 26.7939 24.3027C26.9046 24.3027 27.0137 24.3125 27.1211 24.332C27.2318 24.3483 27.3311 24.3711 27.4189 24.4004C27.5101 24.4297 27.5882 24.4622 27.6533 24.498C27.7184 24.5306 27.7673 24.5599 27.7998 24.5859C27.8356 24.612 27.8584 24.6348 27.8682 24.6543C27.8812 24.6706 27.8893 24.6885 27.8926 24.708C27.8991 24.7275 27.904 24.752 27.9072 24.7812C27.9105 24.8073 27.9121 24.8398 27.9121 24.8789C27.9121 24.918 27.9089 24.9538 27.9023 24.9863C27.8991 25.0156 27.8926 25.0417 27.8828 25.0645C27.873 25.0872 27.86 25.1051 27.8438 25.1182C27.8307 25.1279 27.8145 25.1328 27.7949 25.1328C27.7689 25.1328 27.7298 25.1149 27.6777 25.0791C27.6257 25.0433 27.5573 25.0042 27.4727 24.9619C27.388 24.9196 27.2871 24.8805 27.1699 24.8447C27.0527 24.8089 26.9176 24.791 26.7646 24.791C26.6117 24.791 26.4766 24.8089 26.3594 24.8447C26.2454 24.8805 26.151 24.931 26.0762 24.9961C26.0013 25.0612 25.9443 25.1377 25.9053 25.2256C25.8695 25.3135 25.8516 25.4095 25.8516 25.5137C25.8516 25.6569 25.8841 25.7773 25.9492 25.875C26.0143 25.9727 26.1006 26.0573 26.208 26.1289C26.3154 26.2005 26.4375 26.264 26.5742 26.3193C26.7109 26.3747 26.8493 26.43 26.9893 26.4854C27.1325 26.5407 27.2725 26.6025 27.4092 26.6709C27.5459 26.736 27.668 26.8158 27.7754 26.9102C27.8828 27.0046 27.9691 27.1185 28.0342 27.252C28.0993 27.3822 28.1318 27.54 28.1318 27.7256Z" fill="#737171"/>
</svg>
