<svg width="160" height="46" viewBox="0 0 160 46" fill="none" xmlns="http://www.w3.org/2000/svg">
<path d="M154.403 19.5173C154.403 29.0499 147.131 36.5346 138.451 36.5346C129.772 36.5346 122.5 29.0499 122.5 19.5173C122.5 9.98477 129.772 2.5 138.451 2.5C147.131 2.5 154.403 9.98477 154.403 19.5173Z" fill="white" stroke="#522700" stroke-width="5"/>
<g filter="url(#filter0_d_506_201)">
<ellipse cx="138.543" cy="19.5967" rx="16.8986" ry="18.0099" fill="#F5F5F5"/>
<path d="M153.226 10.6755C153.978 12.0784 154.558 13.5995 154.936 15.2062C154.407 15.3156 154.059 15.8276 154.155 16.3624C154.343 17.4087 154.442 18.4899 154.442 19.5967C154.442 20.7034 154.343 21.7846 154.155 22.8309C154.059 23.3658 154.407 23.8777 154.936 23.9871C154.558 25.5938 153.978 27.1149 153.226 28.5178C152.758 28.2496 152.158 28.402 151.876 28.8659C150.735 30.739 149.261 32.3542 147.547 33.6169C147.111 33.9386 147.011 34.5481 147.318 34.991C145.964 35.8697 144.485 36.5511 142.915 36.9979C142.785 36.476 142.262 36.1489 141.733 36.2643C140.703 36.4886 139.636 36.6065 138.543 36.6065C137.45 36.6065 136.383 36.4886 135.354 36.2643C134.824 36.1489 134.301 36.476 134.171 36.9979C132.602 36.5511 131.122 35.8697 129.768 34.991C130.075 34.5481 129.975 33.9386 129.539 33.6169C127.825 32.3542 126.351 30.739 125.211 28.8659C124.928 28.402 124.329 28.2496 123.86 28.5178C123.108 27.1149 122.528 25.5938 122.15 23.9871C122.679 23.8777 123.028 23.3658 122.931 22.8309C122.743 21.7846 122.645 20.7034 122.645 19.5967C122.645 18.4899 122.743 17.4087 122.931 16.3624C123.028 15.8276 122.679 15.3156 122.15 15.2062C122.528 13.5995 123.108 12.0784 123.86 10.6755C124.329 10.9437 124.928 10.7913 125.211 10.3274C126.351 8.45431 127.825 6.83907 129.539 5.57642C129.975 5.25472 130.075 4.6452 129.768 4.20229C131.122 3.3236 132.602 2.64217 134.171 2.19544C134.301 2.71733 134.824 3.04437 135.354 2.92904C136.383 2.7047 137.45 2.58677 138.543 2.58677C139.636 2.58677 140.703 2.7047 141.733 2.92904C142.262 3.04437 142.785 2.71733 142.915 2.19544C144.485 2.64217 145.964 3.3236 147.318 4.20229C147.011 4.6452 147.111 5.25472 147.547 5.57642C149.261 6.83907 150.735 8.45431 151.876 10.3274C152.158 10.7913 152.758 10.9437 153.226 10.6755Z" stroke="#EF9D21" stroke-width="2" stroke-linecap="round" stroke-dasharray="9 9"/>
</g>
<path d="M152.518 25.8644L137.983 10.4112C137.983 10.4112 137.074 9.12624 134.738 8.99556C132.402 8.86488 127.954 9.7977 128.898 9.46741C129.849 9.13495 130.557 8.84863 131.883 8.52369C132.909 8.27212 134.618 7.93387 135.128 7.93387C136.296 7.93387 137.204 7.93388 138.242 8.52369C139.281 9.11349 150.441 20.3201 150.441 20.3201V13.5962H152.518V25.8644Z" fill="#522700" stroke="#522700"/>
<path d="M124.584 35.0196L138.399 28.0918C138.399 28.0918 139.459 28.2258 140.225 28.1357C142.391 27.8808 148.48 23.9959 148.48 23.9959L148.121 23.4561L141.046 27.0045C141.046 27.0045 140.097 27.3899 140.024 27.157C139.956 26.942 140.747 26.5547 140.747 26.5547L147.822 23.0063L147.464 22.4666L140.388 26.0149C140.388 26.0149 139.502 26.3723 139.366 26.1675C139.23 25.9626 140.029 25.4752 140.029 25.4752L147.105 21.9268L146.746 21.387L139.67 24.9354C139.67 24.9354 138.785 25.2928 138.648 25.0879C138.512 24.8831 139.311 24.3956 139.311 24.3956L146.387 20.8473L146.088 20.3975C146.088 20.3975 139.17 23.0352 137.833 24.5372C137.36 25.0683 136.964 25.9328 136.964 25.9328L123.317 32.776C123.443 32.9652 123.024 32.923 122.942 33.5638C122.913 33.7957 122.845 34.0926 123.084 34.4524L123.78 34.8232L124.584 35.0196Z" fill="#EF9D21" stroke="#EF9D21"/>
<path d="M135.628 16.8048C135.628 13.2584 133.745 9.67068 131.421 9.67068C129.097 9.67068 127.213 13.2584 127.213 16.8048C127.213 19.4759 128.282 21.36 129.802 22.1276V33.5701C129.802 34.0431 129.973 34.4967 130.276 34.8312C130.58 35.1657 130.991 35.3536 131.421 35.3536C131.85 35.3536 132.261 35.1657 132.565 34.8312C132.868 34.4967 133.039 34.0431 133.039 33.5701V22.1276C134.56 21.36 135.628 19.4759 135.628 16.8048Z" fill="#EF9D21"/>
<path d="M4.07031 22.4062L9.29688 28.9766V24.4219C9.29688 23.7865 9.20573 23.3568 9.02344 23.1328C8.77344 22.8307 8.35417 22.6849 7.76562 22.6953V22.4062H11.2656V22.6953C10.8177 22.7526 10.5156 22.8281 10.3594 22.9219C10.2083 23.0104 10.0885 23.1589 10 23.3672C9.91667 23.5703 9.875 23.9219 9.875 24.4219V33.2422H9.60938L2.44531 24.4219V31.1562C2.44531 31.7656 2.58333 32.1771 2.85938 32.3906C3.14062 32.6042 3.46094 32.7109 3.82031 32.7109H4.07031V33H0.3125V32.7109C0.895833 32.7057 1.30208 32.5859 1.53125 32.3516C1.76042 32.1172 1.875 31.7188 1.875 31.1562V23.6797L1.64844 23.3984C1.42448 23.1172 1.22656 22.9323 1.05469 22.8438C0.882812 22.7552 0.635417 22.7057 0.3125 22.6953V22.4062H4.07031ZM18.375 29.0859H14.3672C14.4141 30.0547 14.6719 30.8203 15.1406 31.3828C15.5 31.8151 15.9323 32.0312 16.4375 32.0312C16.75 32.0312 17.0339 31.9453 17.2891 31.7734C17.5443 31.5964 17.8177 31.2812 18.1094 30.8281L18.375 31C17.9792 31.8073 17.5417 32.3802 17.0625 32.7188C16.5833 33.0521 16.0286 33.2188 15.3984 33.2188C14.3151 33.2188 13.4948 32.8021 12.9375 31.9688C12.4896 31.2969 12.2656 30.4635 12.2656 29.4688C12.2656 28.25 12.5938 27.2812 13.25 26.5625C13.9115 25.8385 14.6849 25.4766 15.5703 25.4766C16.3099 25.4766 16.9505 25.7812 17.4922 26.3906C18.0391 26.9948 18.3333 27.8932 18.375 29.0859ZM16.4531 28.5625C16.4531 27.724 16.4062 27.1484 16.3125 26.8359C16.224 26.5234 16.0833 26.2865 15.8906 26.125C15.7812 26.0312 15.6354 25.9844 15.4531 25.9844C15.1823 25.9844 14.9609 26.1172 14.7891 26.3828C14.4818 26.8464 14.3281 27.4818 14.3281 28.2891V28.5625H16.4531ZM23.9141 25.4922L24.0312 27.9844H23.7656C23.4479 27.2448 23.1172 26.7396 22.7734 26.4688C22.4349 26.1979 22.0964 26.0625 21.7578 26.0625C21.5443 26.0625 21.362 26.1354 21.2109 26.2812C21.0599 26.4219 20.9844 26.5859 20.9844 26.7734C20.9844 26.9141 21.0365 27.0495 21.1406 27.1797C21.3073 27.3932 21.7734 27.7604 22.5391 28.2812C23.3047 28.7969 23.8073 29.237 24.0469 29.6016C24.2917 29.9609 24.4141 30.3646 24.4141 30.8125C24.4141 31.2188 24.3125 31.6172 24.1094 32.0078C23.9062 32.3984 23.6198 32.6979 23.25 32.9062C22.8802 33.1146 22.4714 33.2188 22.0234 33.2188C21.6745 33.2188 21.2083 33.1094 20.625 32.8906C20.4688 32.8333 20.362 32.8047 20.3047 32.8047C20.1328 32.8047 19.9896 32.9349 19.875 33.1953H19.6172L19.4922 30.5703H19.7578C19.9922 31.2578 20.3125 31.7734 20.7188 32.1172C21.1302 32.4609 21.5182 32.6328 21.8828 32.6328C22.1328 32.6328 22.3359 32.5573 22.4922 32.4062C22.6536 32.25 22.7344 32.0625 22.7344 31.8438C22.7344 31.5938 22.6562 31.3776 22.5 31.1953C22.3438 31.013 21.9948 30.737 21.4531 30.3672C20.6562 29.8151 20.1406 29.3932 19.9062 29.1016C19.5625 28.6745 19.3906 28.2031 19.3906 27.6875C19.3906 27.125 19.5833 26.6172 19.9688 26.1641C20.3594 25.7057 20.9219 25.4766 21.6562 25.4766C22.0521 25.4766 22.4349 25.5729 22.8047 25.7656C22.9453 25.8438 23.0599 25.8828 23.1484 25.8828C23.2422 25.8828 23.3177 25.8646 23.375 25.8281C23.4323 25.7865 23.5234 25.6745 23.6484 25.4922H23.9141ZM28.4297 23.0234V25.6953H30.1641V26.4688H28.4297V30.9766C28.4297 31.3984 28.4479 31.6719 28.4844 31.7969C28.526 31.9167 28.5964 32.0156 28.6953 32.0938C28.7943 32.1667 28.8854 32.2031 28.9688 32.2031C29.3073 32.2031 29.6276 31.9453 29.9297 31.4297L30.1641 31.6016C29.7422 32.6016 29.0573 33.1016 28.1094 33.1016C27.6458 33.1016 27.2526 32.974 26.9297 32.7188C26.612 32.4583 26.4089 32.1693 26.3203 31.8516C26.2682 31.6745 26.2422 31.1953 26.2422 30.4141V26.4688H25.2891V26.1953C25.9453 25.7318 26.5026 25.2448 26.9609 24.7344C27.4245 24.224 27.8281 23.6536 28.1719 23.0234H28.4297ZM35.2656 30.1328H30.7109V28.5156H35.2656V30.1328ZM39.8984 28.1719V31.1406C39.8984 31.7135 39.9323 32.0755 40 32.2266C40.0729 32.3724 40.1979 32.4896 40.375 32.5781C40.5521 32.6667 40.8828 32.7109 41.3672 32.7109V33H35.9453V32.7109C36.4349 32.7109 36.7656 32.6667 36.9375 32.5781C37.1146 32.4844 37.237 32.3646 37.3047 32.2188C37.3776 32.0729 37.4141 31.7135 37.4141 31.1406V24.2656C37.4141 23.6927 37.3776 23.3333 37.3047 23.1875C37.237 23.0365 37.1146 22.9167 36.9375 22.8281C36.7604 22.7396 36.4297 22.6953 35.9453 22.6953V22.4062H40.8672C42.1484 22.4062 43.0859 22.4948 43.6797 22.6719C44.2734 22.849 44.7578 23.1771 45.1328 23.6562C45.5078 24.1302 45.6953 24.6875 45.6953 25.3281C45.6953 26.1094 45.4141 26.7552 44.8516 27.2656C44.4922 27.5885 43.9896 27.8307 43.3438 27.9922L45.8906 31.5781C46.224 32.0417 46.4609 32.3307 46.6016 32.4453C46.8151 32.6068 47.0625 32.6953 47.3438 32.7109V33H44.0078L40.5938 28.1719H39.8984ZM39.8984 22.9766V27.6172H40.3438C41.0677 27.6172 41.6094 27.5521 41.9688 27.4219C42.3281 27.2865 42.6094 27.0469 42.8125 26.7031C43.0208 26.3542 43.125 25.901 43.125 25.3438C43.125 24.5365 42.9349 23.9401 42.5547 23.5547C42.1797 23.1693 41.5729 22.9766 40.7344 22.9766H39.8984ZM49.5078 22.1562C49.8464 22.1562 50.1328 22.276 50.3672 22.5156C50.6016 22.75 50.7188 23.0339 50.7188 23.3672C50.7188 23.7005 50.599 23.9844 50.3594 24.2188C50.125 24.4531 49.8411 24.5703 49.5078 24.5703C49.1745 24.5703 48.8906 24.4531 48.6562 24.2188C48.4219 23.9844 48.3047 23.7005 48.3047 23.3672C48.3047 23.0339 48.4219 22.75 48.6562 22.5156C48.8906 22.276 49.1745 22.1562 49.5078 22.1562ZM50.6016 25.6953V31.4844C50.6016 32 50.6615 32.3307 50.7812 32.4766C50.901 32.6172 51.1354 32.6979 51.4844 32.7188V33H47.5391V32.7188C47.862 32.7083 48.1016 32.6146 48.2578 32.4375C48.362 32.3177 48.4141 32 48.4141 31.4844V27.2188C48.4141 26.7031 48.3542 26.375 48.2344 26.2344C48.1146 26.0885 47.8828 26.0052 47.5391 25.9844V25.6953H50.6016ZM55.1875 25.6953V26.6406C55.5625 26.2344 55.9219 25.9401 56.2656 25.7578C56.6094 25.5703 56.9792 25.4766 57.375 25.4766C57.849 25.4766 58.2422 25.6094 58.5547 25.875C58.8672 26.1354 59.0755 26.4609 59.1797 26.8516C59.263 27.1484 59.3047 27.7188 59.3047 28.5625V31.4062C59.3047 31.9688 59.3542 32.3203 59.4531 32.4609C59.5573 32.5964 59.7708 32.6823 60.0938 32.7188V33H56.3984V32.7188C56.6745 32.6823 56.8724 32.5677 56.9922 32.375C57.0755 32.2448 57.1172 31.9219 57.1172 31.4062V28.1562C57.1172 27.5573 57.0938 27.1797 57.0469 27.0234C57 26.8672 56.9193 26.7474 56.8047 26.6641C56.6953 26.5755 56.5729 26.5312 56.4375 26.5312C55.9896 26.5312 55.5729 26.8516 55.1875 27.4922V31.4062C55.1875 31.9531 55.237 32.2995 55.3359 32.4453C55.4401 32.5911 55.6302 32.6823 55.9062 32.7188V33H52.2109V32.7188C52.5182 32.6875 52.737 32.5885 52.8672 32.4219C52.9557 32.3073 53 31.9688 53 31.4062V27.2812C53 26.7292 52.9479 26.3854 52.8438 26.25C52.7448 26.1146 52.5339 26.026 52.2109 25.9844V25.6953H55.1875ZM65.7969 25.7812H68.2578V26.6406H66.8594C67.1146 26.8958 67.2917 27.1276 67.3906 27.3359C67.5156 27.6172 67.5781 27.9115 67.5781 28.2188C67.5781 28.7396 67.4323 29.1927 67.1406 29.5781C66.8542 29.9583 66.4609 30.2578 65.9609 30.4766C65.4661 30.6901 65.026 30.7969 64.6406 30.7969C64.6094 30.7969 64.2969 30.7839 63.7031 30.7578C63.4688 30.7578 63.2708 30.8359 63.1094 30.9922C62.9531 31.1432 62.875 31.3255 62.875 31.5391C62.875 31.7266 62.9453 31.8802 63.0859 32C63.2318 32.1198 63.4661 32.1797 63.7891 32.1797L65.1406 32.1641C66.2344 32.1641 66.987 32.2839 67.3984 32.5234C67.987 32.8568 68.2812 33.3698 68.2812 34.0625C68.2812 34.5052 68.1458 34.9062 67.875 35.2656C67.6042 35.6302 67.2474 35.8984 66.8047 36.0703C66.1328 36.3255 65.3594 36.4531 64.4844 36.4531C63.8281 36.4531 63.2292 36.388 62.6875 36.2578C62.1458 36.1328 61.7578 35.9557 61.5234 35.7266C61.2891 35.5026 61.1719 35.2656 61.1719 35.0156C61.1719 34.776 61.2604 34.5599 61.4375 34.3672C61.6198 34.1797 61.9557 34.0208 62.4453 33.8906C61.7682 33.5573 61.4297 33.0938 61.4297 32.5C61.4297 32.1406 61.5677 31.7917 61.8438 31.4531C62.1198 31.1146 62.5573 30.8203 63.1562 30.5703C62.4583 30.3151 61.9531 29.9792 61.6406 29.5625C61.3281 29.1458 61.1719 28.6641 61.1719 28.1172C61.1719 27.4036 61.4635 26.7865 62.0469 26.2656C62.6302 25.7396 63.3802 25.4766 64.2969 25.4766C64.7812 25.4766 65.2812 25.5781 65.7969 25.7812ZM64.4453 25.9609C64.1432 25.9609 63.888 26.1146 63.6797 26.4219C63.4714 26.724 63.3672 27.3542 63.3672 28.3125C63.3672 29.0885 63.4688 29.6224 63.6719 29.9141C63.8802 30.2005 64.125 30.3438 64.4062 30.3438C64.7188 30.3438 64.9792 30.2005 65.1875 29.9141C65.3958 29.6276 65.5 29.0703 65.5 28.2422C65.5 27.3099 65.3828 26.6745 65.1484 26.3359C64.9818 26.0859 64.7474 25.9609 64.4453 25.9609ZM63.9844 34.0781C63.4531 34.0781 63.1016 34.1224 62.9297 34.2109C62.6328 34.3724 62.4844 34.5911 62.4844 34.8672C62.4844 35.1328 62.638 35.3724 62.9453 35.5859C63.2526 35.8047 63.8307 35.9141 64.6797 35.9141C65.4036 35.9141 65.9714 35.8177 66.3828 35.625C66.7995 35.4323 67.0078 35.1615 67.0078 34.8125C67.0078 34.6823 66.9688 34.5729 66.8906 34.4844C66.75 34.3281 66.5365 34.2214 66.25 34.1641C65.9688 34.1068 65.2135 34.0781 63.9844 34.0781ZM76.9453 27.9062V31.1875C76.9453 31.7292 76.974 32.0677 77.0312 32.2031C77.0938 32.3385 77.2109 32.4583 77.3828 32.5625C77.5599 32.6615 77.7969 32.7109 78.0938 32.7109H78.4453V33H72.9062V32.7109H73.2578C73.5651 32.7109 73.8125 32.6562 74 32.5469C74.1354 32.474 74.2396 32.349 74.3125 32.1719C74.3698 32.0469 74.3984 31.7188 74.3984 31.1875V24.2188C74.3984 23.6771 74.3698 23.3385 74.3125 23.2031C74.2552 23.0677 74.138 22.9505 73.9609 22.8516C73.7891 22.7474 73.5547 22.6953 73.2578 22.6953H72.9062V22.4062H78.4453V22.6953H78.0938C77.7865 22.6953 77.5391 22.75 77.3516 22.8594C77.2161 22.9323 77.1094 23.0573 77.0312 23.2344C76.974 23.3594 76.9453 23.6875 76.9453 24.2188V27.2188H80.6875V24.2188C80.6875 23.6771 80.6589 23.3385 80.6016 23.2031C80.5443 23.0677 80.4271 22.9505 80.25 22.8516C80.0729 22.7474 79.8359 22.6953 79.5391 22.6953H79.1953V22.4062H84.7266V22.6953H84.3828C84.0703 22.6953 83.8229 22.75 83.6406 22.8594C83.5052 22.9323 83.3984 23.0573 83.3203 23.2344C83.263 23.3594 83.2344 23.6875 83.2344 24.2188V31.1875C83.2344 31.7292 83.263 32.0677 83.3203 32.2031C83.3776 32.3385 83.4948 32.4583 83.6719 32.5625C83.849 32.6615 84.0859 32.7109 84.3828 32.7109H84.7266V33H79.1953V32.7109H79.5391C79.8516 32.7109 80.099 32.6562 80.2812 32.5469C80.4167 32.474 80.5234 32.349 80.6016 32.1719C80.6589 32.0469 80.6875 31.7188 80.6875 31.1875V27.9062H76.9453ZM89.0078 25.4766C89.6432 25.4766 90.2344 25.6406 90.7812 25.9688C91.3281 26.2969 91.7422 26.763 92.0234 27.3672C92.3099 27.9714 92.4531 28.6328 92.4531 29.3516C92.4531 30.388 92.1901 31.2552 91.6641 31.9531C91.0286 32.7969 90.151 33.2188 89.0312 33.2188C87.9323 33.2188 87.0859 32.8333 86.4922 32.0625C85.8984 31.2917 85.6016 30.3984 85.6016 29.3828C85.6016 28.3359 85.9036 27.4245 86.5078 26.6484C87.1172 25.8672 87.9505 25.4766 89.0078 25.4766ZM89.0391 26.0312C88.7734 26.0312 88.5443 26.1328 88.3516 26.3359C88.1641 26.5339 88.0391 26.9297 87.9766 27.5234C87.9193 28.112 87.8906 28.9323 87.8906 29.9844C87.8906 30.5417 87.9271 31.0625 88 31.5469C88.0573 31.9167 88.1797 32.1979 88.3672 32.3906C88.5547 32.5833 88.7682 32.6797 89.0078 32.6797C89.2422 32.6797 89.4375 32.6146 89.5938 32.4844C89.7969 32.3073 89.9323 32.0599 90 31.7422C90.1042 31.2474 90.1562 30.2474 90.1562 28.7422C90.1562 27.8568 90.1068 27.25 90.0078 26.9219C89.9089 26.5885 89.763 26.3464 89.5703 26.1953C89.4349 26.0859 89.2578 26.0312 89.0391 26.0312ZM96.4609 23.0234V25.6953H98.1953V26.4688H96.4609V30.9766C96.4609 31.3984 96.4792 31.6719 96.5156 31.7969C96.5573 31.9167 96.6276 32.0156 96.7266 32.0938C96.8255 32.1667 96.9167 32.2031 97 32.2031C97.3385 32.2031 97.6589 31.9453 97.9609 31.4297L98.1953 31.6016C97.7734 32.6016 97.0885 33.1016 96.1406 33.1016C95.6771 33.1016 95.2839 32.974 94.9609 32.7188C94.6432 32.4583 94.4401 32.1693 94.3516 31.8516C94.2995 31.6745 94.2734 31.1953 94.2734 30.4141V26.4688H93.3203V26.1953C93.9766 25.7318 94.5339 25.2448 94.9922 24.7344C95.4557 24.224 95.8594 23.6536 96.2031 23.0234H96.4609ZM105.078 29.0859H101.07C101.117 30.0547 101.375 30.8203 101.844 31.3828C102.203 31.8151 102.635 32.0312 103.141 32.0312C103.453 32.0312 103.737 31.9453 103.992 31.7734C104.247 31.5964 104.521 31.2812 104.812 30.8281L105.078 31C104.682 31.8073 104.245 32.3802 103.766 32.7188C103.286 33.0521 102.732 33.2188 102.102 33.2188C101.018 33.2188 100.198 32.8021 99.6406 31.9688C99.1927 31.2969 98.9688 30.4635 98.9688 29.4688C98.9688 28.25 99.2969 27.2812 99.9531 26.5625C100.615 25.8385 101.388 25.4766 102.273 25.4766C103.013 25.4766 103.654 25.7812 104.195 26.3906C104.742 26.9948 105.036 27.8932 105.078 29.0859ZM103.156 28.5625C103.156 27.724 103.109 27.1484 103.016 26.8359C102.927 26.5234 102.786 26.2865 102.594 26.125C102.484 26.0312 102.339 25.9844 102.156 25.9844C101.885 25.9844 101.664 26.1172 101.492 26.3828C101.185 26.8464 101.031 27.4818 101.031 28.2891V28.5625H103.156ZM108.859 22.4062V31.4844C108.859 32 108.919 32.3307 109.039 32.4766C109.159 32.6172 109.393 32.6979 109.742 32.7188V33H105.797V32.7188C106.12 32.7083 106.359 32.6146 106.516 32.4375C106.62 32.3177 106.672 32 106.672 31.4844V23.9219C106.672 23.4115 106.612 23.0859 106.492 22.9453C106.372 22.7995 106.141 22.7161 105.797 22.6953V22.4062H108.859Z" fill="#B9AA46"/>
<defs>
<filter id="filter0_d_506_201" x="117.645" y="1.58677" width="41.7969" height="44.0198" filterUnits="userSpaceOnUse" color-interpolation-filters="sRGB">
<feFlood flood-opacity="0" result="BackgroundImageFix"/>
<feColorMatrix in="SourceAlpha" type="matrix" values="0 0 0 0 0 0 0 0 0 0 0 0 0 0 0 0 0 0 127 0" result="hardAlpha"/>
<feOffset dy="4"/>
<feGaussianBlur stdDeviation="2"/>
<feComposite in2="hardAlpha" operator="out"/>
<feColorMatrix type="matrix" values="0 0 0 0 0 0 0 0 0 0 0 0 0 0 0 0 0 0 0.25 0"/>
<feBlend mode="normal" in2="BackgroundImageFix" result="effect1_dropShadow_506_201"/>
<feBlend mode="normal" in="SourceGraphic" in2="effect1_dropShadow_506_201" result="shape"/>
</filter>
</defs>
</svg>
