<svg width="53" height="36" viewBox="0 0 53 36" fill="none" xmlns="http://www.w3.org/2000/svg">
<path d="M26.5 21.75C28.2188 21.75 29.625 20.7635 29.625 19.5577H23.375C23.375 20.1391 23.7042 20.6968 24.2903 21.1079C24.8763 21.519 25.6712 21.75 26.5 21.75ZM35.875 15.1731V9.69231C35.875 6.32712 33.3125 3.51 28.8438 2.76462V2.01923C28.8438 1.10942 27.7969 0.375 26.5 0.375C25.2031 0.375 24.1562 1.10942 24.1562 2.01923V2.76462C19.6719 3.51 17.125 6.31615 17.125 9.69231V15.1731L14 17.3654V18.4615H39V17.3654L35.875 15.1731Z" fill="#522700"/>
<path d="M6.63184 35.2119C6.63184 35.2705 6.62207 35.3193 6.60254 35.3584C6.58626 35.3975 6.56348 35.43 6.53418 35.4561C6.50814 35.4788 6.47721 35.4951 6.44141 35.5049C6.40885 35.5146 6.37793 35.5195 6.34863 35.5195H6.22656C6.16146 35.5195 6.10124 35.5114 6.0459 35.4951C5.99382 35.4788 5.94173 35.4512 5.88965 35.4121C5.84082 35.3698 5.79036 35.3145 5.73828 35.2461C5.68945 35.1777 5.63411 35.0898 5.57227 34.9824L3.3457 31.0371C3.23503 30.8451 3.12272 30.6481 3.00879 30.4463C2.89811 30.2412 2.79232 30.0426 2.69141 29.8506H2.68652C2.68978 30.0882 2.69141 30.3324 2.69141 30.583C2.69141 30.8304 2.69141 31.0729 2.69141 31.3105V35.4023C2.69141 35.4219 2.68652 35.4398 2.67676 35.4561C2.66699 35.4723 2.65072 35.4854 2.62793 35.4951C2.60514 35.5049 2.57422 35.513 2.53516 35.5195C2.49935 35.526 2.45215 35.5293 2.39355 35.5293C2.33822 35.5293 2.29102 35.526 2.25195 35.5195C2.21289 35.513 2.18197 35.5049 2.15918 35.4951C2.13639 35.4854 2.12012 35.4723 2.11035 35.4561C2.10059 35.4398 2.0957 35.4219 2.0957 35.4023V29.4893C2.0957 29.3721 2.12663 29.2923 2.18848 29.25C2.25033 29.2044 2.31055 29.1816 2.36914 29.1816H2.61328C2.69141 29.1816 2.75651 29.1882 2.80859 29.2012C2.86068 29.2142 2.90788 29.237 2.9502 29.2695C2.99251 29.2988 3.0332 29.3428 3.07227 29.4014C3.11458 29.4567 3.16016 29.5283 3.20898 29.6162L4.91309 32.6387C5.02051 32.8275 5.12142 33.0098 5.21582 33.1855C5.31348 33.3581 5.40788 33.529 5.49902 33.6982C5.59017 33.8643 5.67969 34.0286 5.76758 34.1914C5.85872 34.3542 5.94824 34.5186 6.03613 34.6846H6.04102C6.03776 34.4111 6.03613 34.1263 6.03613 33.8301C6.03613 33.5339 6.03613 33.249 6.03613 32.9756V29.2988C6.03613 29.2793 6.04102 29.2614 6.05078 29.2451C6.06055 29.2288 6.07682 29.2158 6.09961 29.2061C6.1224 29.193 6.15169 29.1849 6.1875 29.1816C6.22656 29.1751 6.27539 29.1719 6.33398 29.1719C6.38607 29.1719 6.43164 29.1751 6.4707 29.1816C6.50977 29.1849 6.54069 29.193 6.56348 29.2061C6.58626 29.2158 6.60254 29.2288 6.6123 29.2451C6.62533 29.2614 6.63184 29.2793 6.63184 29.2988V35.2119ZM12.2861 33.1465C12.2861 33.498 12.2406 33.8219 12.1494 34.1182C12.0583 34.4144 11.9215 34.6715 11.7393 34.8896C11.5602 35.1077 11.3356 35.2786 11.0654 35.4023C10.7952 35.5228 10.4811 35.583 10.123 35.583C9.77799 35.583 9.47526 35.5293 9.21484 35.4219C8.95768 35.3112 8.74121 35.1549 8.56543 34.9531C8.3929 34.748 8.2627 34.5007 8.1748 34.2109C8.09017 33.9212 8.04785 33.5941 8.04785 33.2295C8.04785 32.8779 8.0918 32.554 8.17969 32.2578C8.27083 31.9616 8.40592 31.7061 8.58496 31.4912C8.76725 31.2731 8.99349 31.1038 9.26367 30.9834C9.53385 30.863 9.84961 30.8027 10.2109 30.8027C10.556 30.8027 10.8571 30.8564 11.1143 30.9639C11.3747 31.0713 11.5911 31.2275 11.7637 31.4326C11.9362 31.6344 12.0664 31.8802 12.1543 32.1699C12.2422 32.4596 12.2861 32.7852 12.2861 33.1465ZM11.6709 33.2002C11.6709 32.9495 11.6465 32.7103 11.5977 32.4824C11.5488 32.2546 11.4674 32.0544 11.3535 31.8818C11.2396 31.7061 11.0866 31.5677 10.8945 31.4668C10.7025 31.3626 10.4632 31.3105 10.1768 31.3105C9.91309 31.3105 9.68522 31.3577 9.49316 31.4521C9.30111 31.5465 9.14323 31.6784 9.01953 31.8477C8.89909 32.0137 8.80957 32.2106 8.75098 32.4385C8.69238 32.6663 8.66309 32.9121 8.66309 33.1758C8.66309 33.4297 8.6875 33.6722 8.73633 33.9033C8.78516 34.1312 8.86654 34.3314 8.98047 34.5039C9.0944 34.6764 9.2474 34.8132 9.43945 34.9141C9.63151 35.015 9.87077 35.0654 10.1572 35.0654C10.4209 35.0654 10.6488 35.0182 10.8408 34.9238C11.0329 34.8294 11.1891 34.6992 11.3096 34.5332C11.4333 34.3672 11.5244 34.1702 11.583 33.9424C11.6416 33.7145 11.6709 33.4671 11.6709 33.2002ZM17.1836 30.8809C17.2585 30.8809 17.3089 30.9004 17.335 30.9395C17.361 30.9753 17.374 31.0257 17.374 31.0908V35.4023C17.374 35.4219 17.3691 35.4398 17.3594 35.4561C17.3496 35.4723 17.3333 35.4854 17.3105 35.4951C17.291 35.5049 17.2617 35.513 17.2227 35.5195C17.1868 35.526 17.1413 35.5293 17.0859 35.5293C17.0273 35.5293 16.9785 35.526 16.9395 35.5195C16.9036 35.513 16.8743 35.5049 16.8516 35.4951C16.832 35.4854 16.8174 35.4723 16.8076 35.4561C16.7979 35.4398 16.793 35.4219 16.793 35.4023V31.374H14.3516V34.0449C14.3516 34.3802 14.3988 34.6357 14.4932 34.8115C14.5908 34.9873 14.7666 35.0752 15.0205 35.0752C15.0986 35.0752 15.1686 35.0671 15.2305 35.0508C15.2956 35.0345 15.3525 35.0166 15.4014 34.9971C15.4502 34.9775 15.4909 34.9596 15.5234 34.9434C15.5592 34.9271 15.5902 34.9189 15.6162 34.9189C15.6325 34.9189 15.6471 34.9222 15.6602 34.9287C15.6732 34.9352 15.6829 34.9482 15.6895 34.9678C15.6992 34.984 15.7057 35.0068 15.709 35.0361C15.7155 35.0622 15.7188 35.0964 15.7188 35.1387C15.7188 35.207 15.7122 35.2624 15.6992 35.3047C15.6895 35.347 15.6715 35.3812 15.6455 35.4072C15.6227 35.43 15.5869 35.4528 15.5381 35.4756C15.4925 35.4951 15.4388 35.5114 15.377 35.5244C15.3151 35.5407 15.25 35.5521 15.1816 35.5586C15.1133 35.5684 15.0465 35.5732 14.9814 35.5732C14.7633 35.5732 14.5778 35.5439 14.4248 35.4854C14.2718 35.4268 14.1465 35.3389 14.0488 35.2217C13.9512 35.1012 13.8796 34.9499 13.834 34.7676C13.7917 34.5853 13.7705 34.3704 13.7705 34.123V31.374H13.1113C13.0658 31.374 13.0299 31.3545 13.0039 31.3154C12.9779 31.2731 12.9648 31.2113 12.9648 31.1299C12.9648 31.0876 12.9681 31.0518 12.9746 31.0225C12.9811 30.9899 12.9909 30.9639 13.0039 30.9443C13.0169 30.9215 13.0316 30.9053 13.0479 30.8955C13.0674 30.8857 13.0885 30.8809 13.1113 30.8809H13.7705V29.7969C13.7705 29.7773 13.7738 29.7594 13.7803 29.7432C13.79 29.7269 13.8063 29.7139 13.8291 29.7041C13.8519 29.6911 13.8812 29.6829 13.917 29.6797C13.9561 29.6732 14.0033 29.6699 14.0586 29.6699C14.1172 29.6699 14.1644 29.6732 14.2002 29.6797C14.2393 29.6829 14.2686 29.6911 14.2881 29.7041C14.3109 29.7139 14.3271 29.7269 14.3369 29.7432C14.3467 29.7594 14.3516 29.7773 14.3516 29.7969V30.8809H17.1836ZM17.4619 29.4941C17.4619 29.6504 17.4342 29.7562 17.3789 29.8115C17.3236 29.8669 17.2227 29.8945 17.0762 29.8945C16.9329 29.8945 16.8337 29.8685 16.7783 29.8164C16.7262 29.7611 16.7002 29.6553 16.7002 29.499C16.7002 29.3428 16.7279 29.237 16.7832 29.1816C16.8385 29.1263 16.9395 29.0986 17.0859 29.0986C17.2292 29.0986 17.3268 29.1263 17.3789 29.1816C17.4342 29.2337 17.4619 29.3379 17.4619 29.4941ZM22.6279 29.499C22.6279 29.5739 22.6214 29.6374 22.6084 29.6895C22.5986 29.7383 22.5791 29.779 22.5498 29.8115C22.5238 29.8408 22.4863 29.862 22.4375 29.875C22.3887 29.888 22.3268 29.8945 22.252 29.8945C22.1771 29.8945 22.1152 29.888 22.0664 29.875C22.0176 29.862 21.9785 29.8408 21.9492 29.8115C21.9199 29.779 21.8988 29.7383 21.8857 29.6895C21.876 29.6374 21.8711 29.5739 21.8711 29.499C21.8711 29.4242 21.876 29.3623 21.8857 29.3135C21.8988 29.2614 21.9199 29.2191 21.9492 29.1865C21.9785 29.154 22.0176 29.1312 22.0664 29.1182C22.1152 29.1051 22.1771 29.0986 22.252 29.0986C22.3268 29.0986 22.3887 29.1051 22.4375 29.1182C22.4863 29.1312 22.5238 29.154 22.5498 29.1865C22.5791 29.2191 22.5986 29.2614 22.6084 29.3135C22.6214 29.3623 22.6279 29.4242 22.6279 29.499ZM22.54 35.4023C22.54 35.4219 22.5352 35.4398 22.5254 35.4561C22.5156 35.4723 22.4993 35.4854 22.4766 35.4951C22.457 35.5049 22.4277 35.513 22.3887 35.5195C22.3529 35.526 22.3073 35.5293 22.252 35.5293C22.1934 35.5293 22.1445 35.526 22.1055 35.5195C22.0697 35.513 22.0404 35.5049 22.0176 35.4951C21.998 35.4854 21.9834 35.4723 21.9736 35.4561C21.9639 35.4398 21.959 35.4219 21.959 35.4023V31.374H19.791V35.4023C19.791 35.4219 19.7861 35.4398 19.7764 35.4561C19.7666 35.4723 19.7503 35.4854 19.7275 35.4951C19.708 35.5049 19.6787 35.513 19.6396 35.5195C19.6038 35.526 19.5566 35.5293 19.498 35.5293C19.4427 35.5293 19.3955 35.526 19.3564 35.5195C19.3206 35.513 19.2913 35.5049 19.2686 35.4951C19.2458 35.4854 19.2295 35.4723 19.2197 35.4561C19.2132 35.4398 19.21 35.4219 19.21 35.4023V31.374H18.5459C18.5003 31.374 18.4645 31.3545 18.4385 31.3154C18.4157 31.2731 18.4043 31.2113 18.4043 31.1299C18.4043 31.0876 18.4076 31.0518 18.4141 31.0225C18.4206 30.9899 18.4287 30.9639 18.4385 30.9443C18.4515 30.9215 18.4661 30.9053 18.4824 30.8955C18.502 30.8857 18.5231 30.8809 18.5459 30.8809H19.21V30.3584C19.21 30.0524 19.2376 29.792 19.293 29.5771C19.3516 29.3623 19.4362 29.1882 19.5469 29.0547C19.6576 28.918 19.7926 28.8187 19.9521 28.7568C20.1149 28.695 20.2988 28.6641 20.5039 28.6641C20.5755 28.6641 20.6455 28.6673 20.7139 28.6738C20.7822 28.6803 20.8441 28.6901 20.8994 28.7031C20.958 28.7129 21.0068 28.7259 21.0459 28.7422C21.0882 28.7552 21.1159 28.7699 21.1289 28.7861C21.1452 28.7992 21.1582 28.8138 21.168 28.8301C21.1777 28.8464 21.1842 28.8659 21.1875 28.8887C21.194 28.9082 21.1989 28.9326 21.2021 28.9619C21.2054 28.9912 21.207 29.0254 21.207 29.0645C21.207 29.1361 21.1989 29.1898 21.1826 29.2256C21.1696 29.2614 21.1452 29.2793 21.1094 29.2793C21.0833 29.2793 21.0557 29.2744 21.0264 29.2646C20.9971 29.2516 20.958 29.2386 20.9092 29.2256C20.8636 29.2093 20.8066 29.1947 20.7383 29.1816C20.6699 29.1686 20.5853 29.1621 20.4844 29.1621C20.2305 29.1621 20.0514 29.2581 19.9473 29.4502C19.8431 29.639 19.791 29.9417 19.791 30.3584V30.8809H22.3594C22.4245 30.8809 22.4701 30.9004 22.4961 30.9395C22.5254 30.9753 22.54 31.0225 22.54 31.0811V35.4023ZM27.2617 34.748C27.2617 34.7871 27.2601 34.8229 27.2568 34.8555C27.2536 34.8848 27.2487 34.9108 27.2422 34.9336C27.2357 34.9564 27.2259 34.9775 27.2129 34.9971C27.2031 35.0133 27.1771 35.0426 27.1348 35.085C27.0924 35.1273 27.0208 35.181 26.9199 35.2461C26.8223 35.3112 26.7116 35.3682 26.5879 35.417C26.4642 35.4658 26.3307 35.5049 26.1875 35.5342C26.0443 35.5667 25.8962 35.583 25.7432 35.583C25.4372 35.583 25.1654 35.5326 24.9277 35.4316C24.6934 35.3275 24.4964 35.1761 24.3369 34.9775C24.1774 34.7757 24.0553 34.5299 23.9707 34.2402C23.8893 33.9473 23.8486 33.6104 23.8486 33.2295C23.8486 32.7998 23.8991 32.432 24 32.126C24.1042 31.82 24.2458 31.5693 24.4248 31.374C24.6038 31.1787 24.8122 31.0355 25.0498 30.9443C25.2907 30.8499 25.5479 30.8027 25.8213 30.8027C25.9678 30.8027 26.1077 30.8174 26.2412 30.8467C26.3747 30.8727 26.4967 30.9085 26.6074 30.9541C26.7214 30.9997 26.8223 31.0518 26.9102 31.1104C26.998 31.1689 27.0615 31.2194 27.1006 31.2617C27.1429 31.3008 27.1706 31.3317 27.1836 31.3545C27.1999 31.374 27.2113 31.3968 27.2178 31.4229C27.2275 31.4489 27.234 31.4782 27.2373 31.5107C27.2406 31.54 27.2422 31.5758 27.2422 31.6182C27.2422 31.7126 27.2275 31.7793 27.1982 31.8184C27.1722 31.8542 27.1429 31.8721 27.1104 31.8721C27.0648 31.8721 27.0078 31.8428 26.9395 31.7842C26.8743 31.7256 26.7897 31.6621 26.6855 31.5938C26.5814 31.5221 26.4544 31.457 26.3047 31.3984C26.1582 31.3398 25.9824 31.3105 25.7773 31.3105C25.3542 31.3105 25.027 31.4733 24.7959 31.7988C24.568 32.1243 24.4541 32.5947 24.4541 33.21C24.4541 33.5192 24.485 33.791 24.5469 34.0254C24.6087 34.2565 24.6966 34.4502 24.8105 34.6064C24.9277 34.7594 25.0693 34.875 25.2354 34.9531C25.4014 35.028 25.5885 35.0654 25.7969 35.0654C25.9922 35.0654 26.1647 35.0345 26.3145 34.9727C26.4642 34.9108 26.5944 34.8424 26.7051 34.7676C26.8158 34.6927 26.9069 34.6243 26.9785 34.5625C27.0534 34.5007 27.1087 34.4697 27.1445 34.4697C27.1641 34.4697 27.1803 34.4762 27.1934 34.4893C27.2096 34.499 27.2227 34.5169 27.2324 34.543C27.2422 34.5658 27.2487 34.5951 27.252 34.6309C27.2585 34.6634 27.2617 34.7025 27.2617 34.748ZM31.4316 35.4023C31.4316 35.4349 31.4202 35.4609 31.3975 35.4805C31.3779 35.4967 31.3503 35.5081 31.3145 35.5146C31.2819 35.5244 31.2363 35.5293 31.1777 35.5293C31.1224 35.5293 31.0752 35.5244 31.0361 35.5146C30.9971 35.5081 30.9661 35.4967 30.9434 35.4805C30.9238 35.4609 30.9141 35.4349 30.9141 35.4023V34.9092C30.7155 35.124 30.4958 35.29 30.2549 35.4072C30.0173 35.5244 29.7699 35.583 29.5127 35.583C29.2816 35.583 29.0732 35.5537 28.8877 35.4951C28.7054 35.4333 28.5508 35.347 28.4238 35.2363C28.2969 35.1224 28.1992 34.9857 28.1309 34.8262C28.0625 34.6667 28.0283 34.4876 28.0283 34.2891C28.0283 34.0449 28.0788 33.8333 28.1797 33.6543C28.2806 33.472 28.4238 33.3206 28.6094 33.2002C28.7949 33.0798 29.0179 32.9902 29.2783 32.9316C29.5387 32.8698 29.8285 32.8389 30.1475 32.8389H30.8506V32.458C30.8506 32.2692 30.8311 32.1032 30.792 31.96C30.7529 31.8135 30.6895 31.6914 30.6016 31.5938C30.5137 31.4961 30.3997 31.4229 30.2598 31.374C30.1198 31.3252 29.9489 31.3008 29.7471 31.3008C29.5518 31.3008 29.376 31.3252 29.2197 31.374C29.0635 31.4196 28.9268 31.4717 28.8096 31.5303C28.6924 31.5889 28.5947 31.6426 28.5166 31.6914C28.4417 31.737 28.388 31.7598 28.3555 31.7598C28.3359 31.7598 28.318 31.7565 28.3018 31.75C28.2855 31.7435 28.2708 31.7321 28.2578 31.7158C28.248 31.6963 28.2399 31.6735 28.2334 31.6475C28.2301 31.6182 28.2285 31.584 28.2285 31.5449C28.2285 31.4766 28.2334 31.4229 28.2432 31.3838C28.2529 31.3415 28.2773 31.3008 28.3164 31.2617C28.3587 31.2194 28.432 31.1706 28.5361 31.1152C28.6403 31.0599 28.7591 31.0094 28.8926 30.9639C29.0293 30.915 29.1758 30.876 29.332 30.8467C29.4883 30.8174 29.6445 30.8027 29.8008 30.8027C30.1035 30.8027 30.359 30.8402 30.5674 30.915C30.7757 30.9867 30.9434 31.0908 31.0703 31.2275C31.2005 31.3643 31.2933 31.5335 31.3486 31.7354C31.404 31.9339 31.4316 32.1602 31.4316 32.4141V35.4023ZM30.8506 33.3174H30.0449C29.8105 33.3174 29.6055 33.3385 29.4297 33.3809C29.2539 33.4232 29.1074 33.485 28.9902 33.5664C28.873 33.6478 28.7852 33.7454 28.7266 33.8594C28.6712 33.9733 28.6436 34.1035 28.6436 34.25C28.6436 34.5039 28.7233 34.7074 28.8828 34.8604C29.0456 35.0101 29.2734 35.085 29.5664 35.085C29.7975 35.085 30.0124 35.0264 30.2109 34.9092C30.4128 34.7887 30.626 34.6048 30.8506 34.3574V33.3174ZM36.5391 30.8809C36.6139 30.8809 36.6644 30.9004 36.6904 30.9395C36.7165 30.9753 36.7295 31.0257 36.7295 31.0908V35.4023C36.7295 35.4219 36.7246 35.4398 36.7148 35.4561C36.7051 35.4723 36.6888 35.4854 36.666 35.4951C36.6465 35.5049 36.6172 35.513 36.5781 35.5195C36.5423 35.526 36.4967 35.5293 36.4414 35.5293C36.3828 35.5293 36.334 35.526 36.2949 35.5195C36.2591 35.513 36.2298 35.5049 36.207 35.4951C36.1875 35.4854 36.1729 35.4723 36.1631 35.4561C36.1533 35.4398 36.1484 35.4219 36.1484 35.4023V31.374H33.707V34.0449C33.707 34.3802 33.7542 34.6357 33.8486 34.8115C33.9463 34.9873 34.1221 35.0752 34.376 35.0752C34.4541 35.0752 34.5241 35.0671 34.5859 35.0508C34.651 35.0345 34.708 35.0166 34.7568 34.9971C34.8057 34.9775 34.8464 34.9596 34.8789 34.9434C34.9147 34.9271 34.9456 34.9189 34.9717 34.9189C34.988 34.9189 35.0026 34.9222 35.0156 34.9287C35.0286 34.9352 35.0384 34.9482 35.0449 34.9678C35.0547 34.984 35.0612 35.0068 35.0645 35.0361C35.071 35.0622 35.0742 35.0964 35.0742 35.1387C35.0742 35.207 35.0677 35.2624 35.0547 35.3047C35.0449 35.347 35.027 35.3812 35.001 35.4072C34.9782 35.43 34.9424 35.4528 34.8936 35.4756C34.848 35.4951 34.7943 35.5114 34.7324 35.5244C34.6706 35.5407 34.6055 35.5521 34.5371 35.5586C34.4688 35.5684 34.402 35.5732 34.3369 35.5732C34.1188 35.5732 33.9333 35.5439 33.7803 35.4854C33.6273 35.4268 33.502 35.3389 33.4043 35.2217C33.3066 35.1012 33.235 34.9499 33.1895 34.7676C33.1471 34.5853 33.126 34.3704 33.126 34.123V31.374H32.4668C32.4212 31.374 32.3854 31.3545 32.3594 31.3154C32.3333 31.2731 32.3203 31.2113 32.3203 31.1299C32.3203 31.0876 32.3236 31.0518 32.3301 31.0225C32.3366 30.9899 32.3464 30.9639 32.3594 30.9443C32.3724 30.9215 32.387 30.9053 32.4033 30.8955C32.4229 30.8857 32.444 30.8809 32.4668 30.8809H33.126V29.7969C33.126 29.7773 33.1292 29.7594 33.1357 29.7432C33.1455 29.7269 33.1618 29.7139 33.1846 29.7041C33.2074 29.6911 33.2367 29.6829 33.2725 29.6797C33.3115 29.6732 33.3587 29.6699 33.4141 29.6699C33.4727 29.6699 33.5199 29.6732 33.5557 29.6797C33.5947 29.6829 33.624 29.6911 33.6436 29.7041C33.6663 29.7139 33.6826 29.7269 33.6924 29.7432C33.7021 29.7594 33.707 29.7773 33.707 29.7969V30.8809H36.5391ZM36.8174 29.4941C36.8174 29.6504 36.7897 29.7562 36.7344 29.8115C36.679 29.8669 36.5781 29.8945 36.4316 29.8945C36.2884 29.8945 36.1891 29.8685 36.1338 29.8164C36.0817 29.7611 36.0557 29.6553 36.0557 29.499C36.0557 29.3428 36.0833 29.237 36.1387 29.1816C36.194 29.1263 36.2949 29.0986 36.4414 29.0986C36.5846 29.0986 36.6823 29.1263 36.7344 29.1816C36.7897 29.2337 36.8174 29.3379 36.8174 29.4941ZM42.2764 33.1465C42.2764 33.498 42.2308 33.8219 42.1396 34.1182C42.0485 34.4144 41.9118 34.6715 41.7295 34.8896C41.5505 35.1077 41.3258 35.2786 41.0557 35.4023C40.7855 35.5228 40.4714 35.583 40.1133 35.583C39.7682 35.583 39.4655 35.5293 39.2051 35.4219C38.9479 35.3112 38.7314 35.1549 38.5557 34.9531C38.3831 34.748 38.2529 34.5007 38.165 34.2109C38.0804 33.9212 38.0381 33.5941 38.0381 33.2295C38.0381 32.8779 38.082 32.554 38.1699 32.2578C38.2611 31.9616 38.3962 31.7061 38.5752 31.4912C38.7575 31.2731 38.9837 31.1038 39.2539 30.9834C39.5241 30.863 39.8398 30.8027 40.2012 30.8027C40.5462 30.8027 40.8473 30.8564 41.1045 30.9639C41.3649 31.0713 41.5814 31.2275 41.7539 31.4326C41.9264 31.6344 42.0566 31.8802 42.1445 32.1699C42.2324 32.4596 42.2764 32.7852 42.2764 33.1465ZM41.6611 33.2002C41.6611 32.9495 41.6367 32.7103 41.5879 32.4824C41.5391 32.2546 41.4577 32.0544 41.3438 31.8818C41.2298 31.7061 41.0768 31.5677 40.8848 31.4668C40.6927 31.3626 40.4535 31.3105 40.167 31.3105C39.9033 31.3105 39.6755 31.3577 39.4834 31.4521C39.2913 31.5465 39.1335 31.6784 39.0098 31.8477C38.8893 32.0137 38.7998 32.2106 38.7412 32.4385C38.6826 32.6663 38.6533 32.9121 38.6533 33.1758C38.6533 33.4297 38.6777 33.6722 38.7266 33.9033C38.7754 34.1312 38.8568 34.3314 38.9707 34.5039C39.0846 34.6764 39.2376 34.8132 39.4297 34.9141C39.6217 35.015 39.861 35.0654 40.1475 35.0654C40.4111 35.0654 40.639 35.0182 40.8311 34.9238C41.0231 34.8294 41.1794 34.6992 41.2998 34.5332C41.4235 34.3672 41.5146 34.1702 41.5732 33.9424C41.6318 33.7145 41.6611 33.4671 41.6611 33.2002ZM47.1641 35.4023C47.1641 35.4219 47.1592 35.4398 47.1494 35.4561C47.1396 35.4723 47.1234 35.4854 47.1006 35.4951C47.0811 35.5049 47.0518 35.513 47.0127 35.5195C46.9769 35.526 46.9313 35.5293 46.876 35.5293C46.8174 35.5293 46.7686 35.526 46.7295 35.5195C46.6937 35.513 46.6644 35.5049 46.6416 35.4951C46.6221 35.4854 46.6074 35.4723 46.5977 35.4561C46.5879 35.4398 46.583 35.4219 46.583 35.4023V32.7803C46.583 32.5068 46.5618 32.2855 46.5195 32.1162C46.4772 31.9437 46.4137 31.7972 46.3291 31.6768C46.2445 31.5531 46.1354 31.4587 46.002 31.3936C45.8717 31.3252 45.7188 31.291 45.543 31.291C45.3184 31.291 45.0938 31.3708 44.8691 31.5303C44.6445 31.6898 44.4085 31.9242 44.1611 32.2334V35.4023C44.1611 35.4219 44.1562 35.4398 44.1465 35.4561C44.1367 35.4723 44.1204 35.4854 44.0977 35.4951C44.0781 35.5049 44.0488 35.513 44.0098 35.5195C43.974 35.526 43.9268 35.5293 43.8682 35.5293C43.8128 35.5293 43.7656 35.526 43.7266 35.5195C43.6908 35.513 43.6615 35.5049 43.6387 35.4951C43.6159 35.4854 43.5996 35.4723 43.5898 35.4561C43.5833 35.4398 43.5801 35.4219 43.5801 35.4023V30.9834C43.5801 30.9639 43.5833 30.946 43.5898 30.9297C43.5996 30.9134 43.6159 30.9004 43.6387 30.8906C43.6615 30.8776 43.6891 30.8695 43.7217 30.8662C43.7575 30.8597 43.8031 30.8564 43.8584 30.8564C43.9137 30.8564 43.9593 30.8597 43.9951 30.8662C44.0309 30.8695 44.0586 30.8776 44.0781 30.8906C44.0977 30.9004 44.1107 30.9134 44.1172 30.9297C44.127 30.946 44.1318 30.9639 44.1318 30.9834V31.6084C44.3857 31.3252 44.6348 31.1201 44.8789 30.9932C45.123 30.8662 45.3656 30.8027 45.6064 30.8027C45.8962 30.8027 46.1403 30.8516 46.3389 30.9492C46.5374 31.0469 46.6969 31.1787 46.8174 31.3447C46.9411 31.5107 47.029 31.7044 47.0811 31.9258C47.1364 32.1471 47.1641 32.4141 47.1641 32.7266V35.4023ZM51.373 34.2256C51.373 34.4372 51.334 34.6276 51.2559 34.7969C51.1777 34.9629 51.0654 35.1045 50.9189 35.2217C50.7757 35.3389 50.6032 35.4284 50.4014 35.4902C50.1995 35.5521 49.9766 35.583 49.7324 35.583C49.5794 35.583 49.4346 35.57 49.2979 35.5439C49.1611 35.5212 49.0374 35.4919 48.9268 35.4561C48.8161 35.417 48.7217 35.3763 48.6436 35.334C48.5687 35.2917 48.5133 35.2542 48.4775 35.2217C48.4417 35.1891 48.4157 35.1484 48.3994 35.0996C48.3831 35.0508 48.375 34.9857 48.375 34.9043C48.375 34.862 48.3783 34.8245 48.3848 34.792C48.3913 34.7594 48.3994 34.7318 48.4092 34.709C48.4189 34.6862 48.432 34.6699 48.4482 34.6602C48.4645 34.6471 48.4824 34.6406 48.502 34.6406C48.5378 34.6406 48.5898 34.6634 48.6582 34.709C48.7266 34.7546 48.8112 34.805 48.9121 34.8604C49.0163 34.9124 49.1383 34.9613 49.2783 35.0068C49.4215 35.0524 49.5859 35.0752 49.7715 35.0752C49.9212 35.0752 50.0579 35.0589 50.1816 35.0264C50.3053 34.9938 50.4128 34.945 50.5039 34.8799C50.5951 34.8148 50.665 34.7318 50.7139 34.6309C50.766 34.5267 50.792 34.4062 50.792 34.2695C50.792 34.1328 50.7594 34.0173 50.6943 33.9229C50.6292 33.8285 50.543 33.7471 50.4355 33.6787C50.3314 33.6071 50.2109 33.5452 50.0742 33.4932C49.9408 33.4378 49.8024 33.3825 49.6592 33.3271C49.5192 33.2686 49.3809 33.2051 49.2441 33.1367C49.1107 33.0684 48.9902 32.9854 48.8828 32.8877C48.7786 32.79 48.694 32.6729 48.6289 32.5361C48.5638 32.3994 48.5312 32.235 48.5312 32.043C48.5312 31.89 48.5605 31.7402 48.6191 31.5938C48.6777 31.444 48.7673 31.3105 48.8877 31.1934C49.0114 31.0762 49.1676 30.9818 49.3564 30.9102C49.5485 30.8385 49.7747 30.8027 50.0352 30.8027C50.1458 30.8027 50.2549 30.8125 50.3623 30.832C50.473 30.8483 50.5723 30.8711 50.6602 30.9004C50.7513 30.9297 50.8294 30.9622 50.8945 30.998C50.9596 31.0306 51.0085 31.0599 51.041 31.0859C51.0768 31.112 51.0996 31.1348 51.1094 31.1543C51.1224 31.1706 51.1305 31.1885 51.1338 31.208C51.1403 31.2275 51.1452 31.252 51.1484 31.2812C51.1517 31.3073 51.1533 31.3398 51.1533 31.3789C51.1533 31.418 51.1501 31.4538 51.1436 31.4863C51.1403 31.5156 51.1338 31.5417 51.124 31.5645C51.1143 31.5872 51.1012 31.6051 51.085 31.6182C51.0719 31.6279 51.0557 31.6328 51.0361 31.6328C51.0101 31.6328 50.971 31.6149 50.9189 31.5791C50.8669 31.5433 50.7985 31.5042 50.7139 31.4619C50.6292 31.4196 50.5283 31.3805 50.4111 31.3447C50.2939 31.3089 50.1589 31.291 50.0059 31.291C49.8529 31.291 49.7178 31.3089 49.6006 31.3447C49.4867 31.3805 49.3923 31.431 49.3174 31.4961C49.2425 31.5612 49.1855 31.6377 49.1465 31.7256C49.1107 31.8135 49.0928 31.9095 49.0928 32.0137C49.0928 32.1569 49.1253 32.2773 49.1904 32.375C49.2555 32.4727 49.3418 32.5573 49.4492 32.6289C49.5566 32.7005 49.6787 32.764 49.8154 32.8193C49.9521 32.8747 50.0905 32.93 50.2305 32.9854C50.3737 33.0407 50.5137 33.1025 50.6504 33.1709C50.7871 33.236 50.9092 33.3158 51.0166 33.4102C51.124 33.5046 51.2103 33.6185 51.2754 33.752C51.3405 33.8822 51.373 34.04 51.373 34.2256Z" fill="#522700"/>
</svg>
