<svg width="52" height="38" viewBox="0 0 52 38" fill="none" xmlns="http://www.w3.org/2000/svg">
<path d="M25.9829 1.81403C18.9886 1.81403 13.3314 6.15193 13.3314 11.5152C13.3314 15.3798 16.28 18.6924 20.5314 20.2435L20.9429 14.3808C20.9429 14.3808 20.1886 14.1968 20.0171 14.1442C18.44 13.6184 17.3086 12.041 17.3086 9.99031C17.3086 7.78193 19.5371 5.86274 21.7314 5.83645C23.9257 5.86274 26.1543 7.78193 26.1543 9.99031C26.1543 12.041 25.0229 13.6184 23.4457 14.1442C23.4114 14.1442 22.52 14.4071 22.52 14.4071L22.9657 20.9271C23.9257 21.1111 24.9543 21.2163 25.9829 21.2163C27.3886 21.2163 28.76 21.0322 29.9943 20.6905L30.4057 14.8803C29.3771 14.7226 28.4857 14.1968 27.9371 13.5658C27.2514 12.8034 28.4514 5.83645 28.4514 5.83645H29.24V12.3564H30.0286V5.83645H30.8857V12.3564H31.6743V5.83645H32.5314V12.3564H33.32V5.83645H33.9371C33.9371 5.83645 35.1371 12.8034 34.4514 13.5921C33.9029 14.1968 33.0457 14.6963 32.0171 14.8803L31.9829 14.9066L32.3257 19.9018C36.0971 18.2192 38.6343 15.0906 38.6343 11.5152C38.6343 6.15193 32.9771 1.81403 25.9829 1.81403ZM19.16 9.01757C19.1943 8.85983 19.2629 8.72838 19.2629 8.72838C19.2629 8.6758 19.2286 8.62322 19.16 8.59693C19.0914 8.57064 19.0229 8.57064 18.9543 8.62322C18.9543 8.62322 18.8857 8.72838 18.7486 8.88612C18.6457 9.01757 18.5086 9.2279 18.4057 9.51709C18.3029 9.72741 18.2 10.0429 18.1657 10.411C18.1314 10.595 18.1314 10.7527 18.1314 10.9105C18.1657 11.1208 18.2 11.2785 18.2686 11.4626C18.5086 12.0147 18.7143 12.5405 19.4 13.04C19.6057 13.224 19.8457 13.3292 20.0171 13.4343L20.0514 13.4606C20.0857 13.4606 20.12 13.4869 20.1543 13.5132C20.2914 13.5658 20.3943 13.5921 20.3943 13.5921C20.4629 13.5921 20.5314 13.5658 20.5657 13.5395C20.6 13.4869 20.5657 13.4343 20.5314 13.3818C20.5314 13.3818 20.4286 13.3292 20.3257 13.2503C20.2571 13.1714 20.1886 13.0926 20.12 12.9874C20.0514 12.9348 19.9829 12.856 19.9143 12.7771C19.5714 12.3827 19.3657 11.8306 19.1257 11.2785C19.0571 11.1471 19.0229 10.9893 18.9886 10.8579C18.9886 10.7002 18.9543 10.5424 18.9543 10.411C18.9543 10.0955 18.9886 9.80628 19.0229 9.59596C19.0571 9.33306 19.0914 9.14902 19.16 9.01757ZM25.9829 0C17.72 0 11 5.17919 11 11.5152C11 17.8511 17.72 23.0303 25.9829 23.0303C34.2457 23.0303 41 17.8511 41 11.5152C41 5.17919 34.2457 0 25.9829 0ZM25.9829 22.1627C18.3371 22.1627 12.0971 17.3779 12.0971 11.5152C12.0971 5.65241 18.3371 0.86758 25.9829 0.86758C33.6286 0.86758 39.8686 5.65241 39.8686 11.5152C39.8686 17.3779 33.6286 22.1627 25.9829 22.1627Z" fill="#522700"/>
<path d="M9.00781 33.4039C9.00781 33.9085 8.94922 34.3658 8.83203 34.776C8.7181 35.1829 8.54557 35.5312 8.31445 35.8209C8.08333 36.1074 7.79199 36.3287 7.44043 36.485C7.08887 36.6412 6.67871 36.7194 6.20996 36.7194C5.74121 36.7194 5.33757 36.6461 4.99902 36.4996C4.66374 36.3499 4.38704 36.1383 4.16895 35.8649C3.9541 35.5882 3.7946 35.2513 3.69043 34.8541C3.58952 34.457 3.53906 34.0094 3.53906 33.5114C3.53906 33.0166 3.59603 32.5673 3.70996 32.1637C3.82389 31.7601 3.99642 31.4166 4.22754 31.1334C4.46191 30.847 4.75326 30.6256 5.10156 30.4694C5.45312 30.3131 5.86491 30.235 6.33691 30.235C6.7959 30.235 7.19303 30.3082 7.52832 30.4547C7.86361 30.6012 8.1403 30.8112 8.3584 31.0846C8.57975 31.358 8.74251 31.6901 8.84668 32.0807C8.9541 32.4713 9.00781 32.9124 9.00781 33.4039ZM8.37305 33.4576C8.37305 33.0833 8.33724 32.7334 8.26562 32.4078C8.19727 32.0791 8.08171 31.7942 7.91895 31.5533C7.75944 31.3092 7.54622 31.1188 7.2793 30.9821C7.01237 30.8421 6.68197 30.7721 6.28809 30.7721C5.89746 30.7721 5.56706 30.8453 5.29688 30.9918C5.02995 31.1351 4.81185 31.3287 4.64258 31.5729C4.47656 31.817 4.35612 32.1018 4.28125 32.4274C4.20964 32.7529 4.17383 33.0963 4.17383 33.4576C4.17383 33.8418 4.20638 34.1998 4.27148 34.5319C4.33984 34.8606 4.45378 35.1471 4.61328 35.3912C4.77279 35.6354 4.986 35.8274 5.25293 35.9674C5.51986 36.1041 5.85352 36.1725 6.25391 36.1725C6.65104 36.1725 6.9847 36.0992 7.25488 35.9528C7.52507 35.803 7.74316 35.6045 7.90918 35.3571C8.0752 35.1064 8.19401 34.8183 8.26562 34.4928C8.33724 34.164 8.37305 33.819 8.37305 33.4576ZM12.8115 32.3444C12.8115 32.3932 12.8099 32.4355 12.8066 32.4713C12.8034 32.5039 12.7969 32.5315 12.7871 32.5543C12.7806 32.5739 12.7708 32.5901 12.7578 32.6031C12.748 32.6129 12.7334 32.6178 12.7139 32.6178C12.6846 32.6178 12.6504 32.6113 12.6113 32.5983C12.5723 32.582 12.5267 32.5657 12.4746 32.5494C12.4225 32.5332 12.3656 32.5185 12.3037 32.5055C12.2419 32.4892 12.1735 32.4811 12.0986 32.4811C12.0107 32.4811 11.9245 32.5006 11.8398 32.5397C11.7552 32.5755 11.6657 32.6357 11.5713 32.7203C11.4801 32.8017 11.3825 32.9108 11.2783 33.0475C11.1774 33.1842 11.0651 33.3518 10.9414 33.5504V36.5387C10.9414 36.5582 10.9365 36.5761 10.9268 36.5924C10.917 36.6087 10.9007 36.6217 10.8779 36.6315C10.8584 36.6412 10.8291 36.6494 10.79 36.6559C10.7542 36.6624 10.707 36.6656 10.6484 36.6656C10.5931 36.6656 10.5459 36.6624 10.5068 36.6559C10.471 36.6494 10.4417 36.6412 10.4189 36.6315C10.3962 36.6217 10.3799 36.6087 10.3701 36.5924C10.3636 36.5761 10.3604 36.5582 10.3604 36.5387V32.1198C10.3604 32.1002 10.3636 32.0823 10.3701 32.066C10.3799 32.0498 10.3962 32.0367 10.4189 32.027C10.4417 32.014 10.4694 32.0058 10.502 32.0026C10.5378 31.9961 10.5833 31.9928 10.6387 31.9928C10.694 31.9928 10.7396 31.9961 10.7754 32.0026C10.8112 32.0058 10.8389 32.014 10.8584 32.027C10.8779 32.0367 10.891 32.0498 10.8975 32.066C10.9072 32.0823 10.9121 32.1002 10.9121 32.1198V32.818C11.0391 32.6324 11.1562 32.4827 11.2637 32.3688C11.3711 32.2548 11.4736 32.167 11.5713 32.1051C11.6689 32.04 11.7633 31.9961 11.8545 31.9733C11.9489 31.9505 12.0449 31.9391 12.1426 31.9391C12.1849 31.9391 12.2337 31.9423 12.2891 31.9489C12.3444 31.9521 12.403 31.9602 12.4648 31.9733C12.5299 31.9863 12.5869 32.0026 12.6357 32.0221C12.6878 32.0384 12.7236 32.0546 12.7432 32.0709C12.7627 32.0839 12.7757 32.097 12.7822 32.11C12.7887 32.1198 12.7936 32.1344 12.7969 32.1539C12.8034 32.1702 12.8066 32.1946 12.8066 32.2272C12.8099 32.2565 12.8115 32.2955 12.8115 32.3444ZM17.2256 36.5387C17.2256 36.5615 17.2207 36.581 17.2109 36.5973C17.2044 36.6136 17.1898 36.6266 17.167 36.6364C17.1475 36.6461 17.1214 36.6526 17.0889 36.6559C17.0563 36.6624 17.0156 36.6656 16.9668 36.6656C16.9147 36.6656 16.8708 36.6624 16.835 36.6559C16.8024 36.6526 16.7747 36.6461 16.752 36.6364C16.7324 36.6266 16.7161 36.6136 16.7031 36.5973C16.6934 36.581 16.6885 36.5615 16.6885 36.5387V35.9039C16.4541 36.1578 16.2116 36.358 15.9609 36.5045C15.7103 36.6477 15.4368 36.7194 15.1406 36.7194C14.8216 36.7194 14.5498 36.6575 14.3252 36.5338C14.1006 36.4101 13.9167 36.2425 13.7734 36.0309C13.6335 35.8193 13.5309 35.5719 13.4658 35.2887C13.4007 35.0022 13.3682 34.6995 13.3682 34.3805C13.3682 34.0061 13.4089 33.6692 13.4902 33.3698C13.5716 33.067 13.6921 32.8099 13.8516 32.5983C14.0111 32.3867 14.208 32.2239 14.4424 32.11C14.6768 31.9961 14.9486 31.9391 15.2578 31.9391C15.5247 31.9391 15.7689 31.9993 15.9902 32.1198C16.2116 32.2369 16.4297 32.4111 16.6445 32.6422V29.9811C16.6445 29.9615 16.6478 29.9436 16.6543 29.9274C16.6641 29.9111 16.6803 29.8981 16.7031 29.8883C16.7259 29.8785 16.7552 29.8704 16.791 29.8639C16.8301 29.8574 16.8773 29.8541 16.9326 29.8541C16.9912 29.8541 17.0384 29.8574 17.0742 29.8639C17.1133 29.8704 17.1426 29.8785 17.1621 29.8883C17.1849 29.8981 17.2012 29.9111 17.2109 29.9274C17.2207 29.9436 17.2256 29.9615 17.2256 29.9811V36.5387ZM16.6445 33.3502C16.4004 33.054 16.1644 32.8278 15.9365 32.6715C15.7119 32.5153 15.4759 32.4371 15.2285 32.4371C15.0039 32.4371 14.8118 32.4908 14.6523 32.5983C14.4928 32.7057 14.3626 32.8473 14.2617 33.0231C14.1608 33.1989 14.0876 33.3974 14.042 33.6188C13.9964 33.8401 13.9736 34.0647 13.9736 34.2926C13.9736 34.5367 13.9932 34.7744 14.0322 35.0055C14.0713 35.2366 14.138 35.4433 14.2324 35.6256C14.3268 35.8046 14.4521 35.9495 14.6084 36.0602C14.7646 36.1676 14.96 36.2213 15.1943 36.2213C15.3115 36.2213 15.4255 36.205 15.5361 36.1725C15.6468 36.1399 15.7607 36.0862 15.8779 36.0114C15.9951 35.9365 16.1156 35.8405 16.2393 35.7233C16.3662 35.6028 16.5013 35.4547 16.6445 35.2789V33.3502ZM22.46 34.1022C22.46 34.2194 22.429 34.3007 22.3672 34.3463C22.3053 34.3886 22.2451 34.4098 22.1865 34.4098H19.1738C19.1738 34.6832 19.1999 34.9306 19.252 35.152C19.3073 35.3733 19.3968 35.5638 19.5205 35.7233C19.6442 35.8795 19.8053 36 20.0039 36.0846C20.2025 36.1692 20.4466 36.2115 20.7363 36.2115C20.9414 36.2115 21.1253 36.1936 21.2881 36.1578C21.4508 36.122 21.5908 36.083 21.708 36.0406C21.8285 35.9951 21.9261 35.9544 22.001 35.9186C22.0791 35.8828 22.1344 35.8649 22.167 35.8649C22.1865 35.8649 22.2044 35.8698 22.2207 35.8795C22.237 35.8893 22.25 35.9056 22.2598 35.9283C22.2695 35.9479 22.276 35.9739 22.2793 36.0065C22.2858 36.039 22.2891 36.0797 22.2891 36.1285C22.2891 36.1513 22.2874 36.1741 22.2842 36.1969C22.2809 36.2164 22.276 36.236 22.2695 36.2555C22.2663 36.2718 22.2598 36.288 22.25 36.3043C22.2402 36.3206 22.2272 36.3369 22.2109 36.3531C22.1947 36.3694 22.1442 36.3987 22.0596 36.441C21.9749 36.4801 21.8643 36.5208 21.7275 36.5631C21.5908 36.6022 21.4313 36.638 21.249 36.6705C21.07 36.7031 20.8763 36.7194 20.668 36.7194C20.3262 36.7194 20.0234 36.6689 19.7598 36.568C19.4961 36.4638 19.2747 36.3125 19.0957 36.1139C18.9167 35.9121 18.7799 35.663 18.6855 35.3668C18.5944 35.0706 18.5488 34.7272 18.5488 34.3365C18.5488 33.9622 18.596 33.6269 18.6904 33.3307C18.7881 33.0345 18.9264 32.7838 19.1055 32.5787C19.2845 32.3704 19.4993 32.2125 19.75 32.1051C20.0039 31.9944 20.2855 31.9391 20.5947 31.9391C20.9268 31.9391 21.21 31.9944 21.4443 32.1051C21.6787 32.2158 21.8708 32.3655 22.0205 32.5543C22.1735 32.7399 22.2842 32.9563 22.3525 33.2037C22.4242 33.4511 22.46 33.7115 22.46 33.985V34.1022ZM21.8594 33.9313C21.8691 33.4625 21.7617 33.0963 21.5371 32.8326C21.3125 32.569 20.9854 32.4371 20.5557 32.4371C20.3343 32.4371 20.139 32.4795 19.9697 32.5641C19.8037 32.6455 19.6621 32.7545 19.5449 32.8912C19.431 33.028 19.3431 33.1875 19.2812 33.3698C19.2194 33.5488 19.1836 33.736 19.1738 33.9313H21.8594ZM26.249 32.3444C26.249 32.3932 26.2474 32.4355 26.2441 32.4713C26.2409 32.5039 26.2344 32.5315 26.2246 32.5543C26.2181 32.5739 26.2083 32.5901 26.1953 32.6031C26.1855 32.6129 26.1709 32.6178 26.1514 32.6178C26.1221 32.6178 26.0879 32.6113 26.0488 32.5983C26.0098 32.582 25.9642 32.5657 25.9121 32.5494C25.86 32.5332 25.8031 32.5185 25.7412 32.5055C25.6794 32.4892 25.611 32.4811 25.5361 32.4811C25.4482 32.4811 25.362 32.5006 25.2773 32.5397C25.1927 32.5755 25.1032 32.6357 25.0088 32.7203C24.9176 32.8017 24.82 32.9108 24.7158 33.0475C24.6149 33.1842 24.5026 33.3518 24.3789 33.5504V36.5387C24.3789 36.5582 24.374 36.5761 24.3643 36.5924C24.3545 36.6087 24.3382 36.6217 24.3154 36.6315C24.2959 36.6412 24.2666 36.6494 24.2275 36.6559C24.1917 36.6624 24.1445 36.6656 24.0859 36.6656C24.0306 36.6656 23.9834 36.6624 23.9443 36.6559C23.9085 36.6494 23.8792 36.6412 23.8564 36.6315C23.8337 36.6217 23.8174 36.6087 23.8076 36.5924C23.8011 36.5761 23.7979 36.5582 23.7979 36.5387V32.1198C23.7979 32.1002 23.8011 32.0823 23.8076 32.066C23.8174 32.0498 23.8337 32.0367 23.8564 32.027C23.8792 32.014 23.9069 32.0058 23.9395 32.0026C23.9753 31.9961 24.0208 31.9928 24.0762 31.9928C24.1315 31.9928 24.1771 31.9961 24.2129 32.0026C24.2487 32.0058 24.2764 32.014 24.2959 32.027C24.3154 32.0367 24.3285 32.0498 24.335 32.066C24.3447 32.0823 24.3496 32.1002 24.3496 32.1198V32.818C24.4766 32.6324 24.5938 32.4827 24.7012 32.3688C24.8086 32.2548 24.9111 32.167 25.0088 32.1051C25.1064 32.04 25.2008 31.9961 25.292 31.9733C25.3864 31.9505 25.4824 31.9391 25.5801 31.9391C25.6224 31.9391 25.6712 31.9423 25.7266 31.9489C25.7819 31.9521 25.8405 31.9602 25.9023 31.9733C25.9674 31.9863 26.0244 32.0026 26.0732 32.0221C26.1253 32.0384 26.1611 32.0546 26.1807 32.0709C26.2002 32.0839 26.2132 32.097 26.2197 32.11C26.2262 32.1198 26.2311 32.1344 26.2344 32.1539C26.2409 32.1702 26.2441 32.1946 26.2441 32.2272C26.2474 32.2565 26.249 32.2955 26.249 32.3444ZM36.2197 36.5387C36.2197 36.5582 36.2148 36.5761 36.2051 36.5924C36.1953 36.6087 36.1774 36.6217 36.1514 36.6315C36.1286 36.6412 36.0977 36.6494 36.0586 36.6559C36.0228 36.6624 35.9756 36.6656 35.917 36.6656C35.8649 36.6656 35.8193 36.6624 35.7803 36.6559C35.7412 36.6494 35.7103 36.6412 35.6875 36.6315C35.6647 36.6217 35.6484 36.6087 35.6387 36.5924C35.6289 36.5761 35.624 36.5582 35.624 36.5387V30.8405H35.6143L33.1289 36.5729C33.1224 36.5859 33.1126 36.5989 33.0996 36.6119C33.0866 36.6217 33.0687 36.6298 33.0459 36.6364C33.0231 36.6461 32.9954 36.6526 32.9629 36.6559C32.9336 36.6624 32.8978 36.6656 32.8555 36.6656C32.8099 36.6656 32.7708 36.6624 32.7383 36.6559C32.7057 36.6526 32.6781 36.6461 32.6553 36.6364C32.6357 36.6298 32.6195 36.6217 32.6064 36.6119C32.5934 36.5989 32.5853 36.5859 32.582 36.5729L30.2188 30.8405H30.2139V36.5387C30.2139 36.5582 30.209 36.5761 30.1992 36.5924C30.1895 36.6087 30.1715 36.6217 30.1455 36.6315C30.1227 36.6412 30.0918 36.6494 30.0527 36.6559C30.0169 36.6624 29.9681 36.6656 29.9062 36.6656C29.8509 36.6656 29.8037 36.6624 29.7646 36.6559C29.7288 36.6494 29.6995 36.6412 29.6768 36.6315C29.654 36.6217 29.6377 36.6087 29.6279 36.5924C29.6214 36.5761 29.6182 36.5582 29.6182 36.5387V30.6256C29.6182 30.5084 29.6491 30.4287 29.7109 30.3864C29.7728 30.3408 29.833 30.318 29.8916 30.318H30.2139C30.2952 30.318 30.3669 30.3278 30.4287 30.3473C30.4906 30.3636 30.5443 30.3896 30.5898 30.4254C30.6387 30.458 30.6794 30.4987 30.7119 30.5475C30.7445 30.5963 30.7738 30.6517 30.7998 30.7135L32.8848 35.733H32.9092L35.082 30.733C35.1146 30.6549 35.1488 30.5898 35.1846 30.5377C35.2236 30.4824 35.2627 30.4384 35.3018 30.4059C35.3441 30.3733 35.388 30.3505 35.4336 30.3375C35.4824 30.3245 35.5345 30.318 35.5898 30.318H35.9463C35.9756 30.318 36.0065 30.3229 36.0391 30.3326C36.0716 30.3424 36.1009 30.3603 36.127 30.3864C36.153 30.4091 36.1742 30.4401 36.1904 30.4791C36.21 30.5182 36.2197 30.567 36.2197 30.6256V36.5387ZM41.5615 34.1022C41.5615 34.2194 41.5306 34.3007 41.4688 34.3463C41.4069 34.3886 41.3467 34.4098 41.2881 34.4098H38.2754C38.2754 34.6832 38.3014 34.9306 38.3535 35.152C38.4089 35.3733 38.4984 35.5638 38.6221 35.7233C38.7458 35.8795 38.9069 36 39.1055 36.0846C39.304 36.1692 39.5482 36.2115 39.8379 36.2115C40.043 36.2115 40.2269 36.1936 40.3896 36.1578C40.5524 36.122 40.6924 36.083 40.8096 36.0406C40.93 35.9951 41.0277 35.9544 41.1025 35.9186C41.1807 35.8828 41.236 35.8649 41.2686 35.8649C41.2881 35.8649 41.306 35.8698 41.3223 35.8795C41.3385 35.8893 41.3516 35.9056 41.3613 35.9283C41.3711 35.9479 41.3776 35.9739 41.3809 36.0065C41.3874 36.039 41.3906 36.0797 41.3906 36.1285C41.3906 36.1513 41.389 36.1741 41.3857 36.1969C41.3825 36.2164 41.3776 36.236 41.3711 36.2555C41.3678 36.2718 41.3613 36.288 41.3516 36.3043C41.3418 36.3206 41.3288 36.3369 41.3125 36.3531C41.2962 36.3694 41.2458 36.3987 41.1611 36.441C41.0765 36.4801 40.9658 36.5208 40.8291 36.5631C40.6924 36.6022 40.5329 36.638 40.3506 36.6705C40.1715 36.7031 39.9779 36.7194 39.7695 36.7194C39.4277 36.7194 39.125 36.6689 38.8613 36.568C38.5977 36.4638 38.3763 36.3125 38.1973 36.1139C38.0182 35.9121 37.8815 35.663 37.7871 35.3668C37.696 35.0706 37.6504 34.7272 37.6504 34.3365C37.6504 33.9622 37.6976 33.6269 37.792 33.3307C37.8896 33.0345 38.028 32.7838 38.207 32.5787C38.3861 32.3704 38.6009 32.2125 38.8516 32.1051C39.1055 31.9944 39.387 31.9391 39.6963 31.9391C40.0283 31.9391 40.3115 31.9944 40.5459 32.1051C40.7803 32.2158 40.9723 32.3655 41.1221 32.5543C41.2751 32.7399 41.3857 32.9563 41.4541 33.2037C41.5257 33.4511 41.5615 33.7115 41.5615 33.985V34.1022ZM40.9609 33.9313C40.9707 33.4625 40.8633 33.0963 40.6387 32.8326C40.4141 32.569 40.0869 32.4371 39.6572 32.4371C39.4359 32.4371 39.2406 32.4795 39.0713 32.5641C38.9053 32.6455 38.7637 32.7545 38.6465 32.8912C38.5326 33.028 38.4447 33.1875 38.3828 33.3698C38.321 33.5488 38.2852 33.736 38.2754 33.9313H40.9609ZM45.9951 36.5387C45.9951 36.5712 45.9837 36.5973 45.9609 36.6168C45.9414 36.6331 45.9137 36.6445 45.8779 36.651C45.8454 36.6608 45.7998 36.6656 45.7412 36.6656C45.6859 36.6656 45.6387 36.6608 45.5996 36.651C45.5605 36.6445 45.5296 36.6331 45.5068 36.6168C45.4873 36.5973 45.4775 36.5712 45.4775 36.5387V36.0455C45.279 36.2604 45.0592 36.4264 44.8184 36.5436C44.5807 36.6608 44.3333 36.7194 44.0762 36.7194C43.8451 36.7194 43.6367 36.6901 43.4512 36.6315C43.2689 36.5696 43.1143 36.4834 42.9873 36.3727C42.8604 36.2587 42.7627 36.122 42.6943 35.9625C42.626 35.803 42.5918 35.624 42.5918 35.4254C42.5918 35.1813 42.6423 34.9697 42.7432 34.7906C42.8441 34.6084 42.9873 34.457 43.1729 34.3365C43.3584 34.2161 43.5814 34.1266 43.8418 34.068C44.1022 34.0061 44.3919 33.9752 44.7109 33.9752H45.4141V33.5944C45.4141 33.4056 45.3945 33.2395 45.3555 33.0963C45.3164 32.9498 45.2529 32.8278 45.165 32.7301C45.0771 32.6324 44.9632 32.5592 44.8232 32.5104C44.6833 32.4615 44.5124 32.4371 44.3105 32.4371C44.1152 32.4371 43.9395 32.4615 43.7832 32.5104C43.627 32.5559 43.4902 32.608 43.373 32.6666C43.2559 32.7252 43.1582 32.7789 43.0801 32.8278C43.0052 32.8733 42.9515 32.8961 42.9189 32.8961C42.8994 32.8961 42.8815 32.8929 42.8652 32.8864C42.849 32.8798 42.8343 32.8684 42.8213 32.8522C42.8115 32.8326 42.8034 32.8099 42.7969 32.7838C42.7936 32.7545 42.792 32.7203 42.792 32.6813C42.792 32.6129 42.7969 32.5592 42.8066 32.5201C42.8164 32.4778 42.8408 32.4371 42.8799 32.3981C42.9222 32.3558 42.9954 32.3069 43.0996 32.2516C43.2038 32.1962 43.3226 32.1458 43.4561 32.1002C43.5928 32.0514 43.7393 32.0123 43.8955 31.983C44.0518 31.9537 44.208 31.9391 44.3643 31.9391C44.667 31.9391 44.9225 31.9765 45.1309 32.0514C45.3392 32.123 45.5068 32.2272 45.6338 32.3639C45.764 32.5006 45.8568 32.6699 45.9121 32.8717C45.9674 33.0703 45.9951 33.2965 45.9951 33.5504V36.5387ZM45.4141 34.4537H44.6084C44.374 34.4537 44.1689 34.4749 43.9932 34.5172C43.8174 34.5595 43.6709 34.6214 43.5537 34.7028C43.4365 34.7841 43.3486 34.8818 43.29 34.9957C43.2347 35.1097 43.207 35.2399 43.207 35.3864C43.207 35.6403 43.2868 35.8437 43.4463 35.9967C43.609 36.1464 43.8369 36.2213 44.1299 36.2213C44.361 36.2213 44.5758 36.1627 44.7744 36.0455C44.9762 35.9251 45.1895 35.7412 45.4141 35.4938V34.4537ZM48.1875 36.5387C48.1875 36.5582 48.1826 36.5761 48.1729 36.5924C48.1631 36.6087 48.1468 36.6217 48.124 36.6315C48.1045 36.6412 48.0752 36.6494 48.0361 36.6559C48.0003 36.6624 47.9531 36.6656 47.8945 36.6656C47.8392 36.6656 47.792 36.6624 47.7529 36.6559C47.7171 36.6494 47.6878 36.6412 47.665 36.6315C47.6423 36.6217 47.626 36.6087 47.6162 36.5924C47.6097 36.5761 47.6064 36.5582 47.6064 36.5387V29.9567C47.6064 29.9371 47.6097 29.9192 47.6162 29.903C47.626 29.8867 47.6423 29.8737 47.665 29.8639C47.6878 29.8509 47.7171 29.8427 47.7529 29.8395C47.792 29.833 47.8392 29.8297 47.8945 29.8297C47.9531 29.8297 48.0003 29.833 48.0361 29.8395C48.0752 29.8427 48.1045 29.8509 48.124 29.8639C48.1468 29.8737 48.1631 29.8867 48.1729 29.903C48.1826 29.9192 48.1875 29.9371 48.1875 29.9567V36.5387Z" fill="#522700"/>
</svg>
