<svg width="34" height="39" viewBox="0 0 34 39" fill="none" xmlns="http://www.w3.org/2000/svg">
<path d="M18.0001 11.4973H3C3 17.2042 12.403 22.1111 12.403 22.1111H18.0001" stroke="#522700" stroke-width="0.846215" stroke-linecap="round" stroke-linejoin="round"/>
<path d="M7.36523 12.8011C7.36523 17.0074 13.55 20.111 13.55 20.111" stroke="#522700" stroke-width="0.846215" stroke-linecap="round" stroke-linejoin="round"/>
<path d="M18 11.4973H33.0001C33.0001 17.2042 23.5971 22.1111 23.5971 22.1111H18" stroke="#522700" stroke-width="0.846215" stroke-linecap="round" stroke-linejoin="round"/>
<path d="M9.96854 11.4974C8.8771 8.37677 16.1746 6.23151 22.7231 5.56896L23.363 4.66843L25.9446 7.06498L24.5279 7.24129C23.8353 8.98062 20.3646 11.4974 20.3646 11.4974" stroke="#522700" stroke-width="0.846215" stroke-linecap="round" stroke-linejoin="round"/>
<path d="M11.1152 11.4973C11.349 9.89057 13.7883 8.08282 23.0929 5.91223" stroke="#522700" stroke-width="0.846215" stroke-linecap="round" stroke-linejoin="round"/>
<path d="M23.3331 6.13516C19.8139 7.48169 15.7114 9.02868 12.8359 11.4974" stroke="#522700" stroke-width="0.846215" stroke-linecap="round" stroke-linejoin="round"/>
<path d="M24.0205 6.77145C20.3643 10.565 18 11.4974 18 11.4974" stroke="#522700" stroke-width="0.846215" stroke-linecap="round" stroke-linejoin="round"/>
<path d="M15.9766 11.4973C18.1817 10.5129 23.671 6.44772 23.671 6.44772" stroke="#522700" stroke-width="0.846215" stroke-linecap="round" stroke-linejoin="round"/>
<path d="M25.3605 6.53391L31.9697 2.44324C32.4261 2.16079 32.4962 1.64934 32.1264 1.30088C31.7566 0.952357 31.0869 0.89879 30.6307 1.18124L24.0215 5.27191" stroke="#522700" stroke-width="0.846215" stroke-linecap="round" stroke-linejoin="round"/>
<path d="M22.7227 5.56897L24.5274 7.24129" stroke="#522700" stroke-width="0.846215" stroke-linecap="round" stroke-linejoin="round"/>
<path d="M5.10938 35.2259C5.10938 35.2487 5.10449 35.2682 5.09473 35.2845C5.08822 35.3008 5.07357 35.3154 5.05078 35.3285C5.02799 35.3382 4.99544 35.3464 4.95312 35.3529C4.91406 35.3594 4.86361 35.3626 4.80176 35.3626C4.74642 35.3626 4.69922 35.3594 4.66016 35.3529C4.62435 35.3496 4.59342 35.3415 4.56738 35.3285C4.54134 35.3122 4.52018 35.2927 4.50391 35.2699C4.48763 35.2438 4.47298 35.2113 4.45996 35.1722L3.86914 33.639C3.80078 33.4665 3.72754 33.3037 3.64941 33.1507C3.57129 32.9977 3.47689 32.8659 3.36621 32.7552C3.25553 32.6413 3.12207 32.5518 2.96582 32.4867C2.80957 32.4216 2.6224 32.389 2.4043 32.389H1.75V35.2357C1.75 35.2552 1.74512 35.2731 1.73535 35.2894C1.72559 35.3057 1.70931 35.3187 1.68652 35.3285C1.66374 35.3382 1.63281 35.3464 1.59375 35.3529C1.55794 35.3594 1.51074 35.3626 1.45215 35.3626C1.39681 35.3626 1.34961 35.3594 1.31055 35.3529C1.27148 35.3464 1.24056 35.3382 1.21777 35.3285C1.19499 35.3187 1.17871 35.3057 1.16895 35.2894C1.15918 35.2731 1.1543 35.2552 1.1543 35.2357V29.3226C1.1543 29.2054 1.18522 29.1257 1.24707 29.0833C1.30892 29.0378 1.36914 29.015 1.42773 29.015H2.61426C2.77051 29.015 2.89909 29.0199 3 29.0296C3.10417 29.0361 3.19857 29.0459 3.2832 29.0589C3.52409 29.1012 3.73405 29.1696 3.91309 29.264C4.09212 29.3584 4.24023 29.4756 4.35742 29.6156C4.47461 29.7523 4.56087 29.9085 4.61621 30.0843C4.6748 30.2568 4.7041 30.444 4.7041 30.6458C4.7041 30.8542 4.6748 31.0414 4.61621 31.2074C4.55762 31.3701 4.47461 31.515 4.36719 31.6419C4.25977 31.7656 4.13118 31.8731 3.98145 31.9642C3.83171 32.0553 3.66732 32.1318 3.48828 32.1937C3.5957 32.2425 3.69173 32.3027 3.77637 32.3744C3.86426 32.446 3.94401 32.5322 4.01562 32.6331C4.09049 32.7341 4.16048 32.8512 4.22559 32.9847C4.29069 33.1149 4.35579 33.2614 4.4209 33.4242L5.01172 34.8988C5.05404 35.0127 5.08008 35.0908 5.08984 35.1331C5.10286 35.1755 5.10938 35.2064 5.10938 35.2259ZM4.05957 30.7093C4.05957 30.4391 3.99935 30.2113 3.87891 30.0257C3.75846 29.8369 3.55664 29.7018 3.27344 29.6205C3.17904 29.5944 3.0765 29.5765 2.96582 29.5667C2.85514 29.5537 2.71029 29.5472 2.53125 29.5472H1.75V31.8665H2.6582C2.90234 31.8665 3.1123 31.8372 3.28809 31.7787C3.46387 31.7168 3.60872 31.6338 3.72266 31.5296C3.83984 31.4255 3.92448 31.3034 3.97656 31.1634C4.0319 31.0234 4.05957 30.8721 4.05957 30.7093ZM9.77734 32.7992C9.77734 32.9164 9.74642 32.9977 9.68457 33.0433C9.62272 33.0856 9.5625 33.1068 9.50391 33.1068H6.49121C6.49121 33.3802 6.51725 33.6276 6.56934 33.849C6.62467 34.0703 6.71419 34.2608 6.83789 34.4203C6.96159 34.5765 7.12272 34.697 7.32129 34.7816C7.51986 34.8662 7.764 34.9085 8.05371 34.9085C8.25879 34.9085 8.44271 34.8906 8.60547 34.8548C8.76823 34.819 8.9082 34.78 9.02539 34.7376C9.14583 34.6921 9.24349 34.6514 9.31836 34.6156C9.39648 34.5798 9.45182 34.5619 9.48438 34.5619C9.50391 34.5619 9.52181 34.5667 9.53809 34.5765C9.55436 34.5863 9.56738 34.6025 9.57715 34.6253C9.58691 34.6449 9.59342 34.6709 9.59668 34.7035C9.60319 34.736 9.60645 34.7767 9.60645 34.8255C9.60645 34.8483 9.60482 34.8711 9.60156 34.8939C9.59831 34.9134 9.59342 34.933 9.58691 34.9525C9.58366 34.9688 9.57715 34.985 9.56738 35.0013C9.55762 35.0176 9.5446 35.0339 9.52832 35.0501C9.51204 35.0664 9.46159 35.0957 9.37695 35.138C9.29232 35.1771 9.18164 35.2178 9.04492 35.2601C8.9082 35.2992 8.7487 35.335 8.56641 35.3675C8.38737 35.4001 8.19368 35.4164 7.98535 35.4164C7.64355 35.4164 7.34082 35.3659 7.07715 35.265C6.81348 35.1608 6.59212 35.0095 6.41309 34.8109C6.23405 34.6091 6.09733 34.36 6.00293 34.0638C5.91178 33.7676 5.86621 33.4242 5.86621 33.0335C5.86621 32.6592 5.91341 32.3239 6.00781 32.0277C6.10547 31.7315 6.24382 31.4808 6.42285 31.2757C6.60189 31.0674 6.81673 30.9095 7.06738 30.8021C7.32129 30.6914 7.60286 30.6361 7.91211 30.6361C8.24414 30.6361 8.52734 30.6914 8.76172 30.8021C8.99609 30.9128 9.18815 31.0625 9.33789 31.2513C9.49089 31.4369 9.60156 31.6533 9.66992 31.9007C9.74154 32.1481 9.77734 32.4085 9.77734 32.682V32.7992ZM9.17676 32.6283C9.18652 32.1595 9.0791 31.7933 8.85449 31.5296C8.62988 31.266 8.30273 31.1341 7.87305 31.1341C7.65169 31.1341 7.45638 31.1764 7.28711 31.2611C7.12109 31.3425 6.97949 31.4515 6.8623 31.5882C6.74837 31.7249 6.66048 31.8845 6.59863 32.0667C6.53678 32.2458 6.50098 32.433 6.49121 32.6283H9.17676ZM14.2012 34.5814C14.2012 34.6205 14.1995 34.6563 14.1963 34.6888C14.193 34.7181 14.1882 34.7442 14.1816 34.7669C14.1751 34.7897 14.1654 34.8109 14.1523 34.8304C14.1426 34.8467 14.1165 34.876 14.0742 34.9183C14.0319 34.9606 13.9603 35.0143 13.8594 35.0794C13.7617 35.1445 13.651 35.2015 13.5273 35.2503C13.4036 35.2992 13.2702 35.3382 13.127 35.3675C12.9837 35.4001 12.8356 35.4164 12.6826 35.4164C12.3766 35.4164 12.1048 35.3659 11.8672 35.265C11.6328 35.1608 11.4359 35.0095 11.2764 34.8109C11.1169 34.6091 10.9948 34.3633 10.9102 34.0736C10.8288 33.7806 10.7881 33.4437 10.7881 33.0628C10.7881 32.6331 10.8385 32.2653 10.9395 31.9593C11.0436 31.6533 11.1852 31.4027 11.3643 31.2074C11.5433 31.0121 11.7516 30.8688 11.9893 30.7777C12.2301 30.6833 12.4873 30.6361 12.7607 30.6361C12.9072 30.6361 13.0472 30.6507 13.1807 30.68C13.3141 30.7061 13.4362 30.7419 13.5469 30.7874C13.6608 30.833 13.7617 30.8851 13.8496 30.9437C13.9375 31.0023 14.001 31.0527 14.04 31.0951C14.0824 31.1341 14.11 31.165 14.123 31.1878C14.1393 31.2074 14.1507 31.2302 14.1572 31.2562C14.167 31.2822 14.1735 31.3115 14.1768 31.3441C14.18 31.3734 14.1816 31.4092 14.1816 31.4515C14.1816 31.5459 14.167 31.6126 14.1377 31.6517C14.1117 31.6875 14.0824 31.7054 14.0498 31.7054C14.0042 31.7054 13.9473 31.6761 13.8789 31.6175C13.8138 31.5589 13.7292 31.4955 13.625 31.4271C13.5208 31.3555 13.3939 31.2904 13.2441 31.2318C13.0977 31.1732 12.9219 31.1439 12.7168 31.1439C12.2936 31.1439 11.9665 31.3067 11.7354 31.6322C11.5075 31.9577 11.3936 32.4281 11.3936 33.0433C11.3936 33.3525 11.4245 33.6244 11.4863 33.8587C11.5482 34.0899 11.6361 34.2835 11.75 34.4398C11.8672 34.5928 12.0088 34.7083 12.1748 34.7865C12.3408 34.8613 12.528 34.8988 12.7363 34.8988C12.9316 34.8988 13.1042 34.8678 13.2539 34.806C13.4036 34.7442 13.5339 34.6758 13.6445 34.6009C13.7552 34.5261 13.8464 34.4577 13.918 34.3958C13.9928 34.334 14.0482 34.3031 14.084 34.3031C14.1035 34.3031 14.1198 34.3096 14.1328 34.3226C14.1491 34.3324 14.1621 34.3503 14.1719 34.3763C14.1816 34.3991 14.1882 34.4284 14.1914 34.4642C14.1979 34.4968 14.2012 34.5358 14.2012 34.5814ZM15.9541 35.2357C15.9541 35.2552 15.9492 35.2731 15.9395 35.2894C15.9297 35.3057 15.9134 35.3187 15.8906 35.3285C15.8711 35.3382 15.8418 35.3464 15.8027 35.3529C15.7669 35.3594 15.7197 35.3626 15.6611 35.3626C15.6058 35.3626 15.5586 35.3594 15.5195 35.3529C15.4837 35.3464 15.4544 35.3382 15.4316 35.3285C15.4089 35.3187 15.3926 35.3057 15.3828 35.2894C15.3763 35.2731 15.373 35.2552 15.373 35.2357V30.8167C15.373 30.7972 15.3763 30.7793 15.3828 30.763C15.3926 30.7468 15.4089 30.7337 15.4316 30.724C15.4544 30.7109 15.4837 30.7028 15.5195 30.6996C15.5586 30.693 15.6058 30.6898 15.6611 30.6898C15.7197 30.6898 15.7669 30.693 15.8027 30.6996C15.8418 30.7028 15.8711 30.7109 15.8906 30.724C15.9134 30.7337 15.9297 30.7468 15.9395 30.763C15.9492 30.7793 15.9541 30.7972 15.9541 30.8167V35.2357ZM16.042 29.3275C16.042 29.4837 16.0143 29.5895 15.959 29.6449C15.9036 29.7002 15.8027 29.7279 15.6562 29.7279C15.513 29.7279 15.4137 29.7018 15.3584 29.6497C15.3063 29.5944 15.2803 29.4886 15.2803 29.3324C15.2803 29.1761 15.3079 29.0703 15.3633 29.015C15.4186 28.9596 15.5195 28.932 15.666 28.932C15.8092 28.932 15.9069 28.9596 15.959 29.015C16.0143 29.0671 16.042 29.1712 16.042 29.3275ZM21.4375 32.9603C21.4375 33.3379 21.3952 33.6781 21.3105 33.9808C21.2292 34.2835 21.1071 34.5407 20.9443 34.7523C20.7848 34.9639 20.5863 35.1283 20.3486 35.2455C20.111 35.3594 19.8392 35.4164 19.5332 35.4164C19.403 35.4164 19.2809 35.4017 19.167 35.3724C19.0531 35.3464 18.9408 35.304 18.8301 35.2455C18.7227 35.1869 18.6136 35.1136 18.5029 35.0257C18.3955 34.9378 18.2816 34.832 18.1611 34.7083V36.9886C18.1611 37.0081 18.1562 37.0261 18.1465 37.0423C18.1367 37.0586 18.1204 37.0716 18.0977 37.0814C18.0781 37.0944 18.0488 37.1025 18.0098 37.1058C17.974 37.1123 17.9268 37.1156 17.8682 37.1156C17.8128 37.1156 17.7656 37.1123 17.7266 37.1058C17.6908 37.1025 17.6615 37.0944 17.6387 37.0814C17.6159 37.0716 17.5996 37.0586 17.5898 37.0423C17.5833 37.0261 17.5801 37.0081 17.5801 36.9886V30.8167C17.5801 30.794 17.5833 30.7744 17.5898 30.7581C17.5996 30.7419 17.6143 30.7289 17.6338 30.7191C17.6566 30.7093 17.6842 30.7028 17.7168 30.6996C17.7526 30.693 17.7949 30.6898 17.8438 30.6898C17.8926 30.6898 17.9333 30.693 17.9658 30.6996C17.9984 30.7028 18.026 30.7093 18.0488 30.7191C18.0716 30.7289 18.0879 30.7419 18.0977 30.7581C18.1074 30.7744 18.1123 30.794 18.1123 30.8167V31.4564C18.249 31.3164 18.3792 31.196 18.5029 31.0951C18.6266 30.9909 18.7503 30.9046 18.874 30.8363C18.9977 30.7679 19.1247 30.7175 19.2549 30.6849C19.3851 30.6524 19.5234 30.6361 19.6699 30.6361C19.9889 30.6361 20.2607 30.6979 20.4854 30.8216C20.71 30.9421 20.8923 31.1081 21.0322 31.3197C21.1755 31.5313 21.278 31.7787 21.3398 32.0619C21.4049 32.3418 21.4375 32.6413 21.4375 32.9603ZM20.8271 33.0531C20.8271 32.8057 20.8076 32.568 20.7686 32.3402C20.7295 32.1091 20.6628 31.904 20.5684 31.7249C20.4772 31.5459 20.3535 31.4027 20.1973 31.2953C20.0443 31.1878 19.8506 31.1341 19.6162 31.1341C19.499 31.1341 19.3835 31.1504 19.2695 31.183C19.1589 31.2155 19.0449 31.2692 18.9277 31.3441C18.8105 31.419 18.6885 31.5166 18.5615 31.6371C18.4346 31.7542 18.3011 31.9007 18.1611 32.0765V34.0003C18.4053 34.2966 18.638 34.5244 18.8594 34.6839C19.084 34.8402 19.3184 34.9183 19.5625 34.9183C19.7871 34.9183 19.9792 34.8646 20.1387 34.7572C20.3014 34.6465 20.4333 34.5033 20.5342 34.3275C20.6351 34.1484 20.7083 33.9483 20.7539 33.7269C20.8027 33.5023 20.8271 33.2777 20.8271 33.0531ZM26.3789 32.7992C26.3789 32.9164 26.348 32.9977 26.2861 33.0433C26.2243 33.0856 26.1641 33.1068 26.1055 33.1068H23.0928C23.0928 33.3802 23.1188 33.6276 23.1709 33.849C23.2262 34.0703 23.3158 34.2608 23.4395 34.4203C23.5632 34.5765 23.7243 34.697 23.9229 34.7816C24.1214 34.8662 24.3656 34.9085 24.6553 34.9085C24.8604 34.9085 25.0443 34.8906 25.207 34.8548C25.3698 34.819 25.5098 34.78 25.627 34.7376C25.7474 34.6921 25.8451 34.6514 25.9199 34.6156C25.998 34.5798 26.0534 34.5619 26.0859 34.5619C26.1055 34.5619 26.1234 34.5667 26.1396 34.5765C26.1559 34.5863 26.1689 34.6025 26.1787 34.6253C26.1885 34.6449 26.195 34.6709 26.1982 34.7035C26.2048 34.736 26.208 34.7767 26.208 34.8255C26.208 34.8483 26.2064 34.8711 26.2031 34.8939C26.1999 34.9134 26.195 34.933 26.1885 34.9525C26.1852 34.9688 26.1787 34.985 26.1689 35.0013C26.1592 35.0176 26.1462 35.0339 26.1299 35.0501C26.1136 35.0664 26.0632 35.0957 25.9785 35.138C25.8939 35.1771 25.7832 35.2178 25.6465 35.2601C25.5098 35.2992 25.3503 35.335 25.168 35.3675C24.9889 35.4001 24.7952 35.4164 24.5869 35.4164C24.2451 35.4164 23.9424 35.3659 23.6787 35.265C23.415 35.1608 23.1937 35.0095 23.0146 34.8109C22.8356 34.6091 22.6989 34.36 22.6045 34.0638C22.5133 33.7676 22.4678 33.4242 22.4678 33.0335C22.4678 32.6592 22.515 32.3239 22.6094 32.0277C22.707 31.7315 22.8454 31.4808 23.0244 31.2757C23.2035 31.0674 23.4183 30.9095 23.6689 30.8021C23.9229 30.6914 24.2044 30.6361 24.5137 30.6361C24.8457 30.6361 25.1289 30.6914 25.3633 30.8021C25.5977 30.9128 25.7897 31.0625 25.9395 31.2513C26.0924 31.4369 26.2031 31.6533 26.2715 31.9007C26.3431 32.1481 26.3789 32.4085 26.3789 32.682V32.7992ZM25.7783 32.6283C25.7881 32.1595 25.6807 31.7933 25.4561 31.5296C25.2314 31.266 24.9043 31.1341 24.4746 31.1341C24.2533 31.1341 24.0579 31.1764 23.8887 31.2611C23.7227 31.3425 23.5811 31.4515 23.4639 31.5882C23.3499 31.7249 23.262 31.8845 23.2002 32.0667C23.1383 32.2458 23.1025 32.433 23.0928 32.6283H25.7783ZM30.3145 34.0589C30.3145 34.2705 30.2754 34.4609 30.1973 34.6302C30.1191 34.7962 30.0068 34.9378 29.8604 35.055C29.7171 35.1722 29.5446 35.2617 29.3428 35.3236C29.141 35.3854 28.918 35.4164 28.6738 35.4164C28.5208 35.4164 28.376 35.4033 28.2393 35.3773C28.1025 35.3545 27.9788 35.3252 27.8682 35.2894C27.7575 35.2503 27.6631 35.2096 27.585 35.1673C27.5101 35.125 27.4548 35.0876 27.4189 35.055C27.3831 35.0225 27.3571 34.9818 27.3408 34.933C27.3245 34.8841 27.3164 34.819 27.3164 34.7376C27.3164 34.6953 27.3197 34.6579 27.3262 34.6253C27.3327 34.5928 27.3408 34.5651 27.3506 34.5423C27.3604 34.5195 27.3734 34.5033 27.3896 34.4935C27.4059 34.4805 27.4238 34.474 27.4434 34.474C27.4792 34.474 27.5312 34.4968 27.5996 34.5423C27.668 34.5879 27.7526 34.6384 27.8535 34.6937C27.9577 34.7458 28.0798 34.7946 28.2197 34.8402C28.363 34.8858 28.5273 34.9085 28.7129 34.9085C28.8626 34.9085 28.9993 34.8923 29.123 34.8597C29.2467 34.8272 29.3542 34.7783 29.4453 34.7132C29.5365 34.6481 29.6064 34.5651 29.6553 34.4642C29.7074 34.36 29.7334 34.2396 29.7334 34.1029C29.7334 33.9662 29.7008 33.8506 29.6357 33.7562C29.5706 33.6618 29.4844 33.5804 29.377 33.5121C29.2728 33.4404 29.1523 33.3786 29.0156 33.3265C28.8822 33.2712 28.7438 33.2158 28.6006 33.1605C28.4606 33.1019 28.3223 33.0384 28.1855 32.9701C28.0521 32.9017 27.9316 32.8187 27.8242 32.721C27.7201 32.6234 27.6354 32.5062 27.5703 32.3695C27.5052 32.2328 27.4727 32.0684 27.4727 31.8763C27.4727 31.7233 27.502 31.5736 27.5605 31.4271C27.6191 31.2774 27.7087 31.1439 27.8291 31.0267C27.9528 30.9095 28.109 30.8151 28.2979 30.7435C28.4899 30.6719 28.7161 30.6361 28.9766 30.6361C29.0872 30.6361 29.1963 30.6458 29.3037 30.6654C29.4144 30.6817 29.5137 30.7044 29.6016 30.7337C29.6927 30.763 29.7708 30.7956 29.8359 30.8314C29.901 30.8639 29.9499 30.8932 29.9824 30.9193C30.0182 30.9453 30.041 30.9681 30.0508 30.9876C30.0638 31.0039 30.0719 31.0218 30.0752 31.0414C30.0817 31.0609 30.0866 31.0853 30.0898 31.1146C30.0931 31.1406 30.0947 31.1732 30.0947 31.2122C30.0947 31.2513 30.0915 31.2871 30.085 31.3197C30.0817 31.349 30.0752 31.375 30.0654 31.3978C30.0557 31.4206 30.0426 31.4385 30.0264 31.4515C30.0133 31.4613 29.9971 31.4662 29.9775 31.4662C29.9515 31.4662 29.9124 31.4483 29.8604 31.4124C29.8083 31.3766 29.7399 31.3376 29.6553 31.2953C29.5706 31.2529 29.4697 31.2139 29.3525 31.1781C29.2354 31.1423 29.1003 31.1244 28.9473 31.1244C28.7943 31.1244 28.6592 31.1423 28.542 31.1781C28.4281 31.2139 28.3337 31.2643 28.2588 31.3294C28.1839 31.3945 28.127 31.471 28.0879 31.5589C28.0521 31.6468 28.0342 31.7428 28.0342 31.847C28.0342 31.9902 28.0667 32.1107 28.1318 32.2083C28.1969 32.306 28.2832 32.3906 28.3906 32.4622C28.498 32.5339 28.6201 32.5973 28.7568 32.6527C28.8936 32.708 29.0319 32.7634 29.1719 32.8187C29.3151 32.874 29.4551 32.9359 29.5918 33.0042C29.7285 33.0693 29.8506 33.1491 29.958 33.2435C30.0654 33.3379 30.1517 33.4518 30.2168 33.5853C30.2819 33.7155 30.3145 33.8734 30.3145 34.0589Z" fill="#522700"/>
</svg>
