<svg width="37" height="36" viewBox="0 0 37 36" fill="none" xmlns="http://www.w3.org/2000/svg">
<path d="M36.399 32.8846L25.5423 22.1452C27.2919 19.7672 28.2331 16.9013 28.2302 13.9604C28.2302 6.26279 21.898 0 14.1151 0C6.3322 0 0 6.26279 0 13.9604C0 21.658 6.3322 27.9208 14.1151 27.9208C17.0886 27.9236 19.9863 26.9927 22.3906 25.2623L33.2491 36L36.399 32.8846ZM14.1151 23.5116C12.2049 23.5118 10.3375 22.9517 8.74909 21.9022C7.16071 20.8526 5.92268 19.3608 5.19159 17.6154C4.46049 15.8699 4.26915 13.9492 4.64178 12.0962C5.01441 10.2432 5.93426 8.54109 7.285 7.20515C8.63575 5.86921 10.3567 4.95945 12.2303 4.5909C14.1038 4.22236 16.0458 4.4116 17.8106 5.13468C19.5754 5.85777 21.0837 7.08222 22.1449 8.65319C23.2061 10.2242 23.7724 12.0711 23.7722 13.9604C23.7692 16.4926 22.7508 18.9203 20.9404 20.7109C19.13 22.5014 16.6754 23.5087 14.1151 23.5116Z" fill="#522700"/>
</svg>
