<svg width="274" height="169" viewBox="0 0 274 169" fill="none" xmlns="http://www.w3.org/2000/svg">
<path d="M209.245 101.546C209.245 128.998 190.16 150.591 167.373 150.591C144.585 150.591 125.5 128.998 125.5 101.546C125.5 74.0938 144.585 52.5 167.373 52.5C190.16 52.5 209.245 74.0938 209.245 101.546Z" fill="white" stroke="#522700" stroke-width="5"/>
<g filter="url(#filter0_d_360_577)">
<ellipse cx="167.592" cy="101.755" rx="40.6382" ry="47.5646" fill="#F5F5F5"/>
<path d="M206.944 89.8348C207.416 91.9765 207.764 94.1766 207.978 96.4241C207.432 96.4711 207.025 96.9497 207.067 97.4973C207.175 98.8994 207.231 100.32 207.231 101.755C207.231 103.191 207.175 104.611 207.067 106.013C207.025 106.561 207.432 107.039 207.978 107.086C207.764 109.334 207.416 111.534 206.944 113.676C206.41 113.553 205.875 113.883 205.747 114.417C205.073 117.225 204.18 119.924 203.092 122.489C202.878 122.994 203.111 123.577 203.613 123.796C202.693 125.853 201.648 127.821 200.489 129.687C200.027 129.393 199.414 129.526 199.114 129.986C197.547 132.397 195.784 134.622 193.856 136.628C193.475 137.023 193.485 137.65 193.875 138.034C192.281 139.618 190.581 141.06 188.79 142.344C188.477 141.896 187.861 141.782 187.408 142.09C185.061 143.685 182.564 145.004 179.95 146.011C179.439 146.208 179.183 146.779 179.372 147.291C177.284 148.03 175.125 148.577 172.91 148.916C172.835 148.376 172.339 147.994 171.796 148.061C170.415 148.232 169.013 148.32 167.592 148.32C166.172 148.32 164.77 148.232 163.389 148.061C162.845 147.994 162.35 148.376 162.275 148.916C160.06 148.577 157.901 148.03 155.813 147.291C156.002 146.779 155.745 146.208 155.234 146.011C152.62 145.004 150.124 143.685 147.777 142.09C147.324 141.782 146.708 141.896 146.395 142.344C144.603 141.06 142.904 139.618 141.309 138.034C141.7 137.65 141.709 137.023 141.329 136.628C139.4 134.622 137.638 132.397 136.07 129.986C135.771 129.526 135.158 129.393 134.696 129.687C133.537 127.821 132.492 125.853 131.571 123.796C132.073 123.577 132.307 122.994 132.092 122.489C131.004 119.924 130.112 117.225 129.438 114.417C129.309 113.883 128.775 113.553 128.241 113.676C127.769 111.534 127.421 109.334 127.207 107.086C127.753 107.039 128.16 106.561 128.118 106.013C128.009 104.611 127.954 103.191 127.954 101.755C127.954 100.32 128.009 98.8994 128.118 97.4973C128.16 96.9497 127.753 96.4711 127.207 96.4241C127.421 94.1766 127.769 91.9765 128.241 89.8348C128.775 89.9578 129.309 89.6277 129.438 89.0937C130.112 86.2857 131.004 83.5861 132.092 81.0216C132.307 80.5162 132.073 79.9331 131.571 79.7144C132.492 77.6576 133.537 75.6894 134.696 73.8236C135.158 74.1173 135.771 73.9847 136.07 73.5246C137.638 71.1132 139.4 68.8885 141.329 66.8824C141.709 66.4871 141.7 65.86 141.309 65.4765C142.904 63.8928 144.603 62.4504 146.395 61.166C146.708 61.6142 147.324 61.7287 147.777 61.4206C150.124 59.8256 152.62 58.5066 155.234 57.4994C155.745 57.3025 156.002 56.7317 155.813 56.2196C157.901 55.4806 160.06 54.933 162.275 54.5942C162.35 55.1348 162.845 55.5168 163.389 55.4495C164.77 55.2784 166.172 55.1907 167.592 55.1907C169.013 55.1907 170.415 55.2784 171.796 55.4495C172.34 55.5168 172.835 55.1348 172.91 54.5942C175.125 54.933 177.284 55.4806 179.372 56.2196C179.183 56.7317 179.439 57.3025 179.95 57.4994C182.564 58.5066 185.061 59.8256 187.408 61.4206C187.861 61.7287 188.477 61.6142 188.79 61.166C190.581 62.4504 192.281 63.8928 193.875 65.4765C193.485 65.86 193.475 66.4871 193.856 66.8824C195.784 68.8885 197.547 71.1132 199.114 73.5246C199.414 73.9847 200.027 74.1173 200.489 73.8236C201.648 75.6894 202.693 77.6576 203.613 79.7144C203.111 79.9331 202.878 80.5162 203.092 81.0216C204.18 83.5861 205.073 86.2857 205.747 89.0937C205.875 89.6277 206.41 89.9579 206.944 89.8348Z" stroke="#EF9D21" stroke-width="2" stroke-linecap="round" stroke-dasharray="9 9"/>
</g>
<path d="M201.201 118.309L166.246 77.4963C166.246 77.4963 164.061 74.1027 158.444 73.7576C152.826 73.4124 142.127 75.876 144.399 75.0037C146.686 74.1257 148.389 73.3695 151.577 72.5113C154.046 71.8469 158.154 70.9536 159.38 70.9536C162.189 70.9536 164.373 70.9537 166.87 72.5113C169.367 74.069 196.207 103.666 196.207 103.666V85.908H201.201V118.309Z" fill="#522700" stroke="#522700"/>
<path d="M134.024 142.488L167.246 124.191C167.246 124.191 169.796 124.545 171.638 124.307C176.848 123.634 191.49 113.374 191.49 113.374L190.628 111.948L173.611 121.319C173.611 121.319 171.33 122.337 171.154 121.722C170.991 121.154 172.892 120.132 172.892 120.132L189.909 110.76L189.046 109.335L172.029 118.706C172.029 118.706 169.9 119.65 169.572 119.109C169.245 118.568 171.167 117.28 171.167 117.28L188.183 107.909L187.32 106.484L170.304 115.855C170.304 115.855 168.174 116.799 167.847 116.258C167.519 115.717 169.441 114.429 169.441 114.429L186.457 105.058L185.738 103.87C185.738 103.87 169.102 110.836 165.886 114.803C164.749 116.206 163.795 118.489 163.795 118.489L130.978 136.562C131.28 137.062 130.273 136.95 130.076 138.643C130.005 139.255 129.841 140.039 130.416 140.99L132.09 141.969L134.024 142.488Z" fill="#EF9D21" stroke="#EF9D21"/>
<path d="M160.584 94.382C160.584 85.0159 156.054 75.5405 150.465 75.5405C144.876 75.5405 140.346 85.0159 140.346 94.382C140.346 101.436 142.916 106.412 146.573 108.44V138.659C146.573 139.909 146.983 141.107 147.713 141.99C148.443 142.874 149.433 143.37 150.465 143.37C151.497 143.37 152.487 142.874 153.217 141.99C153.947 141.107 154.357 139.909 154.357 138.659V108.44C158.014 106.412 160.584 101.436 160.584 94.382Z" fill="#EF9D21"/>
<path d="M25.1484 13.2188V11.9297H37.6875V13.2188C36.6406 13.25 35.7188 13.4844 34.9219 13.9219C34.1406 14.3594 33.5234 15 33.0703 15.8438C32.6172 16.6719 32.3906 17.6719 32.3906 18.8438L32.8359 45.7266H31.3828L7.42969 17.7422L7.78125 36.5625C7.8125 37.7344 7.90625 38.7266 8.0625 39.5391C8.21875 40.3359 8.5 41.0312 8.90625 41.625C9.3125 42.2188 9.89062 42.6875 10.6406 43.0312C11.4062 43.375 12.3906 43.6016 13.5938 43.7109V45H1.14844V43.7109C2.77344 43.5859 3.97656 43.1484 4.75781 42.3984C5.55469 41.6484 6.04688 40.7188 6.23438 39.6094C6.42188 38.4844 6.48438 37.0781 6.42188 35.3906L6.09375 16.1953C5.20312 15.2266 4.33594 14.4922 3.49219 13.9922C2.64844 13.4766 1.77344 13.2188 0.867188 13.2188H0.585938V11.9297H10.2656L31.3828 36.5625L31.0547 20.0859C31.0547 18.8203 30.9219 17.75 30.6562 16.875C30.4062 15.9844 29.9766 15.2656 29.3672 14.7188C28.9297 14.2812 28.2969 13.9219 27.4688 13.6406C26.6562 13.3437 25.8828 13.2031 25.1484 13.2188ZM33.3516 13.2188H28.2188C29 13.4844 29.6328 13.8516 30.1172 14.3203C30.6172 14.7891 31.0391 15.4297 31.3828 16.2422C31.7422 14.8516 32.3984 13.8438 33.3516 13.2188ZM29.6719 40.0547L8.55469 15.4219C8.11719 14.8594 7.59375 14.3516 6.98438 13.8984C6.39062 13.4453 5.54688 13.2188 4.45312 13.2188H3.39844C4.27344 13.5312 4.95312 13.9141 5.4375 14.3672C5.92188 14.8047 6.60156 15.5469 7.47656 16.5938L31.5469 44.625C31.5312 44.1719 31.5078 43.7344 31.4766 43.3125C31.4609 42.875 31.4141 42.5547 31.3359 42.3516C31.2578 42.1328 31.1094 41.8672 30.8906 41.5547C30.6719 41.2422 30.2656 40.7422 29.6719 40.0547ZM4.03125 43.7109H8.97656C8.28906 43.1797 7.79688 42.6875 7.5 42.2344C7.21875 41.7812 6.97656 41.1484 6.77344 40.3359C6.57031 41.0703 6.25781 41.7109 5.83594 42.2578C5.41406 42.7891 4.8125 43.2734 4.03125 43.7109ZM58.0312 39.1875L58.9688 39.9141C58.2656 41.2266 57.4297 42.3047 56.4609 43.1484C55.4922 43.9922 54.4219 44.6172 53.25 45.0234C52.0938 45.4297 50.8828 45.6328 49.6172 45.6328C47.8984 45.6328 46.2969 45.2188 44.8125 44.3906C43.3438 43.5625 42.1797 42.3672 41.3203 40.8047C40.4609 39.2422 40.0312 37.4688 40.0312 35.4844C40.0312 33.9219 40.2891 32.4531 40.8047 31.0781C41.3359 29.7031 42.0625 28.4922 42.9844 27.4453C43.9219 26.3984 45 25.5859 46.2188 25.0078C47.4531 24.4141 48.7656 24.1172 50.1562 24.1172C51.5625 24.1172 52.8984 24.4141 54.1641 25.0078C55.4453 25.5859 56.4609 26.3906 57.2109 27.4219C57.7578 28.1719 58.1484 28.9453 58.3828 29.7422C58.6328 30.5234 58.8281 31.4688 58.9688 32.5781H44.8125C44.875 34.2031 45.1484 35.5781 45.6328 36.7031C46.1328 37.8281 46.7734 38.7344 47.5547 39.4219C48.3516 40.1094 49.1953 40.6016 50.0859 40.8984C50.9766 41.1953 51.8281 41.3438 52.6406 41.3438C54.6094 41.3438 56.4062 40.625 58.0312 39.1875ZM53.8828 31.0781H55.5234C55.4766 29.3281 55.1172 28.0391 54.4453 27.2109C53.7734 26.3672 52.6484 25.8047 51.0703 25.5234C52.0703 25.9766 52.7891 26.5703 53.2266 27.3047C53.6641 28.0234 53.8828 29.125 53.8828 30.6094V31.0781ZM44.9531 31.0781H53.1328V30.3047C53.1328 29.3984 52.9688 28.5938 52.6406 27.8906C52.3125 27.1719 51.8594 26.625 51.2812 26.25C50.7188 25.8594 50.0703 25.6641 49.3359 25.6641C48.1484 25.6641 47.1406 26.1953 46.3125 27.2578C45.4844 28.3047 45.0312 29.5781 44.9531 31.0781ZM45.1641 26.4609C42.2422 28.7734 40.7812 31.8047 40.7812 35.5547C40.7812 38.2734 41.6484 40.5 43.3828 42.2344C45.1328 43.9531 47.1484 44.8125 49.4297 44.8125C50.7578 44.8125 52.0859 44.5469 53.4141 44.0156C54.7578 43.4688 55.8906 42.6641 56.8125 41.6016C55.8594 42.2109 54.8828 42.7109 53.8828 43.1016C52.8984 43.4766 51.7188 43.6641 50.3438 43.6641C48.0156 43.6641 46.0703 42.8516 44.5078 41.2266C42.9609 39.6016 42.1875 37.4844 42.1875 34.875C42.1875 33.2188 42.4453 31.7344 42.9609 30.4219C43.4766 29.1094 44.2109 27.7891 45.1641 26.4609ZM61.4766 43.8516V37.7109H62.7422C63.9297 39.8203 65.1719 41.4141 66.4688 42.4922C67.7656 43.5547 69.0312 44.0859 70.2656 44.0859C71.0625 44.0859 71.7734 43.8281 72.3984 43.3125C73.0234 42.7969 73.3359 42.2109 73.3359 41.5547C73.3359 40.6953 73.1016 40.1016 72.6328 39.7734C70.8672 38.6016 69.1719 37.7031 67.5469 37.0781C63.25 35.4844 61.1016 33.2109 61.1016 30.2578C61.1016 28.5078 61.7734 27.0469 63.1172 25.875C64.4609 24.7031 66.2734 24.1172 68.5547 24.1172C69.7109 24.1172 70.7891 24.2422 71.7891 24.4922C72.7891 24.7266 73.8984 25.0703 75.1172 25.5234L75.3516 31.0781H74.2031C72.9375 29.2031 71.6797 27.7891 70.4297 26.8359C69.1953 25.8828 67.9766 25.4062 66.7734 25.4062C66.0234 25.4062 65.3984 25.6562 64.8984 26.1562C64.4141 26.6406 64.1719 27.1797 64.1719 27.7734C64.1719 28.5391 64.4766 29.1484 65.0859 29.6016C65.6953 30.0391 66.9766 30.6953 68.9297 31.5703C70.8828 32.4453 72.5938 33.2891 74.0625 34.1016C74.9844 34.5859 75.7188 35.2656 76.2656 36.1406C76.8125 37.0156 77.0859 37.9688 77.0859 39C77.0859 40.2031 76.7344 41.3125 76.0312 42.3281C75.3438 43.3438 74.3828 44.1484 73.1484 44.7422C71.9297 45.3359 70.5547 45.6328 69.0234 45.6328C66.8516 45.6328 64.3359 45.0391 61.4766 43.8516ZM62.3438 39.7734V42.7031C63.125 43.0469 64.4219 43.4609 66.2344 43.9453C65.2656 43.2734 64.5469 42.6719 64.0781 42.1406C63.6094 41.6094 63.0312 40.8203 62.3438 39.7734ZM73.8281 42.75C74.25 42.3594 74.5625 42.0078 74.7656 41.6953C74.9688 41.3672 75.0703 40.9297 75.0703 40.3828C75.0703 38.7109 73.8516 37.3828 71.4141 36.3984C69.2266 35.4922 67.5 34.6953 66.2344 34.0078C64.9688 33.3047 64.0547 32.5859 63.4922 31.8516C62.9297 31.1016 62.6484 30.1719 62.6484 29.0625C62.6484 28.3906 62.8359 27.6406 63.2109 26.8125C62.8047 27.3125 62.4766 27.8125 62.2266 28.3125C61.9922 28.7969 61.875 29.3984 61.875 30.1172C61.875 31.6016 62.4062 32.8047 63.4688 33.7266C64.5312 34.6484 66.1094 35.5859 68.2031 36.5391C70.2969 37.4766 71.8047 38.25 72.7266 38.8594C73.6484 39.4531 74.1094 40.2812 74.1094 41.3438C74.1094 41.7344 74.0156 42.2031 73.8281 42.75ZM73.6406 29.0156L73.4297 26.3203C72.3984 25.8984 71.5938 25.6094 71.0156 25.4531C70.4375 25.2969 69.5938 25.2188 68.4844 25.2188C69.6562 25.625 70.5859 26.1016 71.2734 26.6484C71.9766 27.1797 72.7656 27.9688 73.6406 29.0156ZM81.7031 39.3281V25.9922H79.1953V24.7969C80.5703 23.7656 81.6016 22.9766 82.2891 22.4297C82.9766 21.8672 83.625 21.2422 84.2344 20.5547C84.8594 19.8672 85.3906 19.1484 85.8281 18.3984H87.0703V24.5156H92.8828V25.9922H87.0703V40.0078C87.0703 41.0391 87.1953 41.8125 87.4453 42.3281C87.6953 42.8281 88.1172 43.0781 88.7109 43.0781C89.2734 43.0781 89.7891 42.9219 90.2578 42.6094C90.7422 42.2969 91.3281 41.8125 92.0156 41.1562L92.8828 42.0703C91.7109 43.2734 90.6328 44.1719 89.6484 44.7656C88.6797 45.3438 87.5625 45.6328 86.2969 45.6328C85.0938 45.6328 84.1562 45.3672 83.4844 44.8359C82.8125 44.3047 82.3438 43.5859 82.0781 42.6797C81.8281 41.7578 81.7031 40.6406 81.7031 39.3281ZM84 22.0078L82.4531 23.2969V38.8594C82.4531 40.9375 82.7188 42.4531 83.25 43.4062C83.7969 44.3438 84.7656 44.8125 86.1562 44.8125C86.8906 44.8125 87.625 44.6953 88.3594 44.4609C86.9375 44.5078 85.8516 44.1797 85.1016 43.4766C84.3672 42.7578 84 41.5703 84 39.9141V22.0078ZM96 32.4609H109.031V36.9844H96V32.4609ZM108.258 36.1641V34.6875H96.7734V36.1641H108.258ZM129.094 45H112.852V43.7109C114.367 43.6797 115.492 43.5625 116.227 43.3594C116.961 43.1406 117.461 42.7578 117.727 42.2109C118.008 41.6641 118.148 40.8047 118.148 39.6328V17.7422C118.148 16.4922 118.031 15.5625 117.797 14.9531C117.562 14.3438 117.078 13.9141 116.344 13.6641C115.625 13.4141 114.461 13.2656 112.852 13.2188V11.9297H131.344C133.672 11.9297 135.703 12.3359 137.438 13.1484C139.188 13.9453 140.5 15.0156 141.375 16.3594C142.266 17.6875 142.711 19.125 142.711 20.6719C142.711 21.6875 142.508 22.6797 142.102 23.6484C141.695 24.6016 141.109 25.4688 140.344 26.25C139.578 27.0312 138.648 27.7031 137.555 28.2656C136.477 28.8125 135.219 29.2031 133.781 29.4375C134.859 30.5156 136.188 32.0391 137.766 34.0078L140.086 36.75C140.211 36.8906 140.367 37.0703 140.555 37.2891C140.742 37.4922 140.984 37.7578 141.281 38.0859C142.031 38.9922 142.664 39.7422 143.18 40.3359C143.695 40.9141 144.203 41.4375 144.703 41.9062C145.219 42.375 145.719 42.7578 146.203 43.0547C146.688 43.3359 147.203 43.5547 147.75 43.7109V45H143.344C142.344 45 141.398 44.7812 140.508 44.3438C139.617 43.8906 138.758 43.2578 137.93 42.4453C137.117 41.6328 136.188 40.5625 135.141 39.2344L131.859 35.0625C130.344 33.0938 129.211 31.7344 128.461 30.9844C127.727 30.2188 127.086 29.8359 126.539 29.8359H123.938V39.7734C123.938 40.7578 124.062 41.5312 124.312 42.0938C124.562 42.6562 125.109 43.0625 125.953 43.3125C126.406 43.4375 126.961 43.5391 127.617 43.6172C128.273 43.6953 128.766 43.7266 129.094 43.7109V45ZM118.898 17.5547V40.6875C118.898 42.1562 118.359 43.1641 117.281 43.7109C119.328 43.6641 120.352 42.875 120.352 41.3438V17.6953C120.352 16.4922 120.281 15.5859 120.141 14.9766C120.016 14.3516 119.711 13.8906 119.227 13.5938C118.758 13.2969 118.031 13.1719 117.047 13.2188C117.859 13.5781 118.367 14.0547 118.57 14.6484C118.789 15.2266 118.898 16.1953 118.898 17.5547ZM123.938 17.9766V28.5469H127.734C129.016 28.5469 130.281 28.3438 131.531 27.9375C132.781 27.5156 133.727 26.9922 134.367 26.3672C135.648 25.1641 136.289 23.3281 136.289 20.8594C136.289 17.9375 135.297 15.7891 133.312 14.4141C132.609 13.9297 131.875 13.6094 131.109 13.4531C130.344 13.2969 129.367 13.2188 128.18 13.2188C126.977 13.2188 126.062 13.3828 125.438 13.7109C124.828 14.0234 124.422 14.5078 124.219 15.1641C124.031 15.8047 123.938 16.7422 123.938 17.9766ZM130.055 29.8359H128.133C128.695 30.2578 129.344 30.8906 130.078 31.7344C130.828 32.5781 131.766 33.7188 132.891 35.1562C134.016 36.5938 135.148 38.0547 136.289 39.5391C137.336 40.8672 138.305 41.8906 139.195 42.6094C140.086 43.3125 140.875 43.7656 141.562 43.9688C142.25 44.1719 142.984 44.2891 143.766 44.3203C142.797 43.8516 141.867 43.2109 140.977 42.3984C140.086 41.5703 139.125 40.5312 138.094 39.2812C137.078 38.0156 136.023 36.6875 134.93 35.2969C133.852 33.9062 132.734 32.5938 131.578 31.3594C131.422 31.1406 131.227 30.8984 130.992 30.6328C130.773 30.3516 130.461 30.0859 130.055 29.8359ZM132.117 28.4297C134.211 28.1641 135.82 27.3828 136.945 26.0859C138.07 24.7891 138.633 23.0312 138.633 20.8125C138.633 18.6562 138.133 16.9453 137.133 15.6797C136.133 14.3984 134.711 13.625 132.867 13.3594C134.273 14.0781 135.32 15.0469 136.008 16.2656C136.711 17.4688 137.062 19.0781 137.062 21.0938C137.062 23.2188 136.648 24.8125 135.82 25.875C135.008 26.9375 133.773 27.7891 132.117 28.4297ZM157.852 24.1172V41.0625C157.852 41.7812 157.922 42.3281 158.062 42.7031C158.219 43.0625 158.5 43.3125 158.906 43.4531C159.328 43.5938 159.969 43.6797 160.828 43.7109V45H149.883V43.7109C150.852 43.6797 151.523 43.4844 151.898 43.125C152.289 42.7656 152.484 42.125 152.484 41.2031V30.4453C152.484 29.7734 152.258 29.1484 151.805 28.5703C151.352 27.9922 150.711 27.5625 149.883 27.2812V26.5312L156.891 24.1172H157.852ZM153.258 30.5156V41.6484C153.258 42.5547 152.938 43.2422 152.297 43.7109C153.156 43.7109 153.781 43.5156 154.172 43.125C154.578 42.7344 154.781 42.0938 154.781 41.2031V30.2109C154.781 29.2109 154.539 28.4453 154.055 27.9141C153.57 27.3672 152.938 27.0938 152.156 27.0938C151.797 27.0938 151.508 27.1094 151.289 27.1406C152.602 27.8281 153.258 28.9531 153.258 30.5156ZM154.969 12.7031C155.562 12.7031 156.117 12.8516 156.633 13.1484C157.148 13.4297 157.555 13.8203 157.852 14.3203C158.148 14.8203 158.297 15.3672 158.297 15.9609C158.297 16.5547 158.148 17.1094 157.852 17.625C157.555 18.125 157.148 18.5234 156.633 18.8203C156.117 19.1172 155.562 19.2656 154.969 19.2656C154.078 19.2656 153.312 18.9375 152.672 18.2812C152.031 17.625 151.711 16.8516 151.711 15.9609C151.711 15.3828 151.852 14.8437 152.133 14.3438C152.43 13.8281 152.828 13.4297 153.328 13.1484C153.844 12.8516 154.391 12.7031 154.969 12.7031ZM155.367 13.4531C154.445 13.4531 153.734 13.6719 153.234 14.1094C152.734 14.5469 152.484 15.1484 152.484 15.9141C152.484 16.6484 152.727 17.2578 153.211 17.7422C153.695 18.2109 154.414 18.4688 155.367 18.5156C154.867 18.0625 154.5 17.6641 154.266 17.3203C154.031 16.9609 153.914 16.5078 153.914 15.9609C153.914 14.9453 154.398 14.1094 155.367 13.4531ZM171.023 24.1172V27.2344C172.336 26.2188 173.547 25.4453 174.656 24.9141C175.781 24.3828 177.117 24.1172 178.664 24.1172C183.086 24.1172 185.297 26.3125 185.297 30.7031V41.3906C185.297 42.4062 185.539 43.0469 186.023 43.3125C186.508 43.5781 187.242 43.7109 188.227 43.7109V45H176.93V43.7109C177.93 43.7109 178.656 43.5547 179.109 43.2422C179.578 42.9141 179.812 42.2344 179.812 41.2031V29.8828C179.812 29.0547 179.68 28.3594 179.414 27.7969C179.164 27.2188 178.789 26.7812 178.289 26.4844C177.789 26.1875 177.18 26.0391 176.461 26.0391C175.57 26.0391 174.695 26.2734 173.836 26.7422C172.992 27.1953 172.055 27.8906 171.023 28.8281V41.2031C171.023 41.9062 171.141 42.4453 171.375 42.8203C171.609 43.1953 171.922 43.4297 172.312 43.5234C172.719 43.6172 173.297 43.6797 174.047 43.7109V45H162.727V43.7109C163.68 43.7109 164.414 43.5859 164.93 43.3359C165.445 43.0703 165.703 42.4766 165.703 41.5547V31.1719C165.703 30.1406 165.469 29.3125 165 28.6875C164.531 28.0469 163.773 27.5625 162.727 27.2344V26.4609L170.133 24.1172H171.023ZM166.477 30.3984V41.1562C166.477 41.8594 166.422 42.3672 166.312 42.6797C166.219 42.9922 166 43.3359 165.656 43.7109C167.188 43.5703 167.953 42.7188 167.953 41.1562V29.9766C167.953 29.1953 167.672 28.5312 167.109 27.9844C166.562 27.4219 165.922 27.1406 165.188 27.1406C165.109 27.1406 164.969 27.1562 164.766 27.1875C164.562 27.2188 164.43 27.2344 164.367 27.2344C165.773 27.875 166.477 28.9297 166.477 30.3984ZM180.586 29.6484V41.2031C180.586 41.6875 180.57 42.0469 180.539 42.2812C180.523 42.5 180.461 42.7188 180.352 42.9375C180.258 43.1406 180.062 43.3984 179.766 43.7109H180.211C181.023 43.7109 181.562 43.4141 181.828 42.8203C182.094 42.2109 182.227 41.3047 182.227 40.1016V29.7422C182.227 28.3984 181.93 27.375 181.336 26.6719C180.742 25.9688 179.695 25.5859 178.195 25.5234C179.039 25.8672 179.648 26.3672 180.023 27.0234C180.398 27.6641 180.586 28.5391 180.586 29.6484ZM191.156 31.4531C191.156 29.4219 191.953 27.6953 193.547 26.2734C195.141 24.8359 197.242 24.1172 199.852 24.1172C202.68 24.1172 205.156 25.0156 207.281 26.8125C207.859 26.2656 208.492 25.8438 209.18 25.5469C209.867 25.2344 210.531 25.0781 211.172 25.0781C212.062 25.0781 212.797 25.3203 213.375 25.8047C213.953 26.2891 214.242 26.8984 214.242 27.6328C214.242 28.1328 214.062 28.5781 213.703 28.9688C213.359 29.3594 212.914 29.5547 212.367 29.5547C212.039 29.5547 211.734 29.4688 211.453 29.2969C211.188 29.1094 210.891 28.8359 210.562 28.4766C210.25 28.1016 209.984 27.8281 209.766 27.6562C209.547 27.4688 209.297 27.375 209.016 27.375C208.766 27.375 208.461 27.4922 208.102 27.7266C209.133 29.1172 209.648 30.5078 209.648 31.8984C209.648 33.1484 209.289 34.3281 208.57 35.4375C207.867 36.5469 206.914 37.4141 205.711 38.0391C204.93 38.4297 204.172 38.6953 203.438 38.8359C202.719 38.9609 201.922 39.0469 201.047 39.0938C199.266 39.2188 197.875 39.4453 196.875 39.7734C195.875 40.1016 195.375 40.7109 195.375 41.6016C195.375 42.7422 196.352 43.3125 198.305 43.3125C198.961 43.2969 199.547 43.2891 200.062 43.2891C200.594 43.2734 201.305 43.2656 202.195 43.2656C205.258 43.2656 207.547 43.7031 209.062 44.5781C210.594 45.4375 211.359 46.8906 211.359 48.9375C211.359 50.0312 211.117 51.0391 210.633 51.9609C210.148 52.8984 209.406 53.7031 208.406 54.375C207.422 55.0469 206.141 55.5703 204.562 55.9453C203 56.3359 201.188 56.5312 199.125 56.5312C196.109 56.5312 193.812 56.1016 192.234 55.2422C190.656 54.3828 189.867 53.2422 189.867 51.8203C189.867 50.8203 190.25 49.9297 191.016 49.1484C191.797 48.3672 192.93 47.9297 194.414 47.8359C192.398 46.9453 191.391 45.6641 191.391 43.9922C191.391 42.8984 191.859 41.8828 192.797 40.9453C193.734 40.0078 195.062 39.2188 196.781 38.5781C193.031 36.9688 191.156 34.5938 191.156 31.4531ZM201.773 25.1719C202.805 25.8594 203.547 26.6875 204 27.6562C204.469 28.625 204.703 29.8906 204.703 31.4531C204.703 34.2969 203.914 36.3984 202.336 37.7578C204.898 36.8984 206.18 34.9141 206.18 31.8047C206.18 28.0078 204.711 25.7969 201.773 25.1719ZM203.93 31.3125C203.93 29.4688 203.578 28.0234 202.875 26.9766C202.172 25.9297 201.32 25.4062 200.32 25.4062C199.305 25.4062 198.469 25.9531 197.812 27.0469C197.156 28.1406 196.828 29.5625 196.828 31.3125C196.828 33.2656 197.156 34.8203 197.812 35.9766C198.484 37.1328 199.383 37.7109 200.508 37.7109C201.523 37.7109 202.344 37.1562 202.969 36.0469C203.609 34.9219 203.93 33.3438 203.93 31.3125ZM198.609 24.8438C197.328 25 196.172 25.3984 195.141 26.0391C194.109 26.6641 193.312 27.4453 192.75 28.3828C192.203 29.3203 191.93 30.3281 191.93 31.4062C191.93 32.9375 192.414 34.2891 193.383 35.4609C194.367 36.6328 195.852 37.4766 197.836 37.9922C196.398 37.1484 195.32 36.1719 194.602 35.0625C193.898 33.9375 193.547 32.7734 193.547 31.5703C193.547 30.2734 193.969 29.0312 194.812 27.8438C195.656 26.6562 196.922 25.6562 198.609 24.8438ZM194.953 40.2422C194.031 40.8203 193.336 41.4062 192.867 42C192.398 42.5938 192.164 43.2891 192.164 44.0859C192.164 45.0859 192.68 45.9141 193.711 46.5703C194.758 47.2422 196.148 47.5859 197.883 47.6016C201.367 47.6328 203.703 47.6797 204.891 47.7422C206.094 47.8203 207.164 48.1094 208.102 48.6094C209.055 49.125 209.531 49.9688 209.531 51.1406C209.531 51.25 209.5 51.4922 209.438 51.8672C209.859 51.1172 210.07 50.4609 210.07 49.8984C210.07 48.7109 209.547 47.7969 208.5 47.1562C207.453 46.5312 205.898 46.1953 203.836 46.1484C202.352 46.1172 200.875 46.0781 199.406 46.0312C197.938 46 196.797 45.9062 195.984 45.75C195.188 45.5938 194.578 45.3125 194.156 44.9062C193.75 44.5 193.547 43.9219 193.547 43.1719C193.547 42.6562 193.664 42.1797 193.898 41.7422C194.148 41.2891 194.5 40.7891 194.953 40.2422ZM199.945 55.4062C201.758 55.4062 203.32 55.2344 204.633 54.8906C205.961 54.5469 206.984 54.0391 207.703 53.3672C208.422 52.7109 208.781 51.9688 208.781 51.1406C208.781 49.3125 206.68 48.3984 202.477 48.3984C200.602 48.3984 199.07 48.5 197.883 48.7031C196.695 48.9062 195.781 49.2734 195.141 49.8047C194.5 50.3359 194.18 51.0547 194.18 51.9609C194.18 53.0078 194.688 53.8438 195.703 54.4688C196.719 55.0938 198.133 55.4062 199.945 55.4062ZM194.953 55.4062C193.125 54.4375 192.211 53.2578 192.211 51.8672C192.211 51.0703 192.5 50.4062 193.078 49.875C193.656 49.3438 194.508 48.8203 195.633 48.3047C194.008 48.4453 192.766 48.8203 191.906 49.4297C191.062 50.0391 190.641 50.8203 190.641 51.7734C190.641 52.5859 191.008 53.3125 191.742 53.9531C192.477 54.6094 193.547 55.0938 194.953 55.4062ZM213.281 26.9062C213.094 27.1875 212.805 27.3281 212.414 27.3281C212.117 27.3281 211.68 27.1719 211.102 26.8594C210.523 26.5312 210.039 26.3672 209.648 26.3672C209.492 26.3672 209.336 26.3984 209.18 26.4609C209.039 26.5234 208.906 26.5781 208.781 26.625C208.906 26.5938 209.062 26.5781 209.25 26.5781C209.656 26.5781 210.203 26.9609 210.891 27.7266C211.406 28.3984 211.898 28.7344 212.367 28.7344C212.727 28.7344 213 28.6094 213.188 28.3594C213.375 28.1094 213.469 27.8516 213.469 27.5859C213.469 27.3828 213.406 27.1562 213.281 26.9062ZM23.9531 102V100.711C25.5156 100.633 26.6172 100.477 27.2578 100.242C27.8984 100.008 28.3203 99.5938 28.5234 99C28.7422 98.4062 28.8516 97.4219 28.8516 96.0469V85.8281H12.1875V95.5312C12.1875 96.6875 12.2266 97.5625 12.3047 98.1562C12.3984 98.7344 12.5938 99.2031 12.8906 99.5625C13.2031 99.9062 13.6562 100.156 14.25 100.312C14.8594 100.469 15.7891 100.602 17.0391 100.711V102H1.38281V100.711C2.50781 100.68 3.36719 100.609 3.96094 100.5C4.57031 100.375 5.04688 100.148 5.39062 99.8203C5.75 99.4922 5.99219 99.0312 6.11719 98.4375C6.25781 97.8438 6.32812 97.0156 6.32812 95.9531V73.9688C6.32812 72.4688 5.97656 71.4922 5.27344 71.0391C4.58594 70.5703 3.28906 70.2969 1.38281 70.2188V68.9297H17.0391V70.2188C15.4922 70.2344 14.3828 70.3984 13.7109 70.7109C13.0391 71.0234 12.6172 71.5234 12.4453 72.2109C12.2734 72.8984 12.1875 74 12.1875 75.5156V84.0938H28.8516V74.25C28.8516 73.0938 28.7188 72.2578 28.4531 71.7422C28.1875 71.2109 27.7344 70.8516 27.0938 70.6641C26.4531 70.4766 25.4062 70.3281 23.9531 70.2188V68.9297H39.6094V70.2188C38.0469 70.2656 36.9375 70.4141 36.2812 70.6641C35.6406 70.9141 35.2188 71.3828 35.0156 72.0703C34.8125 72.7578 34.7109 73.9062 34.7109 75.5156V95.9531C34.7109 97.2344 34.8047 98.2031 34.9922 98.8594C35.1953 99.5156 35.6328 100 36.3047 100.312C36.9922 100.609 38.0938 100.742 39.6094 100.711V102H23.9531ZM29.625 73.8281V97.0547C29.625 98.2109 29.4922 99.0234 29.2266 99.4922C28.9609 99.9453 28.5312 100.352 27.9375 100.711H28.7109C29.5547 100.711 30.1641 100.469 30.5391 99.9844C30.9141 99.5 31.1016 98.7344 31.1016 97.6875V74.4375C31.1016 73 30.9609 71.9375 30.6797 71.25C30.3984 70.5625 29.7109 70.2188 28.6172 70.2188H27.9375C28.5938 70.5156 29.0391 70.9297 29.2734 71.4609C29.5078 71.9922 29.625 72.7812 29.625 73.8281ZM7.10156 74.1562V96.5391C7.10156 97.8984 6.94531 98.8594 6.63281 99.4219C6.32031 99.9688 5.92969 100.398 5.46094 100.711H6.14062C7.04688 100.711 7.67969 100.359 8.03906 99.6562C8.41406 98.9375 8.60156 97.8594 8.60156 96.4219V75.3984C8.60156 73.8984 8.54688 72.8125 8.4375 72.1406C8.32812 71.4531 8.05469 70.9453 7.61719 70.6172C7.17969 70.2891 6.46094 70.1562 5.46094 70.2188C6.05469 70.5312 6.47656 70.9609 6.72656 71.5078C6.97656 72.0391 7.10156 72.9219 7.10156 74.1562ZM42.4453 91.9219C42.4453 89.9219 42.9141 88.0938 43.8516 86.4375C44.8047 84.7812 46.0938 83.4844 47.7188 82.5469C49.3594 81.5938 51.1719 81.1172 53.1562 81.1172C55.0938 81.1172 56.8594 81.5781 58.4531 82.5C60.0625 83.4219 61.3281 84.6953 62.25 86.3203C63.1719 87.9453 63.6328 89.75 63.6328 91.7344C63.6328 93.25 63.3516 94.6875 62.7891 96.0469C62.2422 97.3906 61.4766 98.5547 60.4922 99.5391C59.5234 100.508 58.4062 101.258 57.1406 101.789C55.875 102.32 54.5156 102.586 53.0625 102.586C51.1094 102.586 49.3203 102.141 47.6953 101.25C46.0859 100.359 44.8047 99.1094 43.8516 97.5C42.9141 95.875 42.4453 94.0156 42.4453 91.9219ZM50.7656 101.672C48.7344 100.438 47.2109 98.9766 46.1953 97.2891C45.1797 95.6016 44.6719 93.75 44.6719 91.7344C44.6719 90.2031 44.9141 88.8594 45.3984 87.7031C45.8828 86.5469 46.5156 85.5547 47.2969 84.7266C48.0938 83.8828 49.0859 83.0156 50.2734 82.125C48.6953 82.6875 47.375 83.4766 46.3125 84.4922C45.25 85.5078 44.4688 86.6719 43.9688 87.9844C43.4688 89.2812 43.2188 90.6562 43.2188 92.1094C43.2188 93.1719 43.3828 94.2188 43.7109 95.25C44.0391 96.2812 44.5156 97.2109 45.1406 98.0391C45.7812 98.8672 46.5703 99.5938 47.5078 100.219C48.4453 100.844 49.5312 101.328 50.7656 101.672ZM48.2578 90.5859C48.2578 93.9141 48.7422 96.5312 49.7109 98.4375C50.6797 100.328 51.9375 101.273 53.4844 101.273C54.2656 101.273 54.9922 100.953 55.6641 100.312C56.3359 99.6562 56.8672 98.6953 57.2578 97.4297C57.6641 96.1484 57.8672 94.5859 57.8672 92.7422C57.8672 89.4922 57.4297 86.9609 56.5547 85.1484C55.6953 83.3203 54.5 82.4062 52.9688 82.4062C51.4844 82.4062 50.3281 83.0938 49.5 84.4688C48.6719 85.8281 48.2578 87.8672 48.2578 90.5859ZM56.5312 100.453C57.7031 99.8125 58.6016 98.7969 59.2266 97.4062C59.8516 96.0156 60.1641 94.3125 60.1641 92.2969C60.1641 87.3281 58.6328 84.0859 55.5703 82.5703C56.6641 83.6641 57.4453 85.0078 57.9141 86.6016C58.3984 88.1953 58.6406 90.3359 58.6406 93.0234C58.6406 94.7266 58.4609 96.1562 58.1016 97.3125C57.7578 98.4531 57.2344 99.5 56.5312 100.453ZM68.7188 96.3281V82.9922H66.2109V81.7969C67.5859 80.7656 68.6172 79.9766 69.3047 79.4297C69.9922 78.8672 70.6406 78.2422 71.25 77.5547C71.875 76.8672 72.4062 76.1484 72.8438 75.3984H74.0859V81.5156H79.8984V82.9922H74.0859V97.0078C74.0859 98.0391 74.2109 98.8125 74.4609 99.3281C74.7109 99.8281 75.1328 100.078 75.7266 100.078C76.2891 100.078 76.8047 99.9219 77.2734 99.6094C77.7578 99.2969 78.3438 98.8125 79.0312 98.1562L79.8984 99.0703C78.7266 100.273 77.6484 101.172 76.6641 101.766C75.6953 102.344 74.5781 102.633 73.3125 102.633C72.1094 102.633 71.1719 102.367 70.5 101.836C69.8281 101.305 69.3594 100.586 69.0938 99.6797C68.8438 98.7578 68.7188 97.6406 68.7188 96.3281ZM71.0156 79.0078L69.4688 80.2969V95.8594C69.4688 97.9375 69.7344 99.4531 70.2656 100.406C70.8125 101.344 71.7812 101.812 73.1719 101.812C73.9062 101.812 74.6406 101.695 75.375 101.461C73.9531 101.508 72.8672 101.18 72.1172 100.477C71.3828 99.7578 71.0156 98.5703 71.0156 96.9141V79.0078ZM100.078 96.1875L101.016 96.9141C100.312 98.2266 99.4766 99.3047 98.5078 100.148C97.5391 100.992 96.4688 101.617 95.2969 102.023C94.1406 102.43 92.9297 102.633 91.6641 102.633C89.9453 102.633 88.3438 102.219 86.8594 101.391C85.3906 100.562 84.2266 99.3672 83.3672 97.8047C82.5078 96.2422 82.0781 94.4688 82.0781 92.4844C82.0781 90.9219 82.3359 89.4531 82.8516 88.0781C83.3828 86.7031 84.1094 85.4922 85.0312 84.4453C85.9688 83.3984 87.0469 82.5859 88.2656 82.0078C89.5 81.4141 90.8125 81.1172 92.2031 81.1172C93.6094 81.1172 94.9453 81.4141 96.2109 82.0078C97.4922 82.5859 98.5078 83.3906 99.2578 84.4219C99.8047 85.1719 100.195 85.9453 100.43 86.7422C100.68 87.5234 100.875 88.4688 101.016 89.5781H86.8594C86.9219 91.2031 87.1953 92.5781 87.6797 93.7031C88.1797 94.8281 88.8203 95.7344 89.6016 96.4219C90.3984 97.1094 91.2422 97.6016 92.1328 97.8984C93.0234 98.1953 93.875 98.3438 94.6875 98.3438C96.6562 98.3438 98.4531 97.625 100.078 96.1875ZM95.9297 88.0781H97.5703C97.5234 86.3281 97.1641 85.0391 96.4922 84.2109C95.8203 83.3672 94.6953 82.8047 93.1172 82.5234C94.1172 82.9766 94.8359 83.5703 95.2734 84.3047C95.7109 85.0234 95.9297 86.125 95.9297 87.6094V88.0781ZM87 88.0781H95.1797V87.3047C95.1797 86.3984 95.0156 85.5938 94.6875 84.8906C94.3594 84.1719 93.9062 83.625 93.3281 83.25C92.7656 82.8594 92.1172 82.6641 91.3828 82.6641C90.1953 82.6641 89.1875 83.1953 88.3594 84.2578C87.5312 85.3047 87.0781 86.5781 87 88.0781ZM87.2109 83.4609C84.2891 85.7734 82.8281 88.8047 82.8281 92.5547C82.8281 95.2734 83.6953 97.5 85.4297 99.2344C87.1797 100.953 89.1953 101.812 91.4766 101.812C92.8047 101.812 94.1328 101.547 95.4609 101.016C96.8047 100.469 97.9375 99.6641 98.8594 98.6016C97.9062 99.2109 96.9297 99.7109 95.9297 100.102C94.9453 100.477 93.7656 100.664 92.3906 100.664C90.0625 100.664 88.1172 99.8516 86.5547 98.2266C85.0078 96.6016 84.2344 94.4844 84.2344 91.875C84.2344 90.2188 84.4922 88.7344 85.0078 87.4219C85.5234 86.1094 86.2578 84.7891 87.2109 83.4609ZM106.078 98.3438V76.125C106.078 74.9375 105.891 74.0078 105.516 73.3359C105.141 72.6641 104.273 72.0781 102.914 71.5781V70.6641L110.531 68.1562H111.445V97.4766C111.445 98.6953 111.578 99.5391 111.844 100.008C112.125 100.477 112.828 100.711 113.953 100.711H114.586V102H102.914V100.711H103.477C104.398 100.711 105.062 100.516 105.469 100.125C105.875 99.7344 106.078 99.1406 106.078 98.3438ZM108.375 97.3828V76.2656C108.375 75.1562 108.32 74.2734 108.211 73.6172C108.117 72.9453 107.828 72.3906 107.344 71.9531C106.875 71.5 106.117 71.2734 105.07 71.2734C104.555 71.2734 104.141 71.2891 103.828 71.3203C105.266 71.7266 106.125 72.3281 106.406 73.125C106.703 73.9219 106.852 74.9688 106.852 76.2656V98.2031C106.852 99.2656 106.531 100.102 105.891 100.711C106.984 100.664 107.672 100.367 107.953 99.8203C108.234 99.2578 108.375 98.4453 108.375 97.3828Z" fill="white"/>
<defs>
<filter id="filter0_d_360_577" x="122.954" y="54.1907" width="89.2764" height="103.129" filterUnits="userSpaceOnUse" color-interpolation-filters="sRGB">
<feFlood flood-opacity="0" result="BackgroundImageFix"/>
<feColorMatrix in="SourceAlpha" type="matrix" values="0 0 0 0 0 0 0 0 0 0 0 0 0 0 0 0 0 0 127 0" result="hardAlpha"/>
<feOffset dy="4"/>
<feGaussianBlur stdDeviation="2"/>
<feComposite in2="hardAlpha" operator="out"/>
<feColorMatrix type="matrix" values="0 0 0 0 0 0 0 0 0 0 0 0 0 0 0 0 0 0 0.25 0"/>
<feBlend mode="normal" in2="BackgroundImageFix" result="effect1_dropShadow_360_577"/>
<feBlend mode="normal" in="SourceGraphic" in2="effect1_dropShadow_360_577" result="shape"/>
</filter>
</defs>
</svg>
