<svg width="91" height="108" viewBox="0 0 91 108" fill="none" xmlns="http://www.w3.org/2000/svg">
<path d="M87.2451 51.5457C87.2451 78.9976 68.1597 100.591 45.3725 100.591C22.5854 100.591 3.5 78.9976 3.5 51.5457C3.5 24.0938 22.5854 2.5 45.3725 2.5C68.1597 2.5 87.2451 24.0938 87.2451 51.5457Z" fill="white" stroke="#522700" stroke-width="5"/>
<g filter="url(#filter0_d_360_578)">
<ellipse cx="45.5923" cy="51.7552" rx="40.6382" ry="47.5646" fill="#F5F5F5"/>
<path d="M84.9438 39.8348C85.416 41.9765 85.764 44.1766 85.9781 46.4241C85.432 46.4711 85.0247 46.9497 85.067 47.4973C85.1752 48.8994 85.2306 50.3196 85.2306 51.7552C85.2306 53.1908 85.1752 54.6111 85.067 56.0131C85.0247 56.5608 85.432 57.0394 85.9781 57.0864C85.764 59.3339 85.416 61.534 84.9438 63.6757C84.4098 63.5526 83.8753 63.8828 83.7471 64.4168C83.0729 67.2248 82.1802 69.9244 81.0924 72.4889C80.878 72.9943 81.1112 73.5774 81.6135 73.7961C80.6929 75.8529 79.6475 77.8211 78.4891 79.6869C78.027 79.3932 77.4135 79.5258 77.1144 79.9859C75.5468 82.3973 73.7843 84.622 71.8556 86.628C71.4755 87.0234 71.4851 87.6505 71.8752 88.034C70.2811 89.6177 68.5812 91.0601 66.7897 92.3445C66.4769 91.8963 65.861 91.7818 65.4077 92.0899C63.0609 93.6849 60.5645 95.0038 57.9505 96.0111C57.4394 96.208 57.1826 96.7788 57.372 97.2908C55.2839 98.0299 53.1248 98.5775 50.9096 98.9163C50.835 98.3757 50.3395 97.9937 49.7961 98.061C48.4151 98.2321 47.0126 98.3198 45.5923 98.3198C44.172 98.3198 42.7696 98.2321 41.3885 98.061C40.8452 97.9937 40.3497 98.3757 40.275 98.9163C38.0598 98.5775 35.9007 98.0299 33.8126 97.2908C34.002 96.7788 33.7452 96.208 33.2342 96.0111C30.6202 95.0038 28.1237 93.6849 25.777 92.0899C25.3237 91.7818 24.7077 91.8963 24.3949 92.3445C22.6035 91.0601 20.9036 89.6177 19.3094 88.034C19.6995 87.6505 19.7092 87.0234 19.329 86.628C17.4004 84.622 15.6379 82.3973 14.0702 79.9859C13.7711 79.5258 13.1576 79.3932 12.6956 79.6869C11.5371 77.8211 10.4918 75.8529 9.57119 73.7961C10.0734 73.5774 10.3067 72.9943 10.0923 72.4889C9.00442 69.9244 8.11175 67.2248 7.43759 64.4168C7.30939 63.8828 6.77486 63.5526 6.24084 63.6757C5.76862 61.534 5.42067 59.3339 5.20651 57.0864C5.75266 57.0394 6.15991 56.5608 6.11764 56.0131C6.00941 54.6111 5.9541 53.1908 5.9541 51.7552C5.9541 50.3196 6.00941 48.8994 6.11764 47.4973C6.15991 46.9497 5.75266 46.4711 5.20651 46.4241C5.42067 44.1766 5.76862 41.9765 6.24084 39.8348C6.77486 39.9578 7.30939 39.6277 7.43759 39.0937C8.11176 36.2857 9.00442 33.5861 10.0923 31.0216C10.3067 30.5162 10.0734 29.9331 9.57119 29.7144C10.4918 27.6576 11.5371 25.6894 12.6956 23.8236C13.1576 24.1173 13.7711 23.9847 14.0702 23.5246C15.6379 21.1132 17.4004 18.8885 19.329 16.8824C19.7092 16.4871 19.6995 15.86 19.3094 15.4765C20.9036 13.8928 22.6035 12.4504 24.3949 11.166C24.7077 11.6142 25.3237 11.7287 25.777 11.4206C28.1237 9.82563 30.6202 8.50664 33.2342 7.49941C33.7452 7.30249 34.002 6.73171 33.8126 6.21964C35.9007 5.48063 38.0598 4.93299 40.275 4.59417C40.3497 5.1348 40.8452 5.51681 41.3885 5.4495C42.7696 5.27843 44.172 5.19067 45.5923 5.19067C47.0126 5.19067 48.4151 5.27843 49.7961 5.4495C50.3395 5.51681 50.835 5.1348 50.9096 4.59417C53.1248 4.93299 55.2839 5.48063 57.372 6.21964C57.1826 6.73171 57.4394 7.30249 57.9505 7.49941C60.5645 8.50664 63.0609 9.82563 65.4077 11.4206C65.861 11.7287 66.4769 11.6142 66.7897 11.166C68.5812 12.4504 70.2811 13.8928 71.8752 15.4765C71.4851 15.86 71.4755 16.4871 71.8556 16.8824C73.7843 18.8885 75.5468 21.1132 77.1144 23.5246C77.4135 23.9847 78.027 24.1173 78.4891 23.8236C79.6475 25.6894 80.6929 27.6576 81.6135 29.7144C81.1113 29.9331 80.878 30.5162 81.0924 31.0216C82.1802 33.5861 83.0729 36.2857 83.7471 39.0937C83.8753 39.6277 84.4098 39.9579 84.9438 39.8348Z" stroke="#EF9D21" stroke-width="2" stroke-linecap="round" stroke-dasharray="9 9"/>
</g>
<path d="M79.2006 68.3086L44.2459 27.4963C44.2459 27.4963 42.0613 24.1027 36.4435 23.7576C30.8258 23.4124 20.1274 25.876 22.3993 25.0037C24.6861 24.1257 26.3893 23.3695 29.5774 22.5113C32.0457 21.8469 36.1542 20.9536 37.3798 20.9536C40.1887 20.9536 42.3734 20.9537 44.8701 22.5113C47.3669 24.069 74.2071 53.6658 74.2071 53.6658V35.908H79.2006V68.3086Z" fill="#522700" stroke="#522700"/>
<path d="M12.0241 92.4875L45.2464 74.1912C45.2464 74.1912 47.7962 74.5449 49.638 74.3069C54.8476 73.6338 69.4904 63.3737 69.4904 63.3737L68.6276 61.9482L51.6113 71.3195C51.6113 71.3195 49.3305 72.3374 49.1541 71.7223C48.9912 71.1543 50.8923 70.1315 50.8923 70.1315L67.9086 60.7602L67.0458 59.3347L50.0294 68.706C50.0294 68.706 47.8997 69.6499 47.5723 69.1089C47.2448 68.5679 49.1666 67.2805 49.1666 67.2805L66.1829 57.9092L65.3201 56.4837L48.3038 65.855C48.3038 65.855 46.1741 66.7988 45.8466 66.2578C45.5192 65.7168 47.441 64.4294 47.441 64.4294L64.4573 55.0581L63.7383 53.8702C63.7383 53.8702 47.1018 60.8364 43.8859 64.8034C42.7489 66.2059 41.7951 68.4891 41.7951 68.4891L8.97796 86.5623C9.28039 87.062 8.27341 86.9503 8.07637 88.6427C8.00507 89.2552 7.84128 90.0393 8.4165 90.9897L10.0896 91.969L12.0241 92.4875Z" fill="#EF9D21" stroke="#EF9D21"/>
<path d="M38.5838 44.382C38.5838 35.0159 34.0537 25.5405 28.465 25.5405C22.8763 25.5405 18.3462 35.0159 18.3462 44.382C18.3462 51.4362 20.9164 56.4123 24.5732 58.4396V88.6594C24.5732 89.9087 24.9832 91.1068 25.7131 91.9902C26.4429 92.8735 27.4328 93.3698 28.465 93.3698C29.4972 93.3698 30.4871 92.8735 31.217 91.9902C31.9468 91.1068 32.3569 89.9087 32.3569 88.6594V58.4396C36.0136 56.4123 38.5838 51.4362 38.5838 44.382Z" fill="#EF9D21"/>
<defs>
<filter id="filter0_d_360_578" x="0.954102" y="4.19067" width="89.2764" height="103.129" filterUnits="userSpaceOnUse" color-interpolation-filters="sRGB">
<feFlood flood-opacity="0" result="BackgroundImageFix"/>
<feColorMatrix in="SourceAlpha" type="matrix" values="0 0 0 0 0 0 0 0 0 0 0 0 0 0 0 0 0 0 127 0" result="hardAlpha"/>
<feOffset dy="4"/>
<feGaussianBlur stdDeviation="2"/>
<feComposite in2="hardAlpha" operator="out"/>
<feColorMatrix type="matrix" values="0 0 0 0 0 0 0 0 0 0 0 0 0 0 0 0 0 0 0.25 0"/>
<feBlend mode="normal" in2="BackgroundImageFix" result="effect1_dropShadow_360_578"/>
<feBlend mode="normal" in="SourceGraphic" in2="effect1_dropShadow_360_578" result="shape"/>
</filter>
</defs>
</svg>
