<svg width="244" height="251" viewBox="0 0 244 251" fill="none" xmlns="http://www.w3.org/2000/svg">
<path d="M238.137 125.111C238.137 191.583 185.813 245.222 121.569 245.222C57.324 245.222 5 191.583 5 125.111C5 58.6392 57.324 5 121.569 5C185.813 5 238.137 58.6392 238.137 125.111Z" fill="white" stroke="#522700" stroke-width="10"/>
<g filter="url(#filter0_d_728_2)">
<ellipse cx="122.34" cy="125.45" rx="105.34" ry="110.45" fill="#F5F5F5"/>
<ellipse cx="122.34" cy="125.45" rx="105.34" ry="110.45" stroke="#EF9D21" stroke-width="5" stroke-linecap="round" stroke-dasharray="9 9"/>
</g>
<path d="M214.249 165.798L118.483 66.7384C118.483 66.7384 112.497 58.5015 97.1063 57.6638C81.7152 56.8261 52.4044 62.8058 58.6288 60.6885C64.8941 58.5574 69.5603 56.722 78.295 54.639C85.0573 53.0264 96.3135 50.8582 99.6715 50.8582C107.367 50.8582 113.352 50.8582 120.193 54.639C127.033 58.4198 200.568 130.257 200.568 130.257V87.1551H214.249V165.798Z" fill="#522700" stroke="#522700"/>
<path d="M30.2034 224.485L121.223 180.076C121.223 180.076 128.209 180.934 133.255 180.357C147.528 178.723 187.645 153.82 187.645 153.82L185.282 150.36L138.661 173.106C138.661 173.106 132.413 175.576 131.93 174.084C131.483 172.705 136.692 170.222 136.692 170.222L183.312 147.477L180.948 144.016L134.328 166.762C134.328 166.762 128.493 169.053 127.596 167.74C126.699 166.427 131.964 163.302 131.964 163.302L178.584 140.556L176.22 137.096L129.6 159.842C129.6 159.842 123.765 162.133 122.868 160.82C121.971 159.507 127.236 156.382 127.236 156.382L173.856 133.636L171.886 130.753C171.886 130.753 126.307 147.661 117.496 157.29C114.381 160.694 111.768 166.236 111.768 166.236L21.8578 210.103C22.6864 211.316 19.9276 211.045 19.3877 215.152C19.1924 216.639 18.7437 218.542 20.3196 220.849L24.9035 223.226L30.2034 224.485Z" fill="#EF9D21" stroke="#EF9D21"/>
<path d="M102.969 107.723C102.969 84.99 90.5582 61.9915 75.2467 61.9915C59.9352 61.9915 47.5239 84.99 47.5239 107.723C47.5239 124.845 54.5655 136.923 64.5841 141.844V215.193C64.5841 218.225 65.7075 221.133 67.7071 223.277C69.7067 225.421 72.4188 226.626 75.2467 226.626C78.0746 226.626 80.7867 225.421 82.7863 223.277C84.7859 221.133 85.9093 218.225 85.9093 215.193V141.844C95.9279 136.923 102.969 124.845 102.969 107.723Z" fill="#EF9D21"/>
<defs>
<filter id="filter0_d_728_2" x="10.5" y="12.5" width="223.68" height="233.9" filterUnits="userSpaceOnUse" color-interpolation-filters="sRGB">
<feFlood flood-opacity="0" result="BackgroundImageFix"/>
<feColorMatrix in="SourceAlpha" type="matrix" values="0 0 0 0 0 0 0 0 0 0 0 0 0 0 0 0 0 0 127 0" result="hardAlpha"/>
<feOffset dy="4"/>
<feGaussianBlur stdDeviation="2"/>
<feComposite in2="hardAlpha" operator="out"/>
<feColorMatrix type="matrix" values="0 0 0 0 0 0 0 0 0 0 0 0 0 0 0 0 0 0 0.25 0"/>
<feBlend mode="normal" in2="BackgroundImageFix" result="effect1_dropShadow_728_2"/>
<feBlend mode="normal" in="SourceGraphic" in2="effect1_dropShadow_728_2" result="shape"/>
</filter>
</defs>
</svg>
