<svg width="41" height="48" viewBox="0 0 41 48" fill="none" xmlns="http://www.w3.org/2000/svg">
<g opacity="0.5">
<path d="M17.1226 4C16.3297 4 15.5693 4.36875 15.0086 5.02513C14.448 5.6815 14.133 6.57174 14.133 7.5C14.133 8.42826 14.448 9.3185 15.0086 9.97487C15.5693 10.6313 16.3297 11 17.1226 11H23.9559C24.7488 11 25.5092 10.6313 26.0699 9.97487C26.6305 9.3185 26.9455 8.42826 26.9455 7.5C26.9455 6.57174 26.6305 5.6815 26.0699 5.02513C25.5092 4.36875 24.7488 4 23.9559 4H17.1226ZM6.64023 32.41C5.17448 25.546 4.44161 22.116 5.97911 19.808C7.51661 17.5 10.5404 17.5 16.5844 17.5H24.494C30.5381 17.5 33.5584 17.5 35.0976 19.808C36.6369 22.114 35.904 25.548 34.4382 32.41C33.5055 36.776 33.0408 38.958 31.6502 40.23C30.2596 41.5 28.3378 41.5 24.494 41.5H16.5844C12.7407 41.5 10.8188 41.5 9.42823 40.23C8.03765 38.958 7.57127 36.776 6.64023 32.41Z" fill="black"/>
<path d="M17.1226 4C16.3297 4 15.5693 4.36875 15.0086 5.02513C14.448 5.6815 14.133 6.57174 14.133 7.5C14.133 8.42826 14.448 9.3185 15.0086 9.97487C15.5693 10.6313 16.3297 11 17.1226 11H23.9559C24.7488 11 25.5092 10.6313 26.0699 9.97487C26.6305 9.3185 26.9455 8.42826 26.9455 7.5C26.9455 6.57174 26.6305 5.6815 26.0699 5.02513C25.5092 4.36875 24.7488 4 23.9559 4H17.1226ZM6.64023 32.41C5.17448 25.546 4.44161 22.116 5.97911 19.808C7.51661 17.5 10.5404 17.5 16.5844 17.5H24.494C30.5381 17.5 33.5584 17.5 35.0976 19.808C36.6369 22.114 35.904 25.548 34.4382 32.41C33.5055 36.776 33.0408 38.958 31.6502 40.23C30.2596 41.5 28.3378 41.5 24.494 41.5H16.5844C12.7407 41.5 10.8188 41.5 9.42823 40.23C8.03765 38.958 7.57127 36.776 6.64023 32.41Z" fill="black"/>
</g>
<path d="M26.6565 9.00401C26.8481 8.53553 26.9478 8.02286 26.9484 7.50347C26.949 6.98407 26.8504 6.47109 26.6599 6.00201C27.8267 6.01201 28.7373 6.07401 29.5487 6.44601C30.5194 6.89056 31.3637 7.64604 31.9848 8.62601C32.6117 9.61401 32.9073 10.88 33.3122 12.624L33.3908 12.964L34.2671 18.89C33.5684 18.326 32.6681 17.99 31.503 17.79L30.888 13.616C30.4012 11.536 30.2252 10.882 29.928 10.414C29.5934 9.88623 29.1388 9.47938 28.616 9.24001C28.2401 9.06801 27.7874 9.02001 26.6565 9.00401ZM14.4197 6.00201C14.2292 6.47109 14.1307 6.98407 14.1313 7.50347C14.1318 8.02286 14.2316 8.53553 14.4231 9.00401C13.2922 9.01801 12.8395 9.06801 12.4637 9.24001C11.9409 9.47938 11.4862 9.88623 11.1517 10.414C10.8544 10.882 10.6785 11.536 10.1933 13.614L9.57658 17.792C8.4115 17.992 7.51121 18.326 6.8125 18.888L7.68888 12.964L7.76746 12.624C8.17233 10.88 8.46788 9.61401 9.09483 8.62401C9.71643 7.64551 10.5606 6.89146 11.5309 6.44801C12.3424 6.07601 13.2529 6.01401 14.4197 6.00401" fill="black"/>
</svg>
