<svg width="616" height="157" viewBox="0 0 616 157" fill="none" xmlns="http://www.w3.org/2000/svg">
<g clip-path="url(#clip0_774_516)">
<rect width="616" height="157" fill="#250303"/>
<circle opacity="0.1" cx="598.5" cy="90.5" r="66.5" fill="#D9D9D9"/>
<path opacity="0.1" d="M99 24C99 59.8985 69.6747 89 33.5 89C-2.67465 89 -32 59.8985 -32 24C-32 -11.8985 -2.67465 -41 33.5 -41C69.6747 -41 99 -11.8985 99 24ZM-9.7824 24C-9.7824 47.7217 9.59579 66.952 33.5 66.952C57.4042 66.952 76.7824 47.7217 76.7824 24C76.7824 0.278266 57.4042 -18.952 33.5 -18.952C9.59579 -18.952 -9.7824 0.278266 -9.7824 24Z" fill="#D9D9D9"/>
<path opacity="0.1" d="M606.275 105.46L600.027 99.0849C598.683 97.8121 596.987 96.9688 595.159 96.6633C593.33 96.3579 591.451 96.6042 589.764 97.3708L587.047 94.6643C590.248 90.4027 591.71 85.0911 591.139 79.7988C590.567 74.5065 588.004 69.6264 583.966 66.1409C579.928 62.6554 574.715 60.8233 569.375 61.0134C564.036 61.2036 558.967 63.4018 555.189 67.1657C551.411 70.9295 549.204 75.9795 549.013 81.2989C548.823 86.6184 550.662 91.8124 554.16 95.8354C557.659 99.8583 562.557 102.412 567.869 102.981C573.182 103.55 578.513 102.094 582.791 98.9045L585.477 101.581C584.617 103.264 584.309 105.173 584.596 107.04C584.883 108.907 585.751 110.637 587.077 111.986L593.477 118.362C595.175 120.051 597.476 121 599.876 121C602.276 121 604.577 120.051 606.275 118.362C607.138 117.521 607.823 116.518 608.291 115.41C608.759 114.302 609 113.113 609 111.911C609 110.709 608.759 109.519 608.291 108.412C607.823 107.304 607.138 106.301 606.275 105.46ZM580.678 92.7095C578.566 94.8086 575.876 96.2369 572.949 96.814C570.023 97.3911 566.99 97.0911 564.234 95.9519C561.479 94.8127 559.124 92.8855 557.467 90.4136C555.81 87.9417 554.926 85.0361 554.926 82.0638C554.926 79.0915 555.81 76.1859 557.467 73.714C559.124 71.2421 561.479 69.3148 564.234 68.1756C566.99 67.0365 570.023 66.7365 572.949 67.3136C575.876 67.8907 578.566 69.319 580.678 71.418C582.083 72.8148 583.199 74.4741 583.959 76.3008C584.72 78.1276 585.112 80.086 585.112 82.0638C585.112 84.0416 584.72 86 583.959 87.8267C583.199 89.6535 582.083 91.3128 580.678 92.7095ZM602.019 113.971C601.739 114.253 601.405 114.477 601.037 114.629C600.669 114.782 600.274 114.86 599.876 114.86C599.477 114.86 599.083 114.782 598.715 114.629C598.347 114.477 598.013 114.253 597.733 113.971L591.333 107.596C591.05 107.316 590.826 106.983 590.673 106.617C590.519 106.25 590.441 105.857 590.441 105.46C590.441 105.063 590.519 104.67 590.673 104.304C590.826 103.937 591.05 103.605 591.333 103.325C591.614 103.043 591.948 102.82 592.316 102.667C592.684 102.514 593.078 102.436 593.477 102.436C593.875 102.436 594.27 102.514 594.637 102.667C595.005 102.82 595.339 103.043 595.62 103.325L602.019 109.701C602.302 109.98 602.527 110.313 602.68 110.679C602.833 111.046 602.912 111.439 602.912 111.836C602.912 112.233 602.833 112.626 602.68 112.992C602.527 113.359 602.302 113.691 602.019 113.971Z" fill="#FFFDFD"/>
<g opacity="0.2">
<path d="M196.5 5.3125C196.5 6.32364 196.902 7.29336 197.617 8.00834C198.332 8.72333 199.301 9.125 200.312 9.125C201.324 9.125 202.293 8.72333 203.008 8.00834C203.723 7.29336 204.125 6.32364 204.125 5.3125C204.125 4.30136 203.723 3.33164 203.008 2.61666C202.293 1.90167 201.324 1.5 200.312 1.5C199.301 1.5 198.332 1.90167 197.617 2.61666C196.902 3.33164 196.5 4.30136 196.5 5.3125ZM223.188 5.3125C223.188 6.32364 223.589 7.29336 224.304 8.00834C225.019 8.72333 225.989 9.125 227 9.125C228.011 9.125 228.981 8.72333 229.696 8.00834C230.411 7.29336 230.812 6.32364 230.812 5.3125C230.812 4.30136 230.411 3.33164 229.696 2.61666C228.981 1.90167 228.011 1.5 227 1.5C225.989 1.5 225.019 1.90167 224.304 2.61666C223.589 3.33164 223.188 4.30136 223.188 5.3125ZM249.875 5.3125C249.875 6.32364 250.277 7.29336 250.992 8.00834C251.707 8.72333 252.676 9.125 253.688 9.125C254.699 9.125 255.668 8.72333 256.383 8.00834C257.098 7.29336 257.5 6.32364 257.5 5.3125C257.5 4.30136 257.098 3.33164 256.383 2.61666C255.668 1.90167 254.699 1.5 253.688 1.5C252.676 1.5 251.707 1.90167 250.992 2.61666C250.277 3.33164 249.875 4.30136 249.875 5.3125ZM196.5 32C196.5 33.0111 196.902 33.9809 197.617 34.6958C198.332 35.4108 199.301 35.8125 200.312 35.8125C201.324 35.8125 202.293 35.4108 203.008 34.6958C203.723 33.9809 204.125 33.0111 204.125 32C204.125 30.9889 203.723 30.0191 203.008 29.3042C202.293 28.5892 201.324 28.1875 200.312 28.1875C199.301 28.1875 198.332 28.5892 197.617 29.3042C196.902 30.0191 196.5 30.9889 196.5 32ZM223.188 32C223.188 33.0111 223.589 33.9809 224.304 34.6958C225.019 35.4108 225.989 35.8125 227 35.8125C228.011 35.8125 228.981 35.4108 229.696 34.6958C230.411 33.9809 230.812 33.0111 230.812 32C230.812 30.9889 230.411 30.0191 229.696 29.3042C228.981 28.5892 228.011 28.1875 227 28.1875C225.989 28.1875 225.019 28.5892 224.304 29.3042C223.589 30.0191 223.188 30.9889 223.188 32ZM249.875 32C249.875 33.0111 250.277 33.9809 250.992 34.6958C251.707 35.4108 252.676 35.8125 253.688 35.8125C254.699 35.8125 255.668 35.4108 256.383 34.6958C257.098 33.9809 257.5 33.0111 257.5 32C257.5 30.9889 257.098 30.0191 256.383 29.3042C255.668 28.5892 254.699 28.1875 253.688 28.1875C252.676 28.1875 251.707 28.5892 250.992 29.3042C250.277 30.0191 249.875 30.9889 249.875 32ZM196.5 58.6875C196.5 59.6986 196.902 60.6684 197.617 61.3833C198.332 62.0983 199.301 62.5 200.312 62.5C201.324 62.5 202.293 62.0983 203.008 61.3833C203.723 60.6684 204.125 59.6986 204.125 58.6875C204.125 57.6764 203.723 56.7066 203.008 55.9917C202.293 55.2767 201.324 54.875 200.312 54.875C199.301 54.875 198.332 55.2767 197.617 55.9917C196.902 56.7066 196.5 57.6764 196.5 58.6875ZM223.188 58.6875C223.188 59.6986 223.589 60.6684 224.304 61.3833C225.019 62.0983 225.989 62.5 227 62.5C228.011 62.5 228.981 62.0983 229.696 61.3833C230.411 60.6684 230.812 59.6986 230.812 58.6875C230.812 57.6764 230.411 56.7066 229.696 55.9917C228.981 55.2767 228.011 54.875 227 54.875C225.989 54.875 225.019 55.2767 224.304 55.9917C223.589 56.7066 223.188 57.6764 223.188 58.6875ZM249.875 58.6875C249.875 59.6986 250.277 60.6684 250.992 61.3833C251.707 62.0983 252.676 62.5 253.688 62.5C254.699 62.5 255.668 62.0983 256.383 61.3833C257.098 60.6684 257.5 59.6986 257.5 58.6875C257.5 57.6764 257.098 56.7066 256.383 55.9917C255.668 55.2767 254.699 54.875 253.688 54.875C252.676 54.875 251.707 55.2767 250.992 55.9917C250.277 56.7066 249.875 57.6764 249.875 58.6875Z" stroke="url(#paint0_linear_774_516)" stroke-width="2" stroke-linecap="round" stroke-linejoin="round"/>
<path d="M277.5 5.3125C277.5 6.32364 277.902 7.29336 278.617 8.00834C279.332 8.72333 280.301 9.125 281.312 9.125C282.324 9.125 283.293 8.72333 284.008 8.00834C284.723 7.29336 285.125 6.32364 285.125 5.3125C285.125 4.30136 284.723 3.33164 284.008 2.61666C283.293 1.90167 282.324 1.5 281.312 1.5C280.301 1.5 279.332 1.90167 278.617 2.61666C277.902 3.33164 277.5 4.30136 277.5 5.3125ZM304.188 5.3125C304.188 6.32364 304.589 7.29336 305.304 8.00834C306.019 8.72333 306.989 9.125 308 9.125C309.011 9.125 309.981 8.72333 310.696 8.00834C311.411 7.29336 311.812 6.32364 311.812 5.3125C311.812 4.30136 311.411 3.33164 310.696 2.61666C309.981 1.90167 309.011 1.5 308 1.5C306.989 1.5 306.019 1.90167 305.304 2.61666C304.589 3.33164 304.188 4.30136 304.188 5.3125ZM330.875 5.3125C330.875 6.32364 331.277 7.29336 331.992 8.00834C332.707 8.72333 333.676 9.125 334.688 9.125C335.699 9.125 336.668 8.72333 337.383 8.00834C338.098 7.29336 338.5 6.32364 338.5 5.3125C338.5 4.30136 338.098 3.33164 337.383 2.61666C336.668 1.90167 335.699 1.5 334.688 1.5C333.676 1.5 332.707 1.90167 331.992 2.61666C331.277 3.33164 330.875 4.30136 330.875 5.3125ZM277.5 32C277.5 33.0111 277.902 33.9809 278.617 34.6958C279.332 35.4108 280.301 35.8125 281.312 35.8125C282.324 35.8125 283.293 35.4108 284.008 34.6958C284.723 33.9809 285.125 33.0111 285.125 32C285.125 30.9889 284.723 30.0191 284.008 29.3042C283.293 28.5892 282.324 28.1875 281.312 28.1875C280.301 28.1875 279.332 28.5892 278.617 29.3042C277.902 30.0191 277.5 30.9889 277.5 32ZM304.188 32C304.188 33.0111 304.589 33.9809 305.304 34.6958C306.019 35.4108 306.989 35.8125 308 35.8125C309.011 35.8125 309.981 35.4108 310.696 34.6958C311.411 33.9809 311.812 33.0111 311.812 32C311.812 30.9889 311.411 30.0191 310.696 29.3042C309.981 28.5892 309.011 28.1875 308 28.1875C306.989 28.1875 306.019 28.5892 305.304 29.3042C304.589 30.0191 304.188 30.9889 304.188 32ZM330.875 32C330.875 33.0111 331.277 33.9809 331.992 34.6958C332.707 35.4108 333.676 35.8125 334.688 35.8125C335.699 35.8125 336.668 35.4108 337.383 34.6958C338.098 33.9809 338.5 33.0111 338.5 32C338.5 30.9889 338.098 30.0191 337.383 29.3042C336.668 28.5892 335.699 28.1875 334.688 28.1875C333.676 28.1875 332.707 28.5892 331.992 29.3042C331.277 30.0191 330.875 30.9889 330.875 32ZM277.5 58.6875C277.5 59.6986 277.902 60.6684 278.617 61.3833C279.332 62.0983 280.301 62.5 281.312 62.5C282.324 62.5 283.293 62.0983 284.008 61.3833C284.723 60.6684 285.125 59.6986 285.125 58.6875C285.125 57.6764 284.723 56.7066 284.008 55.9917C283.293 55.2767 282.324 54.875 281.312 54.875C280.301 54.875 279.332 55.2767 278.617 55.9917C277.902 56.7066 277.5 57.6764 277.5 58.6875ZM304.188 58.6875C304.188 59.6986 304.589 60.6684 305.304 61.3833C306.019 62.0983 306.989 62.5 308 62.5C309.011 62.5 309.981 62.0983 310.696 61.3833C311.411 60.6684 311.812 59.6986 311.812 58.6875C311.812 57.6764 311.411 56.7066 310.696 55.9917C309.981 55.2767 309.011 54.875 308 54.875C306.989 54.875 306.019 55.2767 305.304 55.9917C304.589 56.7066 304.188 57.6764 304.188 58.6875ZM330.875 58.6875C330.875 59.6986 331.277 60.6684 331.992 61.3833C332.707 62.0983 333.676 62.5 334.688 62.5C335.699 62.5 336.668 62.0983 337.383 61.3833C338.098 60.6684 338.5 59.6986 338.5 58.6875C338.5 57.6764 338.098 56.7066 337.383 55.9917C336.668 55.2767 335.699 54.875 334.688 54.875C333.676 54.875 332.707 55.2767 331.992 55.9917C331.277 56.7066 330.875 57.6764 330.875 58.6875Z" stroke="url(#paint1_linear_774_516)" stroke-width="2" stroke-linecap="round" stroke-linejoin="round"/>
<path d="M358.5 5.3125C358.5 6.32364 358.902 7.29336 359.617 8.00834C360.332 8.72333 361.301 9.125 362.312 9.125C363.324 9.125 364.293 8.72333 365.008 8.00834C365.723 7.29336 366.125 6.32364 366.125 5.3125C366.125 4.30136 365.723 3.33164 365.008 2.61666C364.293 1.90167 363.324 1.5 362.312 1.5C361.301 1.5 360.332 1.90167 359.617 2.61666C358.902 3.33164 358.5 4.30136 358.5 5.3125ZM385.188 5.3125C385.188 6.32364 385.589 7.29336 386.304 8.00834C387.019 8.72333 387.989 9.125 389 9.125C390.011 9.125 390.981 8.72333 391.696 8.00834C392.411 7.29336 392.812 6.32364 392.812 5.3125C392.812 4.30136 392.411 3.33164 391.696 2.61666C390.981 1.90167 390.011 1.5 389 1.5C387.989 1.5 387.019 1.90167 386.304 2.61666C385.589 3.33164 385.188 4.30136 385.188 5.3125ZM411.875 5.3125C411.875 6.32364 412.277 7.29336 412.992 8.00834C413.707 8.72333 414.676 9.125 415.688 9.125C416.699 9.125 417.668 8.72333 418.383 8.00834C419.098 7.29336 419.5 6.32364 419.5 5.3125C419.5 4.30136 419.098 3.33164 418.383 2.61666C417.668 1.90167 416.699 1.5 415.688 1.5C414.676 1.5 413.707 1.90167 412.992 2.61666C412.277 3.33164 411.875 4.30136 411.875 5.3125ZM358.5 32C358.5 33.0111 358.902 33.9809 359.617 34.6958C360.332 35.4108 361.301 35.8125 362.312 35.8125C363.324 35.8125 364.293 35.4108 365.008 34.6958C365.723 33.9809 366.125 33.0111 366.125 32C366.125 30.9889 365.723 30.0191 365.008 29.3042C364.293 28.5892 363.324 28.1875 362.312 28.1875C361.301 28.1875 360.332 28.5892 359.617 29.3042C358.902 30.0191 358.5 30.9889 358.5 32ZM385.188 32C385.188 33.0111 385.589 33.9809 386.304 34.6958C387.019 35.4108 387.989 35.8125 389 35.8125C390.011 35.8125 390.981 35.4108 391.696 34.6958C392.411 33.9809 392.812 33.0111 392.812 32C392.812 30.9889 392.411 30.0191 391.696 29.3042C390.981 28.5892 390.011 28.1875 389 28.1875C387.989 28.1875 387.019 28.5892 386.304 29.3042C385.589 30.0191 385.188 30.9889 385.188 32ZM411.875 32C411.875 33.0111 412.277 33.9809 412.992 34.6958C413.707 35.4108 414.676 35.8125 415.688 35.8125C416.699 35.8125 417.668 35.4108 418.383 34.6958C419.098 33.9809 419.5 33.0111 419.5 32C419.5 30.9889 419.098 30.0191 418.383 29.3042C417.668 28.5892 416.699 28.1875 415.688 28.1875C414.676 28.1875 413.707 28.5892 412.992 29.3042C412.277 30.0191 411.875 30.9889 411.875 32ZM358.5 58.6875C358.5 59.6986 358.902 60.6684 359.617 61.3833C360.332 62.0983 361.301 62.5 362.312 62.5C363.324 62.5 364.293 62.0983 365.008 61.3833C365.723 60.6684 366.125 59.6986 366.125 58.6875C366.125 57.6764 365.723 56.7066 365.008 55.9917C364.293 55.2767 363.324 54.875 362.312 54.875C361.301 54.875 360.332 55.2767 359.617 55.9917C358.902 56.7066 358.5 57.6764 358.5 58.6875ZM385.188 58.6875C385.188 59.6986 385.589 60.6684 386.304 61.3833C387.019 62.0983 387.989 62.5 389 62.5C390.011 62.5 390.981 62.0983 391.696 61.3833C392.411 60.6684 392.812 59.6986 392.812 58.6875C392.812 57.6764 392.411 56.7066 391.696 55.9917C390.981 55.2767 390.011 54.875 389 54.875C387.989 54.875 387.019 55.2767 386.304 55.9917C385.589 56.7066 385.188 57.6764 385.188 58.6875ZM411.875 58.6875C411.875 59.6986 412.277 60.6684 412.992 61.3833C413.707 62.0983 414.676 62.5 415.688 62.5C416.699 62.5 417.668 62.0983 418.383 61.3833C419.098 60.6684 419.5 59.6986 419.5 58.6875C419.5 57.6764 419.098 56.7066 418.383 55.9917C417.668 55.2767 416.699 54.875 415.688 54.875C414.676 54.875 413.707 55.2767 412.992 55.9917C412.277 56.7066 411.875 57.6764 411.875 58.6875Z" stroke="url(#paint2_linear_774_516)" stroke-width="2" stroke-linecap="round" stroke-linejoin="round"/>
<path d="M196.5 76.3125C196.5 77.3236 196.902 78.2934 197.617 79.0083C198.332 79.7233 199.301 80.125 200.312 80.125C201.324 80.125 202.293 79.7233 203.008 79.0083C203.723 78.2934 204.125 77.3236 204.125 76.3125C204.125 75.3014 203.723 74.3316 203.008 73.6167C202.293 72.9017 201.324 72.5 200.312 72.5C199.301 72.5 198.332 72.9017 197.617 73.6167C196.902 74.3316 196.5 75.3014 196.5 76.3125ZM223.188 76.3125C223.188 77.3236 223.589 78.2934 224.304 79.0083C225.019 79.7233 225.989 80.125 227 80.125C228.011 80.125 228.981 79.7233 229.696 79.0083C230.411 78.2934 230.812 77.3236 230.812 76.3125C230.812 75.3014 230.411 74.3316 229.696 73.6167C228.981 72.9017 228.011 72.5 227 72.5C225.989 72.5 225.019 72.9017 224.304 73.6167C223.589 74.3316 223.188 75.3014 223.188 76.3125ZM249.875 76.3125C249.875 77.3236 250.277 78.2934 250.992 79.0083C251.707 79.7233 252.676 80.125 253.688 80.125C254.699 80.125 255.668 79.7233 256.383 79.0083C257.098 78.2934 257.5 77.3236 257.5 76.3125C257.5 75.3014 257.098 74.3316 256.383 73.6167C255.668 72.9017 254.699 72.5 253.688 72.5C252.676 72.5 251.707 72.9017 250.992 73.6167C250.277 74.3316 249.875 75.3014 249.875 76.3125ZM196.5 103C196.5 104.011 196.902 104.981 197.617 105.696C198.332 106.411 199.301 106.812 200.312 106.812C201.324 106.812 202.293 106.411 203.008 105.696C203.723 104.981 204.125 104.011 204.125 103C204.125 101.989 203.723 101.019 203.008 100.304C202.293 99.5892 201.324 99.1875 200.312 99.1875C199.301 99.1875 198.332 99.5892 197.617 100.304C196.902 101.019 196.5 101.989 196.5 103ZM223.188 103C223.188 104.011 223.589 104.981 224.304 105.696C225.019 106.411 225.989 106.812 227 106.812C228.011 106.812 228.981 106.411 229.696 105.696C230.411 104.981 230.812 104.011 230.812 103C230.812 101.989 230.411 101.019 229.696 100.304C228.981 99.5892 228.011 99.1875 227 99.1875C225.989 99.1875 225.019 99.5892 224.304 100.304C223.589 101.019 223.188 101.989 223.188 103ZM249.875 103C249.875 104.011 250.277 104.981 250.992 105.696C251.707 106.411 252.676 106.812 253.688 106.812C254.699 106.812 255.668 106.411 256.383 105.696C257.098 104.981 257.5 104.011 257.5 103C257.5 101.989 257.098 101.019 256.383 100.304C255.668 99.5892 254.699 99.1875 253.688 99.1875C252.676 99.1875 251.707 99.5892 250.992 100.304C250.277 101.019 249.875 101.989 249.875 103ZM196.5 129.688C196.5 130.699 196.902 131.668 197.617 132.383C198.332 133.098 199.301 133.5 200.312 133.5C201.324 133.5 202.293 133.098 203.008 132.383C203.723 131.668 204.125 130.699 204.125 129.688C204.125 128.676 203.723 127.707 203.008 126.992C202.293 126.277 201.324 125.875 200.312 125.875C199.301 125.875 198.332 126.277 197.617 126.992C196.902 127.707 196.5 128.676 196.5 129.688ZM223.188 129.688C223.188 130.699 223.589 131.668 224.304 132.383C225.019 133.098 225.989 133.5 227 133.5C228.011 133.5 228.981 133.098 229.696 132.383C230.411 131.668 230.812 130.699 230.812 129.688C230.812 128.676 230.411 127.707 229.696 126.992C228.981 126.277 228.011 125.875 227 125.875C225.989 125.875 225.019 126.277 224.304 126.992C223.589 127.707 223.188 128.676 223.188 129.688ZM249.875 129.688C249.875 130.699 250.277 131.668 250.992 132.383C251.707 133.098 252.676 133.5 253.688 133.5C254.699 133.5 255.668 133.098 256.383 132.383C257.098 131.668 257.5 130.699 257.5 129.688C257.5 128.676 257.098 127.707 256.383 126.992C255.668 126.277 254.699 125.875 253.688 125.875C252.676 125.875 251.707 126.277 250.992 126.992C250.277 127.707 249.875 128.676 249.875 129.688Z" stroke="url(#paint3_linear_774_516)" stroke-width="2" stroke-linecap="round" stroke-linejoin="round"/>
<path d="M283.921 75.7105C283.921 76.3455 283.733 76.9662 283.38 77.4942C283.027 78.0222 282.526 78.4337 281.939 78.6767C281.352 78.9197 280.707 78.9832 280.084 78.8594C279.461 78.7355 278.889 78.4297 278.44 77.9807C277.991 77.5317 277.686 76.9597 277.562 76.3369C277.438 75.7141 277.501 75.0686 277.744 74.4819C277.987 73.8953 278.399 73.3939 278.927 73.0411C279.455 72.6883 280.076 72.5 280.711 72.5C281.562 72.5 282.379 72.8383 282.981 73.4403C283.583 74.0424 283.921 74.859 283.921 75.7105ZM308 72.5C307.365 72.5 306.744 72.6883 306.216 73.0411C305.688 73.3939 305.277 73.8953 305.034 74.4819C304.791 75.0686 304.727 75.7141 304.851 76.3369C304.975 76.9597 305.281 77.5317 305.73 77.9807C306.179 78.4297 306.751 78.7355 307.374 78.8594C307.996 78.9832 308.642 78.9197 309.229 78.6767C309.815 78.4337 310.317 78.0222 310.669 77.4942C311.022 76.9662 311.211 76.3455 311.211 75.7105C311.211 74.859 310.872 74.0424 310.27 73.4403C309.668 72.8383 308.851 72.5 308 72.5ZM335.289 78.9211C335.924 78.9211 336.545 78.7328 337.073 78.38C337.601 78.0272 338.013 77.5258 338.256 76.9391C338.499 76.3525 338.562 75.707 338.438 75.0842C338.314 74.4614 338.009 73.8893 337.56 73.4403C337.111 72.9913 336.539 72.6856 335.916 72.5617C335.293 72.4378 334.648 72.5014 334.061 72.7444C333.474 72.9874 332.973 73.3989 332.62 73.9269C332.267 74.4548 332.079 75.0755 332.079 75.7105C332.079 76.562 332.417 77.3786 333.019 77.9807C333.621 78.5828 334.438 78.9211 335.289 78.9211ZM280.711 99.7895C280.076 99.7895 279.455 99.9778 278.927 100.331C278.399 100.683 277.987 101.185 277.744 101.771C277.501 102.358 277.438 103.004 277.562 103.626C277.686 104.249 277.991 104.821 278.44 105.27C278.889 105.719 279.461 106.025 280.084 106.149C280.707 106.273 281.352 106.209 281.939 105.966C282.526 105.723 283.027 105.312 283.38 104.784C283.733 104.256 283.921 103.635 283.921 103C283.921 102.149 283.583 101.332 282.981 100.73C282.379 100.128 281.562 99.7895 280.711 99.7895ZM308 99.7895C307.365 99.7895 306.744 99.9778 306.216 100.331C305.688 100.683 305.277 101.185 305.034 101.771C304.791 102.358 304.727 103.004 304.851 103.626C304.975 104.249 305.281 104.821 305.73 105.27C306.179 105.719 306.751 106.025 307.374 106.149C307.996 106.273 308.642 106.209 309.229 105.966C309.815 105.723 310.317 105.312 310.669 104.784C311.022 104.256 311.211 103.635 311.211 103C311.211 102.149 310.872 101.332 310.27 100.73C309.668 100.128 308.851 99.7895 308 99.7895ZM335.289 99.7895C334.654 99.7895 334.034 99.9778 333.506 100.331C332.978 100.683 332.566 101.185 332.323 101.771C332.08 102.358 332.017 103.004 332.141 103.626C332.265 104.249 332.57 104.821 333.019 105.27C333.468 105.719 334.04 106.025 334.663 106.149C335.286 106.273 335.931 106.209 336.518 105.966C337.105 105.723 337.606 105.312 337.959 104.784C338.312 104.256 338.5 103.635 338.5 103C338.5 102.149 338.162 101.332 337.56 100.73C336.958 100.128 336.141 99.7895 335.289 99.7895ZM280.711 127.079C280.076 127.079 279.455 127.267 278.927 127.62C278.399 127.973 277.987 128.474 277.744 129.061C277.501 129.648 277.438 130.293 277.562 130.916C277.686 131.539 277.991 132.111 278.44 132.56C278.889 133.009 279.461 133.314 280.084 133.438C280.707 133.562 281.352 133.499 281.939 133.256C282.526 133.013 283.027 132.601 283.38 132.073C283.733 131.545 283.921 130.924 283.921 130.289C283.921 129.438 283.583 128.621 282.981 128.019C282.379 127.417 281.562 127.079 280.711 127.079ZM308 127.079C307.365 127.079 306.744 127.267 306.216 127.62C305.688 127.973 305.277 128.474 305.034 129.061C304.791 129.648 304.727 130.293 304.851 130.916C304.975 131.539 305.281 132.111 305.73 132.56C306.179 133.009 306.751 133.314 307.374 133.438C307.996 133.562 308.642 133.499 309.229 133.256C309.815 133.013 310.317 132.601 310.669 132.073C311.022 131.545 311.211 130.924 311.211 130.289C311.211 129.438 310.872 128.621 310.27 128.019C309.668 127.417 308.851 127.079 308 127.079ZM335.289 127.079C334.654 127.079 334.034 127.267 333.506 127.62C332.978 127.973 332.566 128.474 332.323 129.061C332.08 129.648 332.017 130.293 332.141 130.916C332.265 131.539 332.57 132.111 333.019 132.56C333.468 133.009 334.04 133.314 334.663 133.438C335.286 133.562 335.931 133.499 336.518 133.256C337.105 133.013 337.606 132.601 337.959 132.073C338.312 131.545 338.5 130.924 338.5 130.289C338.5 129.438 338.162 128.621 337.56 128.019C336.958 127.417 336.141 127.079 335.289 127.079Z" fill="url(#paint4_linear_774_516)"/>
<path d="M364.921 75.7105C364.921 76.3455 364.733 76.9662 364.38 77.4942C364.027 78.0222 363.526 78.4337 362.939 78.6767C362.352 78.9197 361.707 78.9832 361.084 78.8594C360.461 78.7355 359.889 78.4297 359.44 77.9807C358.991 77.5317 358.686 76.9597 358.562 76.3369C358.438 75.7141 358.501 75.0686 358.744 74.4819C358.987 73.8953 359.399 73.3939 359.927 73.0411C360.455 72.6883 361.076 72.5 361.711 72.5C362.562 72.5 363.379 72.8383 363.981 73.4403C364.583 74.0424 364.921 74.859 364.921 75.7105ZM389 72.5C388.365 72.5 387.744 72.6883 387.216 73.0411C386.688 73.3939 386.277 73.8953 386.034 74.4819C385.791 75.0686 385.727 75.7141 385.851 76.3369C385.975 76.9597 386.281 77.5317 386.73 77.9807C387.179 78.4297 387.751 78.7355 388.374 78.8594C388.996 78.9832 389.642 78.9197 390.229 78.6767C390.815 78.4337 391.317 78.0222 391.669 77.4942C392.022 76.9662 392.211 76.3455 392.211 75.7105C392.211 74.859 391.872 74.0424 391.27 73.4403C390.668 72.8383 389.851 72.5 389 72.5ZM416.289 78.9211C416.924 78.9211 417.545 78.7328 418.073 78.38C418.601 78.0272 419.013 77.5258 419.256 76.9391C419.499 76.3525 419.562 75.707 419.438 75.0842C419.314 74.4614 419.009 73.8893 418.56 73.4403C418.111 72.9913 417.539 72.6856 416.916 72.5617C416.293 72.4378 415.648 72.5014 415.061 72.7444C414.474 72.9874 413.973 73.3989 413.62 73.9269C413.267 74.4548 413.079 75.0755 413.079 75.7105C413.079 76.562 413.417 77.3786 414.019 77.9807C414.621 78.5828 415.438 78.9211 416.289 78.9211ZM361.711 99.7895C361.076 99.7895 360.455 99.9778 359.927 100.331C359.399 100.683 358.987 101.185 358.744 101.771C358.501 102.358 358.438 103.004 358.562 103.626C358.686 104.249 358.991 104.821 359.44 105.27C359.889 105.719 360.461 106.025 361.084 106.149C361.707 106.273 362.352 106.209 362.939 105.966C363.526 105.723 364.027 105.312 364.38 104.784C364.733 104.256 364.921 103.635 364.921 103C364.921 102.149 364.583 101.332 363.981 100.73C363.379 100.128 362.562 99.7895 361.711 99.7895ZM389 99.7895C388.365 99.7895 387.744 99.9778 387.216 100.331C386.688 100.683 386.277 101.185 386.034 101.771C385.791 102.358 385.727 103.004 385.851 103.626C385.975 104.249 386.281 104.821 386.73 105.27C387.179 105.719 387.751 106.025 388.374 106.149C388.996 106.273 389.642 106.209 390.229 105.966C390.815 105.723 391.317 105.312 391.669 104.784C392.022 104.256 392.211 103.635 392.211 103C392.211 102.149 391.872 101.332 391.27 100.73C390.668 100.128 389.851 99.7895 389 99.7895ZM416.289 99.7895C415.654 99.7895 415.034 99.9778 414.506 100.331C413.978 100.683 413.566 101.185 413.323 101.771C413.08 102.358 413.017 103.004 413.141 103.626C413.265 104.249 413.57 104.821 414.019 105.27C414.468 105.719 415.04 106.025 415.663 106.149C416.286 106.273 416.931 106.209 417.518 105.966C418.105 105.723 418.606 105.312 418.959 104.784C419.312 104.256 419.5 103.635 419.5 103C419.5 102.149 419.162 101.332 418.56 100.73C417.958 100.128 417.141 99.7895 416.289 99.7895ZM361.711 127.079C361.076 127.079 360.455 127.267 359.927 127.62C359.399 127.973 358.987 128.474 358.744 129.061C358.501 129.648 358.438 130.293 358.562 130.916C358.686 131.539 358.991 132.111 359.44 132.56C359.889 133.009 360.461 133.314 361.084 133.438C361.707 133.562 362.352 133.499 362.939 133.256C363.526 133.013 364.027 132.601 364.38 132.073C364.733 131.545 364.921 130.924 364.921 130.289C364.921 129.438 364.583 128.621 363.981 128.019C363.379 127.417 362.562 127.079 361.711 127.079ZM389 127.079C388.365 127.079 387.744 127.267 387.216 127.62C386.688 127.973 386.277 128.474 386.034 129.061C385.791 129.648 385.727 130.293 385.851 130.916C385.975 131.539 386.281 132.111 386.73 132.56C387.179 133.009 387.751 133.314 388.374 133.438C388.996 133.562 389.642 133.499 390.229 133.256C390.815 133.013 391.317 132.601 391.669 132.073C392.022 131.545 392.211 130.924 392.211 130.289C392.211 129.438 391.872 128.621 391.27 128.019C390.668 127.417 389.851 127.079 389 127.079ZM416.289 127.079C415.654 127.079 415.034 127.267 414.506 127.62C413.978 127.973 413.566 128.474 413.323 129.061C413.08 129.648 413.017 130.293 413.141 130.916C413.265 131.539 413.57 132.111 414.019 132.56C414.468 133.009 415.04 133.314 415.663 133.438C416.286 133.562 416.931 133.499 417.518 133.256C418.105 133.013 418.606 132.601 418.959 132.073C419.312 131.545 419.5 130.924 419.5 130.289C419.5 129.438 419.162 128.621 418.56 128.019C417.958 127.417 417.141 127.079 416.289 127.079Z" fill="url(#paint5_linear_774_516)"/>
<path d="M196.5 147.312C196.5 148.324 196.902 149.293 197.617 150.008C198.332 150.723 199.301 151.125 200.312 151.125C201.324 151.125 202.293 150.723 203.008 150.008C203.723 149.293 204.125 148.324 204.125 147.312C204.125 146.301 203.723 145.332 203.008 144.617C202.293 143.902 201.324 143.5 200.312 143.5C199.301 143.5 198.332 143.902 197.617 144.617C196.902 145.332 196.5 146.301 196.5 147.312ZM223.188 147.312C223.188 148.324 223.589 149.293 224.304 150.008C225.019 150.723 225.989 151.125 227 151.125C228.011 151.125 228.981 150.723 229.696 150.008C230.411 149.293 230.812 148.324 230.812 147.312C230.812 146.301 230.411 145.332 229.696 144.617C228.981 143.902 228.011 143.5 227 143.5C225.989 143.5 225.019 143.902 224.304 144.617C223.589 145.332 223.188 146.301 223.188 147.312ZM249.875 147.312C249.875 148.324 250.277 149.293 250.992 150.008C251.707 150.723 252.676 151.125 253.688 151.125C254.699 151.125 255.668 150.723 256.383 150.008C257.098 149.293 257.5 148.324 257.5 147.312C257.5 146.301 257.098 145.332 256.383 144.617C255.668 143.902 254.699 143.5 253.688 143.5C252.676 143.5 251.707 143.902 250.992 144.617C250.277 145.332 249.875 146.301 249.875 147.312ZM196.5 174C196.5 175.011 196.902 175.981 197.617 176.696C198.332 177.411 199.301 177.812 200.312 177.812C201.324 177.812 202.293 177.411 203.008 176.696C203.723 175.981 204.125 175.011 204.125 174C204.125 172.989 203.723 172.019 203.008 171.304C202.293 170.589 201.324 170.188 200.312 170.188C199.301 170.188 198.332 170.589 197.617 171.304C196.902 172.019 196.5 172.989 196.5 174ZM223.188 174C223.188 175.011 223.589 175.981 224.304 176.696C225.019 177.411 225.989 177.812 227 177.812C228.011 177.812 228.981 177.411 229.696 176.696C230.411 175.981 230.812 175.011 230.812 174C230.812 172.989 230.411 172.019 229.696 171.304C228.981 170.589 228.011 170.188 227 170.188C225.989 170.188 225.019 170.589 224.304 171.304C223.589 172.019 223.188 172.989 223.188 174ZM249.875 174C249.875 175.011 250.277 175.981 250.992 176.696C251.707 177.411 252.676 177.812 253.688 177.812C254.699 177.812 255.668 177.411 256.383 176.696C257.098 175.981 257.5 175.011 257.5 174C257.5 172.989 257.098 172.019 256.383 171.304C255.668 170.589 254.699 170.188 253.688 170.188C252.676 170.188 251.707 170.589 250.992 171.304C250.277 172.019 249.875 172.989 249.875 174ZM196.5 200.688C196.5 201.699 196.902 202.668 197.617 203.383C198.332 204.098 199.301 204.5 200.312 204.5C201.324 204.5 202.293 204.098 203.008 203.383C203.723 202.668 204.125 201.699 204.125 200.688C204.125 199.676 203.723 198.707 203.008 197.992C202.293 197.277 201.324 196.875 200.312 196.875C199.301 196.875 198.332 197.277 197.617 197.992C196.902 198.707 196.5 199.676 196.5 200.688ZM223.188 200.688C223.188 201.699 223.589 202.668 224.304 203.383C225.019 204.098 225.989 204.5 227 204.5C228.011 204.5 228.981 204.098 229.696 203.383C230.411 202.668 230.812 201.699 230.812 200.688C230.812 199.676 230.411 198.707 229.696 197.992C228.981 197.277 228.011 196.875 227 196.875C225.989 196.875 225.019 197.277 224.304 197.992C223.589 198.707 223.188 199.676 223.188 200.688ZM249.875 200.688C249.875 201.699 250.277 202.668 250.992 203.383C251.707 204.098 252.676 204.5 253.688 204.5C254.699 204.5 255.668 204.098 256.383 203.383C257.098 202.668 257.5 201.699 257.5 200.688C257.5 199.676 257.098 198.707 256.383 197.992C255.668 197.277 254.699 196.875 253.688 196.875C252.676 196.875 251.707 197.277 250.992 197.992C250.277 198.707 249.875 199.676 249.875 200.688Z" stroke="url(#paint6_linear_774_516)" stroke-width="2" stroke-linecap="round" stroke-linejoin="round"/>
<path d="M283.921 146.711C283.921 147.346 283.733 147.966 283.38 148.494C283.027 149.022 282.526 149.434 281.939 149.677C281.352 149.92 280.707 149.983 280.084 149.859C279.461 149.735 278.889 149.43 278.44 148.981C277.991 148.532 277.686 147.96 277.562 147.337C277.438 146.714 277.501 146.069 277.744 145.482C277.987 144.895 278.399 144.394 278.927 144.041C279.455 143.688 280.076 143.5 280.711 143.5C281.562 143.5 282.379 143.838 282.981 144.44C283.583 145.042 283.921 145.859 283.921 146.711ZM308 143.5C307.365 143.5 306.744 143.688 306.216 144.041C305.688 144.394 305.277 144.895 305.034 145.482C304.791 146.069 304.727 146.714 304.851 147.337C304.975 147.96 305.281 148.532 305.73 148.981C306.179 149.43 306.751 149.735 307.374 149.859C307.996 149.983 308.642 149.92 309.229 149.677C309.815 149.434 310.317 149.022 310.669 148.494C311.022 147.966 311.211 147.346 311.211 146.711C311.211 145.859 310.872 145.042 310.27 144.44C309.668 143.838 308.851 143.5 308 143.5ZM335.289 149.921C335.924 149.921 336.545 149.733 337.073 149.38C337.601 149.027 338.013 148.526 338.256 147.939C338.499 147.352 338.562 146.707 338.438 146.084C338.314 145.461 338.009 144.889 337.56 144.44C337.111 143.991 336.539 143.686 335.916 143.562C335.293 143.438 334.648 143.501 334.061 143.744C333.474 143.987 332.973 144.399 332.62 144.927C332.267 145.455 332.079 146.076 332.079 146.711C332.079 147.562 332.417 148.379 333.019 148.981C333.621 149.583 334.438 149.921 335.289 149.921ZM280.711 170.789C280.076 170.789 279.455 170.978 278.927 171.331C278.399 171.683 277.987 172.185 277.744 172.771C277.501 173.358 277.438 174.004 277.562 174.626C277.686 175.249 277.991 175.821 278.44 176.27C278.889 176.719 279.461 177.025 280.084 177.149C280.707 177.273 281.352 177.209 281.939 176.966C282.526 176.723 283.027 176.312 283.38 175.784C283.733 175.256 283.921 174.635 283.921 174C283.921 173.149 283.583 172.332 282.981 171.73C282.379 171.128 281.562 170.789 280.711 170.789ZM308 170.789C307.365 170.789 306.744 170.978 306.216 171.331C305.688 171.683 305.277 172.185 305.034 172.771C304.791 173.358 304.727 174.004 304.851 174.626C304.975 175.249 305.281 175.821 305.73 176.27C306.179 176.719 306.751 177.025 307.374 177.149C307.996 177.273 308.642 177.209 309.229 176.966C309.815 176.723 310.317 176.312 310.669 175.784C311.022 175.256 311.211 174.635 311.211 174C311.211 173.149 310.872 172.332 310.27 171.73C309.668 171.128 308.851 170.789 308 170.789ZM335.289 170.789C334.654 170.789 334.034 170.978 333.506 171.331C332.978 171.683 332.566 172.185 332.323 172.771C332.08 173.358 332.017 174.004 332.141 174.626C332.265 175.249 332.57 175.821 333.019 176.27C333.468 176.719 334.04 177.025 334.663 177.149C335.286 177.273 335.931 177.209 336.518 176.966C337.105 176.723 337.606 176.312 337.959 175.784C338.312 175.256 338.5 174.635 338.5 174C338.5 173.149 338.162 172.332 337.56 171.73C336.958 171.128 336.141 170.789 335.289 170.789ZM280.711 198.079C280.076 198.079 279.455 198.267 278.927 198.62C278.399 198.973 277.987 199.474 277.744 200.061C277.501 200.648 277.438 201.293 277.562 201.916C277.686 202.539 277.991 203.111 278.44 203.56C278.889 204.009 279.461 204.314 280.084 204.438C280.707 204.562 281.352 204.499 281.939 204.256C282.526 204.013 283.027 203.601 283.38 203.073C283.733 202.545 283.921 201.924 283.921 201.289C283.921 200.438 283.583 199.621 282.981 199.019C282.379 198.417 281.562 198.079 280.711 198.079ZM308 198.079C307.365 198.079 306.744 198.267 306.216 198.62C305.688 198.973 305.277 199.474 305.034 200.061C304.791 200.648 304.727 201.293 304.851 201.916C304.975 202.539 305.281 203.111 305.73 203.56C306.179 204.009 306.751 204.314 307.374 204.438C307.996 204.562 308.642 204.499 309.229 204.256C309.815 204.013 310.317 203.601 310.669 203.073C311.022 202.545 311.211 201.924 311.211 201.289C311.211 200.438 310.872 199.621 310.27 199.019C309.668 198.417 308.851 198.079 308 198.079ZM335.289 198.079C334.654 198.079 334.034 198.267 333.506 198.62C332.978 198.973 332.566 199.474 332.323 200.061C332.08 200.648 332.017 201.293 332.141 201.916C332.265 202.539 332.57 203.111 333.019 203.56C333.468 204.009 334.04 204.314 334.663 204.438C335.286 204.562 335.931 204.499 336.518 204.256C337.105 204.013 337.606 203.601 337.959 203.073C338.312 202.545 338.5 201.924 338.5 201.289C338.5 200.438 338.162 199.621 337.56 199.019C336.958 198.417 336.141 198.079 335.289 198.079Z" fill="url(#paint7_linear_774_516)"/>
<path d="M364.921 146.711C364.921 147.346 364.733 147.966 364.38 148.494C364.027 149.022 363.526 149.434 362.939 149.677C362.352 149.92 361.707 149.983 361.084 149.859C360.461 149.735 359.889 149.43 359.44 148.981C358.991 148.532 358.686 147.96 358.562 147.337C358.438 146.714 358.501 146.069 358.744 145.482C358.987 144.895 359.399 144.394 359.927 144.041C360.455 143.688 361.076 143.5 361.711 143.5C362.562 143.5 363.379 143.838 363.981 144.44C364.583 145.042 364.921 145.859 364.921 146.711ZM389 143.5C388.365 143.5 387.744 143.688 387.216 144.041C386.688 144.394 386.277 144.895 386.034 145.482C385.791 146.069 385.727 146.714 385.851 147.337C385.975 147.96 386.281 148.532 386.73 148.981C387.179 149.43 387.751 149.735 388.374 149.859C388.996 149.983 389.642 149.92 390.229 149.677C390.815 149.434 391.317 149.022 391.669 148.494C392.022 147.966 392.211 147.346 392.211 146.711C392.211 145.859 391.872 145.042 391.27 144.44C390.668 143.838 389.851 143.5 389 143.5ZM416.289 149.921C416.924 149.921 417.545 149.733 418.073 149.38C418.601 149.027 419.013 148.526 419.256 147.939C419.499 147.352 419.562 146.707 419.438 146.084C419.314 145.461 419.009 144.889 418.56 144.44C418.111 143.991 417.539 143.686 416.916 143.562C416.293 143.438 415.648 143.501 415.061 143.744C414.474 143.987 413.973 144.399 413.62 144.927C413.267 145.455 413.079 146.076 413.079 146.711C413.079 147.562 413.417 148.379 414.019 148.981C414.621 149.583 415.438 149.921 416.289 149.921ZM361.711 170.789C361.076 170.789 360.455 170.978 359.927 171.331C359.399 171.683 358.987 172.185 358.744 172.771C358.501 173.358 358.438 174.004 358.562 174.626C358.686 175.249 358.991 175.821 359.44 176.27C359.889 176.719 360.461 177.025 361.084 177.149C361.707 177.273 362.352 177.209 362.939 176.966C363.526 176.723 364.027 176.312 364.38 175.784C364.733 175.256 364.921 174.635 364.921 174C364.921 173.149 364.583 172.332 363.981 171.73C363.379 171.128 362.562 170.789 361.711 170.789ZM389 170.789C388.365 170.789 387.744 170.978 387.216 171.331C386.688 171.683 386.277 172.185 386.034 172.771C385.791 173.358 385.727 174.004 385.851 174.626C385.975 175.249 386.281 175.821 386.73 176.27C387.179 176.719 387.751 177.025 388.374 177.149C388.996 177.273 389.642 177.209 390.229 176.966C390.815 176.723 391.317 176.312 391.669 175.784C392.022 175.256 392.211 174.635 392.211 174C392.211 173.149 391.872 172.332 391.27 171.73C390.668 171.128 389.851 170.789 389 170.789ZM416.289 170.789C415.654 170.789 415.034 170.978 414.506 171.331C413.978 171.683 413.566 172.185 413.323 172.771C413.08 173.358 413.017 174.004 413.141 174.626C413.265 175.249 413.57 175.821 414.019 176.27C414.468 176.719 415.04 177.025 415.663 177.149C416.286 177.273 416.931 177.209 417.518 176.966C418.105 176.723 418.606 176.312 418.959 175.784C419.312 175.256 419.5 174.635 419.5 174C419.5 173.149 419.162 172.332 418.56 171.73C417.958 171.128 417.141 170.789 416.289 170.789ZM361.711 198.079C361.076 198.079 360.455 198.267 359.927 198.62C359.399 198.973 358.987 199.474 358.744 200.061C358.501 200.648 358.438 201.293 358.562 201.916C358.686 202.539 358.991 203.111 359.44 203.56C359.889 204.009 360.461 204.314 361.084 204.438C361.707 204.562 362.352 204.499 362.939 204.256C363.526 204.013 364.027 203.601 364.38 203.073C364.733 202.545 364.921 201.924 364.921 201.289C364.921 200.438 364.583 199.621 363.981 199.019C363.379 198.417 362.562 198.079 361.711 198.079ZM389 198.079C388.365 198.079 387.744 198.267 387.216 198.62C386.688 198.973 386.277 199.474 386.034 200.061C385.791 200.648 385.727 201.293 385.851 201.916C385.975 202.539 386.281 203.111 386.73 203.56C387.179 204.009 387.751 204.314 388.374 204.438C388.996 204.562 389.642 204.499 390.229 204.256C390.815 204.013 391.317 203.601 391.669 203.073C392.022 202.545 392.211 201.924 392.211 201.289C392.211 200.438 391.872 199.621 391.27 199.019C390.668 198.417 389.851 198.079 389 198.079ZM416.289 198.079C415.654 198.079 415.034 198.267 414.506 198.62C413.978 198.973 413.566 199.474 413.323 200.061C413.08 200.648 413.017 201.293 413.141 201.916C413.265 202.539 413.57 203.111 414.019 203.56C414.468 204.009 415.04 204.314 415.663 204.438C416.286 204.562 416.931 204.499 417.518 204.256C418.105 204.013 418.606 203.601 418.959 203.073C419.312 202.545 419.5 201.924 419.5 201.289C419.5 200.438 419.162 199.621 418.56 199.019C417.958 198.417 417.141 198.079 416.289 198.079Z" fill="url(#paint8_linear_774_516)"/>
</g>
</g>
<defs>
<linearGradient id="paint0_linear_774_516" x1="227" y1="1.5" x2="227" y2="62.5" gradientUnits="userSpaceOnUse">
<stop offset="0.625" stop-color="#B9AA46"/>
<stop offset="1" stop-color="#B9AA46" stop-opacity="0.63"/>
</linearGradient>
<linearGradient id="paint1_linear_774_516" x1="308" y1="1.5" x2="308" y2="62.5" gradientUnits="userSpaceOnUse">
<stop offset="0.625" stop-color="#B9AA46"/>
<stop offset="1" stop-color="#B9AA46" stop-opacity="0.63"/>
</linearGradient>
<linearGradient id="paint2_linear_774_516" x1="389" y1="1.5" x2="389" y2="62.5" gradientUnits="userSpaceOnUse">
<stop offset="0.625" stop-color="#B9AA46"/>
<stop offset="1" stop-color="#B9AA46" stop-opacity="0.63"/>
</linearGradient>
<linearGradient id="paint3_linear_774_516" x1="227" y1="72.5" x2="227" y2="133.5" gradientUnits="userSpaceOnUse">
<stop offset="0.625" stop-color="#B9AA46"/>
<stop offset="1" stop-color="#B9AA46" stop-opacity="0.63"/>
</linearGradient>
<linearGradient id="paint4_linear_774_516" x1="308" y1="72.5" x2="308" y2="133.5" gradientUnits="userSpaceOnUse">
<stop offset="0.625" stop-color="#B9AA46"/>
<stop offset="1" stop-color="#B9AA46" stop-opacity="0.63"/>
</linearGradient>
<linearGradient id="paint5_linear_774_516" x1="389" y1="72.5" x2="389" y2="133.5" gradientUnits="userSpaceOnUse">
<stop offset="0.625" stop-color="#B9AA46"/>
<stop offset="1" stop-color="#B9AA46" stop-opacity="0.63"/>
</linearGradient>
<linearGradient id="paint6_linear_774_516" x1="227" y1="143.5" x2="227" y2="204.5" gradientUnits="userSpaceOnUse">
<stop offset="0.625" stop-color="#B9AA46"/>
<stop offset="1" stop-color="#B9AA46" stop-opacity="0.63"/>
</linearGradient>
<linearGradient id="paint7_linear_774_516" x1="308" y1="143.5" x2="308" y2="204.5" gradientUnits="userSpaceOnUse">
<stop offset="0.625" stop-color="#B9AA46"/>
<stop offset="1" stop-color="#B9AA46" stop-opacity="0.63"/>
</linearGradient>
<linearGradient id="paint8_linear_774_516" x1="389" y1="143.5" x2="389" y2="204.5" gradientUnits="userSpaceOnUse">
<stop offset="0.625" stop-color="#B9AA46"/>
<stop offset="1" stop-color="#B9AA46" stop-opacity="0.63"/>
</linearGradient>
<clipPath id="clip0_774_516">
<rect width="616" height="157" fill="white"/>
</clipPath>
</defs>
</svg>
