<svg width="430" height="932" viewBox="0 0 430 932" fill="none" xmlns="http://www.w3.org/2000/svg">
<g clip-path="url(#clip0_774_494)">
<rect width="430" height="932" fill="#250303"/>
<circle opacity="0.1" cx="381.5" cy="759.5" r="172.5" fill="#D9D9D9"/>
<path opacity="0.1" d="M420.055 789.09L407.721 776.458C405.068 773.936 401.722 772.265 398.112 771.66C394.502 771.055 390.793 771.543 387.463 773.062L382.101 767.699C388.42 759.256 391.306 748.732 390.177 738.246C389.049 727.761 383.99 718.092 376.02 711.186C368.049 704.28 357.758 700.65 347.218 701.027C336.679 701.403 326.673 705.759 319.216 713.216C311.759 720.673 307.403 730.679 307.027 741.218C306.65 751.758 310.28 762.049 317.186 770.02C324.092 777.99 333.761 783.049 344.246 784.177C354.732 785.306 365.256 782.42 373.699 776.101L379.002 781.403C377.305 784.738 376.696 788.521 377.263 792.22C377.829 795.918 379.542 799.346 382.16 802.019L394.792 814.651C398.143 817.998 402.687 819.879 407.423 819.879C412.16 819.879 416.704 817.998 420.055 814.651C421.758 812.986 423.11 810.998 424.034 808.803C424.958 806.609 425.433 804.251 425.433 801.87C425.433 799.489 424.958 797.132 424.034 794.937C423.11 792.743 421.758 790.754 420.055 789.09ZM369.528 763.826C365.359 767.985 360.051 770.815 354.274 771.959C348.497 773.102 342.51 772.508 337.071 770.251C331.632 767.994 326.983 764.175 323.713 759.277C320.443 754.38 318.698 748.623 318.698 742.734C318.698 736.845 320.443 731.088 323.713 726.19C326.983 721.293 331.632 717.474 337.071 715.217C342.51 712.96 348.497 712.366 354.274 713.509C360.051 714.653 365.359 717.482 369.528 721.641C372.303 724.409 374.504 727.696 376.006 731.316C377.508 734.935 378.281 738.815 378.281 742.734C378.281 746.653 377.508 750.533 376.006 754.152C374.504 757.771 372.303 761.059 369.528 763.826ZM411.654 805.952C411.1 806.51 410.441 806.954 409.715 807.256C408.989 807.559 408.21 807.714 407.423 807.714C406.637 807.714 405.858 807.559 405.132 807.256C404.406 806.954 403.747 806.51 403.193 805.952L390.561 793.32C390.003 792.766 389.56 792.107 389.257 791.381C388.955 790.655 388.799 789.876 388.799 789.09C388.799 788.303 388.955 787.524 389.257 786.798C389.56 786.072 390.003 785.413 390.561 784.859C391.115 784.301 391.774 783.858 392.5 783.555C393.226 783.253 394.005 783.097 394.792 783.097C395.578 783.097 396.357 783.253 397.083 783.555C397.809 783.858 398.468 784.301 399.022 784.859L411.654 797.491C412.212 798.045 412.656 798.704 412.958 799.43C413.261 800.156 413.416 800.935 413.416 801.721C413.416 802.508 413.261 803.287 412.958 804.013C412.656 804.739 412.212 805.398 411.654 805.952Z" fill="#FFFDFD"/>
<path opacity="0.1" d="M215 33.5C215 128.769 137.769 206 42.5 206C-52.7691 206 -130 128.769 -130 33.5C-130 -61.7691 -52.7691 -139 42.5 -139C137.769 -139 215 -61.7691 215 33.5ZM-71.488 33.5C-71.488 96.4538 -20.4538 147.488 42.5 147.488C105.454 147.488 156.488 96.4538 156.488 33.5C156.488 -29.4538 105.454 -80.488 42.5 -80.488C-20.4538 -80.488 -71.488 -29.4538 -71.488 33.5Z" fill="#D9D9D9"/>
<g opacity="0.2">
<path d="M37.0172 297.759C37.0172 299.153 36.4632 300.491 35.477 301.477C34.4908 302.463 33.1533 303.017 31.7586 303.017C30.3639 303.017 29.0264 302.463 28.0402 301.477C27.054 300.491 26.5 299.153 26.5 297.759C26.5 296.364 27.054 295.026 28.0402 294.04C29.0264 293.054 30.3639 292.5 31.7586 292.5C33.1533 292.5 34.4908 293.054 35.477 294.04C36.4632 295.026 37.0172 296.364 37.0172 297.759ZM87.5 348.241C87.5 349.636 86.946 350.974 85.9598 351.96C84.9736 352.946 83.6361 353.5 82.2414 353.5C80.8467 353.5 79.5092 352.946 78.523 351.96C77.5368 350.974 76.9828 349.636 76.9828 348.241C76.9828 346.847 77.5368 345.509 78.523 344.523C79.5092 343.537 80.8467 342.983 82.2414 342.983C83.6361 342.983 84.9736 343.537 85.9598 344.523C86.946 345.509 87.5 346.847 87.5 348.241ZM82.2414 328.259C83.6361 328.259 84.9736 327.705 85.9598 326.718C86.946 325.732 87.5 324.395 87.5 323C87.5 321.605 86.946 320.268 85.9598 319.282C84.9736 318.295 83.6361 317.741 82.2414 317.741C80.8467 317.741 79.5092 318.295 78.523 319.282C77.5368 320.268 76.9828 321.605 76.9828 323C76.9828 324.395 77.5368 325.732 78.523 326.718C79.5092 327.705 80.8467 328.259 82.2414 328.259ZM87.5 297.759C87.5 299.153 86.946 300.491 85.9598 301.477C84.9736 302.463 83.6361 303.017 82.2414 303.017C80.8467 303.017 79.5092 302.463 78.523 301.477C77.5368 300.491 76.9828 299.153 76.9828 297.759C76.9828 296.364 77.5368 295.026 78.523 294.04C79.5092 293.054 80.8467 292.5 82.2414 292.5C83.6361 292.5 84.9736 293.054 85.9598 294.04C86.946 295.026 87.5 296.364 87.5 297.759ZM57 353.5C58.3947 353.5 59.7322 352.946 60.7184 351.96C61.7046 350.974 62.2586 349.636 62.2586 348.241C62.2586 346.847 61.7046 345.509 60.7184 344.523C59.7322 343.537 58.3947 342.983 57 342.983C55.6053 342.983 54.2678 343.537 53.2816 344.523C52.2954 345.509 51.7414 346.847 51.7414 348.241C51.7414 349.636 52.2954 350.974 53.2816 351.96C54.2678 352.946 55.6053 353.5 57 353.5ZM62.2586 323C62.2586 324.395 61.7046 325.732 60.7184 326.718C59.7322 327.705 58.3947 328.259 57 328.259C55.6053 328.259 54.2678 327.705 53.2816 326.718C52.2954 325.732 51.7414 324.395 51.7414 323C51.7414 321.605 52.2954 320.268 53.2816 319.282C54.2678 318.295 55.6053 317.741 57 317.741C58.3947 317.741 59.7322 318.295 60.7184 319.282C61.7046 320.268 62.2586 321.605 62.2586 323ZM57 303.017C58.3947 303.017 59.7322 302.463 60.7184 301.477C61.7046 300.491 62.2586 299.153 62.2586 297.759C62.2586 296.364 61.7046 295.026 60.7184 294.04C59.7322 293.054 58.3947 292.5 57 292.5C55.6053 292.5 54.2678 293.054 53.2816 294.04C52.2954 295.026 51.7414 296.364 51.7414 297.759C51.7414 299.153 52.2954 300.491 53.2816 301.477C54.2678 302.463 55.6053 303.017 57 303.017ZM37.0172 348.241C37.0172 349.636 36.4632 350.974 35.477 351.96C34.4908 352.946 33.1533 353.5 31.7586 353.5C30.3639 353.5 29.0264 352.946 28.0402 351.96C27.054 350.974 26.5 349.636 26.5 348.241C26.5 346.847 27.054 345.509 28.0402 344.523C29.0264 343.537 30.3639 342.983 31.7586 342.983C33.1533 342.983 34.4908 343.537 35.477 344.523C36.4632 345.509 37.0172 346.847 37.0172 348.241ZM31.7586 328.259C33.1533 328.259 34.4908 327.705 35.477 326.718C36.4632 325.732 37.0172 324.395 37.0172 323C37.0172 321.605 36.4632 320.268 35.477 319.282C34.4908 318.295 33.1533 317.741 31.7586 317.741C30.3639 317.741 29.0264 318.295 28.0402 319.282C27.054 320.268 26.5 321.605 26.5 323C26.5 324.395 27.054 325.732 28.0402 326.718C29.0264 327.705 30.3639 328.259 31.7586 328.259Z" fill="url(#paint0_linear_774_494)"/>
<path d="M118.017 297.759C118.017 299.153 117.463 300.491 116.477 301.477C115.491 302.463 114.153 303.017 112.759 303.017C111.364 303.017 110.026 302.463 109.04 301.477C108.054 300.491 107.5 299.153 107.5 297.759C107.5 296.364 108.054 295.026 109.04 294.04C110.026 293.054 111.364 292.5 112.759 292.5C114.153 292.5 115.491 293.054 116.477 294.04C117.463 295.026 118.017 296.364 118.017 297.759ZM168.5 348.241C168.5 349.636 167.946 350.974 166.96 351.96C165.974 352.946 164.636 353.5 163.241 353.5C161.847 353.5 160.509 352.946 159.523 351.96C158.537 350.974 157.983 349.636 157.983 348.241C157.983 346.847 158.537 345.509 159.523 344.523C160.509 343.537 161.847 342.983 163.241 342.983C164.636 342.983 165.974 343.537 166.96 344.523C167.946 345.509 168.5 346.847 168.5 348.241ZM163.241 328.259C164.636 328.259 165.974 327.705 166.96 326.718C167.946 325.732 168.5 324.395 168.5 323C168.5 321.605 167.946 320.268 166.96 319.282C165.974 318.295 164.636 317.741 163.241 317.741C161.847 317.741 160.509 318.295 159.523 319.282C158.537 320.268 157.983 321.605 157.983 323C157.983 324.395 158.537 325.732 159.523 326.718C160.509 327.705 161.847 328.259 163.241 328.259ZM168.5 297.759C168.5 299.153 167.946 300.491 166.96 301.477C165.974 302.463 164.636 303.017 163.241 303.017C161.847 303.017 160.509 302.463 159.523 301.477C158.537 300.491 157.983 299.153 157.983 297.759C157.983 296.364 158.537 295.026 159.523 294.04C160.509 293.054 161.847 292.5 163.241 292.5C164.636 292.5 165.974 293.054 166.96 294.04C167.946 295.026 168.5 296.364 168.5 297.759ZM138 353.5C139.395 353.5 140.732 352.946 141.718 351.96C142.705 350.974 143.259 349.636 143.259 348.241C143.259 346.847 142.705 345.509 141.718 344.523C140.732 343.537 139.395 342.983 138 342.983C136.605 342.983 135.268 343.537 134.282 344.523C133.295 345.509 132.741 346.847 132.741 348.241C132.741 349.636 133.295 350.974 134.282 351.96C135.268 352.946 136.605 353.5 138 353.5ZM143.259 323C143.259 324.395 142.705 325.732 141.718 326.718C140.732 327.705 139.395 328.259 138 328.259C136.605 328.259 135.268 327.705 134.282 326.718C133.295 325.732 132.741 324.395 132.741 323C132.741 321.605 133.295 320.268 134.282 319.282C135.268 318.295 136.605 317.741 138 317.741C139.395 317.741 140.732 318.295 141.718 319.282C142.705 320.268 143.259 321.605 143.259 323ZM138 303.017C139.395 303.017 140.732 302.463 141.718 301.477C142.705 300.491 143.259 299.153 143.259 297.759C143.259 296.364 142.705 295.026 141.718 294.04C140.732 293.054 139.395 292.5 138 292.5C136.605 292.5 135.268 293.054 134.282 294.04C133.295 295.026 132.741 296.364 132.741 297.759C132.741 299.153 133.295 300.491 134.282 301.477C135.268 302.463 136.605 303.017 138 303.017ZM118.017 348.241C118.017 349.636 117.463 350.974 116.477 351.96C115.491 352.946 114.153 353.5 112.759 353.5C111.364 353.5 110.026 352.946 109.04 351.96C108.054 350.974 107.5 349.636 107.5 348.241C107.5 346.847 108.054 345.509 109.04 344.523C110.026 343.537 111.364 342.983 112.759 342.983C114.153 342.983 115.491 343.537 116.477 344.523C117.463 345.509 118.017 346.847 118.017 348.241ZM112.759 328.259C114.153 328.259 115.491 327.705 116.477 326.718C117.463 325.732 118.017 324.395 118.017 323C118.017 321.605 117.463 320.268 116.477 319.282C115.491 318.295 114.153 317.741 112.759 317.741C111.364 317.741 110.026 318.295 109.04 319.282C108.054 320.268 107.5 321.605 107.5 323C107.5 324.395 108.054 325.732 109.04 326.718C110.026 327.705 111.364 328.259 112.759 328.259Z" fill="url(#paint1_linear_774_494)"/>
<path d="M199.017 297.759C199.017 299.153 198.463 300.491 197.477 301.477C196.491 302.463 195.153 303.017 193.759 303.017C192.364 303.017 191.026 302.463 190.04 301.477C189.054 300.491 188.5 299.153 188.5 297.759C188.5 296.364 189.054 295.026 190.04 294.04C191.026 293.054 192.364 292.5 193.759 292.5C195.153 292.5 196.491 293.054 197.477 294.04C198.463 295.026 199.017 296.364 199.017 297.759ZM249.5 348.241C249.5 349.636 248.946 350.974 247.96 351.96C246.974 352.946 245.636 353.5 244.241 353.5C242.847 353.5 241.509 352.946 240.523 351.96C239.537 350.974 238.983 349.636 238.983 348.241C238.983 346.847 239.537 345.509 240.523 344.523C241.509 343.537 242.847 342.983 244.241 342.983C245.636 342.983 246.974 343.537 247.96 344.523C248.946 345.509 249.5 346.847 249.5 348.241ZM244.241 328.259C245.636 328.259 246.974 327.705 247.96 326.718C248.946 325.732 249.5 324.395 249.5 323C249.5 321.605 248.946 320.268 247.96 319.282C246.974 318.295 245.636 317.741 244.241 317.741C242.847 317.741 241.509 318.295 240.523 319.282C239.537 320.268 238.983 321.605 238.983 323C238.983 324.395 239.537 325.732 240.523 326.718C241.509 327.705 242.847 328.259 244.241 328.259ZM249.5 297.759C249.5 299.153 248.946 300.491 247.96 301.477C246.974 302.463 245.636 303.017 244.241 303.017C242.847 303.017 241.509 302.463 240.523 301.477C239.537 300.491 238.983 299.153 238.983 297.759C238.983 296.364 239.537 295.026 240.523 294.04C241.509 293.054 242.847 292.5 244.241 292.5C245.636 292.5 246.974 293.054 247.96 294.04C248.946 295.026 249.5 296.364 249.5 297.759ZM219 353.5C220.395 353.5 221.732 352.946 222.718 351.96C223.705 350.974 224.259 349.636 224.259 348.241C224.259 346.847 223.705 345.509 222.718 344.523C221.732 343.537 220.395 342.983 219 342.983C217.605 342.983 216.268 343.537 215.282 344.523C214.295 345.509 213.741 346.847 213.741 348.241C213.741 349.636 214.295 350.974 215.282 351.96C216.268 352.946 217.605 353.5 219 353.5ZM224.259 323C224.259 324.395 223.705 325.732 222.718 326.718C221.732 327.705 220.395 328.259 219 328.259C217.605 328.259 216.268 327.705 215.282 326.718C214.295 325.732 213.741 324.395 213.741 323C213.741 321.605 214.295 320.268 215.282 319.282C216.268 318.295 217.605 317.741 219 317.741C220.395 317.741 221.732 318.295 222.718 319.282C223.705 320.268 224.259 321.605 224.259 323ZM219 303.017C220.395 303.017 221.732 302.463 222.718 301.477C223.705 300.491 224.259 299.153 224.259 297.759C224.259 296.364 223.705 295.026 222.718 294.04C221.732 293.054 220.395 292.5 219 292.5C217.605 292.5 216.268 293.054 215.282 294.04C214.295 295.026 213.741 296.364 213.741 297.759C213.741 299.153 214.295 300.491 215.282 301.477C216.268 302.463 217.605 303.017 219 303.017ZM199.017 348.241C199.017 349.636 198.463 350.974 197.477 351.96C196.491 352.946 195.153 353.5 193.759 353.5C192.364 353.5 191.026 352.946 190.04 351.96C189.054 350.974 188.5 349.636 188.5 348.241C188.5 346.847 189.054 345.509 190.04 344.523C191.026 343.537 192.364 342.983 193.759 342.983C195.153 342.983 196.491 343.537 197.477 344.523C198.463 345.509 199.017 346.847 199.017 348.241ZM193.759 328.259C195.153 328.259 196.491 327.705 197.477 326.718C198.463 325.732 199.017 324.395 199.017 323C199.017 321.605 198.463 320.268 197.477 319.282C196.491 318.295 195.153 317.741 193.759 317.741C192.364 317.741 191.026 318.295 190.04 319.282C189.054 320.268 188.5 321.605 188.5 323C188.5 324.395 189.054 325.732 190.04 326.718C191.026 327.705 192.364 328.259 193.759 328.259Z" fill="url(#paint2_linear_774_494)"/>
<path d="M269.5 296.312C269.5 297.324 269.902 298.293 270.617 299.008C271.332 299.723 272.301 300.125 273.312 300.125C274.324 300.125 275.293 299.723 276.008 299.008C276.723 298.293 277.125 297.324 277.125 296.312C277.125 295.301 276.723 294.332 276.008 293.617C275.293 292.902 274.324 292.5 273.312 292.5C272.301 292.5 271.332 292.902 270.617 293.617C269.902 294.332 269.5 295.301 269.5 296.312ZM296.188 296.312C296.188 297.324 296.589 298.293 297.304 299.008C298.019 299.723 298.989 300.125 300 300.125C301.011 300.125 301.981 299.723 302.696 299.008C303.411 298.293 303.812 297.324 303.812 296.312C303.812 295.301 303.411 294.332 302.696 293.617C301.981 292.902 301.011 292.5 300 292.5C298.989 292.5 298.019 292.902 297.304 293.617C296.589 294.332 296.188 295.301 296.188 296.312ZM322.875 296.312C322.875 297.324 323.277 298.293 323.992 299.008C324.707 299.723 325.676 300.125 326.688 300.125C327.699 300.125 328.668 299.723 329.383 299.008C330.098 298.293 330.5 297.324 330.5 296.312C330.5 295.301 330.098 294.332 329.383 293.617C328.668 292.902 327.699 292.5 326.688 292.5C325.676 292.5 324.707 292.902 323.992 293.617C323.277 294.332 322.875 295.301 322.875 296.312ZM269.5 323C269.5 324.011 269.902 324.981 270.617 325.696C271.332 326.411 272.301 326.812 273.312 326.812C274.324 326.812 275.293 326.411 276.008 325.696C276.723 324.981 277.125 324.011 277.125 323C277.125 321.989 276.723 321.019 276.008 320.304C275.293 319.589 274.324 319.188 273.312 319.188C272.301 319.188 271.332 319.589 270.617 320.304C269.902 321.019 269.5 321.989 269.5 323ZM296.188 323C296.188 324.011 296.589 324.981 297.304 325.696C298.019 326.411 298.989 326.812 300 326.812C301.011 326.812 301.981 326.411 302.696 325.696C303.411 324.981 303.812 324.011 303.812 323C303.812 321.989 303.411 321.019 302.696 320.304C301.981 319.589 301.011 319.188 300 319.188C298.989 319.188 298.019 319.589 297.304 320.304C296.589 321.019 296.188 321.989 296.188 323ZM322.875 323C322.875 324.011 323.277 324.981 323.992 325.696C324.707 326.411 325.676 326.812 326.688 326.812C327.699 326.812 328.668 326.411 329.383 325.696C330.098 324.981 330.5 324.011 330.5 323C330.5 321.989 330.098 321.019 329.383 320.304C328.668 319.589 327.699 319.188 326.688 319.188C325.676 319.188 324.707 319.589 323.992 320.304C323.277 321.019 322.875 321.989 322.875 323ZM269.5 349.688C269.5 350.699 269.902 351.668 270.617 352.383C271.332 353.098 272.301 353.5 273.312 353.5C274.324 353.5 275.293 353.098 276.008 352.383C276.723 351.668 277.125 350.699 277.125 349.688C277.125 348.676 276.723 347.707 276.008 346.992C275.293 346.277 274.324 345.875 273.312 345.875C272.301 345.875 271.332 346.277 270.617 346.992C269.902 347.707 269.5 348.676 269.5 349.688ZM296.188 349.688C296.188 350.699 296.589 351.668 297.304 352.383C298.019 353.098 298.989 353.5 300 353.5C301.011 353.5 301.981 353.098 302.696 352.383C303.411 351.668 303.812 350.699 303.812 349.688C303.812 348.676 303.411 347.707 302.696 346.992C301.981 346.277 301.011 345.875 300 345.875C298.989 345.875 298.019 346.277 297.304 346.992C296.589 347.707 296.188 348.676 296.188 349.688ZM322.875 349.688C322.875 350.699 323.277 351.668 323.992 352.383C324.707 353.098 325.676 353.5 326.688 353.5C327.699 353.5 328.668 353.098 329.383 352.383C330.098 351.668 330.5 350.699 330.5 349.688C330.5 348.676 330.098 347.707 329.383 346.992C328.668 346.277 327.699 345.875 326.688 345.875C325.676 345.875 324.707 346.277 323.992 346.992C323.277 347.707 322.875 348.676 322.875 349.688Z" stroke="url(#paint3_linear_774_494)" stroke-width="2" stroke-linecap="round" stroke-linejoin="round"/>
<path d="M361.017 297.759C361.017 299.153 360.463 300.491 359.477 301.477C358.491 302.463 357.153 303.017 355.759 303.017C354.364 303.017 353.026 302.463 352.04 301.477C351.054 300.491 350.5 299.153 350.5 297.759C350.5 296.364 351.054 295.026 352.04 294.04C353.026 293.054 354.364 292.5 355.759 292.5C357.153 292.5 358.491 293.054 359.477 294.04C360.463 295.026 361.017 296.364 361.017 297.759ZM411.5 348.241C411.5 349.636 410.946 350.974 409.96 351.96C408.974 352.946 407.636 353.5 406.241 353.5C404.847 353.5 403.509 352.946 402.523 351.96C401.537 350.974 400.983 349.636 400.983 348.241C400.983 346.847 401.537 345.509 402.523 344.523C403.509 343.537 404.847 342.983 406.241 342.983C407.636 342.983 408.974 343.537 409.96 344.523C410.946 345.509 411.5 346.847 411.5 348.241ZM406.241 328.259C407.636 328.259 408.974 327.705 409.96 326.718C410.946 325.732 411.5 324.395 411.5 323C411.5 321.605 410.946 320.268 409.96 319.282C408.974 318.295 407.636 317.741 406.241 317.741C404.847 317.741 403.509 318.295 402.523 319.282C401.537 320.268 400.983 321.605 400.983 323C400.983 324.395 401.537 325.732 402.523 326.718C403.509 327.705 404.847 328.259 406.241 328.259ZM411.5 297.759C411.5 299.153 410.946 300.491 409.96 301.477C408.974 302.463 407.636 303.017 406.241 303.017C404.847 303.017 403.509 302.463 402.523 301.477C401.537 300.491 400.983 299.153 400.983 297.759C400.983 296.364 401.537 295.026 402.523 294.04C403.509 293.054 404.847 292.5 406.241 292.5C407.636 292.5 408.974 293.054 409.96 294.04C410.946 295.026 411.5 296.364 411.5 297.759ZM381 353.5C382.395 353.5 383.732 352.946 384.718 351.96C385.705 350.974 386.259 349.636 386.259 348.241C386.259 346.847 385.705 345.509 384.718 344.523C383.732 343.537 382.395 342.983 381 342.983C379.605 342.983 378.268 343.537 377.282 344.523C376.295 345.509 375.741 346.847 375.741 348.241C375.741 349.636 376.295 350.974 377.282 351.96C378.268 352.946 379.605 353.5 381 353.5ZM386.259 323C386.259 324.395 385.705 325.732 384.718 326.718C383.732 327.705 382.395 328.259 381 328.259C379.605 328.259 378.268 327.705 377.282 326.718C376.295 325.732 375.741 324.395 375.741 323C375.741 321.605 376.295 320.268 377.282 319.282C378.268 318.295 379.605 317.741 381 317.741C382.395 317.741 383.732 318.295 384.718 319.282C385.705 320.268 386.259 321.605 386.259 323ZM381 303.017C382.395 303.017 383.732 302.463 384.718 301.477C385.705 300.491 386.259 299.153 386.259 297.759C386.259 296.364 385.705 295.026 384.718 294.04C383.732 293.054 382.395 292.5 381 292.5C379.605 292.5 378.268 293.054 377.282 294.04C376.295 295.026 375.741 296.364 375.741 297.759C375.741 299.153 376.295 300.491 377.282 301.477C378.268 302.463 379.605 303.017 381 303.017ZM361.017 348.241C361.017 349.636 360.463 350.974 359.477 351.96C358.491 352.946 357.153 353.5 355.759 353.5C354.364 353.5 353.026 352.946 352.04 351.96C351.054 350.974 350.5 349.636 350.5 348.241C350.5 346.847 351.054 345.509 352.04 344.523C353.026 343.537 354.364 342.983 355.759 342.983C357.153 342.983 358.491 343.537 359.477 344.523C360.463 345.509 361.017 346.847 361.017 348.241ZM355.759 328.259C357.153 328.259 358.491 327.705 359.477 326.718C360.463 325.732 361.017 324.395 361.017 323C361.017 321.605 360.463 320.268 359.477 319.282C358.491 318.295 357.153 317.741 355.759 317.741C354.364 317.741 353.026 318.295 352.04 319.282C351.054 320.268 350.5 321.605 350.5 323C350.5 324.395 351.054 325.732 352.04 326.718C353.026 327.705 354.364 328.259 355.759 328.259Z" fill="url(#paint4_linear_774_494)"/>
<path d="M26.5 367.312C26.5 368.324 26.9017 369.293 27.6167 370.008C28.3316 370.723 29.3014 371.125 30.3125 371.125C31.3236 371.125 32.2934 370.723 33.0083 370.008C33.7233 369.293 34.125 368.324 34.125 367.312C34.125 366.301 33.7233 365.332 33.0083 364.617C32.2934 363.902 31.3236 363.5 30.3125 363.5C29.3014 363.5 28.3316 363.902 27.6167 364.617C26.9017 365.332 26.5 366.301 26.5 367.312ZM53.1875 367.312C53.1875 368.324 53.5892 369.293 54.3042 370.008C55.0191 370.723 55.9889 371.125 57 371.125C58.0111 371.125 58.9809 370.723 59.6958 370.008C60.4108 369.293 60.8125 368.324 60.8125 367.312C60.8125 366.301 60.4108 365.332 59.6958 364.617C58.9809 363.902 58.0111 363.5 57 363.5C55.9889 363.5 55.0191 363.902 54.3042 364.617C53.5892 365.332 53.1875 366.301 53.1875 367.312ZM79.875 367.312C79.875 368.324 80.2767 369.293 80.9917 370.008C81.7066 370.723 82.6764 371.125 83.6875 371.125C84.6986 371.125 85.6684 370.723 86.3833 370.008C87.0983 369.293 87.5 368.324 87.5 367.312C87.5 366.301 87.0983 365.332 86.3833 364.617C85.6684 363.902 84.6986 363.5 83.6875 363.5C82.6764 363.5 81.7066 363.902 80.9917 364.617C80.2767 365.332 79.875 366.301 79.875 367.312ZM26.5 394C26.5 395.011 26.9017 395.981 27.6167 396.696C28.3316 397.411 29.3014 397.812 30.3125 397.812C31.3236 397.812 32.2934 397.411 33.0083 396.696C33.7233 395.981 34.125 395.011 34.125 394C34.125 392.989 33.7233 392.019 33.0083 391.304C32.2934 390.589 31.3236 390.188 30.3125 390.188C29.3014 390.188 28.3316 390.589 27.6167 391.304C26.9017 392.019 26.5 392.989 26.5 394ZM53.1875 394C53.1875 395.011 53.5892 395.981 54.3042 396.696C55.0191 397.411 55.9889 397.812 57 397.812C58.0111 397.812 58.9809 397.411 59.6958 396.696C60.4108 395.981 60.8125 395.011 60.8125 394C60.8125 392.989 60.4108 392.019 59.6958 391.304C58.9809 390.589 58.0111 390.188 57 390.188C55.9889 390.188 55.0191 390.589 54.3042 391.304C53.5892 392.019 53.1875 392.989 53.1875 394ZM79.875 394C79.875 395.011 80.2767 395.981 80.9917 396.696C81.7066 397.411 82.6764 397.812 83.6875 397.812C84.6986 397.812 85.6684 397.411 86.3833 396.696C87.0983 395.981 87.5 395.011 87.5 394C87.5 392.989 87.0983 392.019 86.3833 391.304C85.6684 390.589 84.6986 390.188 83.6875 390.188C82.6764 390.188 81.7066 390.589 80.9917 391.304C80.2767 392.019 79.875 392.989 79.875 394ZM26.5 420.688C26.5 421.699 26.9017 422.668 27.6167 423.383C28.3316 424.098 29.3014 424.5 30.3125 424.5C31.3236 424.5 32.2934 424.098 33.0083 423.383C33.7233 422.668 34.125 421.699 34.125 420.688C34.125 419.676 33.7233 418.707 33.0083 417.992C32.2934 417.277 31.3236 416.875 30.3125 416.875C29.3014 416.875 28.3316 417.277 27.6167 417.992C26.9017 418.707 26.5 419.676 26.5 420.688ZM53.1875 420.688C53.1875 421.699 53.5892 422.668 54.3042 423.383C55.0191 424.098 55.9889 424.5 57 424.5C58.0111 424.5 58.9809 424.098 59.6958 423.383C60.4108 422.668 60.8125 421.699 60.8125 420.688C60.8125 419.676 60.4108 418.707 59.6958 417.992C58.9809 417.277 58.0111 416.875 57 416.875C55.9889 416.875 55.0191 417.277 54.3042 417.992C53.5892 418.707 53.1875 419.676 53.1875 420.688ZM79.875 420.688C79.875 421.699 80.2767 422.668 80.9917 423.383C81.7066 424.098 82.6764 424.5 83.6875 424.5C84.6986 424.5 85.6684 424.098 86.3833 423.383C87.0983 422.668 87.5 421.699 87.5 420.688C87.5 419.676 87.0983 418.707 86.3833 417.992C85.6684 417.277 84.6986 416.875 83.6875 416.875C82.6764 416.875 81.7066 417.277 80.9917 417.992C80.2767 418.707 79.875 419.676 79.875 420.688Z" stroke="url(#paint5_linear_774_494)" stroke-width="2" stroke-linecap="round" stroke-linejoin="round"/>
<path d="M107.5 367.312C107.5 368.324 107.902 369.293 108.617 370.008C109.332 370.723 110.301 371.125 111.312 371.125C112.324 371.125 113.293 370.723 114.008 370.008C114.723 369.293 115.125 368.324 115.125 367.312C115.125 366.301 114.723 365.332 114.008 364.617C113.293 363.902 112.324 363.5 111.312 363.5C110.301 363.5 109.332 363.902 108.617 364.617C107.902 365.332 107.5 366.301 107.5 367.312ZM134.188 367.312C134.188 368.324 134.589 369.293 135.304 370.008C136.019 370.723 136.989 371.125 138 371.125C139.011 371.125 139.981 370.723 140.696 370.008C141.411 369.293 141.812 368.324 141.812 367.312C141.812 366.301 141.411 365.332 140.696 364.617C139.981 363.902 139.011 363.5 138 363.5C136.989 363.5 136.019 363.902 135.304 364.617C134.589 365.332 134.188 366.301 134.188 367.312ZM160.875 367.312C160.875 368.324 161.277 369.293 161.992 370.008C162.707 370.723 163.676 371.125 164.688 371.125C165.699 371.125 166.668 370.723 167.383 370.008C168.098 369.293 168.5 368.324 168.5 367.312C168.5 366.301 168.098 365.332 167.383 364.617C166.668 363.902 165.699 363.5 164.688 363.5C163.676 363.5 162.707 363.902 161.992 364.617C161.277 365.332 160.875 366.301 160.875 367.312ZM107.5 394C107.5 395.011 107.902 395.981 108.617 396.696C109.332 397.411 110.301 397.812 111.312 397.812C112.324 397.812 113.293 397.411 114.008 396.696C114.723 395.981 115.125 395.011 115.125 394C115.125 392.989 114.723 392.019 114.008 391.304C113.293 390.589 112.324 390.188 111.312 390.188C110.301 390.188 109.332 390.589 108.617 391.304C107.902 392.019 107.5 392.989 107.5 394ZM134.188 394C134.188 395.011 134.589 395.981 135.304 396.696C136.019 397.411 136.989 397.812 138 397.812C139.011 397.812 139.981 397.411 140.696 396.696C141.411 395.981 141.812 395.011 141.812 394C141.812 392.989 141.411 392.019 140.696 391.304C139.981 390.589 139.011 390.188 138 390.188C136.989 390.188 136.019 390.589 135.304 391.304C134.589 392.019 134.188 392.989 134.188 394ZM160.875 394C160.875 395.011 161.277 395.981 161.992 396.696C162.707 397.411 163.676 397.812 164.688 397.812C165.699 397.812 166.668 397.411 167.383 396.696C168.098 395.981 168.5 395.011 168.5 394C168.5 392.989 168.098 392.019 167.383 391.304C166.668 390.589 165.699 390.188 164.688 390.188C163.676 390.188 162.707 390.589 161.992 391.304C161.277 392.019 160.875 392.989 160.875 394ZM107.5 420.688C107.5 421.699 107.902 422.668 108.617 423.383C109.332 424.098 110.301 424.5 111.312 424.5C112.324 424.5 113.293 424.098 114.008 423.383C114.723 422.668 115.125 421.699 115.125 420.688C115.125 419.676 114.723 418.707 114.008 417.992C113.293 417.277 112.324 416.875 111.312 416.875C110.301 416.875 109.332 417.277 108.617 417.992C107.902 418.707 107.5 419.676 107.5 420.688ZM134.188 420.688C134.188 421.699 134.589 422.668 135.304 423.383C136.019 424.098 136.989 424.5 138 424.5C139.011 424.5 139.981 424.098 140.696 423.383C141.411 422.668 141.812 421.699 141.812 420.688C141.812 419.676 141.411 418.707 140.696 417.992C139.981 417.277 139.011 416.875 138 416.875C136.989 416.875 136.019 417.277 135.304 417.992C134.589 418.707 134.188 419.676 134.188 420.688ZM160.875 420.688C160.875 421.699 161.277 422.668 161.992 423.383C162.707 424.098 163.676 424.5 164.688 424.5C165.699 424.5 166.668 424.098 167.383 423.383C168.098 422.668 168.5 421.699 168.5 420.688C168.5 419.676 168.098 418.707 167.383 417.992C166.668 417.277 165.699 416.875 164.688 416.875C163.676 416.875 162.707 417.277 161.992 417.992C161.277 418.707 160.875 419.676 160.875 420.688Z" stroke="url(#paint6_linear_774_494)" stroke-width="2" stroke-linecap="round" stroke-linejoin="round"/>
<path d="M188.5 367.312C188.5 368.324 188.902 369.293 189.617 370.008C190.332 370.723 191.301 371.125 192.312 371.125C193.324 371.125 194.293 370.723 195.008 370.008C195.723 369.293 196.125 368.324 196.125 367.312C196.125 366.301 195.723 365.332 195.008 364.617C194.293 363.902 193.324 363.5 192.312 363.5C191.301 363.5 190.332 363.902 189.617 364.617C188.902 365.332 188.5 366.301 188.5 367.312ZM215.188 367.312C215.188 368.324 215.589 369.293 216.304 370.008C217.019 370.723 217.989 371.125 219 371.125C220.011 371.125 220.981 370.723 221.696 370.008C222.411 369.293 222.812 368.324 222.812 367.312C222.812 366.301 222.411 365.332 221.696 364.617C220.981 363.902 220.011 363.5 219 363.5C217.989 363.5 217.019 363.902 216.304 364.617C215.589 365.332 215.188 366.301 215.188 367.312ZM241.875 367.312C241.875 368.324 242.277 369.293 242.992 370.008C243.707 370.723 244.676 371.125 245.688 371.125C246.699 371.125 247.668 370.723 248.383 370.008C249.098 369.293 249.5 368.324 249.5 367.312C249.5 366.301 249.098 365.332 248.383 364.617C247.668 363.902 246.699 363.5 245.688 363.5C244.676 363.5 243.707 363.902 242.992 364.617C242.277 365.332 241.875 366.301 241.875 367.312ZM188.5 394C188.5 395.011 188.902 395.981 189.617 396.696C190.332 397.411 191.301 397.812 192.312 397.812C193.324 397.812 194.293 397.411 195.008 396.696C195.723 395.981 196.125 395.011 196.125 394C196.125 392.989 195.723 392.019 195.008 391.304C194.293 390.589 193.324 390.188 192.312 390.188C191.301 390.188 190.332 390.589 189.617 391.304C188.902 392.019 188.5 392.989 188.5 394ZM215.188 394C215.188 395.011 215.589 395.981 216.304 396.696C217.019 397.411 217.989 397.812 219 397.812C220.011 397.812 220.981 397.411 221.696 396.696C222.411 395.981 222.812 395.011 222.812 394C222.812 392.989 222.411 392.019 221.696 391.304C220.981 390.589 220.011 390.188 219 390.188C217.989 390.188 217.019 390.589 216.304 391.304C215.589 392.019 215.188 392.989 215.188 394ZM241.875 394C241.875 395.011 242.277 395.981 242.992 396.696C243.707 397.411 244.676 397.812 245.688 397.812C246.699 397.812 247.668 397.411 248.383 396.696C249.098 395.981 249.5 395.011 249.5 394C249.5 392.989 249.098 392.019 248.383 391.304C247.668 390.589 246.699 390.188 245.688 390.188C244.676 390.188 243.707 390.589 242.992 391.304C242.277 392.019 241.875 392.989 241.875 394ZM188.5 420.688C188.5 421.699 188.902 422.668 189.617 423.383C190.332 424.098 191.301 424.5 192.312 424.5C193.324 424.5 194.293 424.098 195.008 423.383C195.723 422.668 196.125 421.699 196.125 420.688C196.125 419.676 195.723 418.707 195.008 417.992C194.293 417.277 193.324 416.875 192.312 416.875C191.301 416.875 190.332 417.277 189.617 417.992C188.902 418.707 188.5 419.676 188.5 420.688ZM215.188 420.688C215.188 421.699 215.589 422.668 216.304 423.383C217.019 424.098 217.989 424.5 219 424.5C220.011 424.5 220.981 424.098 221.696 423.383C222.411 422.668 222.812 421.699 222.812 420.688C222.812 419.676 222.411 418.707 221.696 417.992C220.981 417.277 220.011 416.875 219 416.875C217.989 416.875 217.019 417.277 216.304 417.992C215.589 418.707 215.188 419.676 215.188 420.688ZM241.875 420.688C241.875 421.699 242.277 422.668 242.992 423.383C243.707 424.098 244.676 424.5 245.688 424.5C246.699 424.5 247.668 424.098 248.383 423.383C249.098 422.668 249.5 421.699 249.5 420.688C249.5 419.676 249.098 418.707 248.383 417.992C247.668 417.277 246.699 416.875 245.688 416.875C244.676 416.875 243.707 417.277 242.992 417.992C242.277 418.707 241.875 419.676 241.875 420.688Z" stroke="url(#paint7_linear_774_494)" stroke-width="2" stroke-linecap="round" stroke-linejoin="round"/>
<path d="M269.5 367.312C269.5 368.324 269.902 369.293 270.617 370.008C271.332 370.723 272.301 371.125 273.312 371.125C274.324 371.125 275.293 370.723 276.008 370.008C276.723 369.293 277.125 368.324 277.125 367.312C277.125 366.301 276.723 365.332 276.008 364.617C275.293 363.902 274.324 363.5 273.312 363.5C272.301 363.5 271.332 363.902 270.617 364.617C269.902 365.332 269.5 366.301 269.5 367.312ZM296.188 367.312C296.188 368.324 296.589 369.293 297.304 370.008C298.019 370.723 298.989 371.125 300 371.125C301.011 371.125 301.981 370.723 302.696 370.008C303.411 369.293 303.812 368.324 303.812 367.312C303.812 366.301 303.411 365.332 302.696 364.617C301.981 363.902 301.011 363.5 300 363.5C298.989 363.5 298.019 363.902 297.304 364.617C296.589 365.332 296.188 366.301 296.188 367.312ZM322.875 367.312C322.875 368.324 323.277 369.293 323.992 370.008C324.707 370.723 325.676 371.125 326.688 371.125C327.699 371.125 328.668 370.723 329.383 370.008C330.098 369.293 330.5 368.324 330.5 367.312C330.5 366.301 330.098 365.332 329.383 364.617C328.668 363.902 327.699 363.5 326.688 363.5C325.676 363.5 324.707 363.902 323.992 364.617C323.277 365.332 322.875 366.301 322.875 367.312ZM269.5 394C269.5 395.011 269.902 395.981 270.617 396.696C271.332 397.411 272.301 397.812 273.312 397.812C274.324 397.812 275.293 397.411 276.008 396.696C276.723 395.981 277.125 395.011 277.125 394C277.125 392.989 276.723 392.019 276.008 391.304C275.293 390.589 274.324 390.188 273.312 390.188C272.301 390.188 271.332 390.589 270.617 391.304C269.902 392.019 269.5 392.989 269.5 394ZM296.188 394C296.188 395.011 296.589 395.981 297.304 396.696C298.019 397.411 298.989 397.812 300 397.812C301.011 397.812 301.981 397.411 302.696 396.696C303.411 395.981 303.812 395.011 303.812 394C303.812 392.989 303.411 392.019 302.696 391.304C301.981 390.589 301.011 390.188 300 390.188C298.989 390.188 298.019 390.589 297.304 391.304C296.589 392.019 296.188 392.989 296.188 394ZM322.875 394C322.875 395.011 323.277 395.981 323.992 396.696C324.707 397.411 325.676 397.812 326.688 397.812C327.699 397.812 328.668 397.411 329.383 396.696C330.098 395.981 330.5 395.011 330.5 394C330.5 392.989 330.098 392.019 329.383 391.304C328.668 390.589 327.699 390.188 326.688 390.188C325.676 390.188 324.707 390.589 323.992 391.304C323.277 392.019 322.875 392.989 322.875 394ZM269.5 420.688C269.5 421.699 269.902 422.668 270.617 423.383C271.332 424.098 272.301 424.5 273.312 424.5C274.324 424.5 275.293 424.098 276.008 423.383C276.723 422.668 277.125 421.699 277.125 420.688C277.125 419.676 276.723 418.707 276.008 417.992C275.293 417.277 274.324 416.875 273.312 416.875C272.301 416.875 271.332 417.277 270.617 417.992C269.902 418.707 269.5 419.676 269.5 420.688ZM296.188 420.688C296.188 421.699 296.589 422.668 297.304 423.383C298.019 424.098 298.989 424.5 300 424.5C301.011 424.5 301.981 424.098 302.696 423.383C303.411 422.668 303.812 421.699 303.812 420.688C303.812 419.676 303.411 418.707 302.696 417.992C301.981 417.277 301.011 416.875 300 416.875C298.989 416.875 298.019 417.277 297.304 417.992C296.589 418.707 296.188 419.676 296.188 420.688ZM322.875 420.688C322.875 421.699 323.277 422.668 323.992 423.383C324.707 424.098 325.676 424.5 326.688 424.5C327.699 424.5 328.668 424.098 329.383 423.383C330.098 422.668 330.5 421.699 330.5 420.688C330.5 419.676 330.098 418.707 329.383 417.992C328.668 417.277 327.699 416.875 326.688 416.875C325.676 416.875 324.707 417.277 323.992 417.992C323.277 418.707 322.875 419.676 322.875 420.688Z" stroke="url(#paint8_linear_774_494)" stroke-width="2" stroke-linecap="round" stroke-linejoin="round"/>
<path d="M350.5 367.312C350.5 368.324 350.902 369.293 351.617 370.008C352.332 370.723 353.301 371.125 354.312 371.125C355.324 371.125 356.293 370.723 357.008 370.008C357.723 369.293 358.125 368.324 358.125 367.312C358.125 366.301 357.723 365.332 357.008 364.617C356.293 363.902 355.324 363.5 354.312 363.5C353.301 363.5 352.332 363.902 351.617 364.617C350.902 365.332 350.5 366.301 350.5 367.312ZM377.188 367.312C377.188 368.324 377.589 369.293 378.304 370.008C379.019 370.723 379.989 371.125 381 371.125C382.011 371.125 382.981 370.723 383.696 370.008C384.411 369.293 384.812 368.324 384.812 367.312C384.812 366.301 384.411 365.332 383.696 364.617C382.981 363.902 382.011 363.5 381 363.5C379.989 363.5 379.019 363.902 378.304 364.617C377.589 365.332 377.188 366.301 377.188 367.312ZM403.875 367.312C403.875 368.324 404.277 369.293 404.992 370.008C405.707 370.723 406.676 371.125 407.688 371.125C408.699 371.125 409.668 370.723 410.383 370.008C411.098 369.293 411.5 368.324 411.5 367.312C411.5 366.301 411.098 365.332 410.383 364.617C409.668 363.902 408.699 363.5 407.688 363.5C406.676 363.5 405.707 363.902 404.992 364.617C404.277 365.332 403.875 366.301 403.875 367.312ZM350.5 394C350.5 395.011 350.902 395.981 351.617 396.696C352.332 397.411 353.301 397.812 354.312 397.812C355.324 397.812 356.293 397.411 357.008 396.696C357.723 395.981 358.125 395.011 358.125 394C358.125 392.989 357.723 392.019 357.008 391.304C356.293 390.589 355.324 390.188 354.312 390.188C353.301 390.188 352.332 390.589 351.617 391.304C350.902 392.019 350.5 392.989 350.5 394ZM377.188 394C377.188 395.011 377.589 395.981 378.304 396.696C379.019 397.411 379.989 397.812 381 397.812C382.011 397.812 382.981 397.411 383.696 396.696C384.411 395.981 384.812 395.011 384.812 394C384.812 392.989 384.411 392.019 383.696 391.304C382.981 390.589 382.011 390.188 381 390.188C379.989 390.188 379.019 390.589 378.304 391.304C377.589 392.019 377.188 392.989 377.188 394ZM403.875 394C403.875 395.011 404.277 395.981 404.992 396.696C405.707 397.411 406.676 397.812 407.688 397.812C408.699 397.812 409.668 397.411 410.383 396.696C411.098 395.981 411.5 395.011 411.5 394C411.5 392.989 411.098 392.019 410.383 391.304C409.668 390.589 408.699 390.188 407.688 390.188C406.676 390.188 405.707 390.589 404.992 391.304C404.277 392.019 403.875 392.989 403.875 394ZM350.5 420.688C350.5 421.699 350.902 422.668 351.617 423.383C352.332 424.098 353.301 424.5 354.312 424.5C355.324 424.5 356.293 424.098 357.008 423.383C357.723 422.668 358.125 421.699 358.125 420.688C358.125 419.676 357.723 418.707 357.008 417.992C356.293 417.277 355.324 416.875 354.312 416.875C353.301 416.875 352.332 417.277 351.617 417.992C350.902 418.707 350.5 419.676 350.5 420.688ZM377.188 420.688C377.188 421.699 377.589 422.668 378.304 423.383C379.019 424.098 379.989 424.5 381 424.5C382.011 424.5 382.981 424.098 383.696 423.383C384.411 422.668 384.812 421.699 384.812 420.688C384.812 419.676 384.411 418.707 383.696 417.992C382.981 417.277 382.011 416.875 381 416.875C379.989 416.875 379.019 417.277 378.304 417.992C377.589 418.707 377.188 419.676 377.188 420.688ZM403.875 420.688C403.875 421.699 404.277 422.668 404.992 423.383C405.707 424.098 406.676 424.5 407.688 424.5C408.699 424.5 409.668 424.098 410.383 423.383C411.098 422.668 411.5 421.699 411.5 420.688C411.5 419.676 411.098 418.707 410.383 417.992C409.668 417.277 408.699 416.875 407.688 416.875C406.676 416.875 405.707 417.277 404.992 417.992C404.277 418.707 403.875 419.676 403.875 420.688Z" stroke="url(#paint9_linear_774_494)" stroke-width="2" stroke-linecap="round" stroke-linejoin="round"/>
<path d="M32.9211 437.711C32.9211 438.346 32.7328 438.966 32.38 439.494C32.0272 440.022 31.5258 440.434 30.9391 440.677C30.3525 440.92 29.707 440.983 29.0842 440.859C28.4614 440.735 27.8893 440.43 27.4403 439.981C26.9913 439.532 26.6856 438.96 26.5617 438.337C26.4378 437.714 26.5014 437.069 26.7444 436.482C26.9874 435.895 27.3989 435.394 27.9269 435.041C28.4548 434.688 29.0755 434.5 29.7105 434.5C30.562 434.5 31.3786 434.838 31.9807 435.44C32.5828 436.042 32.9211 436.859 32.9211 437.711ZM57 434.5C56.365 434.5 55.7443 434.688 55.2163 435.041C54.6884 435.394 54.2769 435.895 54.0339 436.482C53.7909 437.069 53.7273 437.714 53.8512 438.337C53.975 438.96 54.2808 439.532 54.7298 439.981C55.1788 440.43 55.7509 440.735 56.3737 440.859C56.9964 440.983 57.642 440.92 58.2286 440.677C58.8153 440.434 59.3167 440.022 59.6695 439.494C60.0222 438.966 60.2105 438.346 60.2105 437.711C60.2105 436.859 59.8723 436.042 59.2702 435.44C58.6681 434.838 57.8515 434.5 57 434.5ZM84.2895 440.921C84.9244 440.921 85.5452 440.733 86.0731 440.38C86.6011 440.027 87.0126 439.526 87.2556 438.939C87.4986 438.352 87.5622 437.707 87.4383 437.084C87.3144 436.461 87.0087 435.889 86.5597 435.44C86.1107 434.991 85.5386 434.686 84.9158 434.562C84.293 434.438 83.6475 434.501 83.0609 434.744C82.4742 434.987 81.9728 435.399 81.62 435.927C81.2672 436.455 81.0789 437.076 81.0789 437.711C81.0789 438.562 81.4172 439.379 82.0193 439.981C82.6214 440.583 83.438 440.921 84.2895 440.921ZM29.7105 461.789C29.0755 461.789 28.4548 461.978 27.9269 462.331C27.3989 462.683 26.9874 463.185 26.7444 463.771C26.5014 464.358 26.4378 465.004 26.5617 465.626C26.6856 466.249 26.9913 466.821 27.4403 467.27C27.8893 467.719 28.4614 468.025 29.0842 468.149C29.707 468.273 30.3525 468.209 30.9391 467.966C31.5258 467.723 32.0272 467.312 32.38 466.784C32.7328 466.256 32.9211 465.635 32.9211 465C32.9211 464.149 32.5828 463.332 31.9807 462.73C31.3786 462.128 30.562 461.789 29.7105 461.789ZM57 461.789C56.365 461.789 55.7443 461.978 55.2163 462.331C54.6884 462.683 54.2769 463.185 54.0339 463.771C53.7909 464.358 53.7273 465.004 53.8512 465.626C53.975 466.249 54.2808 466.821 54.7298 467.27C55.1788 467.719 55.7509 468.025 56.3737 468.149C56.9964 468.273 57.642 468.209 58.2286 467.966C58.8153 467.723 59.3167 467.312 59.6695 466.784C60.0222 466.256 60.2105 465.635 60.2105 465C60.2105 464.149 59.8723 463.332 59.2702 462.73C58.6681 462.128 57.8515 461.789 57 461.789ZM84.2895 461.789C83.6545 461.789 83.0338 461.978 82.5058 462.331C81.9778 462.683 81.5663 463.185 81.3233 463.771C81.0803 464.358 81.0168 465.004 81.1406 465.626C81.2645 466.249 81.5703 466.821 82.0193 467.27C82.4683 467.719 83.0403 468.025 83.6631 468.149C84.2859 468.273 84.9314 468.209 85.5181 467.966C86.1047 467.723 86.6061 467.312 86.9589 466.784C87.3117 466.256 87.5 465.635 87.5 465C87.5 464.149 87.1617 463.332 86.5597 462.73C85.9576 462.128 85.141 461.789 84.2895 461.789ZM29.7105 489.079C29.0755 489.079 28.4548 489.267 27.9269 489.62C27.3989 489.973 26.9874 490.474 26.7444 491.061C26.5014 491.648 26.4378 492.293 26.5617 492.916C26.6856 493.539 26.9913 494.111 27.4403 494.56C27.8893 495.009 28.4614 495.314 29.0842 495.438C29.707 495.562 30.3525 495.499 30.9391 495.256C31.5258 495.013 32.0272 494.601 32.38 494.073C32.7328 493.545 32.9211 492.924 32.9211 492.289C32.9211 491.438 32.5828 490.621 31.9807 490.019C31.3786 489.417 30.562 489.079 29.7105 489.079ZM57 489.079C56.365 489.079 55.7443 489.267 55.2163 489.62C54.6884 489.973 54.2769 490.474 54.0339 491.061C53.7909 491.648 53.7273 492.293 53.8512 492.916C53.975 493.539 54.2808 494.111 54.7298 494.56C55.1788 495.009 55.7509 495.314 56.3737 495.438C56.9964 495.562 57.642 495.499 58.2286 495.256C58.8153 495.013 59.3167 494.601 59.6695 494.073C60.0222 493.545 60.2105 492.924 60.2105 492.289C60.2105 491.438 59.8723 490.621 59.2702 490.019C58.6681 489.417 57.8515 489.079 57 489.079ZM84.2895 489.079C83.6545 489.079 83.0338 489.267 82.5058 489.62C81.9778 489.973 81.5663 490.474 81.3233 491.061C81.0803 491.648 81.0168 492.293 81.1406 492.916C81.2645 493.539 81.5703 494.111 82.0193 494.56C82.4683 495.009 83.0403 495.314 83.6631 495.438C84.2859 495.562 84.9314 495.499 85.5181 495.256C86.1047 495.013 86.6061 494.601 86.9589 494.073C87.3117 493.545 87.5 492.924 87.5 492.289C87.5 491.438 87.1617 490.621 86.5597 490.019C85.9576 489.417 85.141 489.079 84.2895 489.079Z" fill="url(#paint10_linear_774_494)"/>
<path d="M113.921 437.711C113.921 438.346 113.733 438.966 113.38 439.494C113.027 440.022 112.526 440.434 111.939 440.677C111.352 440.92 110.707 440.983 110.084 440.859C109.461 440.735 108.889 440.43 108.44 439.981C107.991 439.532 107.686 438.96 107.562 438.337C107.438 437.714 107.501 437.069 107.744 436.482C107.987 435.895 108.399 435.394 108.927 435.041C109.455 434.688 110.076 434.5 110.711 434.5C111.562 434.5 112.379 434.838 112.981 435.44C113.583 436.042 113.921 436.859 113.921 437.711ZM138 434.5C137.365 434.5 136.744 434.688 136.216 435.041C135.688 435.394 135.277 435.895 135.034 436.482C134.791 437.069 134.727 437.714 134.851 438.337C134.975 438.96 135.281 439.532 135.73 439.981C136.179 440.43 136.751 440.735 137.374 440.859C137.996 440.983 138.642 440.92 139.229 440.677C139.815 440.434 140.317 440.022 140.669 439.494C141.022 438.966 141.211 438.346 141.211 437.711C141.211 436.859 140.872 436.042 140.27 435.44C139.668 434.838 138.851 434.5 138 434.5ZM165.289 440.921C165.924 440.921 166.545 440.733 167.073 440.38C167.601 440.027 168.013 439.526 168.256 438.939C168.499 438.352 168.562 437.707 168.438 437.084C168.314 436.461 168.009 435.889 167.56 435.44C167.111 434.991 166.539 434.686 165.916 434.562C165.293 434.438 164.648 434.501 164.061 434.744C163.474 434.987 162.973 435.399 162.62 435.927C162.267 436.455 162.079 437.076 162.079 437.711C162.079 438.562 162.417 439.379 163.019 439.981C163.621 440.583 164.438 440.921 165.289 440.921ZM110.711 461.789C110.076 461.789 109.455 461.978 108.927 462.331C108.399 462.683 107.987 463.185 107.744 463.771C107.501 464.358 107.438 465.004 107.562 465.626C107.686 466.249 107.991 466.821 108.44 467.27C108.889 467.719 109.461 468.025 110.084 468.149C110.707 468.273 111.352 468.209 111.939 467.966C112.526 467.723 113.027 467.312 113.38 466.784C113.733 466.256 113.921 465.635 113.921 465C113.921 464.149 113.583 463.332 112.981 462.73C112.379 462.128 111.562 461.789 110.711 461.789ZM138 461.789C137.365 461.789 136.744 461.978 136.216 462.331C135.688 462.683 135.277 463.185 135.034 463.771C134.791 464.358 134.727 465.004 134.851 465.626C134.975 466.249 135.281 466.821 135.73 467.27C136.179 467.719 136.751 468.025 137.374 468.149C137.996 468.273 138.642 468.209 139.229 467.966C139.815 467.723 140.317 467.312 140.669 466.784C141.022 466.256 141.211 465.635 141.211 465C141.211 464.149 140.872 463.332 140.27 462.73C139.668 462.128 138.851 461.789 138 461.789ZM165.289 461.789C164.654 461.789 164.034 461.978 163.506 462.331C162.978 462.683 162.566 463.185 162.323 463.771C162.08 464.358 162.017 465.004 162.141 465.626C162.265 466.249 162.57 466.821 163.019 467.27C163.468 467.719 164.04 468.025 164.663 468.149C165.286 468.273 165.931 468.209 166.518 467.966C167.105 467.723 167.606 467.312 167.959 466.784C168.312 466.256 168.5 465.635 168.5 465C168.5 464.149 168.162 463.332 167.56 462.73C166.958 462.128 166.141 461.789 165.289 461.789ZM110.711 489.079C110.076 489.079 109.455 489.267 108.927 489.62C108.399 489.973 107.987 490.474 107.744 491.061C107.501 491.648 107.438 492.293 107.562 492.916C107.686 493.539 107.991 494.111 108.44 494.56C108.889 495.009 109.461 495.314 110.084 495.438C110.707 495.562 111.352 495.499 111.939 495.256C112.526 495.013 113.027 494.601 113.38 494.073C113.733 493.545 113.921 492.924 113.921 492.289C113.921 491.438 113.583 490.621 112.981 490.019C112.379 489.417 111.562 489.079 110.711 489.079ZM138 489.079C137.365 489.079 136.744 489.267 136.216 489.62C135.688 489.973 135.277 490.474 135.034 491.061C134.791 491.648 134.727 492.293 134.851 492.916C134.975 493.539 135.281 494.111 135.73 494.56C136.179 495.009 136.751 495.314 137.374 495.438C137.996 495.562 138.642 495.499 139.229 495.256C139.815 495.013 140.317 494.601 140.669 494.073C141.022 493.545 141.211 492.924 141.211 492.289C141.211 491.438 140.872 490.621 140.27 490.019C139.668 489.417 138.851 489.079 138 489.079ZM165.289 489.079C164.654 489.079 164.034 489.267 163.506 489.62C162.978 489.973 162.566 490.474 162.323 491.061C162.08 491.648 162.017 492.293 162.141 492.916C162.265 493.539 162.57 494.111 163.019 494.56C163.468 495.009 164.04 495.314 164.663 495.438C165.286 495.562 165.931 495.499 166.518 495.256C167.105 495.013 167.606 494.601 167.959 494.073C168.312 493.545 168.5 492.924 168.5 492.289C168.5 491.438 168.162 490.621 167.56 490.019C166.958 489.417 166.141 489.079 165.289 489.079Z" fill="url(#paint11_linear_774_494)"/>
<path d="M188.5 438.312C188.5 439.324 188.902 440.293 189.617 441.008C190.332 441.723 191.301 442.125 192.312 442.125C193.324 442.125 194.293 441.723 195.008 441.008C195.723 440.293 196.125 439.324 196.125 438.312C196.125 437.301 195.723 436.332 195.008 435.617C194.293 434.902 193.324 434.5 192.312 434.5C191.301 434.5 190.332 434.902 189.617 435.617C188.902 436.332 188.5 437.301 188.5 438.312ZM215.188 438.312C215.188 439.324 215.589 440.293 216.304 441.008C217.019 441.723 217.989 442.125 219 442.125C220.011 442.125 220.981 441.723 221.696 441.008C222.411 440.293 222.812 439.324 222.812 438.312C222.812 437.301 222.411 436.332 221.696 435.617C220.981 434.902 220.011 434.5 219 434.5C217.989 434.5 217.019 434.902 216.304 435.617C215.589 436.332 215.188 437.301 215.188 438.312ZM241.875 438.312C241.875 439.324 242.277 440.293 242.992 441.008C243.707 441.723 244.676 442.125 245.688 442.125C246.699 442.125 247.668 441.723 248.383 441.008C249.098 440.293 249.5 439.324 249.5 438.312C249.5 437.301 249.098 436.332 248.383 435.617C247.668 434.902 246.699 434.5 245.688 434.5C244.676 434.5 243.707 434.902 242.992 435.617C242.277 436.332 241.875 437.301 241.875 438.312ZM188.5 465C188.5 466.011 188.902 466.981 189.617 467.696C190.332 468.411 191.301 468.812 192.312 468.812C193.324 468.812 194.293 468.411 195.008 467.696C195.723 466.981 196.125 466.011 196.125 465C196.125 463.989 195.723 463.019 195.008 462.304C194.293 461.589 193.324 461.188 192.312 461.188C191.301 461.188 190.332 461.589 189.617 462.304C188.902 463.019 188.5 463.989 188.5 465ZM215.188 465C215.188 466.011 215.589 466.981 216.304 467.696C217.019 468.411 217.989 468.812 219 468.812C220.011 468.812 220.981 468.411 221.696 467.696C222.411 466.981 222.812 466.011 222.812 465C222.812 463.989 222.411 463.019 221.696 462.304C220.981 461.589 220.011 461.188 219 461.188C217.989 461.188 217.019 461.589 216.304 462.304C215.589 463.019 215.188 463.989 215.188 465ZM241.875 465C241.875 466.011 242.277 466.981 242.992 467.696C243.707 468.411 244.676 468.812 245.688 468.812C246.699 468.812 247.668 468.411 248.383 467.696C249.098 466.981 249.5 466.011 249.5 465C249.5 463.989 249.098 463.019 248.383 462.304C247.668 461.589 246.699 461.188 245.688 461.188C244.676 461.188 243.707 461.589 242.992 462.304C242.277 463.019 241.875 463.989 241.875 465ZM188.5 491.688C188.5 492.699 188.902 493.668 189.617 494.383C190.332 495.098 191.301 495.5 192.312 495.5C193.324 495.5 194.293 495.098 195.008 494.383C195.723 493.668 196.125 492.699 196.125 491.688C196.125 490.676 195.723 489.707 195.008 488.992C194.293 488.277 193.324 487.875 192.312 487.875C191.301 487.875 190.332 488.277 189.617 488.992C188.902 489.707 188.5 490.676 188.5 491.688ZM215.188 491.688C215.188 492.699 215.589 493.668 216.304 494.383C217.019 495.098 217.989 495.5 219 495.5C220.011 495.5 220.981 495.098 221.696 494.383C222.411 493.668 222.812 492.699 222.812 491.688C222.812 490.676 222.411 489.707 221.696 488.992C220.981 488.277 220.011 487.875 219 487.875C217.989 487.875 217.019 488.277 216.304 488.992C215.589 489.707 215.188 490.676 215.188 491.688ZM241.875 491.688C241.875 492.699 242.277 493.668 242.992 494.383C243.707 495.098 244.676 495.5 245.688 495.5C246.699 495.5 247.668 495.098 248.383 494.383C249.098 493.668 249.5 492.699 249.5 491.688C249.5 490.676 249.098 489.707 248.383 488.992C247.668 488.277 246.699 487.875 245.688 487.875C244.676 487.875 243.707 488.277 242.992 488.992C242.277 489.707 241.875 490.676 241.875 491.688Z" stroke="url(#paint12_linear_774_494)" stroke-width="2" stroke-linecap="round" stroke-linejoin="round"/>
<path d="M275.921 437.711C275.921 438.346 275.733 438.966 275.38 439.494C275.027 440.022 274.526 440.434 273.939 440.677C273.352 440.92 272.707 440.983 272.084 440.859C271.461 440.735 270.889 440.43 270.44 439.981C269.991 439.532 269.686 438.96 269.562 438.337C269.438 437.714 269.501 437.069 269.744 436.482C269.987 435.895 270.399 435.394 270.927 435.041C271.455 434.688 272.076 434.5 272.711 434.5C273.562 434.5 274.379 434.838 274.981 435.44C275.583 436.042 275.921 436.859 275.921 437.711ZM300 434.5C299.365 434.5 298.744 434.688 298.216 435.041C297.688 435.394 297.277 435.895 297.034 436.482C296.791 437.069 296.727 437.714 296.851 438.337C296.975 438.96 297.281 439.532 297.73 439.981C298.179 440.43 298.751 440.735 299.374 440.859C299.996 440.983 300.642 440.92 301.229 440.677C301.815 440.434 302.317 440.022 302.669 439.494C303.022 438.966 303.211 438.346 303.211 437.711C303.211 436.859 302.872 436.042 302.27 435.44C301.668 434.838 300.851 434.5 300 434.5ZM327.289 440.921C327.924 440.921 328.545 440.733 329.073 440.38C329.601 440.027 330.013 439.526 330.256 438.939C330.499 438.352 330.562 437.707 330.438 437.084C330.314 436.461 330.009 435.889 329.56 435.44C329.111 434.991 328.539 434.686 327.916 434.562C327.293 434.438 326.648 434.501 326.061 434.744C325.474 434.987 324.973 435.399 324.62 435.927C324.267 436.455 324.079 437.076 324.079 437.711C324.079 438.562 324.417 439.379 325.019 439.981C325.621 440.583 326.438 440.921 327.289 440.921ZM272.711 461.789C272.076 461.789 271.455 461.978 270.927 462.331C270.399 462.683 269.987 463.185 269.744 463.771C269.501 464.358 269.438 465.004 269.562 465.626C269.686 466.249 269.991 466.821 270.44 467.27C270.889 467.719 271.461 468.025 272.084 468.149C272.707 468.273 273.352 468.209 273.939 467.966C274.526 467.723 275.027 467.312 275.38 466.784C275.733 466.256 275.921 465.635 275.921 465C275.921 464.149 275.583 463.332 274.981 462.73C274.379 462.128 273.562 461.789 272.711 461.789ZM300 461.789C299.365 461.789 298.744 461.978 298.216 462.331C297.688 462.683 297.277 463.185 297.034 463.771C296.791 464.358 296.727 465.004 296.851 465.626C296.975 466.249 297.281 466.821 297.73 467.27C298.179 467.719 298.751 468.025 299.374 468.149C299.996 468.273 300.642 468.209 301.229 467.966C301.815 467.723 302.317 467.312 302.669 466.784C303.022 466.256 303.211 465.635 303.211 465C303.211 464.149 302.872 463.332 302.27 462.73C301.668 462.128 300.851 461.789 300 461.789ZM327.289 461.789C326.654 461.789 326.034 461.978 325.506 462.331C324.978 462.683 324.566 463.185 324.323 463.771C324.08 464.358 324.017 465.004 324.141 465.626C324.265 466.249 324.57 466.821 325.019 467.27C325.468 467.719 326.04 468.025 326.663 468.149C327.286 468.273 327.931 468.209 328.518 467.966C329.105 467.723 329.606 467.312 329.959 466.784C330.312 466.256 330.5 465.635 330.5 465C330.5 464.149 330.162 463.332 329.56 462.73C328.958 462.128 328.141 461.789 327.289 461.789ZM272.711 489.079C272.076 489.079 271.455 489.267 270.927 489.62C270.399 489.973 269.987 490.474 269.744 491.061C269.501 491.648 269.438 492.293 269.562 492.916C269.686 493.539 269.991 494.111 270.44 494.56C270.889 495.009 271.461 495.314 272.084 495.438C272.707 495.562 273.352 495.499 273.939 495.256C274.526 495.013 275.027 494.601 275.38 494.073C275.733 493.545 275.921 492.924 275.921 492.289C275.921 491.438 275.583 490.621 274.981 490.019C274.379 489.417 273.562 489.079 272.711 489.079ZM300 489.079C299.365 489.079 298.744 489.267 298.216 489.62C297.688 489.973 297.277 490.474 297.034 491.061C296.791 491.648 296.727 492.293 296.851 492.916C296.975 493.539 297.281 494.111 297.73 494.56C298.179 495.009 298.751 495.314 299.374 495.438C299.996 495.562 300.642 495.499 301.229 495.256C301.815 495.013 302.317 494.601 302.669 494.073C303.022 493.545 303.211 492.924 303.211 492.289C303.211 491.438 302.872 490.621 302.27 490.019C301.668 489.417 300.851 489.079 300 489.079ZM327.289 489.079C326.654 489.079 326.034 489.267 325.506 489.62C324.978 489.973 324.566 490.474 324.323 491.061C324.08 491.648 324.017 492.293 324.141 492.916C324.265 493.539 324.57 494.111 325.019 494.56C325.468 495.009 326.04 495.314 326.663 495.438C327.286 495.562 327.931 495.499 328.518 495.256C329.105 495.013 329.606 494.601 329.959 494.073C330.312 493.545 330.5 492.924 330.5 492.289C330.5 491.438 330.162 490.621 329.56 490.019C328.958 489.417 328.141 489.079 327.289 489.079Z" fill="url(#paint13_linear_774_494)"/>
<path d="M356.921 437.711C356.921 438.346 356.733 438.966 356.38 439.494C356.027 440.022 355.526 440.434 354.939 440.677C354.352 440.92 353.707 440.983 353.084 440.859C352.461 440.735 351.889 440.43 351.44 439.981C350.991 439.532 350.686 438.96 350.562 438.337C350.438 437.714 350.501 437.069 350.744 436.482C350.987 435.895 351.399 435.394 351.927 435.041C352.455 434.688 353.076 434.5 353.711 434.5C354.562 434.5 355.379 434.838 355.981 435.44C356.583 436.042 356.921 436.859 356.921 437.711ZM381 434.5C380.365 434.5 379.744 434.688 379.216 435.041C378.688 435.394 378.277 435.895 378.034 436.482C377.791 437.069 377.727 437.714 377.851 438.337C377.975 438.96 378.281 439.532 378.73 439.981C379.179 440.43 379.751 440.735 380.374 440.859C380.996 440.983 381.642 440.92 382.229 440.677C382.815 440.434 383.317 440.022 383.669 439.494C384.022 438.966 384.211 438.346 384.211 437.711C384.211 436.859 383.872 436.042 383.27 435.44C382.668 434.838 381.851 434.5 381 434.5ZM408.289 440.921C408.924 440.921 409.545 440.733 410.073 440.38C410.601 440.027 411.013 439.526 411.256 438.939C411.499 438.352 411.562 437.707 411.438 437.084C411.314 436.461 411.009 435.889 410.56 435.44C410.111 434.991 409.539 434.686 408.916 434.562C408.293 434.438 407.648 434.501 407.061 434.744C406.474 434.987 405.973 435.399 405.62 435.927C405.267 436.455 405.079 437.076 405.079 437.711C405.079 438.562 405.417 439.379 406.019 439.981C406.621 440.583 407.438 440.921 408.289 440.921ZM353.711 461.789C353.076 461.789 352.455 461.978 351.927 462.331C351.399 462.683 350.987 463.185 350.744 463.771C350.501 464.358 350.438 465.004 350.562 465.626C350.686 466.249 350.991 466.821 351.44 467.27C351.889 467.719 352.461 468.025 353.084 468.149C353.707 468.273 354.352 468.209 354.939 467.966C355.526 467.723 356.027 467.312 356.38 466.784C356.733 466.256 356.921 465.635 356.921 465C356.921 464.149 356.583 463.332 355.981 462.73C355.379 462.128 354.562 461.789 353.711 461.789ZM381 461.789C380.365 461.789 379.744 461.978 379.216 462.331C378.688 462.683 378.277 463.185 378.034 463.771C377.791 464.358 377.727 465.004 377.851 465.626C377.975 466.249 378.281 466.821 378.73 467.27C379.179 467.719 379.751 468.025 380.374 468.149C380.996 468.273 381.642 468.209 382.229 467.966C382.815 467.723 383.317 467.312 383.669 466.784C384.022 466.256 384.211 465.635 384.211 465C384.211 464.149 383.872 463.332 383.27 462.73C382.668 462.128 381.851 461.789 381 461.789ZM408.289 461.789C407.654 461.789 407.034 461.978 406.506 462.331C405.978 462.683 405.566 463.185 405.323 463.771C405.08 464.358 405.017 465.004 405.141 465.626C405.265 466.249 405.57 466.821 406.019 467.27C406.468 467.719 407.04 468.025 407.663 468.149C408.286 468.273 408.931 468.209 409.518 467.966C410.105 467.723 410.606 467.312 410.959 466.784C411.312 466.256 411.5 465.635 411.5 465C411.5 464.149 411.162 463.332 410.56 462.73C409.958 462.128 409.141 461.789 408.289 461.789ZM353.711 489.079C353.076 489.079 352.455 489.267 351.927 489.62C351.399 489.973 350.987 490.474 350.744 491.061C350.501 491.648 350.438 492.293 350.562 492.916C350.686 493.539 350.991 494.111 351.44 494.56C351.889 495.009 352.461 495.314 353.084 495.438C353.707 495.562 354.352 495.499 354.939 495.256C355.526 495.013 356.027 494.601 356.38 494.073C356.733 493.545 356.921 492.924 356.921 492.289C356.921 491.438 356.583 490.621 355.981 490.019C355.379 489.417 354.562 489.079 353.711 489.079ZM381 489.079C380.365 489.079 379.744 489.267 379.216 489.62C378.688 489.973 378.277 490.474 378.034 491.061C377.791 491.648 377.727 492.293 377.851 492.916C377.975 493.539 378.281 494.111 378.73 494.56C379.179 495.009 379.751 495.314 380.374 495.438C380.996 495.562 381.642 495.499 382.229 495.256C382.815 495.013 383.317 494.601 383.669 494.073C384.022 493.545 384.211 492.924 384.211 492.289C384.211 491.438 383.872 490.621 383.27 490.019C382.668 489.417 381.851 489.079 381 489.079ZM408.289 489.079C407.654 489.079 407.034 489.267 406.506 489.62C405.978 489.973 405.566 490.474 405.323 491.061C405.08 491.648 405.017 492.293 405.141 492.916C405.265 493.539 405.57 494.111 406.019 494.56C406.468 495.009 407.04 495.314 407.663 495.438C408.286 495.562 408.931 495.499 409.518 495.256C410.105 495.013 410.606 494.601 410.959 494.073C411.312 493.545 411.5 492.924 411.5 492.289C411.5 491.438 411.162 490.621 410.56 490.019C409.958 489.417 409.141 489.079 408.289 489.079Z" fill="url(#paint14_linear_774_494)"/>
<path d="M194.921 508.711C194.921 509.346 194.733 509.966 194.38 510.494C194.027 511.022 193.526 511.434 192.939 511.677C192.352 511.92 191.707 511.983 191.084 511.859C190.461 511.735 189.889 511.43 189.44 510.981C188.991 510.532 188.686 509.96 188.562 509.337C188.438 508.714 188.501 508.069 188.744 507.482C188.987 506.895 189.399 506.394 189.927 506.041C190.455 505.688 191.076 505.5 191.711 505.5C192.562 505.5 193.379 505.838 193.981 506.44C194.583 507.042 194.921 507.859 194.921 508.711ZM219 505.5C218.365 505.5 217.744 505.688 217.216 506.041C216.688 506.394 216.277 506.895 216.034 507.482C215.791 508.069 215.727 508.714 215.851 509.337C215.975 509.96 216.281 510.532 216.73 510.981C217.179 511.43 217.751 511.735 218.374 511.859C218.996 511.983 219.642 511.92 220.229 511.677C220.815 511.434 221.317 511.022 221.669 510.494C222.022 509.966 222.211 509.346 222.211 508.711C222.211 507.859 221.872 507.042 221.27 506.44C220.668 505.838 219.851 505.5 219 505.5ZM246.289 511.921C246.924 511.921 247.545 511.733 248.073 511.38C248.601 511.027 249.013 510.526 249.256 509.939C249.499 509.352 249.562 508.707 249.438 508.084C249.314 507.461 249.009 506.889 248.56 506.44C248.111 505.991 247.539 505.686 246.916 505.562C246.293 505.438 245.648 505.501 245.061 505.744C244.474 505.987 243.973 506.399 243.62 506.927C243.267 507.455 243.079 508.076 243.079 508.711C243.079 509.562 243.417 510.379 244.019 510.981C244.621 511.583 245.438 511.921 246.289 511.921ZM191.711 532.789C191.076 532.789 190.455 532.978 189.927 533.331C189.399 533.683 188.987 534.185 188.744 534.771C188.501 535.358 188.438 536.004 188.562 536.626C188.686 537.249 188.991 537.821 189.44 538.27C189.889 538.719 190.461 539.025 191.084 539.149C191.707 539.273 192.352 539.209 192.939 538.966C193.526 538.723 194.027 538.312 194.38 537.784C194.733 537.256 194.921 536.635 194.921 536C194.921 535.149 194.583 534.332 193.981 533.73C193.379 533.128 192.562 532.789 191.711 532.789ZM219 532.789C218.365 532.789 217.744 532.978 217.216 533.331C216.688 533.683 216.277 534.185 216.034 534.771C215.791 535.358 215.727 536.004 215.851 536.626C215.975 537.249 216.281 537.821 216.73 538.27C217.179 538.719 217.751 539.025 218.374 539.149C218.996 539.273 219.642 539.209 220.229 538.966C220.815 538.723 221.317 538.312 221.669 537.784C222.022 537.256 222.211 536.635 222.211 536C222.211 535.149 221.872 534.332 221.27 533.73C220.668 533.128 219.851 532.789 219 532.789ZM246.289 532.789C245.654 532.789 245.034 532.978 244.506 533.331C243.978 533.683 243.566 534.185 243.323 534.771C243.08 535.358 243.017 536.004 243.141 536.626C243.265 537.249 243.57 537.821 244.019 538.27C244.468 538.719 245.04 539.025 245.663 539.149C246.286 539.273 246.931 539.209 247.518 538.966C248.105 538.723 248.606 538.312 248.959 537.784C249.312 537.256 249.5 536.635 249.5 536C249.5 535.149 249.162 534.332 248.56 533.73C247.958 533.128 247.141 532.789 246.289 532.789ZM191.711 560.079C191.076 560.079 190.455 560.267 189.927 560.62C189.399 560.973 188.987 561.474 188.744 562.061C188.501 562.648 188.438 563.293 188.562 563.916C188.686 564.539 188.991 565.111 189.44 565.56C189.889 566.009 190.461 566.314 191.084 566.438C191.707 566.562 192.352 566.499 192.939 566.256C193.526 566.013 194.027 565.601 194.38 565.073C194.733 564.545 194.921 563.924 194.921 563.289C194.921 562.438 194.583 561.621 193.981 561.019C193.379 560.417 192.562 560.079 191.711 560.079ZM219 560.079C218.365 560.079 217.744 560.267 217.216 560.62C216.688 560.973 216.277 561.474 216.034 562.061C215.791 562.648 215.727 563.293 215.851 563.916C215.975 564.539 216.281 565.111 216.73 565.56C217.179 566.009 217.751 566.314 218.374 566.438C218.996 566.562 219.642 566.499 220.229 566.256C220.815 566.013 221.317 565.601 221.669 565.073C222.022 564.545 222.211 563.924 222.211 563.289C222.211 562.438 221.872 561.621 221.27 561.019C220.668 560.417 219.851 560.079 219 560.079ZM246.289 560.079C245.654 560.079 245.034 560.267 244.506 560.62C243.978 560.973 243.566 561.474 243.323 562.061C243.08 562.648 243.017 563.293 243.141 563.916C243.265 564.539 243.57 565.111 244.019 565.56C244.468 566.009 245.04 566.314 245.663 566.438C246.286 566.562 246.931 566.499 247.518 566.256C248.105 566.013 248.606 565.601 248.959 565.073C249.312 564.545 249.5 563.924 249.5 563.289C249.5 562.438 249.162 561.621 248.56 561.019C247.958 560.417 247.141 560.079 246.289 560.079Z" fill="url(#paint15_linear_774_494)"/>
</g>
</g>
<defs>
<linearGradient id="paint0_linear_774_494" x1="57" y1="292.5" x2="57" y2="353.5" gradientUnits="userSpaceOnUse">
<stop offset="0.625" stop-color="#B9AA46"/>
<stop offset="1" stop-color="#B9AA46" stop-opacity="0.63"/>
</linearGradient>
<linearGradient id="paint1_linear_774_494" x1="138" y1="292.5" x2="138" y2="353.5" gradientUnits="userSpaceOnUse">
<stop offset="0.625" stop-color="#B9AA46"/>
<stop offset="1" stop-color="#B9AA46" stop-opacity="0.63"/>
</linearGradient>
<linearGradient id="paint2_linear_774_494" x1="219" y1="292.5" x2="219" y2="353.5" gradientUnits="userSpaceOnUse">
<stop offset="0.625" stop-color="#B9AA46"/>
<stop offset="1" stop-color="#B9AA46" stop-opacity="0.63"/>
</linearGradient>
<linearGradient id="paint3_linear_774_494" x1="300" y1="292.5" x2="300" y2="353.5" gradientUnits="userSpaceOnUse">
<stop offset="0.625" stop-color="#B9AA46"/>
<stop offset="1" stop-color="#B9AA46" stop-opacity="0.63"/>
</linearGradient>
<linearGradient id="paint4_linear_774_494" x1="381" y1="292.5" x2="381" y2="353.5" gradientUnits="userSpaceOnUse">
<stop offset="0.625" stop-color="#B9AA46"/>
<stop offset="1" stop-color="#B9AA46" stop-opacity="0.63"/>
</linearGradient>
<linearGradient id="paint5_linear_774_494" x1="57" y1="363.5" x2="57" y2="424.5" gradientUnits="userSpaceOnUse">
<stop offset="0.625" stop-color="#B9AA46"/>
<stop offset="1" stop-color="#B9AA46" stop-opacity="0.63"/>
</linearGradient>
<linearGradient id="paint6_linear_774_494" x1="138" y1="363.5" x2="138" y2="424.5" gradientUnits="userSpaceOnUse">
<stop offset="0.625" stop-color="#B9AA46"/>
<stop offset="1" stop-color="#B9AA46" stop-opacity="0.63"/>
</linearGradient>
<linearGradient id="paint7_linear_774_494" x1="219" y1="363.5" x2="219" y2="424.5" gradientUnits="userSpaceOnUse">
<stop offset="0.625" stop-color="#B9AA46"/>
<stop offset="1" stop-color="#B9AA46" stop-opacity="0.63"/>
</linearGradient>
<linearGradient id="paint8_linear_774_494" x1="300" y1="363.5" x2="300" y2="424.5" gradientUnits="userSpaceOnUse">
<stop offset="0.625" stop-color="#B9AA46"/>
<stop offset="1" stop-color="#B9AA46" stop-opacity="0.63"/>
</linearGradient>
<linearGradient id="paint9_linear_774_494" x1="381" y1="363.5" x2="381" y2="424.5" gradientUnits="userSpaceOnUse">
<stop offset="0.625" stop-color="#B9AA46"/>
<stop offset="1" stop-color="#B9AA46" stop-opacity="0.63"/>
</linearGradient>
<linearGradient id="paint10_linear_774_494" x1="57" y1="434.5" x2="57" y2="495.5" gradientUnits="userSpaceOnUse">
<stop offset="0.625" stop-color="#B9AA46"/>
<stop offset="1" stop-color="#B9AA46" stop-opacity="0.63"/>
</linearGradient>
<linearGradient id="paint11_linear_774_494" x1="138" y1="434.5" x2="138" y2="495.5" gradientUnits="userSpaceOnUse">
<stop offset="0.625" stop-color="#B9AA46"/>
<stop offset="1" stop-color="#B9AA46" stop-opacity="0.63"/>
</linearGradient>
<linearGradient id="paint12_linear_774_494" x1="219" y1="434.5" x2="219" y2="495.5" gradientUnits="userSpaceOnUse">
<stop offset="0.625" stop-color="#B9AA46"/>
<stop offset="1" stop-color="#B9AA46" stop-opacity="0.63"/>
</linearGradient>
<linearGradient id="paint13_linear_774_494" x1="300" y1="434.5" x2="300" y2="495.5" gradientUnits="userSpaceOnUse">
<stop offset="0.625" stop-color="#B9AA46"/>
<stop offset="1" stop-color="#B9AA46" stop-opacity="0.63"/>
</linearGradient>
<linearGradient id="paint14_linear_774_494" x1="381" y1="434.5" x2="381" y2="495.5" gradientUnits="userSpaceOnUse">
<stop offset="0.625" stop-color="#B9AA46"/>
<stop offset="1" stop-color="#B9AA46" stop-opacity="0.63"/>
</linearGradient>
<linearGradient id="paint15_linear_774_494" x1="219" y1="505.5" x2="219" y2="566.5" gradientUnits="userSpaceOnUse">
<stop offset="0.625" stop-color="#B9AA46"/>
<stop offset="1" stop-color="#B9AA46" stop-opacity="0.63"/>
</linearGradient>
<clipPath id="clip0_774_494">
<rect width="430" height="932" fill="white"/>
</clipPath>
</defs>
</svg>
